%TF.GenerationSoftware,KiCad,Pcbnew,(5.99.0-10369-gb59bf064b4)*%
%TF.CreationDate,2021-07-26T17:07:50+02:00*%
%TF.ProjectId,htssop24,68747373-6f70-4323-942e-6b696361645f,rev?*%
%TF.SameCoordinates,Original*%
%TF.FileFunction,Legend,Top*%
%TF.FilePolarity,Positive*%
%FSLAX46Y46*%
G04 Gerber Fmt 4.6, Leading zero omitted, Abs format (unit mm)*
G04 Created by KiCad (PCBNEW (5.99.0-10369-gb59bf064b4)) date 2021-07-26 17:07:50*
%MOMM*%
%LPD*%
G01*
G04 APERTURE LIST*
%ADD10C,0.150000*%
%ADD11C,0.100000*%
%ADD12C,0.120000*%
G04 APERTURE END LIST*
D10*
X19792857Y-15711904D02*
X19869047Y-15711904D01*
X19945238Y-15750000D01*
X19983333Y-15788095D01*
X20021428Y-15864285D01*
X20059523Y-16016666D01*
X20059523Y-16207142D01*
X20021428Y-16359523D01*
X19983333Y-16435714D01*
X19945238Y-16473809D01*
X19869047Y-16511904D01*
X19792857Y-16511904D01*
X19716666Y-16473809D01*
X19678571Y-16435714D01*
X19640476Y-16359523D01*
X19602380Y-16207142D01*
X19602380Y-16016666D01*
X19640476Y-15864285D01*
X19678571Y-15788095D01*
X19716666Y-15750000D01*
X19792857Y-15711904D01*
X20402380Y-16435714D02*
X20440476Y-16473809D01*
X20402380Y-16511904D01*
X20364285Y-16473809D01*
X20402380Y-16435714D01*
X20402380Y-16511904D01*
X21126190Y-15711904D02*
X20973809Y-15711904D01*
X20897619Y-15750000D01*
X20859523Y-15788095D01*
X20783333Y-15902380D01*
X20745238Y-16054761D01*
X20745238Y-16359523D01*
X20783333Y-16435714D01*
X20821428Y-16473809D01*
X20897619Y-16511904D01*
X21050000Y-16511904D01*
X21126190Y-16473809D01*
X21164285Y-16435714D01*
X21202380Y-16359523D01*
X21202380Y-16169047D01*
X21164285Y-16092857D01*
X21126190Y-16054761D01*
X21050000Y-16016666D01*
X20897619Y-16016666D01*
X20821428Y-16054761D01*
X20783333Y-16092857D01*
X20745238Y-16169047D01*
X21926190Y-15711904D02*
X21545238Y-15711904D01*
X21507142Y-16092857D01*
X21545238Y-16054761D01*
X21621428Y-16016666D01*
X21811904Y-16016666D01*
X21888095Y-16054761D01*
X21926190Y-16092857D01*
X21964285Y-16169047D01*
X21964285Y-16359523D01*
X21926190Y-16435714D01*
X21888095Y-16473809D01*
X21811904Y-16511904D01*
X21621428Y-16511904D01*
X21545238Y-16473809D01*
X21507142Y-16435714D01*
X22307142Y-16511904D02*
X22307142Y-15978571D01*
X22307142Y-16054761D02*
X22345238Y-16016666D01*
X22421428Y-15978571D01*
X22535714Y-15978571D01*
X22611904Y-16016666D01*
X22650000Y-16092857D01*
X22650000Y-16511904D01*
X22650000Y-16092857D02*
X22688095Y-16016666D01*
X22764285Y-15978571D01*
X22878571Y-15978571D01*
X22954761Y-16016666D01*
X22992857Y-16092857D01*
X22992857Y-16511904D01*
X23373809Y-16511904D02*
X23373809Y-15978571D01*
X23373809Y-16054761D02*
X23411904Y-16016666D01*
X23488095Y-15978571D01*
X23602380Y-15978571D01*
X23678571Y-16016666D01*
X23716666Y-16092857D01*
X23716666Y-16511904D01*
X23716666Y-16092857D02*
X23754761Y-16016666D01*
X23830952Y-15978571D01*
X23945238Y-15978571D01*
X24021428Y-16016666D01*
X24059523Y-16092857D01*
X24059523Y-16511904D01*
X17799999Y-14578571D02*
X17799999Y-15111904D01*
X17609523Y-14273809D02*
X17419047Y-14845238D01*
X17914285Y-14845238D01*
X18219047Y-15035714D02*
X18257142Y-15073809D01*
X18219047Y-15111904D01*
X18180952Y-15073809D01*
X18219047Y-15035714D01*
X18219047Y-15111904D01*
X18942857Y-14578571D02*
X18942857Y-15111904D01*
X18752380Y-14273809D02*
X18561904Y-14845238D01*
X19057142Y-14845238D01*
X19361904Y-15111904D02*
X19361904Y-14578571D01*
X19361904Y-14654761D02*
X19399999Y-14616666D01*
X19476190Y-14578571D01*
X19590476Y-14578571D01*
X19666666Y-14616666D01*
X19704761Y-14692857D01*
X19704761Y-15111904D01*
X19704761Y-14692857D02*
X19742857Y-14616666D01*
X19819047Y-14578571D01*
X19933333Y-14578571D01*
X20009523Y-14616666D01*
X20047619Y-14692857D01*
X20047619Y-15111904D01*
X20428571Y-15111904D02*
X20428571Y-14578571D01*
X20428571Y-14654761D02*
X20466666Y-14616666D01*
X20542857Y-14578571D01*
X20657142Y-14578571D01*
X20733333Y-14616666D01*
X20771428Y-14692857D01*
X20771428Y-15111904D01*
X20771428Y-14692857D02*
X20809523Y-14616666D01*
X20885714Y-14578571D01*
X20999999Y-14578571D01*
X21076190Y-14616666D01*
X21114285Y-14692857D01*
X21114285Y-15111904D01*
X21723809Y-14730952D02*
X21723809Y-14883333D01*
X21761904Y-14883333D02*
X21761904Y-14730952D01*
X21799999Y-14692857D02*
X21799999Y-14921428D01*
X21838095Y-14883333D02*
X21838095Y-14730952D01*
X21876190Y-14730952D02*
X21876190Y-14883333D01*
X21723809Y-14845238D02*
X21799999Y-14921428D01*
X21876190Y-14845238D01*
X21723809Y-14769047D02*
X21799999Y-14692857D01*
X21876190Y-14769047D01*
X21723809Y-14730952D02*
X21799999Y-14692857D01*
X21876190Y-14730952D01*
X21914285Y-14807142D01*
X21876190Y-14883333D01*
X21799999Y-14921428D01*
X21723809Y-14883333D01*
X21685714Y-14807142D01*
X21723809Y-14730952D01*
X22409523Y-14311904D02*
X22942857Y-14311904D01*
X22599999Y-15111904D01*
X23247619Y-15035714D02*
X23285714Y-15073809D01*
X23247619Y-15111904D01*
X23209523Y-15073809D01*
X23247619Y-15035714D01*
X23247619Y-15111904D01*
X23742857Y-14654761D02*
X23666666Y-14616666D01*
X23628571Y-14578571D01*
X23590476Y-14502380D01*
X23590476Y-14464285D01*
X23628571Y-14388095D01*
X23666666Y-14350000D01*
X23742857Y-14311904D01*
X23895238Y-14311904D01*
X23971428Y-14350000D01*
X24009523Y-14388095D01*
X24047619Y-14464285D01*
X24047619Y-14502380D01*
X24009523Y-14578571D01*
X23971428Y-14616666D01*
X23895238Y-14654761D01*
X23742857Y-14654761D01*
X23666666Y-14692857D01*
X23628571Y-14730952D01*
X23590476Y-14807142D01*
X23590476Y-14959523D01*
X23628571Y-15035714D01*
X23666666Y-15073809D01*
X23742857Y-15111904D01*
X23895238Y-15111904D01*
X23971428Y-15073809D01*
X24009523Y-15035714D01*
X24047619Y-14959523D01*
X24047619Y-14807142D01*
X24009523Y-14730952D01*
X23971428Y-14692857D01*
X23895238Y-14654761D01*
X24390476Y-15111904D02*
X24390476Y-14578571D01*
X24390476Y-14654761D02*
X24428571Y-14616666D01*
X24504761Y-14578571D01*
X24619047Y-14578571D01*
X24695238Y-14616666D01*
X24733333Y-14692857D01*
X24733333Y-15111904D01*
X24733333Y-14692857D02*
X24771428Y-14616666D01*
X24847619Y-14578571D01*
X24961904Y-14578571D01*
X25038095Y-14616666D01*
X25076190Y-14692857D01*
X25076190Y-15111904D01*
X25457142Y-15111904D02*
X25457142Y-14578571D01*
X25457142Y-14654761D02*
X25495238Y-14616666D01*
X25571428Y-14578571D01*
X25685714Y-14578571D01*
X25761904Y-14616666D01*
X25800000Y-14692857D01*
X25800000Y-15111904D01*
X25800000Y-14692857D02*
X25838095Y-14616666D01*
X25914285Y-14578571D01*
X26028571Y-14578571D01*
X26104761Y-14616666D01*
X26142857Y-14692857D01*
X26142857Y-15111904D01*
X17685714Y-13652380D02*
X17685714Y-12652380D01*
X17685714Y-13128571D02*
X18257142Y-13128571D01*
X18257142Y-13652380D02*
X18257142Y-12652380D01*
X18590476Y-12652380D02*
X19161904Y-12652380D01*
X18876190Y-13652380D02*
X18876190Y-12652380D01*
X19447619Y-13604761D02*
X19590476Y-13652380D01*
X19828571Y-13652380D01*
X19923809Y-13604761D01*
X19971428Y-13557142D01*
X20019047Y-13461904D01*
X20019047Y-13366666D01*
X19971428Y-13271428D01*
X19923809Y-13223809D01*
X19828571Y-13176190D01*
X19638095Y-13128571D01*
X19542857Y-13080952D01*
X19495238Y-13033333D01*
X19447619Y-12938095D01*
X19447619Y-12842857D01*
X19495238Y-12747619D01*
X19542857Y-12700000D01*
X19638095Y-12652380D01*
X19876190Y-12652380D01*
X20019047Y-12700000D01*
X20400000Y-13604761D02*
X20542857Y-13652380D01*
X20780952Y-13652380D01*
X20876190Y-13604761D01*
X20923809Y-13557142D01*
X20971428Y-13461904D01*
X20971428Y-13366666D01*
X20923809Y-13271428D01*
X20876190Y-13223809D01*
X20780952Y-13176190D01*
X20590476Y-13128571D01*
X20495238Y-13080952D01*
X20447619Y-13033333D01*
X20400000Y-12938095D01*
X20400000Y-12842857D01*
X20447619Y-12747619D01*
X20495238Y-12700000D01*
X20590476Y-12652380D01*
X20828571Y-12652380D01*
X20971428Y-12700000D01*
X21590476Y-12652380D02*
X21780952Y-12652380D01*
X21876190Y-12700000D01*
X21971428Y-12795238D01*
X22019047Y-12985714D01*
X22019047Y-13319047D01*
X21971428Y-13509523D01*
X21876190Y-13604761D01*
X21780952Y-13652380D01*
X21590476Y-13652380D01*
X21495238Y-13604761D01*
X21400000Y-13509523D01*
X21352380Y-13319047D01*
X21352380Y-12985714D01*
X21400000Y-12795238D01*
X21495238Y-12700000D01*
X21590476Y-12652380D01*
X22447619Y-13652380D02*
X22447619Y-12652380D01*
X22828571Y-12652380D01*
X22923809Y-12700000D01*
X22971428Y-12747619D01*
X23019047Y-12842857D01*
X23019047Y-12985714D01*
X22971428Y-13080952D01*
X22923809Y-13128571D01*
X22828571Y-13176190D01*
X22447619Y-13176190D01*
X23447619Y-13271428D02*
X24209523Y-13271428D01*
X24638095Y-12747619D02*
X24685714Y-12700000D01*
X24780952Y-12652380D01*
X25019047Y-12652380D01*
X25114285Y-12700000D01*
X25161904Y-12747619D01*
X25209523Y-12842857D01*
X25209523Y-12938095D01*
X25161904Y-13080952D01*
X24590476Y-13652380D01*
X25209523Y-13652380D01*
X26066666Y-12985714D02*
X26066666Y-13652380D01*
X25828571Y-12604761D02*
X25590476Y-13319047D01*
X26209523Y-13319047D01*
D11*
X16383333Y-42216666D02*
X16383333Y-41750000D01*
X16383333Y-41816666D02*
X16416666Y-41783333D01*
X16483333Y-41750000D01*
X16583333Y-41750000D01*
X16650000Y-41783333D01*
X16683333Y-41850000D01*
X16683333Y-42216666D01*
X16683333Y-41850000D02*
X16716666Y-41783333D01*
X16783333Y-41750000D01*
X16883333Y-41750000D01*
X16950000Y-41783333D01*
X16983333Y-41850000D01*
X16983333Y-42216666D01*
X17316666Y-41750000D02*
X17316666Y-42216666D01*
X17316666Y-41816666D02*
X17350000Y-41783333D01*
X17416666Y-41750000D01*
X17516666Y-41750000D01*
X17583333Y-41783333D01*
X17616666Y-41850000D01*
X17616666Y-42216666D01*
X18216666Y-42183333D02*
X18150000Y-42216666D01*
X18016666Y-42216666D01*
X17950000Y-42183333D01*
X17916666Y-42116666D01*
X17916666Y-41850000D01*
X17950000Y-41783333D01*
X18016666Y-41750000D01*
X18150000Y-41750000D01*
X18216666Y-41783333D01*
X18250000Y-41850000D01*
X18250000Y-41916666D01*
X17916666Y-41983333D01*
X18550000Y-42216666D02*
X18550000Y-41750000D01*
X18550000Y-41816666D02*
X18583333Y-41783333D01*
X18650000Y-41750000D01*
X18750000Y-41750000D01*
X18816666Y-41783333D01*
X18850000Y-41850000D01*
X18850000Y-42216666D01*
X18850000Y-41850000D02*
X18883333Y-41783333D01*
X18950000Y-41750000D01*
X19050000Y-41750000D01*
X19116666Y-41783333D01*
X19150000Y-41850000D01*
X19150000Y-42216666D01*
X19583333Y-42216666D02*
X19516666Y-42183333D01*
X19483333Y-42150000D01*
X19450000Y-42083333D01*
X19450000Y-41883333D01*
X19483333Y-41816666D01*
X19516666Y-41783333D01*
X19583333Y-41750000D01*
X19683333Y-41750000D01*
X19750000Y-41783333D01*
X19783333Y-41816666D01*
X19816666Y-41883333D01*
X19816666Y-42083333D01*
X19783333Y-42150000D01*
X19750000Y-42183333D01*
X19683333Y-42216666D01*
X19583333Y-42216666D01*
X20116666Y-41750000D02*
X20116666Y-42216666D01*
X20116666Y-41816666D02*
X20150000Y-41783333D01*
X20216666Y-41750000D01*
X20316666Y-41750000D01*
X20383333Y-41783333D01*
X20416666Y-41850000D01*
X20416666Y-42216666D01*
X20750000Y-42216666D02*
X20750000Y-41750000D01*
X20750000Y-41516666D02*
X20716666Y-41550000D01*
X20750000Y-41583333D01*
X20783333Y-41550000D01*
X20750000Y-41516666D01*
X20750000Y-41583333D01*
X21383333Y-42183333D02*
X21316666Y-42216666D01*
X21183333Y-42216666D01*
X21116666Y-42183333D01*
X21083333Y-42150000D01*
X21050000Y-42083333D01*
X21050000Y-41883333D01*
X21083333Y-41816666D01*
X21116666Y-41783333D01*
X21183333Y-41750000D01*
X21316666Y-41750000D01*
X21383333Y-41783333D01*
X21983333Y-42216666D02*
X21983333Y-41516666D01*
X21983333Y-42183333D02*
X21916666Y-42216666D01*
X21783333Y-42216666D01*
X21716666Y-42183333D01*
X21683333Y-42150000D01*
X21650000Y-42083333D01*
X21650000Y-41883333D01*
X21683333Y-41816666D01*
X21716666Y-41783333D01*
X21783333Y-41750000D01*
X21916666Y-41750000D01*
X21983333Y-41783333D01*
X22583333Y-42183333D02*
X22516666Y-42216666D01*
X22383333Y-42216666D01*
X22316666Y-42183333D01*
X22283333Y-42116666D01*
X22283333Y-41850000D01*
X22316666Y-41783333D01*
X22383333Y-41750000D01*
X22516666Y-41750000D01*
X22583333Y-41783333D01*
X22616666Y-41850000D01*
X22616666Y-41916666D01*
X22283333Y-41983333D01*
X22850000Y-41750000D02*
X23016666Y-42216666D01*
X23183333Y-41750000D01*
X23450000Y-42216666D02*
X23450000Y-41750000D01*
X23450000Y-41516666D02*
X23416666Y-41550000D01*
X23450000Y-41583333D01*
X23483333Y-41550000D01*
X23450000Y-41516666D01*
X23450000Y-41583333D01*
X24083333Y-42183333D02*
X24016666Y-42216666D01*
X23883333Y-42216666D01*
X23816666Y-42183333D01*
X23783333Y-42150000D01*
X23749999Y-42083333D01*
X23749999Y-41883333D01*
X23783333Y-41816666D01*
X23816666Y-41783333D01*
X23883333Y-41750000D01*
X24016666Y-41750000D01*
X24083333Y-41783333D01*
X24650000Y-42183333D02*
X24583333Y-42216666D01*
X24449999Y-42216666D01*
X24383333Y-42183333D01*
X24349999Y-42116666D01*
X24349999Y-41850000D01*
X24383333Y-41783333D01*
X24449999Y-41750000D01*
X24583333Y-41750000D01*
X24650000Y-41783333D01*
X24683333Y-41850000D01*
X24683333Y-41916666D01*
X24349999Y-41983333D01*
X24950000Y-42183333D02*
X25016666Y-42216666D01*
X25150000Y-42216666D01*
X25216666Y-42183333D01*
X25250000Y-42116666D01*
X25250000Y-42083333D01*
X25216666Y-42016666D01*
X25150000Y-41983333D01*
X25050000Y-41983333D01*
X24983333Y-41950000D01*
X24950000Y-41883333D01*
X24950000Y-41850000D01*
X24983333Y-41783333D01*
X25050000Y-41750000D01*
X25150000Y-41750000D01*
X25216666Y-41783333D01*
X25549999Y-42150000D02*
X25583333Y-42183333D01*
X25549999Y-42216666D01*
X25516666Y-42183333D01*
X25549999Y-42150000D01*
X25549999Y-42216666D01*
X25883333Y-42216666D02*
X25883333Y-41750000D01*
X25883333Y-41516666D02*
X25850000Y-41550000D01*
X25883333Y-41583333D01*
X25916666Y-41550000D01*
X25883333Y-41516666D01*
X25883333Y-41583333D01*
X26316666Y-42216666D02*
X26250000Y-42183333D01*
X26216666Y-42150000D01*
X26183333Y-42083333D01*
X26183333Y-41883333D01*
X26216666Y-41816666D01*
X26250000Y-41783333D01*
X26316666Y-41750000D01*
X26416666Y-41750000D01*
X26483333Y-41783333D01*
X26516666Y-41816666D01*
X26550000Y-41883333D01*
X26550000Y-42083333D01*
X26516666Y-42150000D01*
X26483333Y-42183333D01*
X26416666Y-42216666D01*
X26316666Y-42216666D01*
D10*
%TO.C,J1*%
X13566666Y-11022380D02*
X13566666Y-11736666D01*
X13519047Y-11879523D01*
X13423809Y-11974761D01*
X13280952Y-12022380D01*
X13185714Y-12022380D01*
X14566666Y-12022380D02*
X13995238Y-12022380D01*
X14280952Y-12022380D02*
X14280952Y-11022380D01*
X14185714Y-11165238D01*
X14090476Y-11260476D01*
X13995238Y-11308095D01*
X21366666Y-21202380D02*
X21366666Y-21916666D01*
X21319047Y-22059523D01*
X21223809Y-22154761D01*
X21080952Y-22202380D01*
X20985714Y-22202380D01*
X22366666Y-22202380D02*
X21795238Y-22202380D01*
X22080952Y-22202380D02*
X22080952Y-21202380D01*
X21985714Y-21345238D01*
X21890476Y-21440476D01*
X21795238Y-21488095D01*
%TO.C,J3*%
X29166666Y-11022380D02*
X29166666Y-11736666D01*
X29119047Y-11879523D01*
X29023809Y-11974761D01*
X28880952Y-12022380D01*
X28785714Y-12022380D01*
X29547619Y-11022380D02*
X30166666Y-11022380D01*
X29833333Y-11403333D01*
X29976190Y-11403333D01*
X30071428Y-11450952D01*
X30119047Y-11498571D01*
X30166666Y-11593809D01*
X30166666Y-11831904D01*
X30119047Y-11927142D01*
X30071428Y-11974761D01*
X29976190Y-12022380D01*
X29690476Y-12022380D01*
X29595238Y-11974761D01*
X29547619Y-11927142D01*
D12*
%TO.C,J1*%
X12570000Y-15170000D02*
X15230000Y-15170000D01*
X12570000Y-13900000D02*
X12570000Y-12570000D01*
X15230000Y-15170000D02*
X15230000Y-43170000D01*
X12570000Y-15170000D02*
X12570000Y-43170000D01*
X12570000Y-12570000D02*
X13900000Y-12570000D01*
X12570000Y-43170000D02*
X15230000Y-43170000D01*
X21700000Y-22865000D02*
X18050000Y-22865000D01*
X21700000Y-22865000D02*
X23900000Y-22865000D01*
X21700000Y-30935000D02*
X23900000Y-30935000D01*
X21700000Y-30935000D02*
X19500000Y-30935000D01*
%TO.C,J3*%
X28170000Y-13900000D02*
X28170000Y-12570000D01*
X28170000Y-15170000D02*
X30830000Y-15170000D01*
X28170000Y-12570000D02*
X29500000Y-12570000D01*
X30830000Y-15170000D02*
X30830000Y-43170000D01*
X28170000Y-15170000D02*
X28170000Y-43170000D01*
X28170000Y-43170000D02*
X30830000Y-43170000D01*
%TD*%
M02*
