%TF.GenerationSoftware,KiCad,Pcbnew,(5.99.0-10369-gb59bf064b4)*%
%TF.CreationDate,2021-07-26T17:07:50+02:00*%
%TF.ProjectId,htssop24,68747373-6f70-4323-942e-6b696361645f,rev?*%
%TF.SameCoordinates,Original*%
%TF.FileFunction,Soldermask,Top*%
%TF.FilePolarity,Negative*%
%FSLAX46Y46*%
G04 Gerber Fmt 4.6, Leading zero omitted, Abs format (unit mm)*
G04 Created by KiCad (PCBNEW (5.99.0-10369-gb59bf064b4)) date 2021-07-26 17:07:50*
%MOMM*%
%LPD*%
G01*
G04 APERTURE LIST*
G04 Aperture macros list*
%AMRoundRect*
0 Rectangle with rounded corners*
0 $1 Rounding radius*
0 $2 $3 $4 $5 $6 $7 $8 $9 X,Y pos of 4 corners*
0 Add a 4 corners polygon primitive as box body*
4,1,4,$2,$3,$4,$5,$6,$7,$8,$9,$2,$3,0*
0 Add four circle primitives for the rounded corners*
1,1,$1+$1,$2,$3*
1,1,$1+$1,$4,$5*
1,1,$1+$1,$6,$7*
1,1,$1+$1,$8,$9*
0 Add four rect primitives between the rounded corners*
20,1,$1+$1,$2,$3,$4,$5,0*
20,1,$1+$1,$4,$5,$6,$7,0*
20,1,$1+$1,$6,$7,$8,$9,0*
20,1,$1+$1,$8,$9,$2,$3,0*%
G04 Aperture macros list end*
%ADD10O,1.700000X1.700000*%
%ADD11R,1.700000X1.700000*%
%ADD12RoundRect,0.100000X-0.675000X-0.100000X0.675000X-0.100000X0.675000X0.100000X-0.675000X0.100000X0*%
%ADD13R,3.200000X5.000000*%
G04 APERTURE END LIST*
D10*
%TO.C,J1*%
X13900000Y-41840000D03*
X13900000Y-39300000D03*
X13900000Y-36760000D03*
X13900000Y-34220000D03*
X13900000Y-31680000D03*
X13900000Y-29140000D03*
X13900000Y-26600000D03*
X13900000Y-24060000D03*
X13900000Y-21520000D03*
X13900000Y-18980000D03*
X13900000Y-16440000D03*
D11*
X13900000Y-13900000D03*
%TD*%
D12*
%TO.C,J1*%
X18825000Y-23325000D03*
X18825000Y-23975000D03*
X18825000Y-24625000D03*
X18825000Y-25275000D03*
X18825000Y-25925000D03*
X18825000Y-26575000D03*
X18825000Y-27225000D03*
X18825000Y-27875000D03*
X18825000Y-28525000D03*
X18825000Y-29175000D03*
X18825000Y-29825000D03*
X18825000Y-30475000D03*
X24575000Y-30475000D03*
X24575000Y-29825000D03*
X24575000Y-29175000D03*
X24575000Y-28525000D03*
X24575000Y-27875000D03*
X24575000Y-27225000D03*
X24575000Y-26575000D03*
X24575000Y-25925000D03*
X24575000Y-25275000D03*
X24575000Y-24625000D03*
X24575000Y-23975000D03*
X24575000Y-23325000D03*
D13*
X21700000Y-26900000D03*
%TD*%
D11*
%TO.C,J3*%
X29500000Y-13900000D03*
D10*
X29500000Y-16440000D03*
X29500000Y-18980000D03*
X29500000Y-21520000D03*
X29500000Y-24060000D03*
X29500000Y-26600000D03*
X29500000Y-29140000D03*
X29500000Y-31680000D03*
X29500000Y-34220000D03*
X29500000Y-36760000D03*
X29500000Y-39300000D03*
X29500000Y-41840000D03*
%TD*%
M02*
