M48
; DRILL file {KiCad (5.99.0-10369-gb59bf064b4)} date Monday, July 26, 2021 at 05:07:57 PM
; FORMAT={-:-/ absolute / inch / decimal}
; #@! TF.CreationDate,2021-07-26T17:07:57+02:00
; #@! TF.GenerationSoftware,Kicad,Pcbnew,(5.99.0-10369-gb59bf064b4)
; #@! TF.FileFunction,Plated,1,2,PTH
FMAT,2
INCH
; #@! TA.AperFunction,Plated,PTH,ComponentDrill
T1C0.0394
%
G90
G05
T1
X0.5472Y-0.5472
X0.5472Y-0.6472
X0.5472Y-0.7472
X0.5472Y-0.8472
X0.5472Y-0.9472
X0.5472Y-1.0472
X0.5472Y-1.1472
X0.5472Y-1.2472
X0.5472Y-1.3472
X0.5472Y-1.4472
X0.5472Y-1.5472
X0.5472Y-1.6472
X1.1614Y-0.5472
X1.1614Y-0.6472
X1.1614Y-0.7472
X1.1614Y-0.8472
X1.1614Y-0.9472
X1.1614Y-1.0472
X1.1614Y-1.1472
X1.1614Y-1.2472
X1.1614Y-1.3472
X1.1614Y-1.4472
X1.1614Y-1.5472
X1.1614Y-1.6472
T0
M30
