%TF.GenerationSoftware,KiCad,Pcbnew,(5.99.0-10369-gb59bf064b4)*%
%TF.CreationDate,2021-07-27T07:29:01+02:00*%
%TF.ProjectId,stm32h7,73746d33-3268-4372-9e6b-696361645f70,rev?*%
%TF.SameCoordinates,Original*%
%TF.FileFunction,Soldermask,Bot*%
%TF.FilePolarity,Negative*%
%FSLAX46Y46*%
G04 Gerber Fmt 4.6, Leading zero omitted, Abs format (unit mm)*
G04 Created by KiCad (PCBNEW (5.99.0-10369-gb59bf064b4)) date 2021-07-27 07:29:01*
%MOMM*%
%LPD*%
G01*
G04 APERTURE LIST*
G04 Aperture macros list*
%AMRoundRect*
0 Rectangle with rounded corners*
0 $1 Rounding radius*
0 $2 $3 $4 $5 $6 $7 $8 $9 X,Y pos of 4 corners*
0 Add a 4 corners polygon primitive as box body*
4,1,4,$2,$3,$4,$5,$6,$7,$8,$9,$2,$3,0*
0 Add four circle primitives for the rounded corners*
1,1,$1+$1,$2,$3*
1,1,$1+$1,$4,$5*
1,1,$1+$1,$6,$7*
1,1,$1+$1,$8,$9*
0 Add four rect primitives between the rounded corners*
20,1,$1+$1,$2,$3,$4,$5,0*
20,1,$1+$1,$4,$5,$6,$7,0*
20,1,$1+$1,$6,$7,$8,$9,0*
20,1,$1+$1,$8,$9,$2,$3,0*%
%AMHorizOval*
0 Thick line with rounded ends*
0 $1 width*
0 $2 $3 position (X,Y) of the first rounded end (center of the circle)*
0 $4 $5 position (X,Y) of the second rounded end (center of the circle)*
0 Add line between two ends*
20,1,$1,$2,$3,$4,$5,0*
0 Add two circle primitives to create the rounded ends*
1,1,$1,$2,$3*
1,1,$1,$4,$5*%
%AMRotRect*
0 Rectangle, with rotation*
0 The origin of the aperture is its center*
0 $1 length*
0 $2 width*
0 $3 Rotation angle, in degrees counterclockwise*
0 Add horizontal line*
21,1,$1,$2,0,0,$3*%
G04 Aperture macros list end*
%ADD10R,1.350000X1.350000*%
%ADD11O,1.350000X1.350000*%
%ADD12RotRect,1.700000X1.700000X45.000000*%
%ADD13HorizOval,1.700000X0.000000X0.000000X0.000000X0.000000X0*%
%ADD14RotRect,1.350000X1.350000X135.000000*%
%ADD15HorizOval,1.350000X0.000000X0.000000X0.000000X0.000000X0*%
%ADD16RoundRect,0.200000X0.200000X0.275000X-0.200000X0.275000X-0.200000X-0.275000X0.200000X-0.275000X0*%
%ADD17RoundRect,0.225000X-0.225000X-0.250000X0.225000X-0.250000X0.225000X0.250000X-0.225000X0.250000X0*%
%ADD18RoundRect,0.225000X0.250000X-0.225000X0.250000X0.225000X-0.250000X0.225000X-0.250000X-0.225000X0*%
%ADD19RoundRect,0.225000X0.225000X0.250000X-0.225000X0.250000X-0.225000X-0.250000X0.225000X-0.250000X0*%
%ADD20RoundRect,0.225000X-0.250000X0.225000X-0.250000X-0.225000X0.250000X-0.225000X0.250000X0.225000X0*%
%ADD21RoundRect,0.200000X0.275000X-0.200000X0.275000X0.200000X-0.275000X0.200000X-0.275000X-0.200000X0*%
%ADD22RoundRect,0.140000X0.140000X0.170000X-0.140000X0.170000X-0.140000X-0.170000X0.140000X-0.170000X0*%
%ADD23R,3.325000X2.400000*%
%ADD24RoundRect,0.140000X-0.140000X-0.170000X0.140000X-0.170000X0.140000X0.170000X-0.140000X0.170000X0*%
G04 APERTURE END LIST*
D10*
%TO.C,J3*%
X57550000Y-52550000D03*
D11*
X55550000Y-52550000D03*
X57550000Y-50550000D03*
X55550000Y-50550000D03*
X57550000Y-48550000D03*
X55550000Y-48550000D03*
X57550000Y-46550000D03*
X55550000Y-46550000D03*
X57550000Y-44550000D03*
X55550000Y-44550000D03*
X57550000Y-42550000D03*
X55550000Y-42550000D03*
X57550000Y-40550000D03*
X55550000Y-40550000D03*
X57550000Y-38550000D03*
X55550000Y-38550000D03*
X57550000Y-36550000D03*
X55550000Y-36550000D03*
X57550000Y-34550000D03*
X55550000Y-34550000D03*
X57550000Y-32550000D03*
X55550000Y-32550000D03*
X57550000Y-30550000D03*
X55550000Y-30550000D03*
X57550000Y-28550000D03*
X55550000Y-28550000D03*
X57550000Y-26550000D03*
X55550000Y-26550000D03*
X57550000Y-24550000D03*
X55550000Y-24550000D03*
X57550000Y-22550000D03*
X55550000Y-22550000D03*
X57550000Y-20550000D03*
X55550000Y-20550000D03*
X57550000Y-18550000D03*
X55550000Y-18550000D03*
%TD*%
D10*
%TO.C,J2*%
X18590000Y-57550000D03*
D11*
X18590000Y-55550000D03*
X20590000Y-57550000D03*
X20590000Y-55550000D03*
X22590000Y-57550000D03*
X22590000Y-55550000D03*
X24590000Y-57550000D03*
X24590000Y-55550000D03*
X26590000Y-57550000D03*
X26590000Y-55550000D03*
X28590000Y-57550000D03*
X28590000Y-55550000D03*
X30590000Y-57550000D03*
X30590000Y-55550000D03*
X32590000Y-57550000D03*
X32590000Y-55550000D03*
X34590000Y-57550000D03*
X34590000Y-55550000D03*
X36590000Y-57550000D03*
X36590000Y-55550000D03*
X38590000Y-57550000D03*
X38590000Y-55550000D03*
X40590000Y-57550000D03*
X40590000Y-55550000D03*
X42590000Y-57550000D03*
X42590000Y-55550000D03*
X44590000Y-57550000D03*
X44590000Y-55550000D03*
X46590000Y-57550000D03*
X46590000Y-55550000D03*
X48590000Y-57550000D03*
X48590000Y-55550000D03*
X50590000Y-57550000D03*
X50590000Y-55550000D03*
X52590000Y-57550000D03*
X52590000Y-55550000D03*
%TD*%
D12*
%TO.C,SW1*%
X46350000Y-47300000D03*
D13*
X48146051Y-49096051D03*
X49942102Y-50892102D03*
%TD*%
D10*
%TO.C,J4*%
X52550000Y-13550000D03*
D11*
X52550000Y-15550000D03*
X50550000Y-13550000D03*
X50550000Y-15550000D03*
X48550000Y-13550000D03*
X48550000Y-15550000D03*
X46550000Y-13550000D03*
X46550000Y-15550000D03*
X44550000Y-13550000D03*
X44550000Y-15550000D03*
X42550000Y-13550000D03*
X42550000Y-15550000D03*
X40550000Y-13550000D03*
X40550000Y-15550000D03*
X38550000Y-13550000D03*
X38550000Y-15550000D03*
X36550000Y-13550000D03*
X36550000Y-15550000D03*
X34550000Y-13550000D03*
X34550000Y-15550000D03*
X32550000Y-13550000D03*
X32550000Y-15550000D03*
X30550000Y-13550000D03*
X30550000Y-15550000D03*
X28550000Y-13550000D03*
X28550000Y-15550000D03*
X26550000Y-13550000D03*
X26550000Y-15550000D03*
X24550000Y-13550000D03*
X24550000Y-15550000D03*
X22550000Y-13550000D03*
X22550000Y-15550000D03*
X20550000Y-13550000D03*
X20550000Y-15550000D03*
X18550000Y-13550000D03*
X18550000Y-15550000D03*
%TD*%
D14*
%TO.C,J5*%
X18621573Y-52078428D03*
D15*
X20035787Y-50664214D03*
X21450000Y-49250001D03*
X22864214Y-47835787D03*
X24278427Y-46421574D03*
%TD*%
D10*
%TO.C,J1*%
X13600000Y-18550000D03*
D11*
X15600000Y-18550000D03*
X13600000Y-20550000D03*
X15600000Y-20550000D03*
X13600000Y-22550000D03*
X15600000Y-22550000D03*
X13600000Y-24550000D03*
X15600000Y-24550000D03*
X13600000Y-26550000D03*
X15600000Y-26550000D03*
X13600000Y-28550000D03*
X15600000Y-28550000D03*
X13600000Y-30550000D03*
X15600000Y-30550000D03*
X13600000Y-32550000D03*
X15600000Y-32550000D03*
X13600000Y-34550000D03*
X15600000Y-34550000D03*
X13600000Y-36550000D03*
X15600000Y-36550000D03*
X13600000Y-38550000D03*
X15600000Y-38550000D03*
X13600000Y-40550000D03*
X15600000Y-40550000D03*
X13600000Y-42550000D03*
X15600000Y-42550000D03*
X13600000Y-44550000D03*
X15600000Y-44550000D03*
X13600000Y-46550000D03*
X15600000Y-46550000D03*
X13600000Y-48550000D03*
X15600000Y-48550000D03*
X13600000Y-50550000D03*
X15600000Y-50550000D03*
X13600000Y-52550000D03*
X15600000Y-52550000D03*
%TD*%
D16*
%TO.C,R1*%
X31425000Y-32050000D03*
X29775000Y-32050000D03*
%TD*%
%TO.C,R2*%
X39425000Y-32050000D03*
X37775000Y-32050000D03*
%TD*%
D17*
%TO.C,C10*%
X40975000Y-25950000D03*
X42525000Y-25950000D03*
%TD*%
D18*
%TO.C,C12*%
X19950000Y-42450000D03*
X19950000Y-40900000D03*
%TD*%
D19*
%TO.C,C16*%
X36875000Y-43300000D03*
X35325000Y-43300000D03*
%TD*%
%TO.C,C17*%
X41375000Y-41600000D03*
X39825000Y-41600000D03*
%TD*%
D17*
%TO.C,C7*%
X27125000Y-25950000D03*
X28675000Y-25950000D03*
%TD*%
D20*
%TO.C,C18*%
X44050000Y-31325000D03*
X44050000Y-32875000D03*
%TD*%
%TO.C,C1*%
X47500000Y-24625000D03*
X47500000Y-26175000D03*
%TD*%
D21*
%TO.C,R3*%
X26550000Y-37025000D03*
X26550000Y-35375000D03*
%TD*%
D22*
%TO.C,C4*%
X35480000Y-33350000D03*
X34520000Y-33350000D03*
%TD*%
D17*
%TO.C,C14*%
X27275000Y-43200000D03*
X28825000Y-43200000D03*
%TD*%
%TO.C,C3*%
X37175000Y-26000000D03*
X38725000Y-26000000D03*
%TD*%
D23*
%TO.C,Y1*%
X35762500Y-39450000D03*
X30237500Y-39450000D03*
%TD*%
D24*
%TO.C,C2*%
X29270000Y-41900000D03*
X30230000Y-41900000D03*
%TD*%
D18*
%TO.C,C13*%
X21750000Y-42450000D03*
X21750000Y-40900000D03*
%TD*%
D20*
%TO.C,C15*%
X44050000Y-37175000D03*
X44050000Y-38725000D03*
%TD*%
D17*
%TO.C,C9*%
X32325000Y-26000000D03*
X33875000Y-26000000D03*
%TD*%
D20*
%TO.C,C6*%
X26400000Y-39825000D03*
X26400000Y-41375000D03*
%TD*%
D18*
%TO.C,C5*%
X26550000Y-33875000D03*
X26550000Y-32325000D03*
%TD*%
D17*
%TO.C,C8*%
X39825000Y-43100000D03*
X41375000Y-43100000D03*
%TD*%
D20*
%TO.C,C11*%
X26550000Y-28925000D03*
X26550000Y-30475000D03*
%TD*%
M02*
