%TF.GenerationSoftware,KiCad,Pcbnew,(5.99.0-10369-gb59bf064b4)*%
%TF.CreationDate,2021-07-27T07:29:01+02:00*%
%TF.ProjectId,stm32h7,73746d33-3268-4372-9e6b-696361645f70,rev?*%
%TF.SameCoordinates,Original*%
%TF.FileFunction,Copper,L2,Inr*%
%TF.FilePolarity,Positive*%
%FSLAX46Y46*%
G04 Gerber Fmt 4.6, Leading zero omitted, Abs format (unit mm)*
G04 Created by KiCad (PCBNEW (5.99.0-10369-gb59bf064b4)) date 2021-07-27 07:29:01*
%MOMM*%
%LPD*%
G01*
G04 APERTURE LIST*
G04 Aperture macros list*
%AMHorizOval*
0 Thick line with rounded ends*
0 $1 width*
0 $2 $3 position (X,Y) of the first rounded end (center of the circle)*
0 $4 $5 position (X,Y) of the second rounded end (center of the circle)*
0 Add line between two ends*
20,1,$1,$2,$3,$4,$5,0*
0 Add two circle primitives to create the rounded ends*
1,1,$1,$2,$3*
1,1,$1,$4,$5*%
%AMRotRect*
0 Rectangle, with rotation*
0 The origin of the aperture is its center*
0 $1 length*
0 $2 width*
0 $3 Rotation angle, in degrees counterclockwise*
0 Add horizontal line*
21,1,$1,$2,0,0,$3*%
G04 Aperture macros list end*
%TA.AperFunction,ComponentPad*%
%ADD10R,1.350000X1.350000*%
%TD*%
%TA.AperFunction,ComponentPad*%
%ADD11O,1.350000X1.350000*%
%TD*%
%TA.AperFunction,ComponentPad*%
%ADD12RotRect,1.700000X1.700000X45.000000*%
%TD*%
%TA.AperFunction,ComponentPad*%
%ADD13HorizOval,1.700000X0.000000X0.000000X0.000000X0.000000X0*%
%TD*%
%TA.AperFunction,ComponentPad*%
%ADD14RotRect,1.350000X1.350000X135.000000*%
%TD*%
%TA.AperFunction,ComponentPad*%
%ADD15HorizOval,1.350000X0.000000X0.000000X0.000000X0.000000X0*%
%TD*%
%TA.AperFunction,ViaPad*%
%ADD16C,0.800000*%
%TD*%
%TA.AperFunction,Conductor*%
%ADD17C,0.250000*%
%TD*%
G04 APERTURE END LIST*
D10*
%TO.N,73*%
%TO.C,J3*%
X57550000Y-52550000D03*
D11*
%TO.N,74*%
X55550000Y-52550000D03*
%TO.N,75*%
X57550000Y-50550000D03*
%TO.N,76*%
X55550000Y-50550000D03*
%TO.N,77*%
X57550000Y-48550000D03*
%TO.N,78*%
X55550000Y-48550000D03*
%TO.N,79*%
X57550000Y-46550000D03*
%TO.N,80*%
X55550000Y-46550000D03*
%TO.N,81*%
X57550000Y-44550000D03*
%TO.N,82*%
X55550000Y-44550000D03*
%TO.N,GND*%
X57550000Y-42550000D03*
X55550000Y-42550000D03*
%TO.N,85*%
X57550000Y-40550000D03*
%TO.N,86*%
X55550000Y-40550000D03*
%TO.N,87*%
X57550000Y-38550000D03*
%TO.N,88*%
X55550000Y-38550000D03*
%TO.N,89*%
X57550000Y-36550000D03*
%TO.N,90*%
X55550000Y-36550000D03*
%TO.N,91*%
X57550000Y-34550000D03*
%TO.N,92*%
X55550000Y-34550000D03*
%TO.N,93*%
X57550000Y-32550000D03*
%TO.N,GND*%
X55550000Y-32550000D03*
X57550000Y-30550000D03*
%TO.N,96*%
X55550000Y-30550000D03*
%TO.N,97*%
X57550000Y-28550000D03*
%TO.N,98*%
X55550000Y-28550000D03*
%TO.N,99*%
X57550000Y-26550000D03*
%TO.N,100*%
X55550000Y-26550000D03*
%TO.N,101*%
X57550000Y-24550000D03*
%TO.N,102*%
X55550000Y-24550000D03*
%TO.N,103*%
X57550000Y-22550000D03*
%TO.N,104*%
X55550000Y-22550000D03*
%TO.N,105*%
X57550000Y-20550000D03*
%TO.N,GND*%
X55550000Y-20550000D03*
X57550000Y-18550000D03*
X55550000Y-18550000D03*
%TD*%
D10*
%TO.N,37*%
%TO.C,J2*%
X18590000Y-57550000D03*
D11*
%TO.N,+3.3VA*%
X18590000Y-55550000D03*
X20590000Y-57550000D03*
%TO.N,40*%
X20590000Y-55550000D03*
%TO.N,41*%
X22590000Y-57550000D03*
%TO.N,42*%
X22590000Y-55550000D03*
%TO.N,43*%
X24590000Y-57550000D03*
%TO.N,44*%
X24590000Y-55550000D03*
%TO.N,45*%
X26590000Y-57550000D03*
%TO.N,46*%
X26590000Y-55550000D03*
%TO.N,47*%
X28590000Y-57550000D03*
%TO.N,48*%
X28590000Y-55550000D03*
%TO.N,49*%
X30590000Y-57550000D03*
%TO.N,50*%
X30590000Y-55550000D03*
%TO.N,+3V3*%
X32590000Y-57550000D03*
X32590000Y-55550000D03*
%TO.N,53*%
X34590000Y-57550000D03*
%TO.N,54*%
X34590000Y-55550000D03*
%TO.N,55*%
X36590000Y-57550000D03*
%TO.N,56*%
X36590000Y-55550000D03*
%TO.N,57*%
X38590000Y-57550000D03*
%TO.N,58*%
X38590000Y-55550000D03*
%TO.N,59*%
X40590000Y-57550000D03*
%TO.N,60*%
X40590000Y-55550000D03*
%TO.N,GND*%
X42590000Y-57550000D03*
X42590000Y-55550000D03*
%TO.N,63*%
X44590000Y-57550000D03*
%TO.N,64*%
X44590000Y-55550000D03*
%TO.N,65*%
X46590000Y-57550000D03*
%TO.N,66*%
X46590000Y-55550000D03*
%TO.N,67*%
X48590000Y-57550000D03*
%TO.N,68*%
X48590000Y-55550000D03*
%TO.N,69*%
X50590000Y-57550000D03*
%TO.N,70*%
X50590000Y-55550000D03*
%TO.N,GND*%
X52590000Y-57550000D03*
X52590000Y-55550000D03*
%TD*%
D12*
%TO.N,+3V3*%
%TO.C,SW1*%
X46350000Y-47300000D03*
D13*
%TO.N,Net-(R2-Pad1)*%
X48146051Y-49096051D03*
%TO.N,GND*%
X49942102Y-50892102D03*
%TD*%
D10*
%TO.N,109*%
%TO.C,J4*%
X52550000Y-13550000D03*
D11*
%TO.N,110*%
X52550000Y-15550000D03*
%TO.N,111*%
X50550000Y-13550000D03*
%TO.N,112*%
X50550000Y-15550000D03*
%TO.N,113*%
X48550000Y-13550000D03*
%TO.N,114*%
X48550000Y-15550000D03*
%TO.N,115*%
X46550000Y-13550000D03*
%TO.N,116*%
X46550000Y-15550000D03*
%TO.N,117*%
X44550000Y-13550000D03*
%TO.N,118*%
X44550000Y-15550000D03*
%TO.N,119*%
X42550000Y-13550000D03*
%TO.N,+3V3*%
X42550000Y-15550000D03*
X40550000Y-13550000D03*
%TO.N,122*%
X40550000Y-15550000D03*
%TO.N,123*%
X38550000Y-13550000D03*
%TO.N,124*%
X38550000Y-15550000D03*
%TO.N,125*%
X36550000Y-13550000D03*
%TO.N,126*%
X36550000Y-15550000D03*
%TO.N,127*%
X34550000Y-13550000D03*
%TO.N,128*%
X34550000Y-15550000D03*
%TO.N,129*%
X32550000Y-13550000D03*
%TO.N,GND*%
X32550000Y-15550000D03*
X30550000Y-13550000D03*
%TO.N,132*%
X30550000Y-15550000D03*
%TO.N,133*%
X28550000Y-13550000D03*
%TO.N,134*%
X28550000Y-15550000D03*
%TO.N,135*%
X26550000Y-13550000D03*
%TO.N,136*%
X26550000Y-15550000D03*
%TO.N,137*%
X24550000Y-13550000D03*
%TO.N,GND*%
X24550000Y-15550000D03*
%TO.N,139*%
X22550000Y-13550000D03*
%TO.N,140*%
X22550000Y-15550000D03*
%TO.N,141*%
X20550000Y-13550000D03*
%TO.N,142*%
X20550000Y-15550000D03*
%TO.N,+3.3VA*%
X18550000Y-13550000D03*
X18550000Y-15550000D03*
%TD*%
D14*
%TO.N,105*%
%TO.C,J5*%
X18621573Y-52078428D03*
D15*
%TO.N,109*%
X20035787Y-50664214D03*
%TO.N,133*%
X21450000Y-49250001D03*
%TO.N,110*%
X22864214Y-47835787D03*
%TO.N,134*%
X24278427Y-46421574D03*
%TD*%
D10*
%TO.N,1*%
%TO.C,J1*%
X13600000Y-18550000D03*
D11*
%TO.N,2*%
X15600000Y-18550000D03*
%TO.N,3*%
X13600000Y-20550000D03*
%TO.N,4*%
X15600000Y-20550000D03*
%TO.N,5*%
X13600000Y-22550000D03*
%TO.N,GND*%
X15600000Y-22550000D03*
%TO.N,7*%
X13600000Y-24550000D03*
%TO.N,+3V3*%
X15600000Y-24550000D03*
%TO.N,GND*%
X13600000Y-26550000D03*
%TO.N,10*%
X15600000Y-26550000D03*
%TO.N,11*%
X13600000Y-28550000D03*
%TO.N,12*%
X15600000Y-28550000D03*
%TO.N,13*%
X13600000Y-30550000D03*
%TO.N,14*%
X15600000Y-30550000D03*
%TO.N,15*%
X13600000Y-32550000D03*
%TO.N,GND*%
X15600000Y-32550000D03*
X13600000Y-34550000D03*
%TO.N,18*%
X15600000Y-34550000D03*
%TO.N,19*%
X13600000Y-36550000D03*
%TO.N,20*%
X15600000Y-36550000D03*
%TO.N,21*%
X13600000Y-38550000D03*
%TO.N,22*%
X15600000Y-38550000D03*
%TO.N,23*%
X13600000Y-40550000D03*
%TO.N,24*%
X15600000Y-40550000D03*
%TO.N,25*%
X13600000Y-42550000D03*
%TO.N,26*%
X15600000Y-42550000D03*
%TO.N,27*%
X13600000Y-44550000D03*
%TO.N,28*%
X15600000Y-44550000D03*
%TO.N,29*%
X13600000Y-46550000D03*
%TO.N,+3V3*%
X15600000Y-46550000D03*
X13600000Y-48550000D03*
%TO.N,GND*%
X15600000Y-48550000D03*
X13600000Y-50550000D03*
%TO.N,34*%
X15600000Y-50550000D03*
%TO.N,35*%
X13600000Y-52550000D03*
%TO.N,36*%
X15600000Y-52550000D03*
%TD*%
D16*
%TO.N,/HSE_OUT*%
X29505378Y-30994622D03*
%TO.N,Net-(R2-Pad2)*%
X30100000Y-25150000D03*
%TO.N,+3V3*%
X37601360Y-24955425D03*
X27500000Y-35400000D03*
X25850000Y-28100000D03*
X41400000Y-41650000D03*
X43750000Y-46650000D03*
X44050000Y-31300000D03*
X25400000Y-23550000D03*
X33574500Y-46700000D03*
X44050000Y-37175000D03*
X25713352Y-33681741D03*
X47400000Y-24600000D03*
X27425000Y-43200000D03*
X38400000Y-43350000D03*
X32550000Y-25000000D03*
X26300000Y-39850000D03*
X26900000Y-24950000D03*
%TO.N,25*%
X26000000Y-38350000D03*
%TO.N,GND*%
X44050000Y-32900000D03*
X38574500Y-46500000D03*
X27400000Y-30500000D03*
X36700000Y-33350000D03*
X33350000Y-43600000D03*
X34850000Y-26050000D03*
X28700000Y-26750000D03*
X44050000Y-38725000D03*
X25774500Y-32634163D03*
X39850000Y-26000000D03*
X26400000Y-41400000D03*
X22850000Y-40274500D03*
X33100000Y-21500000D03*
X39825000Y-41550000D03*
X47500000Y-26150000D03*
%TO.N,+3.3VA*%
X21050000Y-43500000D03*
%TO.N,Net-(C8-Pad2)*%
X42950000Y-43350000D03*
%TO.N,Net-(C10-Pad2)*%
X43400000Y-26000000D03*
%TO.N,/HSE_IN*%
X30300000Y-36950000D03*
%TD*%
D17*
%TO.N,+3V3*%
X40550000Y-13550000D02*
X42550000Y-15550000D01*
X13600000Y-48550000D02*
X15600000Y-46550000D01*
X15600000Y-46550000D02*
X15500000Y-46550000D01*
X13600000Y-48550000D02*
X13600000Y-48450000D01*
%TO.N,25*%
X13600000Y-42550000D02*
X13600000Y-43070723D01*
X13600000Y-42550000D02*
X13650000Y-42550000D01*
%TD*%
%TA.AperFunction,Conductor*%
%TO.N,+3V3*%
G36*
X17676539Y-12528002D02*
G01*
X17723032Y-12581658D01*
X17733136Y-12651932D01*
X17703642Y-12716512D01*
X17694232Y-12725979D01*
X17692237Y-12728081D01*
X17687893Y-12731891D01*
X17553240Y-12902697D01*
X17451969Y-13095181D01*
X17387472Y-13302897D01*
X17361907Y-13518889D01*
X17376132Y-13735922D01*
X17377553Y-13741518D01*
X17377554Y-13741523D01*
X17428250Y-13941134D01*
X17429671Y-13946729D01*
X17520729Y-14144250D01*
X17646258Y-14321869D01*
X17650392Y-14325896D01*
X17789844Y-14461745D01*
X17824681Y-14523607D01*
X17820544Y-14594483D01*
X17785002Y-14646728D01*
X17687893Y-14731891D01*
X17553240Y-14902697D01*
X17550551Y-14907808D01*
X17550549Y-14907811D01*
X17499137Y-15005530D01*
X17451969Y-15095181D01*
X17387472Y-15302897D01*
X17361907Y-15518889D01*
X17376132Y-15735922D01*
X17377553Y-15741518D01*
X17377554Y-15741523D01*
X17400766Y-15832919D01*
X17429671Y-15946729D01*
X17520729Y-16144250D01*
X17646258Y-16321869D01*
X17802053Y-16473638D01*
X17806849Y-16476843D01*
X17806852Y-16476845D01*
X17889220Y-16531881D01*
X17982897Y-16594474D01*
X17988200Y-16596752D01*
X17988203Y-16596754D01*
X18066069Y-16630208D01*
X18182733Y-16680331D01*
X18394870Y-16728332D01*
X18400644Y-16728559D01*
X18400645Y-16728559D01*
X18443593Y-16730246D01*
X18612201Y-16736871D01*
X18827450Y-16705662D01*
X18832914Y-16703807D01*
X18832919Y-16703806D01*
X19027935Y-16637607D01*
X19027940Y-16637605D01*
X19033407Y-16635749D01*
X19039259Y-16632472D01*
X19113624Y-16590825D01*
X19223174Y-16529474D01*
X19228108Y-16525371D01*
X19385964Y-16394082D01*
X19390396Y-16390396D01*
X19394082Y-16385964D01*
X19394087Y-16385959D01*
X19450252Y-16318428D01*
X19509189Y-16278844D01*
X19580171Y-16277408D01*
X19642933Y-16317165D01*
X19646258Y-16321869D01*
X19802053Y-16473638D01*
X19806849Y-16476843D01*
X19806852Y-16476845D01*
X19889220Y-16531881D01*
X19982897Y-16594474D01*
X19988200Y-16596752D01*
X19988203Y-16596754D01*
X20066069Y-16630208D01*
X20182733Y-16680331D01*
X20394870Y-16728332D01*
X20400644Y-16728559D01*
X20400645Y-16728559D01*
X20443593Y-16730246D01*
X20612201Y-16736871D01*
X20827450Y-16705662D01*
X20832914Y-16703807D01*
X20832919Y-16703806D01*
X21027935Y-16637607D01*
X21027940Y-16637605D01*
X21033407Y-16635749D01*
X21039259Y-16632472D01*
X21113624Y-16590825D01*
X21223174Y-16529474D01*
X21228108Y-16525371D01*
X21385964Y-16394082D01*
X21390396Y-16390396D01*
X21394082Y-16385964D01*
X21394087Y-16385959D01*
X21450252Y-16318428D01*
X21509189Y-16278844D01*
X21580171Y-16277408D01*
X21642933Y-16317165D01*
X21646258Y-16321869D01*
X21802053Y-16473638D01*
X21806849Y-16476843D01*
X21806852Y-16476845D01*
X21889220Y-16531881D01*
X21982897Y-16594474D01*
X21988200Y-16596752D01*
X21988203Y-16596754D01*
X22066069Y-16630208D01*
X22182733Y-16680331D01*
X22394870Y-16728332D01*
X22400644Y-16728559D01*
X22400645Y-16728559D01*
X22443593Y-16730246D01*
X22612201Y-16736871D01*
X22827450Y-16705662D01*
X22832914Y-16703807D01*
X22832919Y-16703806D01*
X23027935Y-16637607D01*
X23027940Y-16637605D01*
X23033407Y-16635749D01*
X23039259Y-16632472D01*
X23113624Y-16590825D01*
X23223174Y-16529474D01*
X23228108Y-16525371D01*
X23385964Y-16394082D01*
X23390396Y-16390396D01*
X23394082Y-16385964D01*
X23394087Y-16385959D01*
X23450252Y-16318428D01*
X23509189Y-16278844D01*
X23580171Y-16277408D01*
X23642933Y-16317165D01*
X23646258Y-16321869D01*
X23802053Y-16473638D01*
X23806849Y-16476843D01*
X23806852Y-16476845D01*
X23889220Y-16531881D01*
X23982897Y-16594474D01*
X23988200Y-16596752D01*
X23988203Y-16596754D01*
X24066069Y-16630208D01*
X24182733Y-16680331D01*
X24394870Y-16728332D01*
X24400644Y-16728559D01*
X24400645Y-16728559D01*
X24443593Y-16730246D01*
X24612201Y-16736871D01*
X24827450Y-16705662D01*
X24832914Y-16703807D01*
X24832919Y-16703806D01*
X25027935Y-16637607D01*
X25027940Y-16637605D01*
X25033407Y-16635749D01*
X25039259Y-16632472D01*
X25113624Y-16590825D01*
X25223174Y-16529474D01*
X25228108Y-16525371D01*
X25385964Y-16394082D01*
X25390396Y-16390396D01*
X25394082Y-16385964D01*
X25394087Y-16385959D01*
X25450252Y-16318428D01*
X25509189Y-16278844D01*
X25580171Y-16277408D01*
X25642933Y-16317165D01*
X25646258Y-16321869D01*
X25802053Y-16473638D01*
X25806849Y-16476843D01*
X25806852Y-16476845D01*
X25889220Y-16531881D01*
X25982897Y-16594474D01*
X25988200Y-16596752D01*
X25988203Y-16596754D01*
X26066069Y-16630208D01*
X26182733Y-16680331D01*
X26394870Y-16728332D01*
X26400644Y-16728559D01*
X26400645Y-16728559D01*
X26443593Y-16730246D01*
X26612201Y-16736871D01*
X26827450Y-16705662D01*
X26832914Y-16703807D01*
X26832919Y-16703806D01*
X27027935Y-16637607D01*
X27027940Y-16637605D01*
X27033407Y-16635749D01*
X27039259Y-16632472D01*
X27113624Y-16590825D01*
X27223174Y-16529474D01*
X27228108Y-16525371D01*
X27385964Y-16394082D01*
X27390396Y-16390396D01*
X27394082Y-16385964D01*
X27394087Y-16385959D01*
X27450252Y-16318428D01*
X27509189Y-16278844D01*
X27580171Y-16277408D01*
X27642933Y-16317165D01*
X27646258Y-16321869D01*
X27802053Y-16473638D01*
X27806849Y-16476843D01*
X27806852Y-16476845D01*
X27889220Y-16531881D01*
X27982897Y-16594474D01*
X27988200Y-16596752D01*
X27988203Y-16596754D01*
X28066069Y-16630208D01*
X28182733Y-16680331D01*
X28394870Y-16728332D01*
X28400644Y-16728559D01*
X28400645Y-16728559D01*
X28443593Y-16730246D01*
X28612201Y-16736871D01*
X28827450Y-16705662D01*
X28832914Y-16703807D01*
X28832919Y-16703806D01*
X29027935Y-16637607D01*
X29027940Y-16637605D01*
X29033407Y-16635749D01*
X29039259Y-16632472D01*
X29113624Y-16590825D01*
X29223174Y-16529474D01*
X29228108Y-16525371D01*
X29385964Y-16394082D01*
X29390396Y-16390396D01*
X29394082Y-16385964D01*
X29394087Y-16385959D01*
X29450252Y-16318428D01*
X29509189Y-16278844D01*
X29580171Y-16277408D01*
X29642933Y-16317165D01*
X29646258Y-16321869D01*
X29802053Y-16473638D01*
X29806849Y-16476843D01*
X29806852Y-16476845D01*
X29889220Y-16531881D01*
X29982897Y-16594474D01*
X29988200Y-16596752D01*
X29988203Y-16596754D01*
X30066069Y-16630208D01*
X30182733Y-16680331D01*
X30394870Y-16728332D01*
X30400644Y-16728559D01*
X30400645Y-16728559D01*
X30443593Y-16730246D01*
X30612201Y-16736871D01*
X30827450Y-16705662D01*
X30832914Y-16703807D01*
X30832919Y-16703806D01*
X31027935Y-16637607D01*
X31027940Y-16637605D01*
X31033407Y-16635749D01*
X31039259Y-16632472D01*
X31113624Y-16590825D01*
X31223174Y-16529474D01*
X31228108Y-16525371D01*
X31385964Y-16394082D01*
X31390396Y-16390396D01*
X31394082Y-16385964D01*
X31394087Y-16385959D01*
X31450252Y-16318428D01*
X31509189Y-16278844D01*
X31580171Y-16277408D01*
X31642933Y-16317165D01*
X31646258Y-16321869D01*
X31802053Y-16473638D01*
X31806849Y-16476843D01*
X31806852Y-16476845D01*
X31889220Y-16531881D01*
X31982897Y-16594474D01*
X31988200Y-16596752D01*
X31988203Y-16596754D01*
X32066069Y-16630208D01*
X32182733Y-16680331D01*
X32394870Y-16728332D01*
X32400644Y-16728559D01*
X32400645Y-16728559D01*
X32443593Y-16730246D01*
X32612201Y-16736871D01*
X32827450Y-16705662D01*
X32832914Y-16703807D01*
X32832919Y-16703806D01*
X33027935Y-16637607D01*
X33027940Y-16637605D01*
X33033407Y-16635749D01*
X33039259Y-16632472D01*
X33113624Y-16590825D01*
X33223174Y-16529474D01*
X33228108Y-16525371D01*
X33385964Y-16394082D01*
X33390396Y-16390396D01*
X33394082Y-16385964D01*
X33394087Y-16385959D01*
X33450252Y-16318428D01*
X33509189Y-16278844D01*
X33580171Y-16277408D01*
X33642933Y-16317165D01*
X33646258Y-16321869D01*
X33802053Y-16473638D01*
X33806849Y-16476843D01*
X33806852Y-16476845D01*
X33889220Y-16531881D01*
X33982897Y-16594474D01*
X33988200Y-16596752D01*
X33988203Y-16596754D01*
X34066069Y-16630208D01*
X34182733Y-16680331D01*
X34394870Y-16728332D01*
X34400644Y-16728559D01*
X34400645Y-16728559D01*
X34443593Y-16730246D01*
X34612201Y-16736871D01*
X34827450Y-16705662D01*
X34832914Y-16703807D01*
X34832919Y-16703806D01*
X35027935Y-16637607D01*
X35027940Y-16637605D01*
X35033407Y-16635749D01*
X35039259Y-16632472D01*
X35113624Y-16590825D01*
X35223174Y-16529474D01*
X35228108Y-16525371D01*
X35385964Y-16394082D01*
X35390396Y-16390396D01*
X35394082Y-16385964D01*
X35394087Y-16385959D01*
X35450252Y-16318428D01*
X35509189Y-16278844D01*
X35580171Y-16277408D01*
X35642933Y-16317165D01*
X35646258Y-16321869D01*
X35802053Y-16473638D01*
X35806849Y-16476843D01*
X35806852Y-16476845D01*
X35889220Y-16531881D01*
X35982897Y-16594474D01*
X35988200Y-16596752D01*
X35988203Y-16596754D01*
X36066069Y-16630208D01*
X36182733Y-16680331D01*
X36394870Y-16728332D01*
X36400644Y-16728559D01*
X36400645Y-16728559D01*
X36443593Y-16730246D01*
X36612201Y-16736871D01*
X36827450Y-16705662D01*
X36832914Y-16703807D01*
X36832919Y-16703806D01*
X37027935Y-16637607D01*
X37027940Y-16637605D01*
X37033407Y-16635749D01*
X37039259Y-16632472D01*
X37113624Y-16590825D01*
X37223174Y-16529474D01*
X37228108Y-16525371D01*
X37385964Y-16394082D01*
X37390396Y-16390396D01*
X37394082Y-16385964D01*
X37394087Y-16385959D01*
X37450252Y-16318428D01*
X37509189Y-16278844D01*
X37580171Y-16277408D01*
X37642933Y-16317165D01*
X37646258Y-16321869D01*
X37802053Y-16473638D01*
X37806849Y-16476843D01*
X37806852Y-16476845D01*
X37889220Y-16531881D01*
X37982897Y-16594474D01*
X37988200Y-16596752D01*
X37988203Y-16596754D01*
X38066069Y-16630208D01*
X38182733Y-16680331D01*
X38394870Y-16728332D01*
X38400644Y-16728559D01*
X38400645Y-16728559D01*
X38443593Y-16730246D01*
X38612201Y-16736871D01*
X38827450Y-16705662D01*
X38832914Y-16703807D01*
X38832919Y-16703806D01*
X39027935Y-16637607D01*
X39027940Y-16637605D01*
X39033407Y-16635749D01*
X39039259Y-16632472D01*
X39113624Y-16590825D01*
X39223174Y-16529474D01*
X39228108Y-16525371D01*
X39385964Y-16394082D01*
X39390396Y-16390396D01*
X39394082Y-16385964D01*
X39394087Y-16385959D01*
X39450252Y-16318428D01*
X39509189Y-16278844D01*
X39580171Y-16277408D01*
X39642933Y-16317165D01*
X39646258Y-16321869D01*
X39802053Y-16473638D01*
X39806849Y-16476843D01*
X39806852Y-16476845D01*
X39889220Y-16531881D01*
X39982897Y-16594474D01*
X39988200Y-16596752D01*
X39988203Y-16596754D01*
X40066069Y-16630208D01*
X40182733Y-16680331D01*
X40394870Y-16728332D01*
X40400644Y-16728559D01*
X40400645Y-16728559D01*
X40443593Y-16730246D01*
X40612201Y-16736871D01*
X40827450Y-16705662D01*
X40832914Y-16703807D01*
X40832919Y-16703806D01*
X41027935Y-16637607D01*
X41027940Y-16637605D01*
X41033407Y-16635749D01*
X41039259Y-16632472D01*
X41113624Y-16590825D01*
X41223174Y-16529474D01*
X41228108Y-16525371D01*
X41385964Y-16394082D01*
X41390396Y-16390396D01*
X41394082Y-16385964D01*
X41394087Y-16385959D01*
X41450576Y-16318038D01*
X41509513Y-16278454D01*
X41580495Y-16277017D01*
X41643262Y-16316777D01*
X41650777Y-16325576D01*
X41798233Y-16469222D01*
X41807167Y-16476456D01*
X41978331Y-16590825D01*
X41988444Y-16596316D01*
X42177578Y-16677574D01*
X42188527Y-16681131D01*
X42278331Y-16701451D01*
X42292405Y-16700562D01*
X42296000Y-16691163D01*
X42296000Y-15422000D01*
X42316002Y-15353879D01*
X42369658Y-15307386D01*
X42422000Y-15296000D01*
X42678000Y-15296000D01*
X42746121Y-15316002D01*
X42792614Y-15369658D01*
X42804000Y-15422000D01*
X42804000Y-16690443D01*
X42807966Y-16703949D01*
X42821877Y-16705941D01*
X42832810Y-16703316D01*
X43027735Y-16637148D01*
X43038238Y-16632472D01*
X43217857Y-16531881D01*
X43227329Y-16525371D01*
X43385605Y-16393734D01*
X43393734Y-16385605D01*
X43449924Y-16318044D01*
X43508861Y-16278460D01*
X43579844Y-16277024D01*
X43642611Y-16316785D01*
X43642924Y-16317152D01*
X43646258Y-16321869D01*
X43650389Y-16325893D01*
X43650393Y-16325898D01*
X43797520Y-16469222D01*
X43802053Y-16473638D01*
X43806849Y-16476843D01*
X43806852Y-16476845D01*
X43889220Y-16531881D01*
X43982897Y-16594474D01*
X43988200Y-16596752D01*
X43988203Y-16596754D01*
X44066069Y-16630208D01*
X44182733Y-16680331D01*
X44394870Y-16728332D01*
X44400644Y-16728559D01*
X44400645Y-16728559D01*
X44443593Y-16730246D01*
X44612201Y-16736871D01*
X44827450Y-16705662D01*
X44832914Y-16703807D01*
X44832919Y-16703806D01*
X45027935Y-16637607D01*
X45027940Y-16637605D01*
X45033407Y-16635749D01*
X45039259Y-16632472D01*
X45113624Y-16590825D01*
X45223174Y-16529474D01*
X45228108Y-16525371D01*
X45385964Y-16394082D01*
X45390396Y-16390396D01*
X45394082Y-16385964D01*
X45394087Y-16385959D01*
X45450252Y-16318428D01*
X45509189Y-16278844D01*
X45580171Y-16277408D01*
X45642933Y-16317165D01*
X45646258Y-16321869D01*
X45802053Y-16473638D01*
X45806849Y-16476843D01*
X45806852Y-16476845D01*
X45889220Y-16531881D01*
X45982897Y-16594474D01*
X45988200Y-16596752D01*
X45988203Y-16596754D01*
X46066069Y-16630208D01*
X46182733Y-16680331D01*
X46394870Y-16728332D01*
X46400644Y-16728559D01*
X46400645Y-16728559D01*
X46443593Y-16730246D01*
X46612201Y-16736871D01*
X46827450Y-16705662D01*
X46832914Y-16703807D01*
X46832919Y-16703806D01*
X47027935Y-16637607D01*
X47027940Y-16637605D01*
X47033407Y-16635749D01*
X47039259Y-16632472D01*
X47113624Y-16590825D01*
X47223174Y-16529474D01*
X47228108Y-16525371D01*
X47385964Y-16394082D01*
X47390396Y-16390396D01*
X47394082Y-16385964D01*
X47394087Y-16385959D01*
X47450252Y-16318428D01*
X47509189Y-16278844D01*
X47580171Y-16277408D01*
X47642933Y-16317165D01*
X47646258Y-16321869D01*
X47802053Y-16473638D01*
X47806849Y-16476843D01*
X47806852Y-16476845D01*
X47889220Y-16531881D01*
X47982897Y-16594474D01*
X47988200Y-16596752D01*
X47988203Y-16596754D01*
X48066069Y-16630208D01*
X48182733Y-16680331D01*
X48394870Y-16728332D01*
X48400644Y-16728559D01*
X48400645Y-16728559D01*
X48443593Y-16730246D01*
X48612201Y-16736871D01*
X48827450Y-16705662D01*
X48832914Y-16703807D01*
X48832919Y-16703806D01*
X49027935Y-16637607D01*
X49027940Y-16637605D01*
X49033407Y-16635749D01*
X49039259Y-16632472D01*
X49113624Y-16590825D01*
X49223174Y-16529474D01*
X49228108Y-16525371D01*
X49385964Y-16394082D01*
X49390396Y-16390396D01*
X49394082Y-16385964D01*
X49394087Y-16385959D01*
X49450252Y-16318428D01*
X49509189Y-16278844D01*
X49580171Y-16277408D01*
X49642933Y-16317165D01*
X49646258Y-16321869D01*
X49802053Y-16473638D01*
X49806849Y-16476843D01*
X49806852Y-16476845D01*
X49889220Y-16531881D01*
X49982897Y-16594474D01*
X49988200Y-16596752D01*
X49988203Y-16596754D01*
X50066069Y-16630208D01*
X50182733Y-16680331D01*
X50394870Y-16728332D01*
X50400644Y-16728559D01*
X50400645Y-16728559D01*
X50443593Y-16730246D01*
X50612201Y-16736871D01*
X50827450Y-16705662D01*
X50832914Y-16703807D01*
X50832919Y-16703806D01*
X51027935Y-16637607D01*
X51027940Y-16637605D01*
X51033407Y-16635749D01*
X51039259Y-16632472D01*
X51113624Y-16590825D01*
X51223174Y-16529474D01*
X51228108Y-16525371D01*
X51385964Y-16394082D01*
X51390396Y-16390396D01*
X51394082Y-16385964D01*
X51394087Y-16385959D01*
X51450252Y-16318428D01*
X51509189Y-16278844D01*
X51580171Y-16277408D01*
X51642933Y-16317165D01*
X51646258Y-16321869D01*
X51802053Y-16473638D01*
X51806849Y-16476843D01*
X51806852Y-16476845D01*
X51889220Y-16531881D01*
X51982897Y-16594474D01*
X51988200Y-16596752D01*
X51988203Y-16596754D01*
X52066069Y-16630208D01*
X52182733Y-16680331D01*
X52394870Y-16728332D01*
X52400644Y-16728559D01*
X52400645Y-16728559D01*
X52443593Y-16730246D01*
X52612201Y-16736871D01*
X52827450Y-16705662D01*
X52832914Y-16703807D01*
X52832919Y-16703806D01*
X53027935Y-16637607D01*
X53027940Y-16637605D01*
X53033407Y-16635749D01*
X53039259Y-16632472D01*
X53113624Y-16590825D01*
X53223174Y-16529474D01*
X53228108Y-16525371D01*
X53385964Y-16394082D01*
X53390396Y-16390396D01*
X53444039Y-16325898D01*
X53525780Y-16227616D01*
X53525782Y-16227613D01*
X53529474Y-16223174D01*
X53635749Y-16033407D01*
X53637605Y-16027940D01*
X53637607Y-16027935D01*
X53703806Y-15832919D01*
X53703807Y-15832914D01*
X53705662Y-15827450D01*
X53736871Y-15612201D01*
X53738500Y-15550000D01*
X53718598Y-15333413D01*
X53708047Y-15296000D01*
X53661129Y-15129644D01*
X53659560Y-15124080D01*
X53642786Y-15090065D01*
X53565918Y-14934190D01*
X53565915Y-14934186D01*
X53563363Y-14929010D01*
X53484146Y-14822925D01*
X53459414Y-14756376D01*
X53474588Y-14687020D01*
X53516984Y-14641539D01*
X53553688Y-14617951D01*
X53553691Y-14617948D01*
X53561271Y-14613077D01*
X53589536Y-14580458D01*
X53651082Y-14509431D01*
X53651084Y-14509428D01*
X53656984Y-14502619D01*
X53660728Y-14494421D01*
X53713958Y-14377864D01*
X53713958Y-14377863D01*
X53717700Y-14369670D01*
X53718982Y-14360754D01*
X53737861Y-14229448D01*
X53737862Y-14229441D01*
X53738500Y-14225000D01*
X53738500Y-12875000D01*
X53733273Y-12801921D01*
X53694390Y-12669497D01*
X53694390Y-12598502D01*
X53732773Y-12538776D01*
X53797354Y-12509283D01*
X53815286Y-12508000D01*
X53833666Y-12508000D01*
X53901787Y-12528002D01*
X53923648Y-12545800D01*
X56238887Y-14907811D01*
X58487628Y-17201980D01*
X58505982Y-17220705D01*
X58539382Y-17283354D01*
X58542000Y-17308905D01*
X58542000Y-17567226D01*
X58521998Y-17635347D01*
X58468342Y-17681840D01*
X58398068Y-17691944D01*
X58330471Y-17659751D01*
X58277754Y-17611020D01*
X58277752Y-17611018D01*
X58273513Y-17607100D01*
X58089568Y-17491039D01*
X57887552Y-17410443D01*
X57881892Y-17409317D01*
X57881888Y-17409316D01*
X57679899Y-17369138D01*
X57679896Y-17369138D01*
X57674232Y-17368011D01*
X57668457Y-17367935D01*
X57668453Y-17367935D01*
X57559341Y-17366507D01*
X57456751Y-17365164D01*
X57451054Y-17366143D01*
X57451053Y-17366143D01*
X57335247Y-17386042D01*
X57242394Y-17401997D01*
X57038338Y-17477277D01*
X56851417Y-17588483D01*
X56825719Y-17611020D01*
X56692238Y-17728080D01*
X56692235Y-17728083D01*
X56687893Y-17731891D01*
X56666237Y-17759362D01*
X56650007Y-17779949D01*
X56592126Y-17821062D01*
X56521205Y-17824356D01*
X56459763Y-17788784D01*
X56450108Y-17777343D01*
X56433228Y-17754738D01*
X56428992Y-17750822D01*
X56277754Y-17611020D01*
X56277752Y-17611018D01*
X56273513Y-17607100D01*
X56089568Y-17491039D01*
X55887552Y-17410443D01*
X55881892Y-17409317D01*
X55881888Y-17409316D01*
X55679899Y-17369138D01*
X55679896Y-17369138D01*
X55674232Y-17368011D01*
X55668457Y-17367935D01*
X55668453Y-17367935D01*
X55559341Y-17366507D01*
X55456751Y-17365164D01*
X55451054Y-17366143D01*
X55451053Y-17366143D01*
X55335247Y-17386042D01*
X55242394Y-17401997D01*
X55038338Y-17477277D01*
X54851417Y-17588483D01*
X54825719Y-17611020D01*
X54692238Y-17728080D01*
X54692235Y-17728083D01*
X54687893Y-17731891D01*
X54553240Y-17902697D01*
X54550551Y-17907808D01*
X54550549Y-17907811D01*
X54499137Y-18005530D01*
X54451969Y-18095181D01*
X54387472Y-18302897D01*
X54361907Y-18518889D01*
X54376132Y-18735922D01*
X54377553Y-18741518D01*
X54377554Y-18741523D01*
X54400766Y-18832919D01*
X54429671Y-18946729D01*
X54520729Y-19144250D01*
X54646258Y-19321869D01*
X54650392Y-19325896D01*
X54789844Y-19461745D01*
X54824681Y-19523607D01*
X54820544Y-19594483D01*
X54785002Y-19646728D01*
X54687893Y-19731891D01*
X54553240Y-19902697D01*
X54550551Y-19907808D01*
X54550549Y-19907811D01*
X54517449Y-19970725D01*
X54451969Y-20095181D01*
X54387472Y-20302897D01*
X54361907Y-20518889D01*
X54376132Y-20735922D01*
X54377553Y-20741518D01*
X54377554Y-20741523D01*
X54409490Y-20867268D01*
X54429671Y-20946729D01*
X54520729Y-21144250D01*
X54646258Y-21321869D01*
X54650392Y-21325896D01*
X54789844Y-21461745D01*
X54824681Y-21523607D01*
X54820544Y-21594483D01*
X54785002Y-21646728D01*
X54687893Y-21731891D01*
X54553240Y-21902697D01*
X54550551Y-21907808D01*
X54550549Y-21907811D01*
X54505306Y-21993805D01*
X54451969Y-22095181D01*
X54387472Y-22302897D01*
X54361907Y-22518889D01*
X54376132Y-22735922D01*
X54377553Y-22741518D01*
X54377554Y-22741523D01*
X54400766Y-22832919D01*
X54429671Y-22946729D01*
X54520729Y-23144250D01*
X54646258Y-23321869D01*
X54650392Y-23325896D01*
X54789844Y-23461745D01*
X54824681Y-23523607D01*
X54820544Y-23594483D01*
X54785002Y-23646728D01*
X54687893Y-23731891D01*
X54553240Y-23902697D01*
X54550551Y-23907808D01*
X54550549Y-23907811D01*
X54539396Y-23929010D01*
X54451969Y-24095181D01*
X54387472Y-24302897D01*
X54361907Y-24518889D01*
X54376132Y-24735922D01*
X54377553Y-24741518D01*
X54377554Y-24741523D01*
X54400739Y-24832810D01*
X54429671Y-24946729D01*
X54432088Y-24951972D01*
X54515955Y-25133895D01*
X54520729Y-25144250D01*
X54646258Y-25321869D01*
X54650392Y-25325896D01*
X54789844Y-25461745D01*
X54824681Y-25523607D01*
X54820544Y-25594483D01*
X54785002Y-25646728D01*
X54687893Y-25731891D01*
X54553240Y-25902697D01*
X54550551Y-25907808D01*
X54550549Y-25907811D01*
X54519599Y-25966637D01*
X54451969Y-26095181D01*
X54387472Y-26302897D01*
X54361907Y-26518889D01*
X54376132Y-26735922D01*
X54377553Y-26741518D01*
X54377554Y-26741523D01*
X54409195Y-26866105D01*
X54429671Y-26946729D01*
X54520729Y-27144250D01*
X54646258Y-27321869D01*
X54650392Y-27325896D01*
X54789844Y-27461745D01*
X54824681Y-27523607D01*
X54820544Y-27594483D01*
X54785002Y-27646728D01*
X54687893Y-27731891D01*
X54553240Y-27902697D01*
X54550551Y-27907808D01*
X54550549Y-27907811D01*
X54499137Y-28005530D01*
X54451969Y-28095181D01*
X54387472Y-28302897D01*
X54361907Y-28518889D01*
X54376132Y-28735922D01*
X54377553Y-28741518D01*
X54377554Y-28741523D01*
X54400766Y-28832919D01*
X54429671Y-28946729D01*
X54520729Y-29144250D01*
X54646258Y-29321869D01*
X54650392Y-29325896D01*
X54789844Y-29461745D01*
X54824681Y-29523607D01*
X54820544Y-29594483D01*
X54785002Y-29646728D01*
X54687893Y-29731891D01*
X54553240Y-29902697D01*
X54550551Y-29907808D01*
X54550549Y-29907811D01*
X54524065Y-29958150D01*
X54451969Y-30095181D01*
X54387472Y-30302897D01*
X54361907Y-30518889D01*
X54376132Y-30735922D01*
X54377553Y-30741518D01*
X54377554Y-30741523D01*
X54412032Y-30877277D01*
X54429671Y-30946729D01*
X54520729Y-31144250D01*
X54646258Y-31321869D01*
X54650392Y-31325896D01*
X54789844Y-31461745D01*
X54824681Y-31523607D01*
X54820544Y-31594483D01*
X54785002Y-31646728D01*
X54687893Y-31731891D01*
X54553240Y-31902697D01*
X54550551Y-31907808D01*
X54550549Y-31907811D01*
X54527607Y-31951417D01*
X54451969Y-32095181D01*
X54387472Y-32302897D01*
X54361907Y-32518889D01*
X54376132Y-32735922D01*
X54377553Y-32741518D01*
X54377554Y-32741523D01*
X54400119Y-32830369D01*
X54429671Y-32946729D01*
X54432088Y-32951972D01*
X54518311Y-33139005D01*
X54520729Y-33144250D01*
X54646258Y-33321869D01*
X54650392Y-33325896D01*
X54789844Y-33461745D01*
X54824681Y-33523607D01*
X54820544Y-33594483D01*
X54785002Y-33646728D01*
X54687893Y-33731891D01*
X54553240Y-33902697D01*
X54550551Y-33907808D01*
X54550549Y-33907811D01*
X54499137Y-34005530D01*
X54451969Y-34095181D01*
X54387472Y-34302897D01*
X54361907Y-34518889D01*
X54376132Y-34735922D01*
X54377553Y-34741518D01*
X54377554Y-34741523D01*
X54400766Y-34832919D01*
X54429671Y-34946729D01*
X54520729Y-35144250D01*
X54646258Y-35321869D01*
X54650392Y-35325896D01*
X54789844Y-35461745D01*
X54824681Y-35523607D01*
X54820544Y-35594483D01*
X54785002Y-35646728D01*
X54687893Y-35731891D01*
X54553240Y-35902697D01*
X54550551Y-35907808D01*
X54550549Y-35907811D01*
X54499137Y-36005530D01*
X54451969Y-36095181D01*
X54387472Y-36302897D01*
X54361907Y-36518889D01*
X54376132Y-36735922D01*
X54377553Y-36741518D01*
X54377554Y-36741523D01*
X54400766Y-36832919D01*
X54429671Y-36946729D01*
X54520729Y-37144250D01*
X54646258Y-37321869D01*
X54685909Y-37360495D01*
X54789844Y-37461745D01*
X54824681Y-37523607D01*
X54820544Y-37594483D01*
X54785002Y-37646728D01*
X54687893Y-37731891D01*
X54553240Y-37902697D01*
X54550551Y-37907808D01*
X54550549Y-37907811D01*
X54516397Y-37972723D01*
X54451969Y-38095181D01*
X54387472Y-38302897D01*
X54361907Y-38518889D01*
X54376132Y-38735922D01*
X54377553Y-38741518D01*
X54377554Y-38741523D01*
X54414487Y-38886942D01*
X54429671Y-38946729D01*
X54432088Y-38951972D01*
X54498741Y-39096554D01*
X54520729Y-39144250D01*
X54646258Y-39321869D01*
X54650392Y-39325896D01*
X54789844Y-39461745D01*
X54824681Y-39523607D01*
X54820544Y-39594483D01*
X54785002Y-39646728D01*
X54687893Y-39731891D01*
X54553240Y-39902697D01*
X54550551Y-39907808D01*
X54550549Y-39907811D01*
X54499137Y-40005530D01*
X54451969Y-40095181D01*
X54387472Y-40302897D01*
X54361907Y-40518889D01*
X54376132Y-40735922D01*
X54377553Y-40741518D01*
X54377554Y-40741523D01*
X54409873Y-40868776D01*
X54429671Y-40946729D01*
X54520729Y-41144250D01*
X54646258Y-41321869D01*
X54650392Y-41325896D01*
X54789844Y-41461745D01*
X54824681Y-41523607D01*
X54820544Y-41594483D01*
X54785002Y-41646728D01*
X54687893Y-41731891D01*
X54553240Y-41902697D01*
X54550551Y-41907808D01*
X54550549Y-41907811D01*
X54499137Y-42005530D01*
X54451969Y-42095181D01*
X54387472Y-42302897D01*
X54361907Y-42518889D01*
X54376132Y-42735922D01*
X54377553Y-42741518D01*
X54377554Y-42741523D01*
X54400766Y-42832919D01*
X54429671Y-42946729D01*
X54520729Y-43144250D01*
X54646258Y-43321869D01*
X54650392Y-43325896D01*
X54789844Y-43461745D01*
X54824681Y-43523607D01*
X54820544Y-43594483D01*
X54785002Y-43646728D01*
X54687893Y-43731891D01*
X54553240Y-43902697D01*
X54550551Y-43907808D01*
X54550549Y-43907811D01*
X54520319Y-43965269D01*
X54451969Y-44095181D01*
X54387472Y-44302897D01*
X54361907Y-44518889D01*
X54376132Y-44735922D01*
X54377553Y-44741518D01*
X54377554Y-44741523D01*
X54400766Y-44832919D01*
X54429671Y-44946729D01*
X54520729Y-45144250D01*
X54646258Y-45321869D01*
X54650392Y-45325896D01*
X54789844Y-45461745D01*
X54824681Y-45523607D01*
X54820544Y-45594483D01*
X54785002Y-45646728D01*
X54687893Y-45731891D01*
X54553240Y-45902697D01*
X54550551Y-45907808D01*
X54550549Y-45907811D01*
X54539396Y-45929010D01*
X54451969Y-46095181D01*
X54387472Y-46302897D01*
X54361907Y-46518889D01*
X54376132Y-46735922D01*
X54377553Y-46741518D01*
X54377554Y-46741523D01*
X54426858Y-46935653D01*
X54429671Y-46946729D01*
X54432088Y-46951972D01*
X54483082Y-47062587D01*
X54520729Y-47144250D01*
X54646258Y-47321869D01*
X54650392Y-47325896D01*
X54789844Y-47461745D01*
X54824681Y-47523607D01*
X54820544Y-47594483D01*
X54785002Y-47646728D01*
X54687893Y-47731891D01*
X54553240Y-47902697D01*
X54550551Y-47907808D01*
X54550549Y-47907811D01*
X54499137Y-48005530D01*
X54451969Y-48095181D01*
X54387472Y-48302897D01*
X54361907Y-48518889D01*
X54376132Y-48735922D01*
X54377553Y-48741518D01*
X54377554Y-48741523D01*
X54421865Y-48915994D01*
X54429671Y-48946729D01*
X54520729Y-49144250D01*
X54646258Y-49321869D01*
X54650392Y-49325896D01*
X54789844Y-49461745D01*
X54824681Y-49523607D01*
X54820544Y-49594483D01*
X54785002Y-49646728D01*
X54687893Y-49731891D01*
X54553240Y-49902697D01*
X54550551Y-49907808D01*
X54550549Y-49907811D01*
X54499137Y-50005530D01*
X54451969Y-50095181D01*
X54387472Y-50302897D01*
X54361907Y-50518889D01*
X54376132Y-50735922D01*
X54377553Y-50741518D01*
X54377554Y-50741523D01*
X54415797Y-50892102D01*
X54429671Y-50946729D01*
X54432088Y-50951972D01*
X54467107Y-51027935D01*
X54520729Y-51144250D01*
X54646258Y-51321869D01*
X54650392Y-51325896D01*
X54789844Y-51461745D01*
X54824681Y-51523607D01*
X54820544Y-51594483D01*
X54785002Y-51646728D01*
X54687893Y-51731891D01*
X54553240Y-51902697D01*
X54550551Y-51907808D01*
X54550549Y-51907811D01*
X54515415Y-51974591D01*
X54451969Y-52095181D01*
X54387472Y-52302897D01*
X54361907Y-52518889D01*
X54376132Y-52735922D01*
X54377553Y-52741518D01*
X54377554Y-52741523D01*
X54400766Y-52832919D01*
X54429671Y-52946729D01*
X54520729Y-53144250D01*
X54646258Y-53321869D01*
X54650392Y-53325896D01*
X54794643Y-53466419D01*
X54802053Y-53473638D01*
X54806849Y-53476843D01*
X54806852Y-53476845D01*
X54908212Y-53544571D01*
X54982897Y-53594474D01*
X54988200Y-53596752D01*
X54988203Y-53596754D01*
X55055023Y-53625462D01*
X55182733Y-53680331D01*
X55394870Y-53728332D01*
X55400644Y-53728559D01*
X55400645Y-53728559D01*
X55443593Y-53730246D01*
X55612201Y-53736871D01*
X55827450Y-53705662D01*
X55832914Y-53703807D01*
X55832919Y-53703806D01*
X56027935Y-53637607D01*
X56027940Y-53637605D01*
X56033407Y-53635749D01*
X56223174Y-53529474D01*
X56227622Y-53525775D01*
X56272196Y-53488703D01*
X56337360Y-53460521D01*
X56407415Y-53472044D01*
X56458764Y-53517455D01*
X56482051Y-53553691D01*
X56482053Y-53553694D01*
X56486923Y-53561271D01*
X56493733Y-53567172D01*
X56590569Y-53651082D01*
X56590572Y-53651084D01*
X56597381Y-53656984D01*
X56605579Y-53660728D01*
X56705784Y-53706490D01*
X56730330Y-53717700D01*
X56739245Y-53718982D01*
X56739246Y-53718982D01*
X56870552Y-53737861D01*
X56870559Y-53737862D01*
X56875000Y-53738500D01*
X58225000Y-53738500D01*
X58298079Y-53733273D01*
X58327068Y-53724761D01*
X58398062Y-53724760D01*
X58457789Y-53763143D01*
X58487282Y-53827724D01*
X58477179Y-53897998D01*
X58452556Y-53933848D01*
X55574586Y-56870552D01*
X54077621Y-58398068D01*
X53973620Y-58504191D01*
X53911654Y-58538844D01*
X53883629Y-58542000D01*
X53572985Y-58542000D01*
X53504864Y-58521998D01*
X53458371Y-58468342D01*
X53448267Y-58398068D01*
X53476111Y-58335430D01*
X53565780Y-58227616D01*
X53565782Y-58227613D01*
X53569474Y-58223174D01*
X53675749Y-58033407D01*
X53677605Y-58027940D01*
X53677607Y-58027935D01*
X53743806Y-57832919D01*
X53743807Y-57832914D01*
X53745662Y-57827450D01*
X53776871Y-57612201D01*
X53778500Y-57550000D01*
X53758598Y-57333413D01*
X53699560Y-57124080D01*
X53685309Y-57095181D01*
X53605918Y-56934190D01*
X53605915Y-56934186D01*
X53603363Y-56929010D01*
X53522755Y-56821062D01*
X53476681Y-56759362D01*
X53476679Y-56759360D01*
X53473228Y-56754738D01*
X53468991Y-56750821D01*
X53468987Y-56750817D01*
X53350973Y-56641727D01*
X53314527Y-56580799D01*
X53316807Y-56509839D01*
X53355932Y-56452328D01*
X53425959Y-56394087D01*
X53425964Y-56394082D01*
X53430396Y-56390396D01*
X53521946Y-56280320D01*
X53565780Y-56227616D01*
X53565782Y-56227613D01*
X53569474Y-56223174D01*
X53675749Y-56033407D01*
X53677605Y-56027940D01*
X53677607Y-56027935D01*
X53743806Y-55832919D01*
X53743807Y-55832914D01*
X53745662Y-55827450D01*
X53776871Y-55612201D01*
X53778500Y-55550000D01*
X53758598Y-55333413D01*
X53699560Y-55124080D01*
X53682786Y-55090065D01*
X53605918Y-54934190D01*
X53605915Y-54934186D01*
X53603363Y-54929010D01*
X53522755Y-54821062D01*
X53476681Y-54759362D01*
X53476679Y-54759360D01*
X53473228Y-54754738D01*
X53453798Y-54736777D01*
X53317754Y-54611020D01*
X53317752Y-54611018D01*
X53313513Y-54607100D01*
X53129568Y-54491039D01*
X52927552Y-54410443D01*
X52921892Y-54409317D01*
X52921888Y-54409316D01*
X52719899Y-54369138D01*
X52719896Y-54369138D01*
X52714232Y-54368011D01*
X52708457Y-54367935D01*
X52708453Y-54367935D01*
X52599341Y-54366507D01*
X52496751Y-54365164D01*
X52491054Y-54366143D01*
X52491053Y-54366143D01*
X52288091Y-54401018D01*
X52282394Y-54401997D01*
X52078338Y-54477277D01*
X51891417Y-54588483D01*
X51887074Y-54592292D01*
X51732238Y-54728080D01*
X51732235Y-54728083D01*
X51727893Y-54731891D01*
X51706238Y-54759360D01*
X51690007Y-54779949D01*
X51632126Y-54821062D01*
X51561205Y-54824356D01*
X51499763Y-54788784D01*
X51490108Y-54777343D01*
X51473228Y-54754738D01*
X51453798Y-54736777D01*
X51317754Y-54611020D01*
X51317752Y-54611018D01*
X51313513Y-54607100D01*
X51129568Y-54491039D01*
X50927552Y-54410443D01*
X50921892Y-54409317D01*
X50921888Y-54409316D01*
X50719899Y-54369138D01*
X50719896Y-54369138D01*
X50714232Y-54368011D01*
X50708457Y-54367935D01*
X50708453Y-54367935D01*
X50599341Y-54366507D01*
X50496751Y-54365164D01*
X50491054Y-54366143D01*
X50491053Y-54366143D01*
X50288091Y-54401018D01*
X50282394Y-54401997D01*
X50078338Y-54477277D01*
X49891417Y-54588483D01*
X49887074Y-54592292D01*
X49732238Y-54728080D01*
X49732235Y-54728083D01*
X49727893Y-54731891D01*
X49706238Y-54759360D01*
X49690007Y-54779949D01*
X49632126Y-54821062D01*
X49561205Y-54824356D01*
X49499763Y-54788784D01*
X49490108Y-54777343D01*
X49473228Y-54754738D01*
X49453798Y-54736777D01*
X49317754Y-54611020D01*
X49317752Y-54611018D01*
X49313513Y-54607100D01*
X49129568Y-54491039D01*
X48927552Y-54410443D01*
X48921892Y-54409317D01*
X48921888Y-54409316D01*
X48719899Y-54369138D01*
X48719896Y-54369138D01*
X48714232Y-54368011D01*
X48708457Y-54367935D01*
X48708453Y-54367935D01*
X48599341Y-54366507D01*
X48496751Y-54365164D01*
X48491054Y-54366143D01*
X48491053Y-54366143D01*
X48288091Y-54401018D01*
X48282394Y-54401997D01*
X48078338Y-54477277D01*
X47891417Y-54588483D01*
X47887074Y-54592292D01*
X47732238Y-54728080D01*
X47732235Y-54728083D01*
X47727893Y-54731891D01*
X47706238Y-54759360D01*
X47690007Y-54779949D01*
X47632126Y-54821062D01*
X47561205Y-54824356D01*
X47499763Y-54788784D01*
X47490108Y-54777343D01*
X47473228Y-54754738D01*
X47453798Y-54736777D01*
X47317754Y-54611020D01*
X47317752Y-54611018D01*
X47313513Y-54607100D01*
X47129568Y-54491039D01*
X46927552Y-54410443D01*
X46921892Y-54409317D01*
X46921888Y-54409316D01*
X46719899Y-54369138D01*
X46719896Y-54369138D01*
X46714232Y-54368011D01*
X46708457Y-54367935D01*
X46708453Y-54367935D01*
X46599341Y-54366507D01*
X46496751Y-54365164D01*
X46491054Y-54366143D01*
X46491053Y-54366143D01*
X46288091Y-54401018D01*
X46282394Y-54401997D01*
X46078338Y-54477277D01*
X45891417Y-54588483D01*
X45887074Y-54592292D01*
X45732238Y-54728080D01*
X45732235Y-54728083D01*
X45727893Y-54731891D01*
X45706238Y-54759360D01*
X45690007Y-54779949D01*
X45632126Y-54821062D01*
X45561205Y-54824356D01*
X45499763Y-54788784D01*
X45490108Y-54777343D01*
X45473228Y-54754738D01*
X45453798Y-54736777D01*
X45317754Y-54611020D01*
X45317752Y-54611018D01*
X45313513Y-54607100D01*
X45129568Y-54491039D01*
X44927552Y-54410443D01*
X44921892Y-54409317D01*
X44921888Y-54409316D01*
X44719899Y-54369138D01*
X44719896Y-54369138D01*
X44714232Y-54368011D01*
X44708457Y-54367935D01*
X44708453Y-54367935D01*
X44599341Y-54366507D01*
X44496751Y-54365164D01*
X44491054Y-54366143D01*
X44491053Y-54366143D01*
X44288091Y-54401018D01*
X44282394Y-54401997D01*
X44078338Y-54477277D01*
X43891417Y-54588483D01*
X43887074Y-54592292D01*
X43732238Y-54728080D01*
X43732235Y-54728083D01*
X43727893Y-54731891D01*
X43706238Y-54759360D01*
X43690007Y-54779949D01*
X43632126Y-54821062D01*
X43561205Y-54824356D01*
X43499763Y-54788784D01*
X43490108Y-54777343D01*
X43473228Y-54754738D01*
X43453798Y-54736777D01*
X43317754Y-54611020D01*
X43317752Y-54611018D01*
X43313513Y-54607100D01*
X43129568Y-54491039D01*
X42927552Y-54410443D01*
X42921892Y-54409317D01*
X42921888Y-54409316D01*
X42719899Y-54369138D01*
X42719896Y-54369138D01*
X42714232Y-54368011D01*
X42708457Y-54367935D01*
X42708453Y-54367935D01*
X42599341Y-54366507D01*
X42496751Y-54365164D01*
X42491054Y-54366143D01*
X42491053Y-54366143D01*
X42288091Y-54401018D01*
X42282394Y-54401997D01*
X42078338Y-54477277D01*
X41891417Y-54588483D01*
X41887074Y-54592292D01*
X41732238Y-54728080D01*
X41732235Y-54728083D01*
X41727893Y-54731891D01*
X41706238Y-54759360D01*
X41690007Y-54779949D01*
X41632126Y-54821062D01*
X41561205Y-54824356D01*
X41499763Y-54788784D01*
X41490108Y-54777343D01*
X41473228Y-54754738D01*
X41453798Y-54736777D01*
X41317754Y-54611020D01*
X41317752Y-54611018D01*
X41313513Y-54607100D01*
X41129568Y-54491039D01*
X40927552Y-54410443D01*
X40921892Y-54409317D01*
X40921888Y-54409316D01*
X40719899Y-54369138D01*
X40719896Y-54369138D01*
X40714232Y-54368011D01*
X40708457Y-54367935D01*
X40708453Y-54367935D01*
X40599341Y-54366507D01*
X40496751Y-54365164D01*
X40491054Y-54366143D01*
X40491053Y-54366143D01*
X40288091Y-54401018D01*
X40282394Y-54401997D01*
X40078338Y-54477277D01*
X39891417Y-54588483D01*
X39887074Y-54592292D01*
X39732238Y-54728080D01*
X39732235Y-54728083D01*
X39727893Y-54731891D01*
X39706238Y-54759360D01*
X39690007Y-54779949D01*
X39632126Y-54821062D01*
X39561205Y-54824356D01*
X39499763Y-54788784D01*
X39490108Y-54777343D01*
X39473228Y-54754738D01*
X39453798Y-54736777D01*
X39317754Y-54611020D01*
X39317752Y-54611018D01*
X39313513Y-54607100D01*
X39129568Y-54491039D01*
X38927552Y-54410443D01*
X38921892Y-54409317D01*
X38921888Y-54409316D01*
X38719899Y-54369138D01*
X38719896Y-54369138D01*
X38714232Y-54368011D01*
X38708457Y-54367935D01*
X38708453Y-54367935D01*
X38599341Y-54366507D01*
X38496751Y-54365164D01*
X38491054Y-54366143D01*
X38491053Y-54366143D01*
X38288091Y-54401018D01*
X38282394Y-54401997D01*
X38078338Y-54477277D01*
X37891417Y-54588483D01*
X37887074Y-54592292D01*
X37732238Y-54728080D01*
X37732235Y-54728083D01*
X37727893Y-54731891D01*
X37706238Y-54759360D01*
X37690007Y-54779949D01*
X37632126Y-54821062D01*
X37561205Y-54824356D01*
X37499763Y-54788784D01*
X37490108Y-54777343D01*
X37473228Y-54754738D01*
X37453798Y-54736777D01*
X37317754Y-54611020D01*
X37317752Y-54611018D01*
X37313513Y-54607100D01*
X37129568Y-54491039D01*
X36927552Y-54410443D01*
X36921892Y-54409317D01*
X36921888Y-54409316D01*
X36719899Y-54369138D01*
X36719896Y-54369138D01*
X36714232Y-54368011D01*
X36708457Y-54367935D01*
X36708453Y-54367935D01*
X36599341Y-54366507D01*
X36496751Y-54365164D01*
X36491054Y-54366143D01*
X36491053Y-54366143D01*
X36288091Y-54401018D01*
X36282394Y-54401997D01*
X36078338Y-54477277D01*
X35891417Y-54588483D01*
X35887074Y-54592292D01*
X35732238Y-54728080D01*
X35732235Y-54728083D01*
X35727893Y-54731891D01*
X35706238Y-54759360D01*
X35690007Y-54779949D01*
X35632126Y-54821062D01*
X35561205Y-54824356D01*
X35499763Y-54788784D01*
X35490108Y-54777343D01*
X35473228Y-54754738D01*
X35453798Y-54736777D01*
X35317754Y-54611020D01*
X35317752Y-54611018D01*
X35313513Y-54607100D01*
X35129568Y-54491039D01*
X34927552Y-54410443D01*
X34921892Y-54409317D01*
X34921888Y-54409316D01*
X34719899Y-54369138D01*
X34719896Y-54369138D01*
X34714232Y-54368011D01*
X34708457Y-54367935D01*
X34708453Y-54367935D01*
X34599341Y-54366507D01*
X34496751Y-54365164D01*
X34491054Y-54366143D01*
X34491053Y-54366143D01*
X34288091Y-54401018D01*
X34282394Y-54401997D01*
X34078338Y-54477277D01*
X33891417Y-54588483D01*
X33887074Y-54592292D01*
X33732238Y-54728080D01*
X33732235Y-54728083D01*
X33727893Y-54731891D01*
X33706237Y-54759362D01*
X33689688Y-54780354D01*
X33631807Y-54821467D01*
X33560887Y-54824761D01*
X33499444Y-54789190D01*
X33489780Y-54777737D01*
X33476313Y-54759703D01*
X33468611Y-54751149D01*
X33317454Y-54611420D01*
X33308322Y-54604412D01*
X33134224Y-54494565D01*
X33123977Y-54489344D01*
X32932774Y-54413062D01*
X32921747Y-54409795D01*
X32861770Y-54397866D01*
X32848894Y-54399018D01*
X32844000Y-54414171D01*
X32844000Y-57678000D01*
X32823998Y-57746121D01*
X32770342Y-57792614D01*
X32718000Y-57804000D01*
X32462000Y-57804000D01*
X32393879Y-57783998D01*
X32347386Y-57730342D01*
X32336000Y-57678000D01*
X32336000Y-54411406D01*
X32332194Y-54398444D01*
X32317278Y-54396508D01*
X32288220Y-54401501D01*
X32277100Y-54404481D01*
X32083969Y-54475731D01*
X32073591Y-54480681D01*
X31896679Y-54585932D01*
X31887367Y-54592698D01*
X31732596Y-54728428D01*
X31724673Y-54736777D01*
X31690314Y-54780361D01*
X31632433Y-54821474D01*
X31561513Y-54824768D01*
X31500071Y-54789196D01*
X31490412Y-54777750D01*
X31473228Y-54754738D01*
X31453798Y-54736777D01*
X31317754Y-54611020D01*
X31317752Y-54611018D01*
X31313513Y-54607100D01*
X31129568Y-54491039D01*
X30927552Y-54410443D01*
X30921892Y-54409317D01*
X30921888Y-54409316D01*
X30719899Y-54369138D01*
X30719896Y-54369138D01*
X30714232Y-54368011D01*
X30708457Y-54367935D01*
X30708453Y-54367935D01*
X30599341Y-54366507D01*
X30496751Y-54365164D01*
X30491054Y-54366143D01*
X30491053Y-54366143D01*
X30288091Y-54401018D01*
X30282394Y-54401997D01*
X30078338Y-54477277D01*
X29891417Y-54588483D01*
X29887074Y-54592292D01*
X29732238Y-54728080D01*
X29732235Y-54728083D01*
X29727893Y-54731891D01*
X29706238Y-54759360D01*
X29690007Y-54779949D01*
X29632126Y-54821062D01*
X29561205Y-54824356D01*
X29499763Y-54788784D01*
X29490108Y-54777343D01*
X29473228Y-54754738D01*
X29453798Y-54736777D01*
X29317754Y-54611020D01*
X29317752Y-54611018D01*
X29313513Y-54607100D01*
X29129568Y-54491039D01*
X28927552Y-54410443D01*
X28921892Y-54409317D01*
X28921888Y-54409316D01*
X28719899Y-54369138D01*
X28719896Y-54369138D01*
X28714232Y-54368011D01*
X28708457Y-54367935D01*
X28708453Y-54367935D01*
X28599341Y-54366507D01*
X28496751Y-54365164D01*
X28491054Y-54366143D01*
X28491053Y-54366143D01*
X28288091Y-54401018D01*
X28282394Y-54401997D01*
X28078338Y-54477277D01*
X27891417Y-54588483D01*
X27887074Y-54592292D01*
X27732238Y-54728080D01*
X27732235Y-54728083D01*
X27727893Y-54731891D01*
X27706238Y-54759360D01*
X27690007Y-54779949D01*
X27632126Y-54821062D01*
X27561205Y-54824356D01*
X27499763Y-54788784D01*
X27490108Y-54777343D01*
X27473228Y-54754738D01*
X27453798Y-54736777D01*
X27317754Y-54611020D01*
X27317752Y-54611018D01*
X27313513Y-54607100D01*
X27129568Y-54491039D01*
X26927552Y-54410443D01*
X26921892Y-54409317D01*
X26921888Y-54409316D01*
X26719899Y-54369138D01*
X26719896Y-54369138D01*
X26714232Y-54368011D01*
X26708457Y-54367935D01*
X26708453Y-54367935D01*
X26599341Y-54366507D01*
X26496751Y-54365164D01*
X26491054Y-54366143D01*
X26491053Y-54366143D01*
X26288091Y-54401018D01*
X26282394Y-54401997D01*
X26078338Y-54477277D01*
X25891417Y-54588483D01*
X25887074Y-54592292D01*
X25732238Y-54728080D01*
X25732235Y-54728083D01*
X25727893Y-54731891D01*
X25706238Y-54759360D01*
X25690007Y-54779949D01*
X25632126Y-54821062D01*
X25561205Y-54824356D01*
X25499763Y-54788784D01*
X25490108Y-54777343D01*
X25473228Y-54754738D01*
X25453798Y-54736777D01*
X25317754Y-54611020D01*
X25317752Y-54611018D01*
X25313513Y-54607100D01*
X25129568Y-54491039D01*
X24927552Y-54410443D01*
X24921892Y-54409317D01*
X24921888Y-54409316D01*
X24719899Y-54369138D01*
X24719896Y-54369138D01*
X24714232Y-54368011D01*
X24708457Y-54367935D01*
X24708453Y-54367935D01*
X24599341Y-54366507D01*
X24496751Y-54365164D01*
X24491054Y-54366143D01*
X24491053Y-54366143D01*
X24288091Y-54401018D01*
X24282394Y-54401997D01*
X24078338Y-54477277D01*
X23891417Y-54588483D01*
X23887074Y-54592292D01*
X23732238Y-54728080D01*
X23732235Y-54728083D01*
X23727893Y-54731891D01*
X23706238Y-54759360D01*
X23690007Y-54779949D01*
X23632126Y-54821062D01*
X23561205Y-54824356D01*
X23499763Y-54788784D01*
X23490108Y-54777343D01*
X23473228Y-54754738D01*
X23453798Y-54736777D01*
X23317754Y-54611020D01*
X23317752Y-54611018D01*
X23313513Y-54607100D01*
X23129568Y-54491039D01*
X22927552Y-54410443D01*
X22921892Y-54409317D01*
X22921888Y-54409316D01*
X22719899Y-54369138D01*
X22719896Y-54369138D01*
X22714232Y-54368011D01*
X22708457Y-54367935D01*
X22708453Y-54367935D01*
X22599341Y-54366507D01*
X22496751Y-54365164D01*
X22491054Y-54366143D01*
X22491053Y-54366143D01*
X22288091Y-54401018D01*
X22282394Y-54401997D01*
X22078338Y-54477277D01*
X21891417Y-54588483D01*
X21887074Y-54592292D01*
X21732238Y-54728080D01*
X21732235Y-54728083D01*
X21727893Y-54731891D01*
X21706238Y-54759360D01*
X21690007Y-54779949D01*
X21632126Y-54821062D01*
X21561205Y-54824356D01*
X21499763Y-54788784D01*
X21490108Y-54777343D01*
X21473228Y-54754738D01*
X21453798Y-54736777D01*
X21317754Y-54611020D01*
X21317752Y-54611018D01*
X21313513Y-54607100D01*
X21129568Y-54491039D01*
X20927552Y-54410443D01*
X20921892Y-54409317D01*
X20921888Y-54409316D01*
X20719899Y-54369138D01*
X20719896Y-54369138D01*
X20714232Y-54368011D01*
X20708457Y-54367935D01*
X20708453Y-54367935D01*
X20599341Y-54366507D01*
X20496751Y-54365164D01*
X20491054Y-54366143D01*
X20491053Y-54366143D01*
X20288091Y-54401018D01*
X20282394Y-54401997D01*
X20078338Y-54477277D01*
X19891417Y-54588483D01*
X19887074Y-54592292D01*
X19732238Y-54728080D01*
X19732235Y-54728083D01*
X19727893Y-54731891D01*
X19706238Y-54759360D01*
X19690007Y-54779949D01*
X19632126Y-54821062D01*
X19561205Y-54824356D01*
X19499763Y-54788784D01*
X19490108Y-54777343D01*
X19473228Y-54754738D01*
X19453798Y-54736777D01*
X19317754Y-54611020D01*
X19317752Y-54611018D01*
X19313513Y-54607100D01*
X19129568Y-54491039D01*
X18927552Y-54410443D01*
X18921892Y-54409317D01*
X18921888Y-54409316D01*
X18719899Y-54369138D01*
X18719896Y-54369138D01*
X18714232Y-54368011D01*
X18708457Y-54367935D01*
X18708453Y-54367935D01*
X18599341Y-54366507D01*
X18496751Y-54365164D01*
X18491054Y-54366143D01*
X18491053Y-54366143D01*
X18288091Y-54401018D01*
X18282394Y-54401997D01*
X18078338Y-54477277D01*
X17891417Y-54588483D01*
X17887074Y-54592292D01*
X17732238Y-54728080D01*
X17732235Y-54728083D01*
X17727893Y-54731891D01*
X17593240Y-54902697D01*
X17590551Y-54907808D01*
X17590549Y-54907811D01*
X17539137Y-55005530D01*
X17491969Y-55095181D01*
X17427472Y-55302897D01*
X17401907Y-55518889D01*
X17416132Y-55735922D01*
X17417553Y-55741518D01*
X17417554Y-55741523D01*
X17440766Y-55832919D01*
X17469671Y-55946729D01*
X17560729Y-56144250D01*
X17564062Y-56148966D01*
X17656894Y-56280320D01*
X17679875Y-56347494D01*
X17662891Y-56416429D01*
X17622119Y-56459037D01*
X17586311Y-56482050D01*
X17578729Y-56486923D01*
X17572828Y-56493733D01*
X17488918Y-56590569D01*
X17488916Y-56590572D01*
X17483016Y-56597381D01*
X17479272Y-56605579D01*
X17460479Y-56646731D01*
X17422300Y-56730330D01*
X17421018Y-56739245D01*
X17421018Y-56739246D01*
X17402139Y-56870552D01*
X17402138Y-56870559D01*
X17401500Y-56875000D01*
X17401500Y-58225000D01*
X17401661Y-58227248D01*
X17405226Y-58277090D01*
X17390135Y-58346465D01*
X17339933Y-58396667D01*
X17270559Y-58411759D01*
X17204039Y-58386949D01*
X17190896Y-58375618D01*
X17161452Y-58346465D01*
X14081876Y-55297380D01*
X12645349Y-53875076D01*
X12611014Y-53812933D01*
X12608000Y-53785538D01*
X12608000Y-53534540D01*
X12628002Y-53466419D01*
X12681658Y-53419926D01*
X12751932Y-53409822D01*
X12816512Y-53439316D01*
X12821921Y-53444285D01*
X12847919Y-53469611D01*
X12852053Y-53473638D01*
X12856849Y-53476843D01*
X12856852Y-53476845D01*
X12958212Y-53544571D01*
X13032897Y-53594474D01*
X13038200Y-53596752D01*
X13038203Y-53596754D01*
X13105023Y-53625462D01*
X13232733Y-53680331D01*
X13444870Y-53728332D01*
X13450644Y-53728559D01*
X13450645Y-53728559D01*
X13493593Y-53730246D01*
X13662201Y-53736871D01*
X13877450Y-53705662D01*
X13882914Y-53703807D01*
X13882919Y-53703806D01*
X14077935Y-53637607D01*
X14077940Y-53637605D01*
X14083407Y-53635749D01*
X14273174Y-53529474D01*
X14287626Y-53517455D01*
X14417039Y-53409822D01*
X14440396Y-53390396D01*
X14444082Y-53385964D01*
X14444087Y-53385959D01*
X14500252Y-53318428D01*
X14559189Y-53278844D01*
X14630171Y-53277408D01*
X14692933Y-53317165D01*
X14696258Y-53321869D01*
X14700400Y-53325904D01*
X14844643Y-53466419D01*
X14852053Y-53473638D01*
X14856849Y-53476843D01*
X14856852Y-53476845D01*
X14958212Y-53544571D01*
X15032897Y-53594474D01*
X15038200Y-53596752D01*
X15038203Y-53596754D01*
X15105023Y-53625462D01*
X15232733Y-53680331D01*
X15444870Y-53728332D01*
X15450644Y-53728559D01*
X15450645Y-53728559D01*
X15493593Y-53730246D01*
X15662201Y-53736871D01*
X15877450Y-53705662D01*
X15882914Y-53703807D01*
X15882919Y-53703806D01*
X16077935Y-53637607D01*
X16077940Y-53637605D01*
X16083407Y-53635749D01*
X16273174Y-53529474D01*
X16287626Y-53517455D01*
X16417039Y-53409822D01*
X16440396Y-53390396D01*
X16494034Y-53325904D01*
X16575780Y-53227616D01*
X16575782Y-53227613D01*
X16579474Y-53223174D01*
X16685749Y-53033407D01*
X16687605Y-53027940D01*
X16687607Y-53027935D01*
X16753806Y-52832919D01*
X16753807Y-52832914D01*
X16755662Y-52827450D01*
X16786871Y-52612201D01*
X16788500Y-52550000D01*
X16768598Y-52333413D01*
X16766091Y-52324522D01*
X16721530Y-52166522D01*
X16709560Y-52124080D01*
X16668982Y-52041795D01*
X17154787Y-52041795D01*
X17165214Y-52187580D01*
X17216291Y-52324522D01*
X17221690Y-52331734D01*
X17221691Y-52331736D01*
X17227256Y-52339170D01*
X17303880Y-52441527D01*
X18258474Y-53396121D01*
X18313844Y-53444100D01*
X18442123Y-53514146D01*
X18450930Y-53516062D01*
X18450933Y-53516063D01*
X18576130Y-53543298D01*
X18576133Y-53543298D01*
X18584940Y-53545214D01*
X18593931Y-53544571D01*
X18721736Y-53535430D01*
X18721737Y-53535430D01*
X18730725Y-53534787D01*
X18867667Y-53483710D01*
X18916259Y-53447335D01*
X18981068Y-53398819D01*
X18981069Y-53398818D01*
X18984672Y-53396121D01*
X19939266Y-52441527D01*
X19987245Y-52386157D01*
X20057291Y-52257878D01*
X20059208Y-52249068D01*
X20086443Y-52123871D01*
X20086443Y-52123868D01*
X20088359Y-52115061D01*
X20078130Y-51972047D01*
X20093221Y-51902674D01*
X20143423Y-51852472D01*
X20185729Y-51838363D01*
X20236039Y-51831069D01*
X20307522Y-51820705D01*
X20307526Y-51820704D01*
X20313237Y-51819876D01*
X20318701Y-51818021D01*
X20318706Y-51818020D01*
X20513722Y-51751821D01*
X20513727Y-51751819D01*
X20519194Y-51749963D01*
X20543363Y-51736428D01*
X20639409Y-51682639D01*
X20708961Y-51643688D01*
X20715809Y-51637993D01*
X20871751Y-51508296D01*
X20876183Y-51504610D01*
X20933991Y-51435104D01*
X21011567Y-51341830D01*
X21011569Y-51341827D01*
X21015261Y-51337388D01*
X21079902Y-51221963D01*
X21118712Y-51152664D01*
X21118713Y-51152662D01*
X21121536Y-51147621D01*
X21123392Y-51142154D01*
X21123394Y-51142149D01*
X21189593Y-50947133D01*
X21189594Y-50947128D01*
X21191449Y-50941664D01*
X21222658Y-50726415D01*
X21224287Y-50664214D01*
X21215425Y-50567768D01*
X21229110Y-50498103D01*
X21278286Y-50446895D01*
X21345843Y-50430336D01*
X21411082Y-50432899D01*
X21512201Y-50436872D01*
X21727450Y-50405663D01*
X21732914Y-50403808D01*
X21732919Y-50403807D01*
X21927935Y-50337608D01*
X21927940Y-50337606D01*
X21933407Y-50335750D01*
X21947516Y-50327849D01*
X22009410Y-50293186D01*
X22123174Y-50229475D01*
X22147318Y-50209395D01*
X22285964Y-50094083D01*
X22290396Y-50090397D01*
X22351514Y-50016911D01*
X22425780Y-49927617D01*
X22425782Y-49927614D01*
X22429474Y-49923175D01*
X22509685Y-49779949D01*
X22532925Y-49738451D01*
X22532926Y-49738449D01*
X22535749Y-49733408D01*
X22537605Y-49727941D01*
X22537607Y-49727936D01*
X22603806Y-49532920D01*
X22603807Y-49532915D01*
X22605662Y-49527451D01*
X22636871Y-49312202D01*
X22638500Y-49250001D01*
X22629638Y-49153554D01*
X22643323Y-49083889D01*
X22692499Y-49032681D01*
X22760056Y-49016122D01*
X22830900Y-49018905D01*
X22926415Y-49022658D01*
X23141664Y-48991449D01*
X23147128Y-48989594D01*
X23147133Y-48989593D01*
X23342149Y-48923394D01*
X23342154Y-48923392D01*
X23347621Y-48921536D01*
X23371183Y-48908341D01*
X23525826Y-48821736D01*
X23537388Y-48815261D01*
X23561531Y-48795182D01*
X23700178Y-48679869D01*
X23704610Y-48676183D01*
X23769501Y-48598161D01*
X23839994Y-48513403D01*
X23839996Y-48513400D01*
X23843688Y-48508961D01*
X23879775Y-48444524D01*
X45571016Y-48444524D01*
X45571147Y-48446357D01*
X45575398Y-48452972D01*
X45985653Y-48863227D01*
X45988958Y-48866304D01*
X46037471Y-48908341D01*
X46048494Y-48915994D01*
X46162814Y-48978417D01*
X46179536Y-48984654D01*
X46304593Y-49011859D01*
X46322394Y-49013132D01*
X46450055Y-49004001D01*
X46467491Y-49000208D01*
X46587411Y-48955481D01*
X46601341Y-48947874D01*
X46670715Y-48932783D01*
X46737235Y-48957594D01*
X46779782Y-49014429D01*
X46787720Y-49059669D01*
X46786389Y-49198284D01*
X46823053Y-49425912D01*
X46897545Y-49644107D01*
X46900095Y-49648794D01*
X46900096Y-49648796D01*
X46943155Y-49727936D01*
X47007736Y-49846631D01*
X47150475Y-50027695D01*
X47203590Y-50075604D01*
X47317710Y-50178540D01*
X47317716Y-50178545D01*
X47321680Y-50182120D01*
X47326193Y-50184979D01*
X47326195Y-50184980D01*
X47364742Y-50209395D01*
X47516457Y-50305490D01*
X47729235Y-50394279D01*
X47734438Y-50395476D01*
X47734443Y-50395477D01*
X47948729Y-50444752D01*
X47948734Y-50444753D01*
X47953932Y-50445948D01*
X47959260Y-50446251D01*
X47959263Y-50446251D01*
X48115344Y-50455114D01*
X48184122Y-50459019D01*
X48189429Y-50458419D01*
X48189431Y-50458419D01*
X48313693Y-50444371D01*
X48413224Y-50433119D01*
X48418341Y-50431637D01*
X48418347Y-50431636D01*
X48462028Y-50418987D01*
X48533024Y-50419252D01*
X48592606Y-50457859D01*
X48621858Y-50522549D01*
X48621063Y-50562436D01*
X48601613Y-50669998D01*
X48584653Y-50763785D01*
X48583566Y-50877048D01*
X48582847Y-50951972D01*
X48582440Y-50994335D01*
X48619104Y-51221963D01*
X48693596Y-51440158D01*
X48696146Y-51444845D01*
X48696147Y-51444847D01*
X48705341Y-51461745D01*
X48803787Y-51642682D01*
X48946526Y-51823746D01*
X48999641Y-51871655D01*
X49113761Y-51974591D01*
X49113767Y-51974596D01*
X49117731Y-51978171D01*
X49122244Y-51981030D01*
X49122246Y-51981031D01*
X49215119Y-52039856D01*
X49312508Y-52101541D01*
X49525286Y-52190330D01*
X49530489Y-52191527D01*
X49530494Y-52191528D01*
X49744780Y-52240803D01*
X49744785Y-52240804D01*
X49749983Y-52241999D01*
X49755311Y-52242302D01*
X49755314Y-52242302D01*
X49911395Y-52251165D01*
X49980173Y-52255070D01*
X49985480Y-52254470D01*
X49985482Y-52254470D01*
X50106374Y-52240803D01*
X50209275Y-52229170D01*
X50214390Y-52227689D01*
X50214394Y-52227688D01*
X50301002Y-52202608D01*
X50430737Y-52165039D01*
X50638227Y-52064511D01*
X50642565Y-52061411D01*
X50642570Y-52061408D01*
X50821472Y-51933561D01*
X50825813Y-51930459D01*
X50937276Y-51818020D01*
X50984379Y-51770505D01*
X50984380Y-51770504D01*
X50988132Y-51766719D01*
X50999287Y-51750817D01*
X51117477Y-51582338D01*
X51117478Y-51582336D01*
X51120541Y-51577970D01*
X51219255Y-51369610D01*
X51281451Y-51147596D01*
X51282347Y-51139005D01*
X51301839Y-50951972D01*
X51305351Y-50918278D01*
X51305602Y-50892102D01*
X51305352Y-50889154D01*
X51286560Y-50667678D01*
X51286559Y-50667674D01*
X51286109Y-50662367D01*
X51275858Y-50622869D01*
X51229528Y-50444371D01*
X51228186Y-50439200D01*
X51215751Y-50411594D01*
X51135680Y-50233845D01*
X51135679Y-50233843D01*
X51133490Y-50228984D01*
X51004729Y-50037728D01*
X50998570Y-50031271D01*
X50875916Y-49902697D01*
X50845584Y-49870901D01*
X50660606Y-49733273D01*
X50655855Y-49730857D01*
X50655851Y-49730855D01*
X50459842Y-49631199D01*
X50459841Y-49631199D01*
X50455084Y-49628780D01*
X50317668Y-49586111D01*
X50239997Y-49561993D01*
X50239991Y-49561992D01*
X50234894Y-49560409D01*
X50129900Y-49546493D01*
X50011617Y-49530816D01*
X50011612Y-49530816D01*
X50006332Y-49530116D01*
X50001002Y-49530316D01*
X50001001Y-49530316D01*
X49891133Y-49534440D01*
X49775933Y-49538765D01*
X49727456Y-49548937D01*
X49614748Y-49572585D01*
X49543972Y-49566998D01*
X49487451Y-49524033D01*
X49463132Y-49457331D01*
X49467545Y-49415280D01*
X49474516Y-49390396D01*
X49485400Y-49351545D01*
X49489118Y-49315876D01*
X49498316Y-49227616D01*
X49509300Y-49122227D01*
X49509551Y-49096051D01*
X49504174Y-49032681D01*
X49490509Y-48871627D01*
X49490508Y-48871623D01*
X49490058Y-48866316D01*
X49479971Y-48827450D01*
X49433477Y-48648320D01*
X49432135Y-48643149D01*
X49411870Y-48598161D01*
X49339629Y-48437794D01*
X49339628Y-48437792D01*
X49337439Y-48432933D01*
X49334173Y-48428081D01*
X49266692Y-48327849D01*
X49208678Y-48241677D01*
X49150061Y-48180230D01*
X49091552Y-48118897D01*
X49049533Y-48074850D01*
X49040343Y-48068012D01*
X48868837Y-47940408D01*
X48868838Y-47940408D01*
X48864555Y-47937222D01*
X48859804Y-47934806D01*
X48859800Y-47934804D01*
X48663791Y-47835148D01*
X48663790Y-47835148D01*
X48659033Y-47832729D01*
X48518815Y-47789190D01*
X48443946Y-47765942D01*
X48443940Y-47765941D01*
X48438843Y-47764358D01*
X48333849Y-47750442D01*
X48215566Y-47734765D01*
X48215561Y-47734765D01*
X48210281Y-47734065D01*
X48204951Y-47734265D01*
X48204950Y-47734265D01*
X48108566Y-47737883D01*
X48039743Y-47720451D01*
X47991270Y-47668577D01*
X47978538Y-47598731D01*
X47993252Y-47551587D01*
X48028417Y-47487186D01*
X48034654Y-47470464D01*
X48061859Y-47345407D01*
X48063132Y-47327606D01*
X48054001Y-47199945D01*
X48050208Y-47182509D01*
X48005480Y-47062587D01*
X47996931Y-47046931D01*
X47917525Y-46940857D01*
X47911643Y-46934069D01*
X47506204Y-46528630D01*
X47492260Y-46521016D01*
X47490427Y-46521147D01*
X47483812Y-46525398D01*
X45578630Y-48430580D01*
X45571016Y-48444524D01*
X23879775Y-48444524D01*
X23949963Y-48319194D01*
X23951819Y-48313727D01*
X23951821Y-48313722D01*
X24018020Y-48118706D01*
X24018021Y-48118701D01*
X24019876Y-48113237D01*
X24051085Y-47897988D01*
X24052714Y-47835787D01*
X24046296Y-47765942D01*
X24043852Y-47739341D01*
X24057537Y-47669676D01*
X24106713Y-47618468D01*
X24174270Y-47601909D01*
X24239509Y-47604472D01*
X24340628Y-47608445D01*
X24555877Y-47577236D01*
X24561341Y-47575381D01*
X24561346Y-47575380D01*
X24756362Y-47509181D01*
X24756367Y-47509179D01*
X24761834Y-47507323D01*
X24951601Y-47401048D01*
X24960402Y-47393729D01*
X25114391Y-47265656D01*
X25118823Y-47261970D01*
X25181970Y-47186045D01*
X25254207Y-47099190D01*
X25254209Y-47099187D01*
X25257901Y-47094748D01*
X25343929Y-46941134D01*
X25361352Y-46910024D01*
X25361353Y-46910022D01*
X25364176Y-46904981D01*
X25366032Y-46899514D01*
X25366034Y-46899509D01*
X25432233Y-46704493D01*
X25432234Y-46704488D01*
X25434089Y-46699024D01*
X25462946Y-46500000D01*
X37661000Y-46500000D01*
X37680962Y-46689927D01*
X37683002Y-46696205D01*
X37683002Y-46696206D01*
X37704076Y-46761066D01*
X37739976Y-46871554D01*
X37835463Y-47036942D01*
X37963249Y-47178863D01*
X37968591Y-47182744D01*
X37968593Y-47182746D01*
X38112408Y-47287233D01*
X38117750Y-47291114D01*
X38123778Y-47293798D01*
X38123780Y-47293799D01*
X38286182Y-47366105D01*
X38292213Y-47368790D01*
X38372986Y-47385959D01*
X38472556Y-47407124D01*
X38472561Y-47407124D01*
X38479013Y-47408496D01*
X38669987Y-47408496D01*
X38676439Y-47407124D01*
X38676444Y-47407124D01*
X38776014Y-47385959D01*
X38856787Y-47368790D01*
X38862818Y-47366105D01*
X39025220Y-47293799D01*
X39025222Y-47293798D01*
X39031250Y-47291114D01*
X39036592Y-47287233D01*
X39057019Y-47272392D01*
X44636868Y-47272392D01*
X44645999Y-47400055D01*
X44649792Y-47417491D01*
X44694520Y-47537413D01*
X44703069Y-47553069D01*
X44782475Y-47659143D01*
X44788357Y-47665931D01*
X45193796Y-48071370D01*
X45207740Y-48078984D01*
X45209573Y-48078853D01*
X45216188Y-48074602D01*
X45977978Y-47312812D01*
X45985592Y-47298868D01*
X45985461Y-47297035D01*
X45981210Y-47290420D01*
X45219420Y-46528630D01*
X45205476Y-46521016D01*
X45203643Y-46521147D01*
X45197028Y-46525398D01*
X44786773Y-46935653D01*
X44783696Y-46938958D01*
X44741659Y-46987471D01*
X44734006Y-46998494D01*
X44671583Y-47112814D01*
X44665346Y-47129536D01*
X44638141Y-47254593D01*
X44636868Y-47272392D01*
X39057019Y-47272392D01*
X39180407Y-47182746D01*
X39180409Y-47182744D01*
X39185751Y-47178863D01*
X39313537Y-47036942D01*
X39409024Y-46871554D01*
X39444924Y-46761066D01*
X39465998Y-46696206D01*
X39465998Y-46696205D01*
X39468038Y-46689927D01*
X39488000Y-46500000D01*
X39468038Y-46310073D01*
X39465707Y-46302897D01*
X39418542Y-46157740D01*
X45571016Y-46157740D01*
X45571147Y-46159573D01*
X45575398Y-46166188D01*
X46337188Y-46927978D01*
X46351132Y-46935592D01*
X46352965Y-46935461D01*
X46359580Y-46931210D01*
X47121370Y-46169420D01*
X47128984Y-46155476D01*
X47128853Y-46153643D01*
X47124602Y-46147028D01*
X46714347Y-45736773D01*
X46711042Y-45733696D01*
X46662529Y-45691659D01*
X46651506Y-45684006D01*
X46537186Y-45621583D01*
X46520464Y-45615346D01*
X46395407Y-45588141D01*
X46377606Y-45586868D01*
X46249945Y-45595999D01*
X46232509Y-45599792D01*
X46112587Y-45644520D01*
X46096931Y-45653069D01*
X45990857Y-45732475D01*
X45984069Y-45738357D01*
X45578630Y-46143796D01*
X45571016Y-46157740D01*
X39418542Y-46157740D01*
X39409024Y-46128446D01*
X39389819Y-46095181D01*
X39316838Y-45968776D01*
X39313537Y-45963058D01*
X39265927Y-45910181D01*
X39190173Y-45826048D01*
X39190172Y-45826047D01*
X39185751Y-45821137D01*
X39180409Y-45817256D01*
X39180407Y-45817254D01*
X39036592Y-45712767D01*
X39036591Y-45712766D01*
X39031250Y-45708886D01*
X39025222Y-45706202D01*
X39025220Y-45706201D01*
X38862818Y-45633895D01*
X38862817Y-45633895D01*
X38856787Y-45631210D01*
X38763387Y-45611357D01*
X38676444Y-45592876D01*
X38676439Y-45592876D01*
X38669987Y-45591504D01*
X38479013Y-45591504D01*
X38472561Y-45592876D01*
X38472556Y-45592876D01*
X38385613Y-45611357D01*
X38292213Y-45631210D01*
X38286183Y-45633895D01*
X38286182Y-45633895D01*
X38123780Y-45706201D01*
X38123778Y-45706202D01*
X38117750Y-45708886D01*
X38112409Y-45712766D01*
X38112408Y-45712767D01*
X37968593Y-45817254D01*
X37968591Y-45817256D01*
X37963249Y-45821137D01*
X37958828Y-45826047D01*
X37958827Y-45826048D01*
X37883074Y-45910181D01*
X37835463Y-45963058D01*
X37832162Y-45968776D01*
X37759182Y-46095181D01*
X37739976Y-46128446D01*
X37730458Y-46157740D01*
X37683294Y-46302897D01*
X37680962Y-46310073D01*
X37661000Y-46500000D01*
X25462946Y-46500000D01*
X25465298Y-46483775D01*
X25466927Y-46421574D01*
X25447025Y-46204987D01*
X25433062Y-46155476D01*
X25389556Y-46001218D01*
X25387987Y-45995654D01*
X25339169Y-45896659D01*
X25294345Y-45805764D01*
X25294342Y-45805760D01*
X25291790Y-45800584D01*
X25274426Y-45777330D01*
X25165108Y-45630936D01*
X25165107Y-45630935D01*
X25161655Y-45626312D01*
X25149792Y-45615346D01*
X25006181Y-45482594D01*
X25006179Y-45482592D01*
X25001940Y-45478674D01*
X24997057Y-45475593D01*
X24822875Y-45365692D01*
X24817995Y-45362613D01*
X24615979Y-45282017D01*
X24610319Y-45280891D01*
X24610315Y-45280890D01*
X24408326Y-45240712D01*
X24408323Y-45240712D01*
X24402659Y-45239585D01*
X24396884Y-45239509D01*
X24396880Y-45239509D01*
X24287768Y-45238081D01*
X24185178Y-45236738D01*
X24179481Y-45237717D01*
X24179480Y-45237717D01*
X23976518Y-45272592D01*
X23970821Y-45273571D01*
X23766765Y-45348851D01*
X23579844Y-45460057D01*
X23575501Y-45463866D01*
X23420665Y-45599654D01*
X23420662Y-45599657D01*
X23416320Y-45603465D01*
X23281667Y-45774271D01*
X23278978Y-45779382D01*
X23278976Y-45779385D01*
X23256832Y-45821474D01*
X23180396Y-45966755D01*
X23115899Y-46174471D01*
X23090334Y-46390463D01*
X23090712Y-46396230D01*
X23098781Y-46519346D01*
X23083277Y-46588629D01*
X23032777Y-46638531D01*
X22971402Y-46653575D01*
X22770965Y-46650951D01*
X22765268Y-46651930D01*
X22765267Y-46651930D01*
X22562305Y-46686805D01*
X22556608Y-46687784D01*
X22352552Y-46763064D01*
X22165631Y-46874270D01*
X22161288Y-46878079D01*
X22006452Y-47013867D01*
X22006449Y-47013870D01*
X22002107Y-47017678D01*
X21867454Y-47188484D01*
X21864765Y-47193595D01*
X21864763Y-47193598D01*
X21832672Y-47254593D01*
X21766183Y-47380968D01*
X21701686Y-47588684D01*
X21676121Y-47804676D01*
X21676499Y-47810443D01*
X21684568Y-47933560D01*
X21669064Y-48002843D01*
X21618564Y-48052745D01*
X21557189Y-48067789D01*
X21356751Y-48065165D01*
X21351054Y-48066144D01*
X21351053Y-48066144D01*
X21148091Y-48101019D01*
X21142394Y-48101998D01*
X20938338Y-48177278D01*
X20751417Y-48288484D01*
X20747074Y-48292293D01*
X20592238Y-48428081D01*
X20592235Y-48428084D01*
X20587893Y-48431892D01*
X20453240Y-48602698D01*
X20450551Y-48607809D01*
X20450549Y-48607812D01*
X20412638Y-48679869D01*
X20351969Y-48795182D01*
X20287472Y-49002898D01*
X20261907Y-49218890D01*
X20262285Y-49224657D01*
X20270354Y-49347773D01*
X20254850Y-49417056D01*
X20204350Y-49466958D01*
X20142975Y-49482002D01*
X19942538Y-49479378D01*
X19936841Y-49480357D01*
X19936840Y-49480357D01*
X19765264Y-49509839D01*
X19728181Y-49516211D01*
X19524125Y-49591491D01*
X19337204Y-49702697D01*
X19332861Y-49706506D01*
X19178025Y-49842294D01*
X19178022Y-49842297D01*
X19173680Y-49846105D01*
X19039027Y-50016911D01*
X19036338Y-50022022D01*
X19036336Y-50022025D01*
X19025745Y-50042155D01*
X18937756Y-50209395D01*
X18873259Y-50417111D01*
X18869987Y-50444752D01*
X18861725Y-50514559D01*
X18833854Y-50579857D01*
X18775106Y-50619720D01*
X18709815Y-50622869D01*
X18658206Y-50611642D01*
X18649215Y-50612285D01*
X18521410Y-50621426D01*
X18521409Y-50621426D01*
X18512421Y-50622069D01*
X18375479Y-50673146D01*
X18258474Y-50760735D01*
X17303880Y-51715329D01*
X17255901Y-51770699D01*
X17185855Y-51898978D01*
X17183939Y-51907785D01*
X17183938Y-51907788D01*
X17156703Y-52032985D01*
X17156703Y-52032988D01*
X17154787Y-52041795D01*
X16668982Y-52041795D01*
X16615918Y-51934190D01*
X16615915Y-51934186D01*
X16613363Y-51929010D01*
X16589206Y-51896659D01*
X16486681Y-51759362D01*
X16486680Y-51759361D01*
X16483228Y-51754738D01*
X16478991Y-51750821D01*
X16478987Y-51750817D01*
X16360973Y-51641727D01*
X16324527Y-51580799D01*
X16326807Y-51509839D01*
X16365932Y-51452328D01*
X16435959Y-51394087D01*
X16435964Y-51394082D01*
X16440396Y-51390396D01*
X16484483Y-51337388D01*
X16575780Y-51227616D01*
X16575782Y-51227613D01*
X16579474Y-51223174D01*
X16685749Y-51033407D01*
X16687605Y-51027940D01*
X16687607Y-51027935D01*
X16753806Y-50832919D01*
X16753807Y-50832914D01*
X16755662Y-50827450D01*
X16786871Y-50612201D01*
X16788500Y-50550000D01*
X16768598Y-50333413D01*
X16709560Y-50124080D01*
X16690764Y-50085965D01*
X16615918Y-49934190D01*
X16615915Y-49934186D01*
X16613363Y-49929010D01*
X16589206Y-49896659D01*
X16486681Y-49759362D01*
X16486680Y-49759361D01*
X16483228Y-49754738D01*
X16478991Y-49750821D01*
X16478987Y-49750817D01*
X16360973Y-49641727D01*
X16324527Y-49580799D01*
X16326807Y-49509839D01*
X16365932Y-49452328D01*
X16435959Y-49394087D01*
X16435964Y-49394082D01*
X16440396Y-49390396D01*
X16494039Y-49325898D01*
X16575780Y-49227616D01*
X16575782Y-49227613D01*
X16579474Y-49223174D01*
X16685749Y-49033407D01*
X16687605Y-49027940D01*
X16687607Y-49027935D01*
X16753806Y-48832919D01*
X16753807Y-48832914D01*
X16755662Y-48827450D01*
X16786871Y-48612201D01*
X16788500Y-48550000D01*
X16768598Y-48333413D01*
X16765875Y-48323756D01*
X16711129Y-48129644D01*
X16709560Y-48124080D01*
X16681801Y-48067789D01*
X16615918Y-47934190D01*
X16615915Y-47934186D01*
X16613363Y-47929010D01*
X16532755Y-47821062D01*
X16486681Y-47759362D01*
X16486680Y-47759361D01*
X16483228Y-47754738D01*
X16478992Y-47750822D01*
X16360604Y-47641386D01*
X16324159Y-47580458D01*
X16326440Y-47509498D01*
X16365563Y-47451987D01*
X16435610Y-47393729D01*
X16443734Y-47385605D01*
X16575371Y-47227329D01*
X16581881Y-47217857D01*
X16682472Y-47038238D01*
X16687148Y-47027735D01*
X16753316Y-46832810D01*
X16755947Y-46821850D01*
X16753972Y-46807993D01*
X16740404Y-46804000D01*
X15472000Y-46804000D01*
X15403879Y-46783998D01*
X15357386Y-46730342D01*
X15346000Y-46678000D01*
X15346000Y-46422000D01*
X15366002Y-46353879D01*
X15419658Y-46307386D01*
X15472000Y-46296000D01*
X16739415Y-46296000D01*
X16752946Y-46292027D01*
X16754115Y-46283892D01*
X16710662Y-46129818D01*
X16706540Y-46119079D01*
X16615492Y-45934453D01*
X16609482Y-45924645D01*
X16486313Y-45759703D01*
X16478611Y-45751149D01*
X16360586Y-45642047D01*
X16324141Y-45581119D01*
X16326422Y-45510159D01*
X16365546Y-45452649D01*
X16435959Y-45394087D01*
X16435964Y-45394082D01*
X16440396Y-45390396D01*
X16494034Y-45325904D01*
X16575780Y-45227616D01*
X16575782Y-45227613D01*
X16579474Y-45223174D01*
X16685749Y-45033407D01*
X16687605Y-45027940D01*
X16687607Y-45027935D01*
X16753806Y-44832919D01*
X16753807Y-44832914D01*
X16755662Y-44827450D01*
X16786871Y-44612201D01*
X16788500Y-44550000D01*
X16768598Y-44333413D01*
X16756669Y-44291114D01*
X16735514Y-44216105D01*
X16709560Y-44124080D01*
X16666589Y-44036942D01*
X16615918Y-43934190D01*
X16615915Y-43934186D01*
X16613363Y-43929010D01*
X16589206Y-43896659D01*
X16486681Y-43759362D01*
X16486680Y-43759361D01*
X16483228Y-43754738D01*
X16478991Y-43750821D01*
X16478987Y-43750817D01*
X16360973Y-43641727D01*
X16324527Y-43580799D01*
X16326807Y-43509839D01*
X16333501Y-43500000D01*
X20136500Y-43500000D01*
X20137190Y-43506565D01*
X20153291Y-43659752D01*
X20156462Y-43689927D01*
X20158502Y-43696205D01*
X20158502Y-43696206D01*
X20170097Y-43731891D01*
X20215476Y-43871554D01*
X20310963Y-44036942D01*
X20315381Y-44041849D01*
X20315382Y-44041850D01*
X20368370Y-44100699D01*
X20438749Y-44178863D01*
X20444091Y-44182744D01*
X20444093Y-44182746D01*
X20548355Y-44258496D01*
X20593250Y-44291114D01*
X20599278Y-44293798D01*
X20599280Y-44293799D01*
X20675758Y-44327849D01*
X20767713Y-44368790D01*
X20854480Y-44387233D01*
X20948056Y-44407124D01*
X20948061Y-44407124D01*
X20954513Y-44408496D01*
X21145487Y-44408496D01*
X21151939Y-44407124D01*
X21151944Y-44407124D01*
X21245520Y-44387233D01*
X21332287Y-44368790D01*
X21424242Y-44327849D01*
X21500720Y-44293799D01*
X21500722Y-44293798D01*
X21506750Y-44291114D01*
X21551645Y-44258496D01*
X21655907Y-44182746D01*
X21655909Y-44182744D01*
X21661251Y-44178863D01*
X21731630Y-44100699D01*
X21784618Y-44041850D01*
X21784619Y-44041849D01*
X21789037Y-44036942D01*
X21884524Y-43871554D01*
X21929903Y-43731891D01*
X21941498Y-43696206D01*
X21941498Y-43696205D01*
X21943538Y-43689927D01*
X21946710Y-43659752D01*
X21952990Y-43600000D01*
X32436500Y-43600000D01*
X32437190Y-43606565D01*
X32453250Y-43759362D01*
X32456462Y-43789927D01*
X32515476Y-43971554D01*
X32610963Y-44136942D01*
X32615381Y-44141849D01*
X32615382Y-44141850D01*
X32734327Y-44273952D01*
X32738749Y-44278863D01*
X32744091Y-44282744D01*
X32744093Y-44282746D01*
X32864412Y-44370162D01*
X32893250Y-44391114D01*
X32899278Y-44393798D01*
X32899280Y-44393799D01*
X33061682Y-44466105D01*
X33067713Y-44468790D01*
X33161113Y-44488643D01*
X33248056Y-44507124D01*
X33248061Y-44507124D01*
X33254513Y-44508496D01*
X33445487Y-44508496D01*
X33451939Y-44507124D01*
X33451944Y-44507124D01*
X33538887Y-44488643D01*
X33632287Y-44468790D01*
X33638318Y-44466105D01*
X33800720Y-44393799D01*
X33800722Y-44393798D01*
X33806750Y-44391114D01*
X33835588Y-44370162D01*
X33955907Y-44282746D01*
X33955909Y-44282744D01*
X33961251Y-44278863D01*
X33965673Y-44273952D01*
X34084618Y-44141850D01*
X34084619Y-44141849D01*
X34089037Y-44136942D01*
X34184524Y-43971554D01*
X34243538Y-43789927D01*
X34246751Y-43759362D01*
X34262810Y-43606565D01*
X34263500Y-43600000D01*
X34256496Y-43533363D01*
X34244228Y-43416637D01*
X34244228Y-43416636D01*
X34243538Y-43410073D01*
X34224019Y-43350000D01*
X42036500Y-43350000D01*
X42037190Y-43356565D01*
X42052956Y-43506565D01*
X42056462Y-43539927D01*
X42115476Y-43721554D01*
X42118779Y-43727276D01*
X42118780Y-43727277D01*
X42147678Y-43777330D01*
X42210963Y-43886942D01*
X42215381Y-43891849D01*
X42215382Y-43891850D01*
X42225149Y-43902697D01*
X42338749Y-44028863D01*
X42344091Y-44032744D01*
X42344093Y-44032746D01*
X42487908Y-44137233D01*
X42493250Y-44141114D01*
X42499278Y-44143798D01*
X42499280Y-44143799D01*
X42661682Y-44216105D01*
X42667713Y-44218790D01*
X42761113Y-44238643D01*
X42848056Y-44257124D01*
X42848061Y-44257124D01*
X42854513Y-44258496D01*
X43045487Y-44258496D01*
X43051939Y-44257124D01*
X43051944Y-44257124D01*
X43138887Y-44238643D01*
X43232287Y-44218790D01*
X43238318Y-44216105D01*
X43400720Y-44143799D01*
X43400722Y-44143798D01*
X43406750Y-44141114D01*
X43412092Y-44137233D01*
X43555907Y-44032746D01*
X43555909Y-44032744D01*
X43561251Y-44028863D01*
X43674851Y-43902697D01*
X43684618Y-43891850D01*
X43684619Y-43891849D01*
X43689037Y-43886942D01*
X43752322Y-43777330D01*
X43781220Y-43727277D01*
X43781221Y-43727276D01*
X43784524Y-43721554D01*
X43843538Y-43539927D01*
X43847045Y-43506565D01*
X43862810Y-43356565D01*
X43863500Y-43350000D01*
X43843538Y-43160073D01*
X43784524Y-42978446D01*
X43689037Y-42813058D01*
X43617759Y-42733895D01*
X43565673Y-42676048D01*
X43565672Y-42676047D01*
X43561251Y-42671137D01*
X43555909Y-42667256D01*
X43555907Y-42667254D01*
X43412092Y-42562767D01*
X43412091Y-42562766D01*
X43406750Y-42558886D01*
X43400722Y-42556202D01*
X43400720Y-42556201D01*
X43238318Y-42483895D01*
X43238317Y-42483895D01*
X43232287Y-42481210D01*
X43138887Y-42461357D01*
X43051944Y-42442876D01*
X43051939Y-42442876D01*
X43045487Y-42441504D01*
X42854513Y-42441504D01*
X42848061Y-42442876D01*
X42848056Y-42442876D01*
X42761113Y-42461357D01*
X42667713Y-42481210D01*
X42661683Y-42483895D01*
X42661682Y-42483895D01*
X42499280Y-42556201D01*
X42499278Y-42556202D01*
X42493250Y-42558886D01*
X42487909Y-42562766D01*
X42487908Y-42562767D01*
X42344093Y-42667254D01*
X42344091Y-42667256D01*
X42338749Y-42671137D01*
X42334328Y-42676047D01*
X42334327Y-42676048D01*
X42282242Y-42733895D01*
X42210963Y-42813058D01*
X42115476Y-42978446D01*
X42056462Y-43160073D01*
X42036500Y-43350000D01*
X34224019Y-43350000D01*
X34184524Y-43228446D01*
X34178568Y-43218129D01*
X34132885Y-43139005D01*
X34089037Y-43063058D01*
X33961251Y-42921137D01*
X33955909Y-42917256D01*
X33955907Y-42917254D01*
X33812092Y-42812767D01*
X33812091Y-42812766D01*
X33806750Y-42808886D01*
X33800722Y-42806202D01*
X33800720Y-42806201D01*
X33638318Y-42733895D01*
X33638317Y-42733895D01*
X33632287Y-42731210D01*
X33527262Y-42708886D01*
X33451944Y-42692876D01*
X33451939Y-42692876D01*
X33445487Y-42691504D01*
X33254513Y-42691504D01*
X33248061Y-42692876D01*
X33248056Y-42692876D01*
X33172738Y-42708886D01*
X33067713Y-42731210D01*
X33061683Y-42733895D01*
X33061682Y-42733895D01*
X32899280Y-42806201D01*
X32899278Y-42806202D01*
X32893250Y-42808886D01*
X32887909Y-42812766D01*
X32887908Y-42812767D01*
X32744093Y-42917254D01*
X32744091Y-42917256D01*
X32738749Y-42921137D01*
X32610963Y-43063058D01*
X32567115Y-43139005D01*
X32521433Y-43218129D01*
X32515476Y-43228446D01*
X32456462Y-43410073D01*
X32455772Y-43416636D01*
X32455772Y-43416637D01*
X32443504Y-43533363D01*
X32436500Y-43600000D01*
X21952990Y-43600000D01*
X21962810Y-43506565D01*
X21963500Y-43500000D01*
X21951514Y-43385959D01*
X21944228Y-43316637D01*
X21944228Y-43316636D01*
X21943538Y-43310073D01*
X21884524Y-43128446D01*
X21789037Y-42963058D01*
X21774335Y-42946729D01*
X21665673Y-42826048D01*
X21665672Y-42826047D01*
X21661251Y-42821137D01*
X21655909Y-42817256D01*
X21655907Y-42817254D01*
X21512092Y-42712767D01*
X21512091Y-42712766D01*
X21506750Y-42708886D01*
X21500722Y-42706202D01*
X21500720Y-42706201D01*
X21338318Y-42633895D01*
X21338317Y-42633895D01*
X21332287Y-42631210D01*
X21225413Y-42608493D01*
X21151944Y-42592876D01*
X21151939Y-42592876D01*
X21145487Y-42591504D01*
X20954513Y-42591504D01*
X20948061Y-42592876D01*
X20948056Y-42592876D01*
X20874587Y-42608493D01*
X20767713Y-42631210D01*
X20761683Y-42633895D01*
X20761682Y-42633895D01*
X20599280Y-42706201D01*
X20599278Y-42706202D01*
X20593250Y-42708886D01*
X20587909Y-42712766D01*
X20587908Y-42712767D01*
X20444093Y-42817254D01*
X20444091Y-42817256D01*
X20438749Y-42821137D01*
X20434328Y-42826047D01*
X20434327Y-42826048D01*
X20325666Y-42946729D01*
X20310963Y-42963058D01*
X20215476Y-43128446D01*
X20156462Y-43310073D01*
X20155772Y-43316636D01*
X20155772Y-43316637D01*
X20148486Y-43385959D01*
X20136500Y-43500000D01*
X16333501Y-43500000D01*
X16365932Y-43452328D01*
X16435959Y-43394087D01*
X16435964Y-43394082D01*
X16440396Y-43390396D01*
X16494034Y-43325904D01*
X16575780Y-43227616D01*
X16575782Y-43227613D01*
X16579474Y-43223174D01*
X16685749Y-43033407D01*
X16687605Y-43027940D01*
X16687607Y-43027935D01*
X16753806Y-42832919D01*
X16753807Y-42832914D01*
X16755662Y-42827450D01*
X16786871Y-42612201D01*
X16788500Y-42550000D01*
X16768598Y-42333413D01*
X16750373Y-42268790D01*
X16729223Y-42193799D01*
X16709560Y-42124080D01*
X16617275Y-41936942D01*
X16615918Y-41934190D01*
X16615915Y-41934186D01*
X16613363Y-41929010D01*
X16589206Y-41896659D01*
X16486681Y-41759362D01*
X16486680Y-41759361D01*
X16483228Y-41754738D01*
X16478991Y-41750821D01*
X16478987Y-41750817D01*
X16360973Y-41641727D01*
X16324527Y-41580799D01*
X16326807Y-41509839D01*
X16365932Y-41452328D01*
X16428849Y-41400000D01*
X25486500Y-41400000D01*
X25487190Y-41406565D01*
X25504128Y-41567716D01*
X25506462Y-41589927D01*
X25565476Y-41771554D01*
X25568779Y-41777276D01*
X25568780Y-41777277D01*
X25595961Y-41824356D01*
X25660963Y-41936942D01*
X25788749Y-42078863D01*
X25794091Y-42082744D01*
X25794093Y-42082746D01*
X25843851Y-42118897D01*
X25943250Y-42191114D01*
X25949278Y-42193798D01*
X25949280Y-42193799D01*
X26111682Y-42266105D01*
X26117713Y-42268790D01*
X26211113Y-42288643D01*
X26298056Y-42307124D01*
X26298061Y-42307124D01*
X26304513Y-42308496D01*
X26495487Y-42308496D01*
X26501939Y-42307124D01*
X26501944Y-42307124D01*
X26588887Y-42288643D01*
X26682287Y-42268790D01*
X26688318Y-42266105D01*
X26850720Y-42193799D01*
X26850722Y-42193798D01*
X26856750Y-42191114D01*
X26956149Y-42118897D01*
X27005907Y-42082746D01*
X27005909Y-42082744D01*
X27011251Y-42078863D01*
X27139037Y-41936942D01*
X27204039Y-41824356D01*
X27231220Y-41777277D01*
X27231221Y-41777276D01*
X27234524Y-41771554D01*
X27293538Y-41589927D01*
X27295873Y-41567716D01*
X27297735Y-41550000D01*
X38911500Y-41550000D01*
X38931462Y-41739927D01*
X38933502Y-41746205D01*
X38933502Y-41746206D01*
X38957824Y-41821062D01*
X38990476Y-41921554D01*
X39085963Y-42086942D01*
X39213749Y-42228863D01*
X39219091Y-42232744D01*
X39219093Y-42232746D01*
X39323355Y-42308496D01*
X39368250Y-42341114D01*
X39374278Y-42343798D01*
X39374280Y-42343799D01*
X39536682Y-42416105D01*
X39542713Y-42418790D01*
X39636113Y-42438643D01*
X39723056Y-42457124D01*
X39723061Y-42457124D01*
X39729513Y-42458496D01*
X39920487Y-42458496D01*
X39926939Y-42457124D01*
X39926944Y-42457124D01*
X40013887Y-42438643D01*
X40107287Y-42418790D01*
X40113318Y-42416105D01*
X40275720Y-42343799D01*
X40275722Y-42343798D01*
X40281750Y-42341114D01*
X40326645Y-42308496D01*
X40430907Y-42232746D01*
X40430909Y-42232744D01*
X40436251Y-42228863D01*
X40564037Y-42086942D01*
X40659524Y-41921554D01*
X40692176Y-41821062D01*
X40716498Y-41746206D01*
X40716498Y-41746205D01*
X40718538Y-41739927D01*
X40738500Y-41550000D01*
X40723568Y-41407930D01*
X40719228Y-41366637D01*
X40719228Y-41366636D01*
X40718538Y-41360073D01*
X40659524Y-41178446D01*
X40637677Y-41140605D01*
X40594380Y-41065614D01*
X40564037Y-41013058D01*
X40510288Y-40953363D01*
X40440673Y-40876048D01*
X40440672Y-40876047D01*
X40436251Y-40871137D01*
X40430909Y-40867256D01*
X40430907Y-40867254D01*
X40287092Y-40762767D01*
X40287091Y-40762766D01*
X40281750Y-40758886D01*
X40275722Y-40756202D01*
X40275720Y-40756201D01*
X40113318Y-40683895D01*
X40113317Y-40683895D01*
X40107287Y-40681210D01*
X40013887Y-40661357D01*
X39926944Y-40642876D01*
X39926939Y-40642876D01*
X39920487Y-40641504D01*
X39729513Y-40641504D01*
X39723061Y-40642876D01*
X39723056Y-40642876D01*
X39636113Y-40661357D01*
X39542713Y-40681210D01*
X39536683Y-40683895D01*
X39536682Y-40683895D01*
X39374280Y-40756201D01*
X39374278Y-40756202D01*
X39368250Y-40758886D01*
X39362909Y-40762766D01*
X39362908Y-40762767D01*
X39219093Y-40867254D01*
X39219091Y-40867256D01*
X39213749Y-40871137D01*
X39209328Y-40876047D01*
X39209327Y-40876048D01*
X39139713Y-40953363D01*
X39085963Y-41013058D01*
X39055620Y-41065614D01*
X39012324Y-41140605D01*
X38990476Y-41178446D01*
X38931462Y-41360073D01*
X38930772Y-41366636D01*
X38930772Y-41366637D01*
X38926432Y-41407930D01*
X38911500Y-41550000D01*
X27297735Y-41550000D01*
X27312810Y-41406565D01*
X27313500Y-41400000D01*
X27305288Y-41321869D01*
X27294228Y-41216637D01*
X27294228Y-41216636D01*
X27293538Y-41210073D01*
X27284295Y-41181624D01*
X27246601Y-41065614D01*
X27234524Y-41028446D01*
X27139037Y-40863058D01*
X27106976Y-40827450D01*
X27015673Y-40726048D01*
X27015672Y-40726047D01*
X27011251Y-40721137D01*
X27005909Y-40717256D01*
X27005907Y-40717254D01*
X26862092Y-40612767D01*
X26862091Y-40612766D01*
X26856750Y-40608886D01*
X26850722Y-40606202D01*
X26850720Y-40606201D01*
X26688318Y-40533895D01*
X26688317Y-40533895D01*
X26682287Y-40531210D01*
X26588887Y-40511357D01*
X26501944Y-40492876D01*
X26501939Y-40492876D01*
X26495487Y-40491504D01*
X26304513Y-40491504D01*
X26298061Y-40492876D01*
X26298056Y-40492876D01*
X26211113Y-40511357D01*
X26117713Y-40531210D01*
X26111683Y-40533895D01*
X26111682Y-40533895D01*
X25949280Y-40606201D01*
X25949278Y-40606202D01*
X25943250Y-40608886D01*
X25937909Y-40612766D01*
X25937908Y-40612767D01*
X25794093Y-40717254D01*
X25794091Y-40717256D01*
X25788749Y-40721137D01*
X25784328Y-40726047D01*
X25784327Y-40726048D01*
X25693025Y-40827450D01*
X25660963Y-40863058D01*
X25565476Y-41028446D01*
X25553399Y-41065614D01*
X25515706Y-41181624D01*
X25506462Y-41210073D01*
X25505772Y-41216636D01*
X25505772Y-41216637D01*
X25494712Y-41321869D01*
X25486500Y-41400000D01*
X16428849Y-41400000D01*
X16435959Y-41394087D01*
X16435964Y-41394082D01*
X16440396Y-41390396D01*
X16494034Y-41325904D01*
X16575780Y-41227616D01*
X16575782Y-41227613D01*
X16579474Y-41223174D01*
X16643185Y-41109410D01*
X16682925Y-41038450D01*
X16682926Y-41038448D01*
X16685749Y-41033407D01*
X16687605Y-41027940D01*
X16687607Y-41027935D01*
X16753806Y-40832919D01*
X16753807Y-40832914D01*
X16755662Y-40827450D01*
X16786871Y-40612201D01*
X16788500Y-40550000D01*
X16768598Y-40333413D01*
X16751983Y-40274500D01*
X21936500Y-40274500D01*
X21956462Y-40464427D01*
X21958502Y-40470705D01*
X21958502Y-40470706D01*
X21972294Y-40513154D01*
X22015476Y-40646054D01*
X22018779Y-40651776D01*
X22018780Y-40651777D01*
X22052689Y-40710508D01*
X22110963Y-40811442D01*
X22115381Y-40816349D01*
X22115382Y-40816350D01*
X22169134Y-40876048D01*
X22238749Y-40953363D01*
X22244091Y-40957244D01*
X22244093Y-40957246D01*
X22387908Y-41061733D01*
X22393250Y-41065614D01*
X22399278Y-41068298D01*
X22399280Y-41068299D01*
X22561682Y-41140605D01*
X22567713Y-41143290D01*
X22661113Y-41163143D01*
X22748056Y-41181624D01*
X22748061Y-41181624D01*
X22754513Y-41182996D01*
X22945487Y-41182996D01*
X22951939Y-41181624D01*
X22951944Y-41181624D01*
X23038887Y-41163143D01*
X23132287Y-41143290D01*
X23138318Y-41140605D01*
X23300720Y-41068299D01*
X23300722Y-41068298D01*
X23306750Y-41065614D01*
X23312092Y-41061733D01*
X23455907Y-40957246D01*
X23455909Y-40957244D01*
X23461251Y-40953363D01*
X23530866Y-40876048D01*
X23584618Y-40816350D01*
X23584619Y-40816349D01*
X23589037Y-40811442D01*
X23647311Y-40710508D01*
X23681220Y-40651777D01*
X23681221Y-40651776D01*
X23684524Y-40646054D01*
X23727706Y-40513154D01*
X23741498Y-40470706D01*
X23741498Y-40470705D01*
X23743538Y-40464427D01*
X23763500Y-40274500D01*
X23743538Y-40084573D01*
X23684524Y-39902946D01*
X23589037Y-39737558D01*
X23583935Y-39731891D01*
X23465673Y-39600548D01*
X23465672Y-39600547D01*
X23461251Y-39595637D01*
X23455909Y-39591756D01*
X23455907Y-39591754D01*
X23312092Y-39487267D01*
X23312091Y-39487266D01*
X23306750Y-39483386D01*
X23300722Y-39480702D01*
X23300720Y-39480701D01*
X23138318Y-39408395D01*
X23138317Y-39408395D01*
X23132287Y-39405710D01*
X23038887Y-39385857D01*
X22951944Y-39367376D01*
X22951939Y-39367376D01*
X22945487Y-39366004D01*
X22754513Y-39366004D01*
X22748061Y-39367376D01*
X22748056Y-39367376D01*
X22661113Y-39385857D01*
X22567713Y-39405710D01*
X22561683Y-39408395D01*
X22561682Y-39408395D01*
X22399280Y-39480701D01*
X22399278Y-39480702D01*
X22393250Y-39483386D01*
X22387909Y-39487266D01*
X22387908Y-39487267D01*
X22244093Y-39591754D01*
X22244091Y-39591756D01*
X22238749Y-39595637D01*
X22234328Y-39600547D01*
X22234327Y-39600548D01*
X22116066Y-39731891D01*
X22110963Y-39737558D01*
X22015476Y-39902946D01*
X21956462Y-40084573D01*
X21936500Y-40274500D01*
X16751983Y-40274500D01*
X16709560Y-40124080D01*
X16692786Y-40090065D01*
X16615918Y-39934190D01*
X16615915Y-39934186D01*
X16613363Y-39929010D01*
X16589206Y-39896659D01*
X16486681Y-39759362D01*
X16486680Y-39759361D01*
X16483228Y-39754738D01*
X16478991Y-39750821D01*
X16478987Y-39750817D01*
X16360973Y-39641727D01*
X16324527Y-39580799D01*
X16326807Y-39509839D01*
X16365932Y-39452328D01*
X16435959Y-39394087D01*
X16435964Y-39394082D01*
X16440396Y-39390396D01*
X16494034Y-39325904D01*
X16575780Y-39227616D01*
X16575782Y-39227613D01*
X16579474Y-39223174D01*
X16685749Y-39033407D01*
X16687605Y-39027940D01*
X16687607Y-39027935D01*
X16753806Y-38832919D01*
X16753807Y-38832914D01*
X16755662Y-38827450D01*
X16786871Y-38612201D01*
X16788500Y-38550000D01*
X16770122Y-38350000D01*
X25086500Y-38350000D01*
X25106462Y-38539927D01*
X25165476Y-38721554D01*
X25260963Y-38886942D01*
X25265381Y-38891849D01*
X25265382Y-38891850D01*
X25314795Y-38946729D01*
X25388749Y-39028863D01*
X25394091Y-39032744D01*
X25394093Y-39032746D01*
X25481918Y-39096554D01*
X25543250Y-39141114D01*
X25549278Y-39143798D01*
X25549280Y-39143799D01*
X25711682Y-39216105D01*
X25717713Y-39218790D01*
X25811113Y-39238643D01*
X25898056Y-39257124D01*
X25898061Y-39257124D01*
X25904513Y-39258496D01*
X26095487Y-39258496D01*
X26101939Y-39257124D01*
X26101944Y-39257124D01*
X26188887Y-39238643D01*
X26282287Y-39218790D01*
X26288318Y-39216105D01*
X26450720Y-39143799D01*
X26450722Y-39143798D01*
X26456750Y-39141114D01*
X26518082Y-39096554D01*
X26605907Y-39032746D01*
X26605909Y-39032744D01*
X26611251Y-39028863D01*
X26685205Y-38946729D01*
X26734618Y-38891850D01*
X26734619Y-38891849D01*
X26739037Y-38886942D01*
X26832534Y-38725000D01*
X43136500Y-38725000D01*
X43137190Y-38731565D01*
X43154037Y-38891850D01*
X43156462Y-38914927D01*
X43158502Y-38921205D01*
X43158502Y-38921206D01*
X43190957Y-39021093D01*
X43215476Y-39096554D01*
X43218779Y-39102276D01*
X43218780Y-39102277D01*
X43286049Y-39218790D01*
X43310963Y-39261942D01*
X43315381Y-39266849D01*
X43315382Y-39266850D01*
X43404661Y-39366004D01*
X43438749Y-39403863D01*
X43444091Y-39407744D01*
X43444093Y-39407746D01*
X43553545Y-39487267D01*
X43593250Y-39516114D01*
X43599278Y-39518798D01*
X43599280Y-39518799D01*
X43738539Y-39580801D01*
X43767713Y-39593790D01*
X43861113Y-39613643D01*
X43948056Y-39632124D01*
X43948061Y-39632124D01*
X43954513Y-39633496D01*
X44145487Y-39633496D01*
X44151939Y-39632124D01*
X44151944Y-39632124D01*
X44238887Y-39613643D01*
X44332287Y-39593790D01*
X44361461Y-39580801D01*
X44500720Y-39518799D01*
X44500722Y-39518798D01*
X44506750Y-39516114D01*
X44546455Y-39487267D01*
X44655907Y-39407746D01*
X44655909Y-39407744D01*
X44661251Y-39403863D01*
X44695339Y-39366004D01*
X44784618Y-39266850D01*
X44784619Y-39266849D01*
X44789037Y-39261942D01*
X44813951Y-39218790D01*
X44881220Y-39102277D01*
X44881221Y-39102276D01*
X44884524Y-39096554D01*
X44909043Y-39021093D01*
X44941498Y-38921206D01*
X44941498Y-38921205D01*
X44943538Y-38914927D01*
X44945964Y-38891850D01*
X44962810Y-38731565D01*
X44963500Y-38725000D01*
X44943538Y-38535073D01*
X44884524Y-38353446D01*
X44855340Y-38302897D01*
X44792338Y-38193776D01*
X44789037Y-38188058D01*
X44769750Y-38166637D01*
X44665673Y-38051048D01*
X44665672Y-38051047D01*
X44661251Y-38046137D01*
X44655909Y-38042256D01*
X44655907Y-38042254D01*
X44512092Y-37937767D01*
X44512091Y-37937766D01*
X44506750Y-37933886D01*
X44500722Y-37931202D01*
X44500720Y-37931201D01*
X44338318Y-37858895D01*
X44338317Y-37858895D01*
X44332287Y-37856210D01*
X44238887Y-37836357D01*
X44151944Y-37817876D01*
X44151939Y-37817876D01*
X44145487Y-37816504D01*
X43954513Y-37816504D01*
X43948061Y-37817876D01*
X43948056Y-37817876D01*
X43861113Y-37836357D01*
X43767713Y-37856210D01*
X43761683Y-37858895D01*
X43761682Y-37858895D01*
X43599280Y-37931201D01*
X43599278Y-37931202D01*
X43593250Y-37933886D01*
X43587909Y-37937766D01*
X43587908Y-37937767D01*
X43444093Y-38042254D01*
X43444091Y-38042256D01*
X43438749Y-38046137D01*
X43434328Y-38051047D01*
X43434327Y-38051048D01*
X43330251Y-38166637D01*
X43310963Y-38188058D01*
X43307662Y-38193776D01*
X43244661Y-38302897D01*
X43215476Y-38353446D01*
X43156462Y-38535073D01*
X43136500Y-38725000D01*
X26832534Y-38725000D01*
X26834524Y-38721554D01*
X26893538Y-38539927D01*
X26913500Y-38350000D01*
X26896479Y-38188058D01*
X26894228Y-38166637D01*
X26894228Y-38166636D01*
X26893538Y-38160073D01*
X26834524Y-37978446D01*
X26739037Y-37813058D01*
X26706868Y-37777330D01*
X26615673Y-37676048D01*
X26615672Y-37676047D01*
X26611251Y-37671137D01*
X26605909Y-37667256D01*
X26605907Y-37667254D01*
X26462092Y-37562767D01*
X26462091Y-37562766D01*
X26456750Y-37558886D01*
X26450722Y-37556202D01*
X26450720Y-37556201D01*
X26288318Y-37483895D01*
X26288317Y-37483895D01*
X26282287Y-37481210D01*
X26188887Y-37461357D01*
X26101944Y-37442876D01*
X26101939Y-37442876D01*
X26095487Y-37441504D01*
X25904513Y-37441504D01*
X25898061Y-37442876D01*
X25898056Y-37442876D01*
X25811113Y-37461357D01*
X25717713Y-37481210D01*
X25711683Y-37483895D01*
X25711682Y-37483895D01*
X25549280Y-37556201D01*
X25549278Y-37556202D01*
X25543250Y-37558886D01*
X25537909Y-37562766D01*
X25537908Y-37562767D01*
X25394093Y-37667254D01*
X25394091Y-37667256D01*
X25388749Y-37671137D01*
X25384328Y-37676047D01*
X25384327Y-37676048D01*
X25293133Y-37777330D01*
X25260963Y-37813058D01*
X25165476Y-37978446D01*
X25106462Y-38160073D01*
X25105772Y-38166636D01*
X25105772Y-38166637D01*
X25103521Y-38188058D01*
X25086500Y-38350000D01*
X16770122Y-38350000D01*
X16768598Y-38333413D01*
X16709560Y-38124080D01*
X16669208Y-38042254D01*
X16615918Y-37934190D01*
X16615915Y-37934186D01*
X16613363Y-37929010D01*
X16589206Y-37896659D01*
X16486681Y-37759362D01*
X16486680Y-37759361D01*
X16483228Y-37754738D01*
X16478991Y-37750821D01*
X16478987Y-37750817D01*
X16360973Y-37641727D01*
X16324527Y-37580799D01*
X16326807Y-37509839D01*
X16365932Y-37452328D01*
X16435959Y-37394087D01*
X16435964Y-37394082D01*
X16440396Y-37390396D01*
X16494034Y-37325904D01*
X16575780Y-37227616D01*
X16575782Y-37227613D01*
X16579474Y-37223174D01*
X16685749Y-37033407D01*
X16687605Y-37027940D01*
X16687607Y-37027935D01*
X16714062Y-36950000D01*
X29386500Y-36950000D01*
X29406462Y-37139927D01*
X29408502Y-37146205D01*
X29408502Y-37146206D01*
X29434954Y-37227616D01*
X29465476Y-37321554D01*
X29560963Y-37486942D01*
X29565381Y-37491849D01*
X29565382Y-37491850D01*
X29684327Y-37623952D01*
X29688749Y-37628863D01*
X29694091Y-37632744D01*
X29694093Y-37632746D01*
X29836800Y-37736428D01*
X29843250Y-37741114D01*
X29849278Y-37743798D01*
X29849280Y-37743799D01*
X30011682Y-37816105D01*
X30017713Y-37818790D01*
X30111113Y-37838643D01*
X30198056Y-37857124D01*
X30198061Y-37857124D01*
X30204513Y-37858496D01*
X30395487Y-37858496D01*
X30401939Y-37857124D01*
X30401944Y-37857124D01*
X30488887Y-37838643D01*
X30582287Y-37818790D01*
X30588318Y-37816105D01*
X30750720Y-37743799D01*
X30750722Y-37743798D01*
X30756750Y-37741114D01*
X30763200Y-37736428D01*
X30905907Y-37632746D01*
X30905909Y-37632744D01*
X30911251Y-37628863D01*
X30915673Y-37623952D01*
X31034618Y-37491850D01*
X31034619Y-37491849D01*
X31039037Y-37486942D01*
X31134524Y-37321554D01*
X31165046Y-37227616D01*
X31191498Y-37146206D01*
X31191498Y-37146205D01*
X31193538Y-37139927D01*
X31213500Y-36950000D01*
X31193538Y-36760073D01*
X31134524Y-36578446D01*
X31039037Y-36413058D01*
X30967325Y-36333413D01*
X30915673Y-36276048D01*
X30915672Y-36276047D01*
X30911251Y-36271137D01*
X30905909Y-36267256D01*
X30905907Y-36267254D01*
X30762092Y-36162767D01*
X30762091Y-36162766D01*
X30756750Y-36158886D01*
X30750722Y-36156202D01*
X30750720Y-36156201D01*
X30588318Y-36083895D01*
X30588317Y-36083895D01*
X30582287Y-36081210D01*
X30488887Y-36061357D01*
X30401944Y-36042876D01*
X30401939Y-36042876D01*
X30395487Y-36041504D01*
X30204513Y-36041504D01*
X30198061Y-36042876D01*
X30198056Y-36042876D01*
X30111113Y-36061357D01*
X30017713Y-36081210D01*
X30011683Y-36083895D01*
X30011682Y-36083895D01*
X29849280Y-36156201D01*
X29849278Y-36156202D01*
X29843250Y-36158886D01*
X29837909Y-36162766D01*
X29837908Y-36162767D01*
X29694093Y-36267254D01*
X29694091Y-36267256D01*
X29688749Y-36271137D01*
X29684328Y-36276047D01*
X29684327Y-36276048D01*
X29632676Y-36333413D01*
X29560963Y-36413058D01*
X29465476Y-36578446D01*
X29406462Y-36760073D01*
X29386500Y-36950000D01*
X16714062Y-36950000D01*
X16753806Y-36832919D01*
X16753807Y-36832914D01*
X16755662Y-36827450D01*
X16786871Y-36612201D01*
X16788500Y-36550000D01*
X16768598Y-36333413D01*
X16752420Y-36276048D01*
X16711129Y-36129644D01*
X16709560Y-36124080D01*
X16688419Y-36081210D01*
X16615918Y-35934190D01*
X16615915Y-35934186D01*
X16613363Y-35929010D01*
X16589206Y-35896659D01*
X16486681Y-35759362D01*
X16486680Y-35759361D01*
X16483228Y-35754738D01*
X16478991Y-35750821D01*
X16478987Y-35750817D01*
X16360973Y-35641727D01*
X16324527Y-35580799D01*
X16326807Y-35509839D01*
X16365932Y-35452328D01*
X16435959Y-35394087D01*
X16435964Y-35394082D01*
X16440396Y-35390396D01*
X16494034Y-35325904D01*
X16575780Y-35227616D01*
X16575782Y-35227613D01*
X16579474Y-35223174D01*
X16685749Y-35033407D01*
X16687605Y-35027940D01*
X16687607Y-35027935D01*
X16753806Y-34832919D01*
X16753807Y-34832914D01*
X16755662Y-34827450D01*
X16786871Y-34612201D01*
X16788500Y-34550000D01*
X16768598Y-34333413D01*
X16709560Y-34124080D01*
X16692786Y-34090065D01*
X16615918Y-33934190D01*
X16615915Y-33934186D01*
X16613363Y-33929010D01*
X16589206Y-33896659D01*
X16486681Y-33759362D01*
X16486680Y-33759361D01*
X16483228Y-33754738D01*
X16478991Y-33750821D01*
X16478987Y-33750817D01*
X16360973Y-33641727D01*
X16324527Y-33580799D01*
X16326807Y-33509839D01*
X16365932Y-33452328D01*
X16435959Y-33394087D01*
X16435964Y-33394082D01*
X16440396Y-33390396D01*
X16494034Y-33325904D01*
X16575780Y-33227616D01*
X16575782Y-33227613D01*
X16579474Y-33223174D01*
X16685749Y-33033407D01*
X16687605Y-33027940D01*
X16687607Y-33027935D01*
X16753806Y-32832919D01*
X16753807Y-32832914D01*
X16755662Y-32827450D01*
X16783687Y-32634163D01*
X24861000Y-32634163D01*
X24880962Y-32824090D01*
X24939976Y-33005717D01*
X24943279Y-33011439D01*
X24943280Y-33011440D01*
X24955963Y-33033407D01*
X25035463Y-33171105D01*
X25039881Y-33176012D01*
X25039882Y-33176013D01*
X25131178Y-33277408D01*
X25163249Y-33313026D01*
X25168591Y-33316907D01*
X25168593Y-33316909D01*
X25263633Y-33385959D01*
X25317750Y-33425277D01*
X25323778Y-33427961D01*
X25323780Y-33427962D01*
X25426370Y-33473638D01*
X25492213Y-33502953D01*
X25585613Y-33522806D01*
X25672556Y-33541287D01*
X25672561Y-33541287D01*
X25679013Y-33542659D01*
X25869987Y-33542659D01*
X25876439Y-33541287D01*
X25876444Y-33541287D01*
X25963387Y-33522806D01*
X26056787Y-33502953D01*
X26122630Y-33473638D01*
X26225220Y-33427962D01*
X26225222Y-33427961D01*
X26231250Y-33425277D01*
X26285367Y-33385959D01*
X26334861Y-33350000D01*
X35786500Y-33350000D01*
X35787190Y-33356565D01*
X35798800Y-33467023D01*
X35806462Y-33539927D01*
X35865476Y-33721554D01*
X35868779Y-33727276D01*
X35868780Y-33727277D01*
X35891198Y-33766105D01*
X35960963Y-33886942D01*
X35965381Y-33891849D01*
X35965382Y-33891850D01*
X35975149Y-33902697D01*
X36088749Y-34028863D01*
X36094091Y-34032744D01*
X36094093Y-34032746D01*
X36227463Y-34129644D01*
X36243250Y-34141114D01*
X36249278Y-34143798D01*
X36249280Y-34143799D01*
X36411682Y-34216105D01*
X36417713Y-34218790D01*
X36511113Y-34238643D01*
X36598056Y-34257124D01*
X36598061Y-34257124D01*
X36604513Y-34258496D01*
X36795487Y-34258496D01*
X36801939Y-34257124D01*
X36801944Y-34257124D01*
X36888887Y-34238643D01*
X36982287Y-34218790D01*
X36988318Y-34216105D01*
X37150720Y-34143799D01*
X37150722Y-34143798D01*
X37156750Y-34141114D01*
X37172537Y-34129644D01*
X37305907Y-34032746D01*
X37305909Y-34032744D01*
X37311251Y-34028863D01*
X37424851Y-33902697D01*
X37434618Y-33891850D01*
X37434619Y-33891849D01*
X37439037Y-33886942D01*
X37508802Y-33766105D01*
X37531220Y-33727277D01*
X37531221Y-33727276D01*
X37534524Y-33721554D01*
X37593538Y-33539927D01*
X37601201Y-33467023D01*
X37612810Y-33356565D01*
X37613500Y-33350000D01*
X37605255Y-33271554D01*
X37594228Y-33166637D01*
X37594228Y-33166636D01*
X37593538Y-33160073D01*
X37568614Y-33083363D01*
X37536566Y-32984731D01*
X37534524Y-32978446D01*
X37489233Y-32900000D01*
X43136500Y-32900000D01*
X43137190Y-32906565D01*
X43150522Y-33033407D01*
X43156462Y-33089927D01*
X43158502Y-33096205D01*
X43158502Y-33096206D01*
X43182838Y-33171105D01*
X43215476Y-33271554D01*
X43218779Y-33277276D01*
X43218780Y-33277277D01*
X43239420Y-33313026D01*
X43310963Y-33436942D01*
X43315381Y-33441849D01*
X43315382Y-33441850D01*
X43412694Y-33549926D01*
X43438749Y-33578863D01*
X43444091Y-33582744D01*
X43444093Y-33582746D01*
X43553794Y-33662448D01*
X43593250Y-33691114D01*
X43599278Y-33693798D01*
X43599280Y-33693799D01*
X43746526Y-33759357D01*
X43767713Y-33768790D01*
X43861113Y-33788643D01*
X43948056Y-33807124D01*
X43948061Y-33807124D01*
X43954513Y-33808496D01*
X44145487Y-33808496D01*
X44151939Y-33807124D01*
X44151944Y-33807124D01*
X44238887Y-33788643D01*
X44332287Y-33768790D01*
X44353474Y-33759357D01*
X44500720Y-33693799D01*
X44500722Y-33693798D01*
X44506750Y-33691114D01*
X44546206Y-33662448D01*
X44655907Y-33582746D01*
X44655909Y-33582744D01*
X44661251Y-33578863D01*
X44687306Y-33549926D01*
X44784618Y-33441850D01*
X44784619Y-33441849D01*
X44789037Y-33436942D01*
X44860580Y-33313026D01*
X44881220Y-33277277D01*
X44881221Y-33277276D01*
X44884524Y-33271554D01*
X44917162Y-33171105D01*
X44941498Y-33096206D01*
X44941498Y-33096205D01*
X44943538Y-33089927D01*
X44949479Y-33033407D01*
X44962810Y-32906565D01*
X44963500Y-32900000D01*
X44943538Y-32710073D01*
X44884524Y-32528446D01*
X44789037Y-32363058D01*
X44729901Y-32297380D01*
X44665673Y-32226048D01*
X44665672Y-32226047D01*
X44661251Y-32221137D01*
X44655909Y-32217256D01*
X44655907Y-32217254D01*
X44512092Y-32112767D01*
X44512091Y-32112766D01*
X44506750Y-32108886D01*
X44500722Y-32106202D01*
X44500720Y-32106201D01*
X44338318Y-32033895D01*
X44338317Y-32033895D01*
X44332287Y-32031210D01*
X44238887Y-32011357D01*
X44151944Y-31992876D01*
X44151939Y-31992876D01*
X44145487Y-31991504D01*
X43954513Y-31991504D01*
X43948061Y-31992876D01*
X43948056Y-31992876D01*
X43861113Y-32011357D01*
X43767713Y-32031210D01*
X43761683Y-32033895D01*
X43761682Y-32033895D01*
X43599280Y-32106201D01*
X43599278Y-32106202D01*
X43593250Y-32108886D01*
X43587909Y-32112766D01*
X43587908Y-32112767D01*
X43444093Y-32217254D01*
X43444091Y-32217256D01*
X43438749Y-32221137D01*
X43434328Y-32226047D01*
X43434327Y-32226048D01*
X43370100Y-32297380D01*
X43310963Y-32363058D01*
X43215476Y-32528446D01*
X43156462Y-32710073D01*
X43136500Y-32900000D01*
X37489233Y-32900000D01*
X37439037Y-32813058D01*
X37340656Y-32703794D01*
X37315673Y-32676048D01*
X37315672Y-32676047D01*
X37311251Y-32671137D01*
X37305909Y-32667256D01*
X37305907Y-32667254D01*
X37162092Y-32562767D01*
X37162091Y-32562766D01*
X37156750Y-32558886D01*
X37150722Y-32556202D01*
X37150720Y-32556201D01*
X36988318Y-32483895D01*
X36988317Y-32483895D01*
X36982287Y-32481210D01*
X36888887Y-32461357D01*
X36801944Y-32442876D01*
X36801939Y-32442876D01*
X36795487Y-32441504D01*
X36604513Y-32441504D01*
X36598061Y-32442876D01*
X36598056Y-32442876D01*
X36511113Y-32461357D01*
X36417713Y-32481210D01*
X36411683Y-32483895D01*
X36411682Y-32483895D01*
X36249280Y-32556201D01*
X36249278Y-32556202D01*
X36243250Y-32558886D01*
X36237909Y-32562766D01*
X36237908Y-32562767D01*
X36094093Y-32667254D01*
X36094091Y-32667256D01*
X36088749Y-32671137D01*
X36084328Y-32676047D01*
X36084327Y-32676048D01*
X36059345Y-32703794D01*
X35960963Y-32813058D01*
X35865476Y-32978446D01*
X35863434Y-32984731D01*
X35831387Y-33083363D01*
X35806462Y-33160073D01*
X35805772Y-33166636D01*
X35805772Y-33166637D01*
X35794745Y-33271554D01*
X35786500Y-33350000D01*
X26334861Y-33350000D01*
X26380407Y-33316909D01*
X26380409Y-33316907D01*
X26385751Y-33313026D01*
X26417822Y-33277408D01*
X26509118Y-33176013D01*
X26509119Y-33176012D01*
X26513537Y-33171105D01*
X26593037Y-33033407D01*
X26605720Y-33011440D01*
X26605721Y-33011439D01*
X26609024Y-33005717D01*
X26668038Y-32824090D01*
X26688000Y-32634163D01*
X26679806Y-32556201D01*
X26668728Y-32450800D01*
X26668728Y-32450799D01*
X26668038Y-32444236D01*
X26609024Y-32262609D01*
X26587916Y-32226048D01*
X26529044Y-32124080D01*
X26513537Y-32097221D01*
X26385751Y-31955300D01*
X26380409Y-31951419D01*
X26380407Y-31951417D01*
X26236592Y-31846930D01*
X26236591Y-31846929D01*
X26231250Y-31843049D01*
X26225222Y-31840365D01*
X26225220Y-31840364D01*
X26062818Y-31768058D01*
X26062817Y-31768058D01*
X26056787Y-31765373D01*
X25963387Y-31745520D01*
X25876444Y-31727039D01*
X25876439Y-31727039D01*
X25869987Y-31725667D01*
X25679013Y-31725667D01*
X25672561Y-31727039D01*
X25672556Y-31727039D01*
X25585613Y-31745520D01*
X25492213Y-31765373D01*
X25486183Y-31768058D01*
X25486182Y-31768058D01*
X25323780Y-31840364D01*
X25323778Y-31840365D01*
X25317750Y-31843049D01*
X25312409Y-31846929D01*
X25312408Y-31846930D01*
X25168593Y-31951417D01*
X25168591Y-31951419D01*
X25163249Y-31955300D01*
X25035463Y-32097221D01*
X25019956Y-32124080D01*
X24961085Y-32226048D01*
X24939976Y-32262609D01*
X24880962Y-32444236D01*
X24880272Y-32450799D01*
X24880272Y-32450800D01*
X24869194Y-32556201D01*
X24861000Y-32634163D01*
X16783687Y-32634163D01*
X16786871Y-32612201D01*
X16788500Y-32550000D01*
X16768598Y-32333413D01*
X16709560Y-32124080D01*
X16663762Y-32031210D01*
X16615918Y-31934190D01*
X16615915Y-31934186D01*
X16613363Y-31929010D01*
X16589206Y-31896659D01*
X16486681Y-31759362D01*
X16486680Y-31759361D01*
X16483228Y-31754738D01*
X16478991Y-31750821D01*
X16478987Y-31750817D01*
X16360973Y-31641727D01*
X16324527Y-31580799D01*
X16326807Y-31509839D01*
X16365932Y-31452328D01*
X16435959Y-31394087D01*
X16435964Y-31394082D01*
X16440396Y-31390396D01*
X16494034Y-31325904D01*
X16575780Y-31227616D01*
X16575782Y-31227613D01*
X16579474Y-31223174D01*
X16685749Y-31033407D01*
X16687605Y-31027940D01*
X16687607Y-31027935D01*
X16753806Y-30832919D01*
X16753807Y-30832914D01*
X16755662Y-30827450D01*
X16786871Y-30612201D01*
X16788500Y-30550000D01*
X16783906Y-30500000D01*
X26486500Y-30500000D01*
X26506462Y-30689927D01*
X26508502Y-30696205D01*
X26508502Y-30696206D01*
X26540957Y-30796093D01*
X26565476Y-30871554D01*
X26660963Y-31036942D01*
X26788749Y-31178863D01*
X26794091Y-31182744D01*
X26794093Y-31182746D01*
X26937908Y-31287233D01*
X26943250Y-31291114D01*
X26949278Y-31293798D01*
X26949280Y-31293799D01*
X27111682Y-31366105D01*
X27117713Y-31368790D01*
X27211113Y-31388643D01*
X27298056Y-31407124D01*
X27298061Y-31407124D01*
X27304513Y-31408496D01*
X27495487Y-31408496D01*
X27501939Y-31407124D01*
X27501944Y-31407124D01*
X27588887Y-31388643D01*
X27682287Y-31368790D01*
X27688318Y-31366105D01*
X27850720Y-31293799D01*
X27850722Y-31293798D01*
X27856750Y-31291114D01*
X27862092Y-31287233D01*
X28005907Y-31182746D01*
X28005909Y-31182744D01*
X28011251Y-31178863D01*
X28139037Y-31036942D01*
X28163471Y-30994622D01*
X28591878Y-30994622D01*
X28611840Y-31184549D01*
X28613880Y-31190827D01*
X28613880Y-31190828D01*
X28622751Y-31218129D01*
X28670854Y-31366176D01*
X28674157Y-31371898D01*
X28674158Y-31371899D01*
X28696053Y-31409822D01*
X28766341Y-31531564D01*
X28894127Y-31673485D01*
X28899469Y-31677366D01*
X28899471Y-31677368D01*
X29024296Y-31768058D01*
X29048628Y-31785736D01*
X29054656Y-31788420D01*
X29054658Y-31788421D01*
X29217060Y-31860727D01*
X29223091Y-31863412D01*
X29316491Y-31883265D01*
X29403434Y-31901746D01*
X29403439Y-31901746D01*
X29409891Y-31903118D01*
X29600865Y-31903118D01*
X29607317Y-31901746D01*
X29607322Y-31901746D01*
X29694265Y-31883265D01*
X29787665Y-31863412D01*
X29793696Y-31860727D01*
X29956098Y-31788421D01*
X29956100Y-31788420D01*
X29962128Y-31785736D01*
X29986460Y-31768058D01*
X30111285Y-31677368D01*
X30111287Y-31677366D01*
X30116629Y-31673485D01*
X30244415Y-31531564D01*
X30314703Y-31409822D01*
X30336598Y-31371899D01*
X30336599Y-31371898D01*
X30339902Y-31366176D01*
X30388005Y-31218129D01*
X30396876Y-31190828D01*
X30396876Y-31190827D01*
X30398916Y-31184549D01*
X30418878Y-30994622D01*
X30405283Y-30865269D01*
X30399606Y-30811259D01*
X30399606Y-30811258D01*
X30398916Y-30804695D01*
X30339902Y-30623068D01*
X30244415Y-30457680D01*
X30116629Y-30315759D01*
X30111287Y-30311878D01*
X30111285Y-30311876D01*
X29967470Y-30207389D01*
X29967469Y-30207388D01*
X29962128Y-30203508D01*
X29956100Y-30200824D01*
X29956098Y-30200823D01*
X29793696Y-30128517D01*
X29793695Y-30128517D01*
X29787665Y-30125832D01*
X29669425Y-30100699D01*
X29607322Y-30087498D01*
X29607317Y-30087498D01*
X29600865Y-30086126D01*
X29409891Y-30086126D01*
X29403439Y-30087498D01*
X29403434Y-30087498D01*
X29341331Y-30100699D01*
X29223091Y-30125832D01*
X29217061Y-30128517D01*
X29217060Y-30128517D01*
X29054658Y-30200823D01*
X29054656Y-30200824D01*
X29048628Y-30203508D01*
X29043287Y-30207388D01*
X29043286Y-30207389D01*
X28899471Y-30311876D01*
X28899469Y-30311878D01*
X28894127Y-30315759D01*
X28766341Y-30457680D01*
X28670854Y-30623068D01*
X28611840Y-30804695D01*
X28611150Y-30811258D01*
X28611150Y-30811259D01*
X28605473Y-30865269D01*
X28591878Y-30994622D01*
X28163471Y-30994622D01*
X28234524Y-30871554D01*
X28259043Y-30796093D01*
X28291498Y-30696206D01*
X28291498Y-30696205D01*
X28293538Y-30689927D01*
X28313500Y-30500000D01*
X28293538Y-30310073D01*
X28291207Y-30302897D01*
X28236566Y-30134731D01*
X28234524Y-30128446D01*
X28215319Y-30095181D01*
X28142338Y-29968776D01*
X28139037Y-29963058D01*
X28091427Y-29910181D01*
X28015673Y-29826048D01*
X28015672Y-29826047D01*
X28011251Y-29821137D01*
X28005909Y-29817256D01*
X28005907Y-29817254D01*
X27862092Y-29712767D01*
X27862091Y-29712766D01*
X27856750Y-29708886D01*
X27850722Y-29706202D01*
X27850720Y-29706201D01*
X27688318Y-29633895D01*
X27688317Y-29633895D01*
X27682287Y-29631210D01*
X27568860Y-29607100D01*
X27501944Y-29592876D01*
X27501939Y-29592876D01*
X27495487Y-29591504D01*
X27304513Y-29591504D01*
X27298061Y-29592876D01*
X27298056Y-29592876D01*
X27231140Y-29607100D01*
X27117713Y-29631210D01*
X27111683Y-29633895D01*
X27111682Y-29633895D01*
X26949280Y-29706201D01*
X26949278Y-29706202D01*
X26943250Y-29708886D01*
X26937909Y-29712766D01*
X26937908Y-29712767D01*
X26794093Y-29817254D01*
X26794091Y-29817256D01*
X26788749Y-29821137D01*
X26784328Y-29826047D01*
X26784327Y-29826048D01*
X26708574Y-29910181D01*
X26660963Y-29963058D01*
X26657662Y-29968776D01*
X26584682Y-30095181D01*
X26565476Y-30128446D01*
X26563434Y-30134731D01*
X26508794Y-30302897D01*
X26506462Y-30310073D01*
X26486500Y-30500000D01*
X16783906Y-30500000D01*
X16768598Y-30333413D01*
X16762016Y-30310073D01*
X16711129Y-30129644D01*
X16709560Y-30124080D01*
X16690843Y-30086126D01*
X16615918Y-29934190D01*
X16615915Y-29934186D01*
X16613363Y-29929010D01*
X16589206Y-29896659D01*
X16486681Y-29759362D01*
X16486680Y-29759361D01*
X16483228Y-29754738D01*
X16478991Y-29750821D01*
X16478987Y-29750817D01*
X16360973Y-29641727D01*
X16324527Y-29580799D01*
X16326807Y-29509839D01*
X16365932Y-29452328D01*
X16435959Y-29394087D01*
X16435964Y-29394082D01*
X16440396Y-29390396D01*
X16494034Y-29325904D01*
X16575780Y-29227616D01*
X16575782Y-29227613D01*
X16579474Y-29223174D01*
X16685749Y-29033407D01*
X16687605Y-29027940D01*
X16687607Y-29027935D01*
X16753806Y-28832919D01*
X16753807Y-28832914D01*
X16755662Y-28827450D01*
X16786871Y-28612201D01*
X16788500Y-28550000D01*
X16768598Y-28333413D01*
X16709560Y-28124080D01*
X16692786Y-28090065D01*
X16615918Y-27934190D01*
X16615915Y-27934186D01*
X16613363Y-27929010D01*
X16589206Y-27896659D01*
X16486681Y-27759362D01*
X16486680Y-27759361D01*
X16483228Y-27754738D01*
X16478991Y-27750821D01*
X16478987Y-27750817D01*
X16360973Y-27641727D01*
X16324527Y-27580799D01*
X16326807Y-27509839D01*
X16365932Y-27452328D01*
X16435959Y-27394087D01*
X16435964Y-27394082D01*
X16440396Y-27390396D01*
X16494034Y-27325904D01*
X16575780Y-27227616D01*
X16575782Y-27227613D01*
X16579474Y-27223174D01*
X16643185Y-27109410D01*
X16682925Y-27038450D01*
X16682926Y-27038448D01*
X16685749Y-27033407D01*
X16687605Y-27027940D01*
X16687607Y-27027935D01*
X16753806Y-26832919D01*
X16753807Y-26832914D01*
X16755662Y-26827450D01*
X16766891Y-26750000D01*
X27786500Y-26750000D01*
X27806462Y-26939927D01*
X27808502Y-26946205D01*
X27808502Y-26946206D01*
X27812495Y-26958496D01*
X27865476Y-27121554D01*
X27868779Y-27127276D01*
X27868780Y-27127277D01*
X27881302Y-27148966D01*
X27960963Y-27286942D01*
X27965381Y-27291849D01*
X27965382Y-27291850D01*
X28069901Y-27407930D01*
X28088749Y-27428863D01*
X28094091Y-27432744D01*
X28094093Y-27432746D01*
X28237908Y-27537233D01*
X28243250Y-27541114D01*
X28249278Y-27543798D01*
X28249280Y-27543799D01*
X28411682Y-27616105D01*
X28417713Y-27618790D01*
X28495607Y-27635347D01*
X28598056Y-27657124D01*
X28598061Y-27657124D01*
X28604513Y-27658496D01*
X28795487Y-27658496D01*
X28801939Y-27657124D01*
X28801944Y-27657124D01*
X28904393Y-27635347D01*
X28982287Y-27618790D01*
X28988318Y-27616105D01*
X29150720Y-27543799D01*
X29150722Y-27543798D01*
X29156750Y-27541114D01*
X29162092Y-27537233D01*
X29305907Y-27432746D01*
X29305909Y-27432744D01*
X29311251Y-27428863D01*
X29330099Y-27407930D01*
X29434618Y-27291850D01*
X29434619Y-27291849D01*
X29439037Y-27286942D01*
X29518698Y-27148966D01*
X29531220Y-27127277D01*
X29531221Y-27127276D01*
X29534524Y-27121554D01*
X29587505Y-26958496D01*
X29591498Y-26946206D01*
X29591498Y-26946205D01*
X29593538Y-26939927D01*
X29613500Y-26750000D01*
X29593538Y-26560073D01*
X29584165Y-26531224D01*
X29536566Y-26384731D01*
X29534524Y-26378446D01*
X29439037Y-26213058D01*
X29423864Y-26196206D01*
X29315673Y-26076048D01*
X29315672Y-26076047D01*
X29311251Y-26071137D01*
X29305909Y-26067256D01*
X29305907Y-26067254D01*
X29162092Y-25962767D01*
X29162091Y-25962766D01*
X29156750Y-25958886D01*
X29150722Y-25956202D01*
X29150720Y-25956201D01*
X28988318Y-25883895D01*
X28988317Y-25883895D01*
X28982287Y-25881210D01*
X28882846Y-25860073D01*
X28801944Y-25842876D01*
X28801939Y-25842876D01*
X28795487Y-25841504D01*
X28604513Y-25841504D01*
X28598061Y-25842876D01*
X28598056Y-25842876D01*
X28517154Y-25860073D01*
X28417713Y-25881210D01*
X28411683Y-25883895D01*
X28411682Y-25883895D01*
X28249280Y-25956201D01*
X28249278Y-25956202D01*
X28243250Y-25958886D01*
X28237909Y-25962766D01*
X28237908Y-25962767D01*
X28094093Y-26067254D01*
X28094091Y-26067256D01*
X28088749Y-26071137D01*
X28084328Y-26076047D01*
X28084327Y-26076048D01*
X27976137Y-26196206D01*
X27960963Y-26213058D01*
X27865476Y-26378446D01*
X27863434Y-26384731D01*
X27815836Y-26531224D01*
X27806462Y-26560073D01*
X27786500Y-26750000D01*
X16766891Y-26750000D01*
X16786871Y-26612201D01*
X16788500Y-26550000D01*
X16768598Y-26333413D01*
X16709560Y-26124080D01*
X16692786Y-26090065D01*
X16615918Y-25934190D01*
X16615915Y-25934186D01*
X16613363Y-25929010D01*
X16589206Y-25896659D01*
X16486681Y-25759362D01*
X16486680Y-25759361D01*
X16483228Y-25754738D01*
X16478992Y-25750822D01*
X16360604Y-25641386D01*
X16324159Y-25580458D01*
X16326440Y-25509498D01*
X16365563Y-25451987D01*
X16435610Y-25393729D01*
X16443734Y-25385605D01*
X16575371Y-25227329D01*
X16581881Y-25217857D01*
X16619883Y-25150000D01*
X29186500Y-25150000D01*
X29187190Y-25156565D01*
X29191439Y-25196987D01*
X29206462Y-25339927D01*
X29265476Y-25521554D01*
X29268779Y-25527276D01*
X29268780Y-25527277D01*
X29272076Y-25532985D01*
X29360963Y-25686942D01*
X29365381Y-25691849D01*
X29365382Y-25691850D01*
X29443353Y-25778446D01*
X29488749Y-25828863D01*
X29494091Y-25832744D01*
X29494093Y-25832746D01*
X29626590Y-25929010D01*
X29643250Y-25941114D01*
X29649278Y-25943798D01*
X29649280Y-25943799D01*
X29775510Y-26000000D01*
X29817713Y-26018790D01*
X29911113Y-26038643D01*
X29998056Y-26057124D01*
X29998061Y-26057124D01*
X30004513Y-26058496D01*
X30195487Y-26058496D01*
X30201939Y-26057124D01*
X30201944Y-26057124D01*
X30235459Y-26050000D01*
X33936500Y-26050000D01*
X33956462Y-26239927D01*
X33958502Y-26246205D01*
X33958502Y-26246206D01*
X33976922Y-26302897D01*
X34015476Y-26421554D01*
X34110963Y-26586942D01*
X34115381Y-26591849D01*
X34115382Y-26591850D01*
X34133706Y-26612201D01*
X34238749Y-26728863D01*
X34244091Y-26732744D01*
X34244093Y-26732746D01*
X34328126Y-26793799D01*
X34393250Y-26841114D01*
X34399278Y-26843798D01*
X34399280Y-26843799D01*
X34544592Y-26908496D01*
X34567713Y-26918790D01*
X34636273Y-26933363D01*
X34748056Y-26957124D01*
X34748061Y-26957124D01*
X34754513Y-26958496D01*
X34945487Y-26958496D01*
X34951939Y-26957124D01*
X34951944Y-26957124D01*
X35063727Y-26933363D01*
X35132287Y-26918790D01*
X35155408Y-26908496D01*
X35300720Y-26843799D01*
X35300722Y-26843798D01*
X35306750Y-26841114D01*
X35371874Y-26793799D01*
X35455907Y-26732746D01*
X35455909Y-26732744D01*
X35461251Y-26728863D01*
X35566294Y-26612201D01*
X35584618Y-26591850D01*
X35584619Y-26591849D01*
X35589037Y-26586942D01*
X35684524Y-26421554D01*
X35723078Y-26302897D01*
X35741498Y-26246206D01*
X35741498Y-26246205D01*
X35743538Y-26239927D01*
X35763500Y-26050000D01*
X35758245Y-26000000D01*
X38936500Y-26000000D01*
X38937190Y-26006565D01*
X38952956Y-26156565D01*
X38956462Y-26189927D01*
X38958502Y-26196205D01*
X38958502Y-26196206D01*
X38970575Y-26233363D01*
X39015476Y-26371554D01*
X39110963Y-26536942D01*
X39115381Y-26541849D01*
X39115382Y-26541850D01*
X39155983Y-26586942D01*
X39238749Y-26678863D01*
X39244091Y-26682744D01*
X39244093Y-26682746D01*
X39327625Y-26743435D01*
X39393250Y-26791114D01*
X39399278Y-26793798D01*
X39399280Y-26793799D01*
X39511582Y-26843799D01*
X39567713Y-26868790D01*
X39661113Y-26888643D01*
X39748056Y-26907124D01*
X39748061Y-26907124D01*
X39754513Y-26908496D01*
X39945487Y-26908496D01*
X39951939Y-26907124D01*
X39951944Y-26907124D01*
X40038887Y-26888643D01*
X40132287Y-26868790D01*
X40188418Y-26843799D01*
X40300720Y-26793799D01*
X40300722Y-26793798D01*
X40306750Y-26791114D01*
X40372375Y-26743435D01*
X40455907Y-26682746D01*
X40455909Y-26682744D01*
X40461251Y-26678863D01*
X40544017Y-26586942D01*
X40584618Y-26541850D01*
X40584619Y-26541849D01*
X40589037Y-26536942D01*
X40684524Y-26371554D01*
X40729425Y-26233363D01*
X40741498Y-26196206D01*
X40741498Y-26196205D01*
X40743538Y-26189927D01*
X40747045Y-26156565D01*
X40762810Y-26006565D01*
X40763500Y-26000000D01*
X42486500Y-26000000D01*
X42487190Y-26006565D01*
X42502956Y-26156565D01*
X42506462Y-26189927D01*
X42508502Y-26196205D01*
X42508502Y-26196206D01*
X42520575Y-26233363D01*
X42565476Y-26371554D01*
X42660963Y-26536942D01*
X42665381Y-26541849D01*
X42665382Y-26541850D01*
X42705983Y-26586942D01*
X42788749Y-26678863D01*
X42794091Y-26682744D01*
X42794093Y-26682746D01*
X42877625Y-26743435D01*
X42943250Y-26791114D01*
X42949278Y-26793798D01*
X42949280Y-26793799D01*
X43061582Y-26843799D01*
X43117713Y-26868790D01*
X43211113Y-26888643D01*
X43298056Y-26907124D01*
X43298061Y-26907124D01*
X43304513Y-26908496D01*
X43495487Y-26908496D01*
X43501939Y-26907124D01*
X43501944Y-26907124D01*
X43588887Y-26888643D01*
X43682287Y-26868790D01*
X43738418Y-26843799D01*
X43850720Y-26793799D01*
X43850722Y-26793798D01*
X43856750Y-26791114D01*
X43922375Y-26743435D01*
X44005907Y-26682746D01*
X44005909Y-26682744D01*
X44011251Y-26678863D01*
X44094017Y-26586942D01*
X44134618Y-26541850D01*
X44134619Y-26541849D01*
X44139037Y-26536942D01*
X44234524Y-26371554D01*
X44279425Y-26233363D01*
X44291498Y-26196206D01*
X44291498Y-26196205D01*
X44293538Y-26189927D01*
X44297045Y-26156565D01*
X44297735Y-26150000D01*
X46586500Y-26150000D01*
X46587190Y-26156565D01*
X46605193Y-26327849D01*
X46606462Y-26339927D01*
X46608502Y-26346205D01*
X46608502Y-26346206D01*
X46621020Y-26384731D01*
X46665476Y-26521554D01*
X46760963Y-26686942D01*
X46765381Y-26691849D01*
X46765382Y-26691850D01*
X46823652Y-26756565D01*
X46888749Y-26828863D01*
X46894091Y-26832744D01*
X46894093Y-26832746D01*
X47037908Y-26937233D01*
X47043250Y-26941114D01*
X47049278Y-26943798D01*
X47049280Y-26943799D01*
X47211682Y-27016105D01*
X47217713Y-27018790D01*
X47286480Y-27033407D01*
X47398056Y-27057124D01*
X47398061Y-27057124D01*
X47404513Y-27058496D01*
X47595487Y-27058496D01*
X47601939Y-27057124D01*
X47601944Y-27057124D01*
X47713520Y-27033407D01*
X47782287Y-27018790D01*
X47788318Y-27016105D01*
X47950720Y-26943799D01*
X47950722Y-26943798D01*
X47956750Y-26941114D01*
X47962092Y-26937233D01*
X48105907Y-26832746D01*
X48105909Y-26832744D01*
X48111251Y-26828863D01*
X48176348Y-26756565D01*
X48234618Y-26691850D01*
X48234619Y-26691849D01*
X48239037Y-26686942D01*
X48334524Y-26521554D01*
X48378980Y-26384731D01*
X48391498Y-26346206D01*
X48391498Y-26346205D01*
X48393538Y-26339927D01*
X48394808Y-26327849D01*
X48412810Y-26156565D01*
X48413500Y-26150000D01*
X48399427Y-26016105D01*
X48394228Y-25966637D01*
X48394228Y-25966636D01*
X48393538Y-25960073D01*
X48374896Y-25902697D01*
X48359006Y-25853794D01*
X48334524Y-25778446D01*
X48239037Y-25613058D01*
X48233673Y-25607100D01*
X48115673Y-25476048D01*
X48115672Y-25476047D01*
X48111251Y-25471137D01*
X48105909Y-25467256D01*
X48105907Y-25467254D01*
X47962092Y-25362767D01*
X47962091Y-25362766D01*
X47956750Y-25358886D01*
X47950722Y-25356202D01*
X47950720Y-25356201D01*
X47788318Y-25283895D01*
X47788317Y-25283895D01*
X47782287Y-25281210D01*
X47677262Y-25258886D01*
X47601944Y-25242876D01*
X47601939Y-25242876D01*
X47595487Y-25241504D01*
X47404513Y-25241504D01*
X47398061Y-25242876D01*
X47398056Y-25242876D01*
X47322738Y-25258886D01*
X47217713Y-25281210D01*
X47211683Y-25283895D01*
X47211682Y-25283895D01*
X47049280Y-25356201D01*
X47049278Y-25356202D01*
X47043250Y-25358886D01*
X47037909Y-25362766D01*
X47037908Y-25362767D01*
X46894093Y-25467254D01*
X46894091Y-25467256D01*
X46888749Y-25471137D01*
X46884328Y-25476047D01*
X46884327Y-25476048D01*
X46766328Y-25607100D01*
X46760963Y-25613058D01*
X46665476Y-25778446D01*
X46640994Y-25853794D01*
X46625105Y-25902697D01*
X46606462Y-25960073D01*
X46605772Y-25966636D01*
X46605772Y-25966637D01*
X46600573Y-26016105D01*
X46586500Y-26150000D01*
X44297735Y-26150000D01*
X44312810Y-26006565D01*
X44313500Y-26000000D01*
X44302796Y-25898160D01*
X44294228Y-25816637D01*
X44294228Y-25816636D01*
X44293538Y-25810073D01*
X44277060Y-25759357D01*
X44240465Y-25646731D01*
X44234524Y-25628446D01*
X44214916Y-25594483D01*
X44173995Y-25523607D01*
X44139037Y-25463058D01*
X44076936Y-25394087D01*
X44015673Y-25326048D01*
X44015672Y-25326047D01*
X44011251Y-25321137D01*
X44005909Y-25317256D01*
X44005907Y-25317254D01*
X43862092Y-25212767D01*
X43862091Y-25212766D01*
X43856750Y-25208886D01*
X43850722Y-25206202D01*
X43850720Y-25206201D01*
X43688318Y-25133895D01*
X43688317Y-25133895D01*
X43682287Y-25131210D01*
X43588887Y-25111357D01*
X43501944Y-25092876D01*
X43501939Y-25092876D01*
X43495487Y-25091504D01*
X43304513Y-25091504D01*
X43298061Y-25092876D01*
X43298056Y-25092876D01*
X43211113Y-25111357D01*
X43117713Y-25131210D01*
X43111683Y-25133895D01*
X43111682Y-25133895D01*
X42949280Y-25206201D01*
X42949278Y-25206202D01*
X42943250Y-25208886D01*
X42937909Y-25212766D01*
X42937908Y-25212767D01*
X42794093Y-25317254D01*
X42794091Y-25317256D01*
X42788749Y-25321137D01*
X42784328Y-25326047D01*
X42784327Y-25326048D01*
X42723065Y-25394087D01*
X42660963Y-25463058D01*
X42626005Y-25523607D01*
X42585085Y-25594483D01*
X42565476Y-25628446D01*
X42559535Y-25646731D01*
X42522941Y-25759357D01*
X42506462Y-25810073D01*
X42505772Y-25816636D01*
X42505772Y-25816637D01*
X42497204Y-25898160D01*
X42486500Y-26000000D01*
X40763500Y-26000000D01*
X40752796Y-25898160D01*
X40744228Y-25816637D01*
X40744228Y-25816636D01*
X40743538Y-25810073D01*
X40727060Y-25759357D01*
X40690465Y-25646731D01*
X40684524Y-25628446D01*
X40664916Y-25594483D01*
X40623995Y-25523607D01*
X40589037Y-25463058D01*
X40526936Y-25394087D01*
X40465673Y-25326048D01*
X40465672Y-25326047D01*
X40461251Y-25321137D01*
X40455909Y-25317256D01*
X40455907Y-25317254D01*
X40312092Y-25212767D01*
X40312091Y-25212766D01*
X40306750Y-25208886D01*
X40300722Y-25206202D01*
X40300720Y-25206201D01*
X40138318Y-25133895D01*
X40138317Y-25133895D01*
X40132287Y-25131210D01*
X40038887Y-25111357D01*
X39951944Y-25092876D01*
X39951939Y-25092876D01*
X39945487Y-25091504D01*
X39754513Y-25091504D01*
X39748061Y-25092876D01*
X39748056Y-25092876D01*
X39661113Y-25111357D01*
X39567713Y-25131210D01*
X39561683Y-25133895D01*
X39561682Y-25133895D01*
X39399280Y-25206201D01*
X39399278Y-25206202D01*
X39393250Y-25208886D01*
X39387909Y-25212766D01*
X39387908Y-25212767D01*
X39244093Y-25317254D01*
X39244091Y-25317256D01*
X39238749Y-25321137D01*
X39234328Y-25326047D01*
X39234327Y-25326048D01*
X39173065Y-25394087D01*
X39110963Y-25463058D01*
X39076005Y-25523607D01*
X39035085Y-25594483D01*
X39015476Y-25628446D01*
X39009535Y-25646731D01*
X38972941Y-25759357D01*
X38956462Y-25810073D01*
X38955772Y-25816636D01*
X38955772Y-25816637D01*
X38947204Y-25898160D01*
X38936500Y-26000000D01*
X35758245Y-26000000D01*
X35748805Y-25910181D01*
X35744228Y-25866637D01*
X35744228Y-25866636D01*
X35743538Y-25860073D01*
X35737951Y-25842876D01*
X35700651Y-25728080D01*
X35684524Y-25678446D01*
X35589037Y-25513058D01*
X35549166Y-25468776D01*
X35465673Y-25376048D01*
X35465672Y-25376047D01*
X35461251Y-25371137D01*
X35455909Y-25367256D01*
X35455907Y-25367254D01*
X35312092Y-25262767D01*
X35312091Y-25262766D01*
X35306750Y-25258886D01*
X35300722Y-25256202D01*
X35300720Y-25256201D01*
X35138318Y-25183895D01*
X35138317Y-25183895D01*
X35132287Y-25181210D01*
X35016343Y-25156565D01*
X34951944Y-25142876D01*
X34951939Y-25142876D01*
X34945487Y-25141504D01*
X34754513Y-25141504D01*
X34748061Y-25142876D01*
X34748056Y-25142876D01*
X34683657Y-25156565D01*
X34567713Y-25181210D01*
X34561683Y-25183895D01*
X34561682Y-25183895D01*
X34399280Y-25256201D01*
X34399278Y-25256202D01*
X34393250Y-25258886D01*
X34387909Y-25262766D01*
X34387908Y-25262767D01*
X34244093Y-25367254D01*
X34244091Y-25367256D01*
X34238749Y-25371137D01*
X34234328Y-25376047D01*
X34234327Y-25376048D01*
X34150835Y-25468776D01*
X34110963Y-25513058D01*
X34015476Y-25678446D01*
X33999349Y-25728080D01*
X33962050Y-25842876D01*
X33956462Y-25860073D01*
X33955772Y-25866636D01*
X33955772Y-25866637D01*
X33951195Y-25910181D01*
X33936500Y-26050000D01*
X30235459Y-26050000D01*
X30288887Y-26038643D01*
X30382287Y-26018790D01*
X30424490Y-26000000D01*
X30550720Y-25943799D01*
X30550722Y-25943798D01*
X30556750Y-25941114D01*
X30573410Y-25929010D01*
X30705907Y-25832746D01*
X30705909Y-25832744D01*
X30711251Y-25828863D01*
X30756647Y-25778446D01*
X30834618Y-25691850D01*
X30834619Y-25691849D01*
X30839037Y-25686942D01*
X30927924Y-25532985D01*
X30931220Y-25527277D01*
X30931221Y-25527276D01*
X30934524Y-25521554D01*
X30993538Y-25339927D01*
X31008562Y-25196987D01*
X31012810Y-25156565D01*
X31013500Y-25150000D01*
X30993538Y-24960073D01*
X30987385Y-24941134D01*
X30936566Y-24784731D01*
X30934524Y-24778446D01*
X30913207Y-24741523D01*
X30842338Y-24618776D01*
X30839037Y-24613058D01*
X30782260Y-24550000D01*
X30715673Y-24476048D01*
X30715672Y-24476047D01*
X30711251Y-24471137D01*
X30705909Y-24467256D01*
X30705907Y-24467254D01*
X30562092Y-24362767D01*
X30562091Y-24362766D01*
X30556750Y-24358886D01*
X30550722Y-24356202D01*
X30550720Y-24356201D01*
X30388318Y-24283895D01*
X30388317Y-24283895D01*
X30382287Y-24281210D01*
X30288887Y-24261357D01*
X30201944Y-24242876D01*
X30201939Y-24242876D01*
X30195487Y-24241504D01*
X30004513Y-24241504D01*
X29998061Y-24242876D01*
X29998056Y-24242876D01*
X29911113Y-24261357D01*
X29817713Y-24281210D01*
X29811683Y-24283895D01*
X29811682Y-24283895D01*
X29649280Y-24356201D01*
X29649278Y-24356202D01*
X29643250Y-24358886D01*
X29637909Y-24362766D01*
X29637908Y-24362767D01*
X29494093Y-24467254D01*
X29494091Y-24467256D01*
X29488749Y-24471137D01*
X29484328Y-24476047D01*
X29484327Y-24476048D01*
X29417741Y-24550000D01*
X29360963Y-24613058D01*
X29357662Y-24618776D01*
X29286794Y-24741523D01*
X29265476Y-24778446D01*
X29263434Y-24784731D01*
X29212616Y-24941134D01*
X29206462Y-24960073D01*
X29186500Y-25150000D01*
X16619883Y-25150000D01*
X16682472Y-25038238D01*
X16687148Y-25027735D01*
X16753316Y-24832810D01*
X16755947Y-24821850D01*
X16753972Y-24807993D01*
X16740404Y-24804000D01*
X15472000Y-24804000D01*
X15403879Y-24783998D01*
X15357386Y-24730342D01*
X15346000Y-24678000D01*
X15346000Y-24422000D01*
X15366002Y-24353879D01*
X15419658Y-24307386D01*
X15472000Y-24296000D01*
X16739415Y-24296000D01*
X16752946Y-24292027D01*
X16754115Y-24283892D01*
X16710662Y-24129818D01*
X16706540Y-24119079D01*
X16615492Y-23934453D01*
X16609482Y-23924645D01*
X16486313Y-23759703D01*
X16478611Y-23751149D01*
X16360586Y-23642047D01*
X16324141Y-23581119D01*
X16326422Y-23510159D01*
X16365546Y-23452649D01*
X16435959Y-23394087D01*
X16435964Y-23394082D01*
X16440396Y-23390396D01*
X16494034Y-23325904D01*
X16575780Y-23227616D01*
X16575782Y-23227613D01*
X16579474Y-23223174D01*
X16649683Y-23097808D01*
X16682925Y-23038450D01*
X16682926Y-23038448D01*
X16685749Y-23033407D01*
X16687605Y-23027940D01*
X16687607Y-23027935D01*
X16753806Y-22832919D01*
X16753807Y-22832914D01*
X16755662Y-22827450D01*
X16786871Y-22612201D01*
X16787175Y-22600592D01*
X49415656Y-22600592D01*
X49454240Y-22803821D01*
X49530558Y-22996088D01*
X49533782Y-23001138D01*
X49533783Y-23001141D01*
X49589093Y-23087793D01*
X49641856Y-23170455D01*
X49784118Y-23320631D01*
X49788983Y-23324120D01*
X49788986Y-23324123D01*
X49947340Y-23437702D01*
X49947345Y-23437705D01*
X49952211Y-23441195D01*
X50046140Y-23484497D01*
X50131732Y-23523955D01*
X50140070Y-23527799D01*
X50145886Y-23529233D01*
X50145889Y-23529234D01*
X50335091Y-23575882D01*
X50335093Y-23575882D01*
X50340916Y-23577318D01*
X50346907Y-23577627D01*
X50346909Y-23577627D01*
X50406466Y-23580696D01*
X50547502Y-23587964D01*
X50553437Y-23587135D01*
X50553441Y-23587135D01*
X50692489Y-23567716D01*
X50752373Y-23559353D01*
X50897404Y-23509839D01*
X50942460Y-23494457D01*
X50942462Y-23494456D01*
X50948139Y-23492518D01*
X51127735Y-23389871D01*
X51284680Y-23255115D01*
X51306515Y-23227616D01*
X51409583Y-23097808D01*
X51413312Y-23093112D01*
X51444459Y-23033407D01*
X51506216Y-22915026D01*
X51506217Y-22915024D01*
X51508990Y-22909708D01*
X51568260Y-22711521D01*
X51588985Y-22505702D01*
X51589000Y-22500000D01*
X51569353Y-22294075D01*
X51511121Y-22095580D01*
X51483448Y-22041850D01*
X51419151Y-21917009D01*
X51419149Y-21917006D01*
X51416405Y-21911678D01*
X51347813Y-21824356D01*
X51292329Y-21753721D01*
X51292325Y-21753716D01*
X51288623Y-21749004D01*
X51275545Y-21737655D01*
X51188876Y-21662448D01*
X51132386Y-21613428D01*
X50953330Y-21509842D01*
X50757917Y-21441983D01*
X50751982Y-21441122D01*
X50751980Y-21441122D01*
X50559137Y-21413161D01*
X50559134Y-21413161D01*
X50553197Y-21412300D01*
X50346559Y-21421864D01*
X50220153Y-21452328D01*
X50151289Y-21468924D01*
X50151287Y-21468925D01*
X50145456Y-21470330D01*
X50139998Y-21472812D01*
X50139994Y-21472813D01*
X50028279Y-21523607D01*
X49957147Y-21555949D01*
X49788425Y-21675632D01*
X49784276Y-21679966D01*
X49784275Y-21679967D01*
X49756144Y-21709353D01*
X49645379Y-21825061D01*
X49642127Y-21830098D01*
X49642125Y-21830100D01*
X49574915Y-21934190D01*
X49533169Y-21998842D01*
X49530927Y-22004405D01*
X49482697Y-22124080D01*
X49455845Y-22190707D01*
X49454697Y-22196588D01*
X49454695Y-22196593D01*
X49417345Y-22387851D01*
X49416197Y-22393732D01*
X49415919Y-22500000D01*
X49415656Y-22600592D01*
X16787175Y-22600592D01*
X16788500Y-22550000D01*
X16768598Y-22333413D01*
X16756669Y-22291114D01*
X16728351Y-22190707D01*
X16709560Y-22124080D01*
X16698030Y-22100699D01*
X16615918Y-21934190D01*
X16615915Y-21934186D01*
X16613363Y-21929010D01*
X16604402Y-21917009D01*
X16486681Y-21759362D01*
X16486680Y-21759361D01*
X16483228Y-21754738D01*
X16478991Y-21750821D01*
X16478987Y-21750817D01*
X16360973Y-21641727D01*
X16324527Y-21580799D01*
X16326807Y-21509839D01*
X16365932Y-21452328D01*
X16435959Y-21394087D01*
X16435964Y-21394082D01*
X16440396Y-21390396D01*
X16494034Y-21325904D01*
X16575780Y-21227616D01*
X16575782Y-21227613D01*
X16579474Y-21223174D01*
X16643185Y-21109410D01*
X16682925Y-21038450D01*
X16682926Y-21038448D01*
X16685749Y-21033407D01*
X16687605Y-21027940D01*
X16687607Y-21027935D01*
X16753806Y-20832919D01*
X16753807Y-20832914D01*
X16755662Y-20827450D01*
X16766806Y-20750592D01*
X21265656Y-20750592D01*
X21266774Y-20756479D01*
X21302894Y-20946729D01*
X21304240Y-20953821D01*
X21380558Y-21146088D01*
X21383782Y-21151138D01*
X21383783Y-21151141D01*
X21429762Y-21223174D01*
X21491856Y-21320455D01*
X21497018Y-21325904D01*
X21616780Y-21452328D01*
X21634118Y-21470631D01*
X21638983Y-21474120D01*
X21638986Y-21474123D01*
X21797340Y-21587702D01*
X21797345Y-21587705D01*
X21802211Y-21591195D01*
X21990070Y-21677799D01*
X21995886Y-21679233D01*
X21995889Y-21679234D01*
X22185091Y-21725882D01*
X22185093Y-21725882D01*
X22190916Y-21727318D01*
X22196907Y-21727627D01*
X22196909Y-21727627D01*
X22256466Y-21730696D01*
X22397502Y-21737964D01*
X22403437Y-21737135D01*
X22403441Y-21737135D01*
X22524183Y-21720273D01*
X22602373Y-21709353D01*
X22785799Y-21646731D01*
X22792460Y-21644457D01*
X22792462Y-21644456D01*
X22798139Y-21642518D01*
X22977735Y-21539871D01*
X23024171Y-21500000D01*
X32186500Y-21500000D01*
X32187190Y-21506565D01*
X32204960Y-21675632D01*
X32206462Y-21689927D01*
X32208502Y-21696205D01*
X32208502Y-21696206D01*
X32220097Y-21731891D01*
X32265476Y-21871554D01*
X32268779Y-21877276D01*
X32268780Y-21877277D01*
X32295977Y-21924383D01*
X32360963Y-22036942D01*
X32365381Y-22041849D01*
X32365382Y-22041850D01*
X32413761Y-22095580D01*
X32488749Y-22178863D01*
X32494091Y-22182744D01*
X32494093Y-22182746D01*
X32513152Y-22196593D01*
X32643250Y-22291114D01*
X32649278Y-22293798D01*
X32649280Y-22293799D01*
X32725758Y-22327849D01*
X32817713Y-22368790D01*
X32907387Y-22387851D01*
X32998056Y-22407124D01*
X32998061Y-22407124D01*
X33004513Y-22408496D01*
X33195487Y-22408496D01*
X33201939Y-22407124D01*
X33201944Y-22407124D01*
X33292613Y-22387851D01*
X33382287Y-22368790D01*
X33474242Y-22327849D01*
X33550720Y-22293799D01*
X33550722Y-22293798D01*
X33556750Y-22291114D01*
X33686848Y-22196593D01*
X33705907Y-22182746D01*
X33705909Y-22182744D01*
X33711251Y-22178863D01*
X33786239Y-22095580D01*
X33834618Y-22041850D01*
X33834619Y-22041849D01*
X33839037Y-22036942D01*
X33904023Y-21924383D01*
X33931220Y-21877277D01*
X33931221Y-21877276D01*
X33934524Y-21871554D01*
X33979903Y-21731891D01*
X33991498Y-21696206D01*
X33991498Y-21696205D01*
X33993538Y-21689927D01*
X33995041Y-21675632D01*
X34012810Y-21506565D01*
X34013500Y-21500000D01*
X33993538Y-21310073D01*
X33934524Y-21128446D01*
X33839037Y-20963058D01*
X33824335Y-20946729D01*
X33715673Y-20826048D01*
X33715672Y-20826047D01*
X33711251Y-20821137D01*
X33705909Y-20817256D01*
X33705907Y-20817254D01*
X33562092Y-20712767D01*
X33562091Y-20712766D01*
X33556750Y-20708886D01*
X33550722Y-20706202D01*
X33550720Y-20706201D01*
X33388318Y-20633895D01*
X33388317Y-20633895D01*
X33382287Y-20631210D01*
X33275413Y-20608493D01*
X33201944Y-20592876D01*
X33201939Y-20592876D01*
X33195487Y-20591504D01*
X33004513Y-20591504D01*
X32998061Y-20592876D01*
X32998056Y-20592876D01*
X32924587Y-20608493D01*
X32817713Y-20631210D01*
X32811683Y-20633895D01*
X32811682Y-20633895D01*
X32649280Y-20706201D01*
X32649278Y-20706202D01*
X32643250Y-20708886D01*
X32637909Y-20712766D01*
X32637908Y-20712767D01*
X32494093Y-20817254D01*
X32494091Y-20817256D01*
X32488749Y-20821137D01*
X32484328Y-20826047D01*
X32484327Y-20826048D01*
X32375666Y-20946729D01*
X32360963Y-20963058D01*
X32265476Y-21128446D01*
X32206462Y-21310073D01*
X32186500Y-21500000D01*
X23024171Y-21500000D01*
X23134680Y-21405115D01*
X23263312Y-21243112D01*
X23285382Y-21200807D01*
X23356216Y-21065026D01*
X23356217Y-21065024D01*
X23358990Y-21059708D01*
X23418260Y-20861521D01*
X23422327Y-20821137D01*
X23438676Y-20658769D01*
X23438985Y-20655702D01*
X23439000Y-20650000D01*
X23437464Y-20633895D01*
X23429459Y-20550000D01*
X23419353Y-20444075D01*
X23361121Y-20245580D01*
X23311298Y-20148842D01*
X23269151Y-20067009D01*
X23269149Y-20067006D01*
X23266405Y-20061678D01*
X23166262Y-19934190D01*
X23142329Y-19903721D01*
X23142325Y-19903716D01*
X23138623Y-19899004D01*
X22982386Y-19763428D01*
X22803330Y-19659842D01*
X22607917Y-19591983D01*
X22601982Y-19591122D01*
X22601980Y-19591122D01*
X22409137Y-19563161D01*
X22409134Y-19563161D01*
X22403197Y-19562300D01*
X22196559Y-19571864D01*
X22102705Y-19594483D01*
X22001289Y-19618924D01*
X22001287Y-19618925D01*
X21995456Y-19620330D01*
X21989998Y-19622812D01*
X21989994Y-19622813D01*
X21876896Y-19674236D01*
X21807147Y-19705949D01*
X21638425Y-19825632D01*
X21495379Y-19975061D01*
X21492127Y-19980098D01*
X21492125Y-19980100D01*
X21399158Y-20124080D01*
X21383169Y-20148842D01*
X21380927Y-20154405D01*
X21308785Y-20333413D01*
X21305845Y-20340707D01*
X21304697Y-20346588D01*
X21304695Y-20346593D01*
X21284491Y-20450052D01*
X21266197Y-20543732D01*
X21266181Y-20549718D01*
X21266181Y-20549721D01*
X21266018Y-20612201D01*
X21265919Y-20650000D01*
X21265656Y-20750592D01*
X16766806Y-20750592D01*
X16786871Y-20612201D01*
X16788500Y-20550000D01*
X16768598Y-20333413D01*
X16709560Y-20124080D01*
X16636073Y-19975061D01*
X16615918Y-19934190D01*
X16615915Y-19934186D01*
X16613363Y-19929010D01*
X16590957Y-19899004D01*
X16486681Y-19759362D01*
X16486680Y-19759361D01*
X16483228Y-19754738D01*
X16478991Y-19750821D01*
X16478987Y-19750817D01*
X16360973Y-19641727D01*
X16324527Y-19580799D01*
X16326807Y-19509839D01*
X16365932Y-19452328D01*
X16435959Y-19394087D01*
X16435964Y-19394082D01*
X16440396Y-19390396D01*
X16494034Y-19325904D01*
X16575780Y-19227616D01*
X16575782Y-19227613D01*
X16579474Y-19223174D01*
X16685749Y-19033407D01*
X16687605Y-19027940D01*
X16687607Y-19027935D01*
X16753806Y-18832919D01*
X16753807Y-18832914D01*
X16755662Y-18827450D01*
X16786871Y-18612201D01*
X16788500Y-18550000D01*
X16768598Y-18333413D01*
X16709560Y-18124080D01*
X16692786Y-18090065D01*
X16615918Y-17934190D01*
X16615915Y-17934186D01*
X16613363Y-17929010D01*
X16532755Y-17821062D01*
X16486681Y-17759362D01*
X16486680Y-17759361D01*
X16483228Y-17754738D01*
X16478992Y-17750822D01*
X16327754Y-17611020D01*
X16327752Y-17611018D01*
X16323513Y-17607100D01*
X16139568Y-17491039D01*
X15937552Y-17410443D01*
X15931892Y-17409317D01*
X15931888Y-17409316D01*
X15729899Y-17369138D01*
X15729896Y-17369138D01*
X15724232Y-17368011D01*
X15718457Y-17367935D01*
X15718453Y-17367935D01*
X15609341Y-17366507D01*
X15506751Y-17365164D01*
X15501054Y-17366143D01*
X15501053Y-17366143D01*
X15385247Y-17386042D01*
X15292394Y-17401997D01*
X15088338Y-17477277D01*
X14901417Y-17588483D01*
X14897074Y-17592292D01*
X14879422Y-17607772D01*
X14815018Y-17637649D01*
X14744685Y-17627963D01*
X14690348Y-17581162D01*
X14667950Y-17546311D01*
X14667949Y-17546310D01*
X14663077Y-17538729D01*
X14656267Y-17532828D01*
X14559431Y-17448918D01*
X14559428Y-17448916D01*
X14552619Y-17443016D01*
X14485980Y-17412583D01*
X14427864Y-17386042D01*
X14427863Y-17386042D01*
X14419670Y-17382300D01*
X14410755Y-17381018D01*
X14410754Y-17381018D01*
X14279448Y-17362139D01*
X14279441Y-17362138D01*
X14275000Y-17361500D01*
X12925000Y-17361500D01*
X12851921Y-17366727D01*
X12845439Y-17368630D01*
X12845435Y-17368631D01*
X12822998Y-17375219D01*
X12752002Y-17375219D01*
X12692276Y-17336835D01*
X12662783Y-17272254D01*
X12672888Y-17201980D01*
X12697518Y-17166125D01*
X15288032Y-14523277D01*
X17226352Y-12545800D01*
X17288321Y-12511153D01*
X17316334Y-12508000D01*
X17608418Y-12508000D01*
X17676539Y-12528002D01*
G37*
%TD.AperFunction*%
%TD*%
M02*
