%TF.GenerationSoftware,KiCad,Pcbnew,(5.99.0-10369-gb59bf064b4)*%
%TF.CreationDate,2021-07-27T08:06:35+02:00*%
%TF.ProjectId,stm32h7,73746d33-3268-4372-9e6b-696361645f70,rev?*%
%TF.SameCoordinates,Original*%
%TF.FileFunction,Paste,Top*%
%TF.FilePolarity,Positive*%
%FSLAX46Y46*%
G04 Gerber Fmt 4.6, Leading zero omitted, Abs format (unit mm)*
G04 Created by KiCad (PCBNEW (5.99.0-10369-gb59bf064b4)) date 2021-07-27 08:06:35*
%MOMM*%
%LPD*%
G01*
G04 APERTURE LIST*
G04 Aperture macros list*
%AMRoundRect*
0 Rectangle with rounded corners*
0 $1 Rounding radius*
0 $2 $3 $4 $5 $6 $7 $8 $9 X,Y pos of 4 corners*
0 Add a 4 corners polygon primitive as box body*
4,1,4,$2,$3,$4,$5,$6,$7,$8,$9,$2,$3,0*
0 Add four circle primitives for the rounded corners*
1,1,$1+$1,$2,$3*
1,1,$1+$1,$4,$5*
1,1,$1+$1,$6,$7*
1,1,$1+$1,$8,$9*
0 Add four rect primitives between the rounded corners*
20,1,$1+$1,$2,$3,$4,$5,0*
20,1,$1+$1,$4,$5,$6,$7,0*
20,1,$1+$1,$6,$7,$8,$9,0*
20,1,$1+$1,$8,$9,$2,$3,0*%
G04 Aperture macros list end*
%ADD10RoundRect,0.075000X-0.662500X-0.075000X0.662500X-0.075000X0.662500X0.075000X-0.662500X0.075000X0*%
%ADD11RoundRect,0.075000X-0.075000X-0.662500X0.075000X-0.662500X0.075000X0.662500X-0.075000X0.662500X0*%
G04 APERTURE END LIST*
D10*
%TO.C,U1*%
X24437500Y-25550000D03*
X24437500Y-26050000D03*
X24437500Y-26550000D03*
X24437500Y-27050000D03*
X24437500Y-27550000D03*
X24437500Y-28050000D03*
X24437500Y-28550000D03*
X24437500Y-29050000D03*
X24437500Y-29550000D03*
X24437500Y-30050000D03*
X24437500Y-30550000D03*
X24437500Y-31050000D03*
X24437500Y-31550000D03*
X24437500Y-32050000D03*
X24437500Y-32550000D03*
X24437500Y-33050000D03*
X24437500Y-33550000D03*
X24437500Y-34050000D03*
X24437500Y-34550000D03*
X24437500Y-35050000D03*
X24437500Y-35550000D03*
X24437500Y-36050000D03*
X24437500Y-36550000D03*
X24437500Y-37050000D03*
X24437500Y-37550000D03*
X24437500Y-38050000D03*
X24437500Y-38550000D03*
X24437500Y-39050000D03*
X24437500Y-39550000D03*
X24437500Y-40050000D03*
X24437500Y-40550000D03*
X24437500Y-41050000D03*
X24437500Y-41550000D03*
X24437500Y-42050000D03*
X24437500Y-42550000D03*
X24437500Y-43050000D03*
D11*
X26350000Y-44962500D03*
X26850000Y-44962500D03*
X27350000Y-44962500D03*
X27850000Y-44962500D03*
X28350000Y-44962500D03*
X28850000Y-44962500D03*
X29350000Y-44962500D03*
X29850000Y-44962500D03*
X30350000Y-44962500D03*
X30850000Y-44962500D03*
X31350000Y-44962500D03*
X31850000Y-44962500D03*
X32350000Y-44962500D03*
X32850000Y-44962500D03*
X33350000Y-44962500D03*
X33850000Y-44962500D03*
X34350000Y-44962500D03*
X34850000Y-44962500D03*
X35350000Y-44962500D03*
X35850000Y-44962500D03*
X36350000Y-44962500D03*
X36850000Y-44962500D03*
X37350000Y-44962500D03*
X37850000Y-44962500D03*
X38350000Y-44962500D03*
X38850000Y-44962500D03*
X39350000Y-44962500D03*
X39850000Y-44962500D03*
X40350000Y-44962500D03*
X40850000Y-44962500D03*
X41350000Y-44962500D03*
X41850000Y-44962500D03*
X42350000Y-44962500D03*
X42850000Y-44962500D03*
X43350000Y-44962500D03*
X43850000Y-44962500D03*
D10*
X45762500Y-43050000D03*
X45762500Y-42550000D03*
X45762500Y-42050000D03*
X45762500Y-41550000D03*
X45762500Y-41050000D03*
X45762500Y-40550000D03*
X45762500Y-40050000D03*
X45762500Y-39550000D03*
X45762500Y-39050000D03*
X45762500Y-38550000D03*
X45762500Y-38050000D03*
X45762500Y-37550000D03*
X45762500Y-37050000D03*
X45762500Y-36550000D03*
X45762500Y-36050000D03*
X45762500Y-35550000D03*
X45762500Y-35050000D03*
X45762500Y-34550000D03*
X45762500Y-34050000D03*
X45762500Y-33550000D03*
X45762500Y-33050000D03*
X45762500Y-32550000D03*
X45762500Y-32050000D03*
X45762500Y-31550000D03*
X45762500Y-31050000D03*
X45762500Y-30550000D03*
X45762500Y-30050000D03*
X45762500Y-29550000D03*
X45762500Y-29050000D03*
X45762500Y-28550000D03*
X45762500Y-28050000D03*
X45762500Y-27550000D03*
X45762500Y-27050000D03*
X45762500Y-26550000D03*
X45762500Y-26050000D03*
X45762500Y-25550000D03*
D11*
X43850000Y-23637500D03*
X43350000Y-23637500D03*
X42850000Y-23637500D03*
X42350000Y-23637500D03*
X41850000Y-23637500D03*
X41350000Y-23637500D03*
X40850000Y-23637500D03*
X40350000Y-23637500D03*
X39850000Y-23637500D03*
X39350000Y-23637500D03*
X38850000Y-23637500D03*
X38350000Y-23637500D03*
X37850000Y-23637500D03*
X37350000Y-23637500D03*
X36850000Y-23637500D03*
X36350000Y-23637500D03*
X35850000Y-23637500D03*
X35350000Y-23637500D03*
X34850000Y-23637500D03*
X34350000Y-23637500D03*
X33850000Y-23637500D03*
X33350000Y-23637500D03*
X32850000Y-23637500D03*
X32350000Y-23637500D03*
X31850000Y-23637500D03*
X31350000Y-23637500D03*
X30850000Y-23637500D03*
X30350000Y-23637500D03*
X29850000Y-23637500D03*
X29350000Y-23637500D03*
X28850000Y-23637500D03*
X28350000Y-23637500D03*
X27850000Y-23637500D03*
X27350000Y-23637500D03*
X26850000Y-23637500D03*
X26350000Y-23637500D03*
%TD*%
M02*
