%TF.GenerationSoftware,KiCad,Pcbnew,(5.99.0-10369-gb59bf064b4)*%
%TF.CreationDate,2021-07-27T07:29:01+02:00*%
%TF.ProjectId,stm32h7,73746d33-3268-4372-9e6b-696361645f70,rev?*%
%TF.SameCoordinates,Original*%
%TF.FileFunction,Copper,L3,Inr*%
%TF.FilePolarity,Positive*%
%FSLAX46Y46*%
G04 Gerber Fmt 4.6, Leading zero omitted, Abs format (unit mm)*
G04 Created by KiCad (PCBNEW (5.99.0-10369-gb59bf064b4)) date 2021-07-27 07:29:01*
%MOMM*%
%LPD*%
G01*
G04 APERTURE LIST*
G04 Aperture macros list*
%AMHorizOval*
0 Thick line with rounded ends*
0 $1 width*
0 $2 $3 position (X,Y) of the first rounded end (center of the circle)*
0 $4 $5 position (X,Y) of the second rounded end (center of the circle)*
0 Add line between two ends*
20,1,$1,$2,$3,$4,$5,0*
0 Add two circle primitives to create the rounded ends*
1,1,$1,$2,$3*
1,1,$1,$4,$5*%
%AMRotRect*
0 Rectangle, with rotation*
0 The origin of the aperture is its center*
0 $1 length*
0 $2 width*
0 $3 Rotation angle, in degrees counterclockwise*
0 Add horizontal line*
21,1,$1,$2,0,0,$3*%
G04 Aperture macros list end*
%TA.AperFunction,ComponentPad*%
%ADD10R,1.350000X1.350000*%
%TD*%
%TA.AperFunction,ComponentPad*%
%ADD11O,1.350000X1.350000*%
%TD*%
%TA.AperFunction,ComponentPad*%
%ADD12RotRect,1.700000X1.700000X45.000000*%
%TD*%
%TA.AperFunction,ComponentPad*%
%ADD13HorizOval,1.700000X0.000000X0.000000X0.000000X0.000000X0*%
%TD*%
%TA.AperFunction,ComponentPad*%
%ADD14RotRect,1.350000X1.350000X135.000000*%
%TD*%
%TA.AperFunction,ComponentPad*%
%ADD15HorizOval,1.350000X0.000000X0.000000X0.000000X0.000000X0*%
%TD*%
%TA.AperFunction,ViaPad*%
%ADD16C,0.800000*%
%TD*%
%TA.AperFunction,Conductor*%
%ADD17C,0.250000*%
%TD*%
G04 APERTURE END LIST*
D10*
%TO.N,73*%
%TO.C,J3*%
X57550000Y-52550000D03*
D11*
%TO.N,74*%
X55550000Y-52550000D03*
%TO.N,75*%
X57550000Y-50550000D03*
%TO.N,76*%
X55550000Y-50550000D03*
%TO.N,77*%
X57550000Y-48550000D03*
%TO.N,78*%
X55550000Y-48550000D03*
%TO.N,79*%
X57550000Y-46550000D03*
%TO.N,80*%
X55550000Y-46550000D03*
%TO.N,81*%
X57550000Y-44550000D03*
%TO.N,82*%
X55550000Y-44550000D03*
%TO.N,GND*%
X57550000Y-42550000D03*
X55550000Y-42550000D03*
%TO.N,85*%
X57550000Y-40550000D03*
%TO.N,86*%
X55550000Y-40550000D03*
%TO.N,87*%
X57550000Y-38550000D03*
%TO.N,88*%
X55550000Y-38550000D03*
%TO.N,89*%
X57550000Y-36550000D03*
%TO.N,90*%
X55550000Y-36550000D03*
%TO.N,91*%
X57550000Y-34550000D03*
%TO.N,92*%
X55550000Y-34550000D03*
%TO.N,93*%
X57550000Y-32550000D03*
%TO.N,GND*%
X55550000Y-32550000D03*
X57550000Y-30550000D03*
%TO.N,96*%
X55550000Y-30550000D03*
%TO.N,97*%
X57550000Y-28550000D03*
%TO.N,98*%
X55550000Y-28550000D03*
%TO.N,99*%
X57550000Y-26550000D03*
%TO.N,100*%
X55550000Y-26550000D03*
%TO.N,101*%
X57550000Y-24550000D03*
%TO.N,102*%
X55550000Y-24550000D03*
%TO.N,103*%
X57550000Y-22550000D03*
%TO.N,104*%
X55550000Y-22550000D03*
%TO.N,105*%
X57550000Y-20550000D03*
%TO.N,GND*%
X55550000Y-20550000D03*
X57550000Y-18550000D03*
X55550000Y-18550000D03*
%TD*%
D10*
%TO.N,37*%
%TO.C,J2*%
X18590000Y-57550000D03*
D11*
%TO.N,+3.3VA*%
X18590000Y-55550000D03*
X20590000Y-57550000D03*
%TO.N,40*%
X20590000Y-55550000D03*
%TO.N,41*%
X22590000Y-57550000D03*
%TO.N,42*%
X22590000Y-55550000D03*
%TO.N,43*%
X24590000Y-57550000D03*
%TO.N,44*%
X24590000Y-55550000D03*
%TO.N,45*%
X26590000Y-57550000D03*
%TO.N,46*%
X26590000Y-55550000D03*
%TO.N,47*%
X28590000Y-57550000D03*
%TO.N,48*%
X28590000Y-55550000D03*
%TO.N,49*%
X30590000Y-57550000D03*
%TO.N,50*%
X30590000Y-55550000D03*
%TO.N,+3V3*%
X32590000Y-57550000D03*
X32590000Y-55550000D03*
%TO.N,53*%
X34590000Y-57550000D03*
%TO.N,54*%
X34590000Y-55550000D03*
%TO.N,55*%
X36590000Y-57550000D03*
%TO.N,56*%
X36590000Y-55550000D03*
%TO.N,57*%
X38590000Y-57550000D03*
%TO.N,58*%
X38590000Y-55550000D03*
%TO.N,59*%
X40590000Y-57550000D03*
%TO.N,60*%
X40590000Y-55550000D03*
%TO.N,GND*%
X42590000Y-57550000D03*
X42590000Y-55550000D03*
%TO.N,63*%
X44590000Y-57550000D03*
%TO.N,64*%
X44590000Y-55550000D03*
%TO.N,65*%
X46590000Y-57550000D03*
%TO.N,66*%
X46590000Y-55550000D03*
%TO.N,67*%
X48590000Y-57550000D03*
%TO.N,68*%
X48590000Y-55550000D03*
%TO.N,69*%
X50590000Y-57550000D03*
%TO.N,70*%
X50590000Y-55550000D03*
%TO.N,GND*%
X52590000Y-57550000D03*
X52590000Y-55550000D03*
%TD*%
D12*
%TO.N,+3V3*%
%TO.C,SW1*%
X46350000Y-47300000D03*
D13*
%TO.N,Net-(R2-Pad1)*%
X48146051Y-49096051D03*
%TO.N,GND*%
X49942102Y-50892102D03*
%TD*%
D10*
%TO.N,109*%
%TO.C,J4*%
X52550000Y-13550000D03*
D11*
%TO.N,110*%
X52550000Y-15550000D03*
%TO.N,111*%
X50550000Y-13550000D03*
%TO.N,112*%
X50550000Y-15550000D03*
%TO.N,113*%
X48550000Y-13550000D03*
%TO.N,114*%
X48550000Y-15550000D03*
%TO.N,115*%
X46550000Y-13550000D03*
%TO.N,116*%
X46550000Y-15550000D03*
%TO.N,117*%
X44550000Y-13550000D03*
%TO.N,118*%
X44550000Y-15550000D03*
%TO.N,119*%
X42550000Y-13550000D03*
%TO.N,+3V3*%
X42550000Y-15550000D03*
X40550000Y-13550000D03*
%TO.N,122*%
X40550000Y-15550000D03*
%TO.N,123*%
X38550000Y-13550000D03*
%TO.N,124*%
X38550000Y-15550000D03*
%TO.N,125*%
X36550000Y-13550000D03*
%TO.N,126*%
X36550000Y-15550000D03*
%TO.N,127*%
X34550000Y-13550000D03*
%TO.N,128*%
X34550000Y-15550000D03*
%TO.N,129*%
X32550000Y-13550000D03*
%TO.N,GND*%
X32550000Y-15550000D03*
X30550000Y-13550000D03*
%TO.N,132*%
X30550000Y-15550000D03*
%TO.N,133*%
X28550000Y-13550000D03*
%TO.N,134*%
X28550000Y-15550000D03*
%TO.N,135*%
X26550000Y-13550000D03*
%TO.N,136*%
X26550000Y-15550000D03*
%TO.N,137*%
X24550000Y-13550000D03*
%TO.N,GND*%
X24550000Y-15550000D03*
%TO.N,139*%
X22550000Y-13550000D03*
%TO.N,140*%
X22550000Y-15550000D03*
%TO.N,141*%
X20550000Y-13550000D03*
%TO.N,142*%
X20550000Y-15550000D03*
%TO.N,+3.3VA*%
X18550000Y-13550000D03*
X18550000Y-15550000D03*
%TD*%
D14*
%TO.N,105*%
%TO.C,J5*%
X18621573Y-52078428D03*
D15*
%TO.N,109*%
X20035787Y-50664214D03*
%TO.N,133*%
X21450000Y-49250001D03*
%TO.N,110*%
X22864214Y-47835787D03*
%TO.N,134*%
X24278427Y-46421574D03*
%TD*%
D10*
%TO.N,1*%
%TO.C,J1*%
X13600000Y-18550000D03*
D11*
%TO.N,2*%
X15600000Y-18550000D03*
%TO.N,3*%
X13600000Y-20550000D03*
%TO.N,4*%
X15600000Y-20550000D03*
%TO.N,5*%
X13600000Y-22550000D03*
%TO.N,GND*%
X15600000Y-22550000D03*
%TO.N,7*%
X13600000Y-24550000D03*
%TO.N,+3V3*%
X15600000Y-24550000D03*
%TO.N,GND*%
X13600000Y-26550000D03*
%TO.N,10*%
X15600000Y-26550000D03*
%TO.N,11*%
X13600000Y-28550000D03*
%TO.N,12*%
X15600000Y-28550000D03*
%TO.N,13*%
X13600000Y-30550000D03*
%TO.N,14*%
X15600000Y-30550000D03*
%TO.N,15*%
X13600000Y-32550000D03*
%TO.N,GND*%
X15600000Y-32550000D03*
X13600000Y-34550000D03*
%TO.N,18*%
X15600000Y-34550000D03*
%TO.N,19*%
X13600000Y-36550000D03*
%TO.N,20*%
X15600000Y-36550000D03*
%TO.N,21*%
X13600000Y-38550000D03*
%TO.N,22*%
X15600000Y-38550000D03*
%TO.N,23*%
X13600000Y-40550000D03*
%TO.N,24*%
X15600000Y-40550000D03*
%TO.N,25*%
X13600000Y-42550000D03*
%TO.N,26*%
X15600000Y-42550000D03*
%TO.N,27*%
X13600000Y-44550000D03*
%TO.N,28*%
X15600000Y-44550000D03*
%TO.N,29*%
X13600000Y-46550000D03*
%TO.N,+3V3*%
X15600000Y-46550000D03*
X13600000Y-48550000D03*
%TO.N,GND*%
X15600000Y-48550000D03*
X13600000Y-50550000D03*
%TO.N,34*%
X15600000Y-50550000D03*
%TO.N,35*%
X13600000Y-52550000D03*
%TO.N,36*%
X15600000Y-52550000D03*
%TD*%
D16*
%TO.N,/HSE_OUT*%
X29505378Y-30994622D03*
%TO.N,Net-(R2-Pad2)*%
X30100000Y-25150000D03*
%TO.N,+3V3*%
X37601360Y-24955425D03*
X27500000Y-35400000D03*
X25850000Y-28100000D03*
X41400000Y-41650000D03*
X43750000Y-46650000D03*
X44050000Y-31300000D03*
X25400000Y-23550000D03*
X33574500Y-46700000D03*
X44050000Y-37175000D03*
X25713352Y-33681741D03*
X47400000Y-24600000D03*
X27425000Y-43200000D03*
X38400000Y-43350000D03*
X32550000Y-25000000D03*
X26300000Y-39850000D03*
X26900000Y-24950000D03*
%TO.N,25*%
X26000000Y-38350000D03*
%TO.N,GND*%
X44050000Y-32900000D03*
X38574500Y-46500000D03*
X27400000Y-30500000D03*
X36700000Y-33350000D03*
X33350000Y-43600000D03*
X34850000Y-26050000D03*
X28700000Y-26750000D03*
X44050000Y-38725000D03*
X25774500Y-32634163D03*
X39850000Y-26000000D03*
X26400000Y-41400000D03*
X22850000Y-40274500D03*
X33100000Y-21500000D03*
X39825000Y-41550000D03*
X47500000Y-26150000D03*
%TO.N,+3.3VA*%
X21050000Y-43500000D03*
%TO.N,Net-(C8-Pad2)*%
X42950000Y-43350000D03*
%TO.N,Net-(C10-Pad2)*%
X43400000Y-26000000D03*
%TO.N,/HSE_IN*%
X30300000Y-36950000D03*
%TD*%
D17*
%TO.N,GND*%
X14650000Y-23550000D02*
X14599511Y-23600489D01*
X55550000Y-32550000D02*
X55600000Y-32550000D01*
X52650000Y-55550000D02*
X52650000Y-57550000D01*
X15120723Y-23550000D02*
X14650000Y-23550000D01*
X55550000Y-32550000D02*
X57550000Y-30550000D01*
X15600000Y-22550000D02*
X15600000Y-23070723D01*
X14599511Y-23600489D02*
X14599511Y-25550489D01*
X14599511Y-25550489D02*
X13600000Y-26550000D01*
X15600000Y-48550000D02*
X13600000Y-50550000D01*
X15600000Y-23070723D02*
X15120723Y-23550000D01*
X30550000Y-13550000D02*
X32550000Y-15550000D01*
X13600000Y-34550000D02*
X15600000Y-32550000D01*
X55550000Y-42550000D02*
X57550000Y-42550000D01*
%TD*%
%TA.AperFunction,Conductor*%
%TO.N,GND*%
G36*
X17676539Y-12528002D02*
G01*
X17723032Y-12581658D01*
X17733136Y-12651932D01*
X17703642Y-12716512D01*
X17694232Y-12725979D01*
X17692237Y-12728081D01*
X17687893Y-12731891D01*
X17553240Y-12902697D01*
X17451969Y-13095181D01*
X17387472Y-13302897D01*
X17361907Y-13518889D01*
X17376132Y-13735922D01*
X17377553Y-13741518D01*
X17377554Y-13741523D01*
X17428250Y-13941134D01*
X17429671Y-13946729D01*
X17520729Y-14144250D01*
X17646258Y-14321869D01*
X17650392Y-14325896D01*
X17789844Y-14461745D01*
X17824681Y-14523607D01*
X17820544Y-14594483D01*
X17785002Y-14646728D01*
X17687893Y-14731891D01*
X17553240Y-14902697D01*
X17550551Y-14907808D01*
X17550549Y-14907811D01*
X17499137Y-15005530D01*
X17451969Y-15095181D01*
X17387472Y-15302897D01*
X17361907Y-15518889D01*
X17376132Y-15735922D01*
X17377553Y-15741518D01*
X17377554Y-15741523D01*
X17400766Y-15832919D01*
X17429671Y-15946729D01*
X17520729Y-16144250D01*
X17646258Y-16321869D01*
X17802053Y-16473638D01*
X17806849Y-16476843D01*
X17806852Y-16476845D01*
X17889220Y-16531881D01*
X17982897Y-16594474D01*
X17988200Y-16596752D01*
X17988203Y-16596754D01*
X18066069Y-16630208D01*
X18182733Y-16680331D01*
X18394870Y-16728332D01*
X18400644Y-16728559D01*
X18400645Y-16728559D01*
X18443593Y-16730246D01*
X18612201Y-16736871D01*
X18827450Y-16705662D01*
X18832914Y-16703807D01*
X18832919Y-16703806D01*
X19027935Y-16637607D01*
X19027940Y-16637605D01*
X19033407Y-16635749D01*
X19039259Y-16632472D01*
X19113624Y-16590825D01*
X19223174Y-16529474D01*
X19228108Y-16525371D01*
X19385964Y-16394082D01*
X19390396Y-16390396D01*
X19394082Y-16385964D01*
X19394087Y-16385959D01*
X19450252Y-16318428D01*
X19509189Y-16278844D01*
X19580171Y-16277408D01*
X19642933Y-16317165D01*
X19646258Y-16321869D01*
X19802053Y-16473638D01*
X19806849Y-16476843D01*
X19806852Y-16476845D01*
X19889220Y-16531881D01*
X19982897Y-16594474D01*
X19988200Y-16596752D01*
X19988203Y-16596754D01*
X20066069Y-16630208D01*
X20182733Y-16680331D01*
X20394870Y-16728332D01*
X20400644Y-16728559D01*
X20400645Y-16728559D01*
X20443593Y-16730246D01*
X20612201Y-16736871D01*
X20827450Y-16705662D01*
X20832914Y-16703807D01*
X20832919Y-16703806D01*
X21027935Y-16637607D01*
X21027940Y-16637605D01*
X21033407Y-16635749D01*
X21039259Y-16632472D01*
X21113624Y-16590825D01*
X21223174Y-16529474D01*
X21228108Y-16525371D01*
X21385964Y-16394082D01*
X21390396Y-16390396D01*
X21394082Y-16385964D01*
X21394087Y-16385959D01*
X21450252Y-16318428D01*
X21509189Y-16278844D01*
X21580171Y-16277408D01*
X21642933Y-16317165D01*
X21646258Y-16321869D01*
X21802053Y-16473638D01*
X21806849Y-16476843D01*
X21806852Y-16476845D01*
X21889220Y-16531881D01*
X21982897Y-16594474D01*
X21988200Y-16596752D01*
X21988203Y-16596754D01*
X22066069Y-16630208D01*
X22182733Y-16680331D01*
X22394870Y-16728332D01*
X22400644Y-16728559D01*
X22400645Y-16728559D01*
X22443593Y-16730246D01*
X22612201Y-16736871D01*
X22827450Y-16705662D01*
X22832914Y-16703807D01*
X22832919Y-16703806D01*
X23027935Y-16637607D01*
X23027940Y-16637605D01*
X23033407Y-16635749D01*
X23039259Y-16632472D01*
X23113624Y-16590825D01*
X23223174Y-16529474D01*
X23228108Y-16525371D01*
X23385964Y-16394082D01*
X23390396Y-16390396D01*
X23394082Y-16385964D01*
X23394087Y-16385959D01*
X23450576Y-16318038D01*
X23509513Y-16278454D01*
X23580495Y-16277017D01*
X23643262Y-16316777D01*
X23650777Y-16325576D01*
X23798233Y-16469222D01*
X23807167Y-16476456D01*
X23978331Y-16590825D01*
X23988444Y-16596316D01*
X24177578Y-16677574D01*
X24188527Y-16681131D01*
X24278331Y-16701451D01*
X24292405Y-16700562D01*
X24296000Y-16691163D01*
X24296000Y-15422000D01*
X24316002Y-15353879D01*
X24369658Y-15307386D01*
X24422000Y-15296000D01*
X24678000Y-15296000D01*
X24746121Y-15316002D01*
X24792614Y-15369658D01*
X24804000Y-15422000D01*
X24804000Y-16690443D01*
X24807966Y-16703949D01*
X24821877Y-16705941D01*
X24832810Y-16703316D01*
X25027735Y-16637148D01*
X25038238Y-16632472D01*
X25217857Y-16531881D01*
X25227329Y-16525371D01*
X25385605Y-16393734D01*
X25393734Y-16385605D01*
X25449924Y-16318044D01*
X25508861Y-16278460D01*
X25579844Y-16277024D01*
X25642611Y-16316785D01*
X25642924Y-16317152D01*
X25646258Y-16321869D01*
X25650389Y-16325893D01*
X25650393Y-16325898D01*
X25797520Y-16469222D01*
X25802053Y-16473638D01*
X25806849Y-16476843D01*
X25806852Y-16476845D01*
X25889220Y-16531881D01*
X25982897Y-16594474D01*
X25988200Y-16596752D01*
X25988203Y-16596754D01*
X26066069Y-16630208D01*
X26182733Y-16680331D01*
X26394870Y-16728332D01*
X26400644Y-16728559D01*
X26400645Y-16728559D01*
X26443593Y-16730246D01*
X26612201Y-16736871D01*
X26827450Y-16705662D01*
X26832914Y-16703807D01*
X26832919Y-16703806D01*
X27027935Y-16637607D01*
X27027940Y-16637605D01*
X27033407Y-16635749D01*
X27039259Y-16632472D01*
X27113624Y-16590825D01*
X27223174Y-16529474D01*
X27228108Y-16525371D01*
X27385964Y-16394082D01*
X27390396Y-16390396D01*
X27394082Y-16385964D01*
X27394087Y-16385959D01*
X27450252Y-16318428D01*
X27509189Y-16278844D01*
X27580171Y-16277408D01*
X27642933Y-16317165D01*
X27646258Y-16321869D01*
X27802053Y-16473638D01*
X27806849Y-16476843D01*
X27806852Y-16476845D01*
X27889220Y-16531881D01*
X27982897Y-16594474D01*
X27988200Y-16596752D01*
X27988203Y-16596754D01*
X28066069Y-16630208D01*
X28182733Y-16680331D01*
X28394870Y-16728332D01*
X28400644Y-16728559D01*
X28400645Y-16728559D01*
X28443593Y-16730246D01*
X28612201Y-16736871D01*
X28827450Y-16705662D01*
X28832914Y-16703807D01*
X28832919Y-16703806D01*
X29027935Y-16637607D01*
X29027940Y-16637605D01*
X29033407Y-16635749D01*
X29039259Y-16632472D01*
X29113624Y-16590825D01*
X29223174Y-16529474D01*
X29228108Y-16525371D01*
X29385964Y-16394082D01*
X29390396Y-16390396D01*
X29394082Y-16385964D01*
X29394087Y-16385959D01*
X29450252Y-16318428D01*
X29509189Y-16278844D01*
X29580171Y-16277408D01*
X29642933Y-16317165D01*
X29646258Y-16321869D01*
X29802053Y-16473638D01*
X29806849Y-16476843D01*
X29806852Y-16476845D01*
X29889220Y-16531881D01*
X29982897Y-16594474D01*
X29988200Y-16596752D01*
X29988203Y-16596754D01*
X30066069Y-16630208D01*
X30182733Y-16680331D01*
X30394870Y-16728332D01*
X30400644Y-16728559D01*
X30400645Y-16728559D01*
X30443593Y-16730246D01*
X30612201Y-16736871D01*
X30827450Y-16705662D01*
X30832914Y-16703807D01*
X30832919Y-16703806D01*
X31027935Y-16637607D01*
X31027940Y-16637605D01*
X31033407Y-16635749D01*
X31039259Y-16632472D01*
X31113624Y-16590825D01*
X31223174Y-16529474D01*
X31228108Y-16525371D01*
X31385964Y-16394082D01*
X31390396Y-16390396D01*
X31394082Y-16385964D01*
X31394087Y-16385959D01*
X31450576Y-16318038D01*
X31509513Y-16278454D01*
X31580495Y-16277017D01*
X31643262Y-16316777D01*
X31650777Y-16325576D01*
X31798233Y-16469222D01*
X31807167Y-16476456D01*
X31978331Y-16590825D01*
X31988444Y-16596316D01*
X32177578Y-16677574D01*
X32188527Y-16681131D01*
X32278331Y-16701451D01*
X32292405Y-16700562D01*
X32296000Y-16691163D01*
X32296000Y-15422000D01*
X32316002Y-15353879D01*
X32369658Y-15307386D01*
X32422000Y-15296000D01*
X32678000Y-15296000D01*
X32746121Y-15316002D01*
X32792614Y-15369658D01*
X32804000Y-15422000D01*
X32804000Y-16690443D01*
X32807966Y-16703949D01*
X32821877Y-16705941D01*
X32832810Y-16703316D01*
X33027735Y-16637148D01*
X33038238Y-16632472D01*
X33217857Y-16531881D01*
X33227329Y-16525371D01*
X33385605Y-16393734D01*
X33393734Y-16385605D01*
X33449924Y-16318044D01*
X33508861Y-16278460D01*
X33579844Y-16277024D01*
X33642611Y-16316785D01*
X33642924Y-16317152D01*
X33646258Y-16321869D01*
X33650389Y-16325893D01*
X33650393Y-16325898D01*
X33797520Y-16469222D01*
X33802053Y-16473638D01*
X33806849Y-16476843D01*
X33806852Y-16476845D01*
X33889220Y-16531881D01*
X33982897Y-16594474D01*
X33988200Y-16596752D01*
X33988203Y-16596754D01*
X34066069Y-16630208D01*
X34182733Y-16680331D01*
X34394870Y-16728332D01*
X34400644Y-16728559D01*
X34400645Y-16728559D01*
X34443593Y-16730246D01*
X34612201Y-16736871D01*
X34827450Y-16705662D01*
X34832914Y-16703807D01*
X34832919Y-16703806D01*
X35027935Y-16637607D01*
X35027940Y-16637605D01*
X35033407Y-16635749D01*
X35039259Y-16632472D01*
X35113624Y-16590825D01*
X35223174Y-16529474D01*
X35228108Y-16525371D01*
X35385964Y-16394082D01*
X35390396Y-16390396D01*
X35394082Y-16385964D01*
X35394087Y-16385959D01*
X35450252Y-16318428D01*
X35509189Y-16278844D01*
X35580171Y-16277408D01*
X35642933Y-16317165D01*
X35646258Y-16321869D01*
X35802053Y-16473638D01*
X35806849Y-16476843D01*
X35806852Y-16476845D01*
X35889220Y-16531881D01*
X35982897Y-16594474D01*
X35988200Y-16596752D01*
X35988203Y-16596754D01*
X36066069Y-16630208D01*
X36182733Y-16680331D01*
X36394870Y-16728332D01*
X36400644Y-16728559D01*
X36400645Y-16728559D01*
X36443593Y-16730246D01*
X36612201Y-16736871D01*
X36827450Y-16705662D01*
X36832914Y-16703807D01*
X36832919Y-16703806D01*
X37027935Y-16637607D01*
X37027940Y-16637605D01*
X37033407Y-16635749D01*
X37039259Y-16632472D01*
X37113624Y-16590825D01*
X37223174Y-16529474D01*
X37228108Y-16525371D01*
X37385964Y-16394082D01*
X37390396Y-16390396D01*
X37394082Y-16385964D01*
X37394087Y-16385959D01*
X37450252Y-16318428D01*
X37509189Y-16278844D01*
X37580171Y-16277408D01*
X37642933Y-16317165D01*
X37646258Y-16321869D01*
X37802053Y-16473638D01*
X37806849Y-16476843D01*
X37806852Y-16476845D01*
X37889220Y-16531881D01*
X37982897Y-16594474D01*
X37988200Y-16596752D01*
X37988203Y-16596754D01*
X38066069Y-16630208D01*
X38182733Y-16680331D01*
X38394870Y-16728332D01*
X38400644Y-16728559D01*
X38400645Y-16728559D01*
X38443593Y-16730246D01*
X38612201Y-16736871D01*
X38827450Y-16705662D01*
X38832914Y-16703807D01*
X38832919Y-16703806D01*
X39027935Y-16637607D01*
X39027940Y-16637605D01*
X39033407Y-16635749D01*
X39039259Y-16632472D01*
X39113624Y-16590825D01*
X39223174Y-16529474D01*
X39228108Y-16525371D01*
X39385964Y-16394082D01*
X39390396Y-16390396D01*
X39394082Y-16385964D01*
X39394087Y-16385959D01*
X39450252Y-16318428D01*
X39509189Y-16278844D01*
X39580171Y-16277408D01*
X39642933Y-16317165D01*
X39646258Y-16321869D01*
X39802053Y-16473638D01*
X39806849Y-16476843D01*
X39806852Y-16476845D01*
X39889220Y-16531881D01*
X39982897Y-16594474D01*
X39988200Y-16596752D01*
X39988203Y-16596754D01*
X40066069Y-16630208D01*
X40182733Y-16680331D01*
X40394870Y-16728332D01*
X40400644Y-16728559D01*
X40400645Y-16728559D01*
X40443593Y-16730246D01*
X40612201Y-16736871D01*
X40827450Y-16705662D01*
X40832914Y-16703807D01*
X40832919Y-16703806D01*
X41027935Y-16637607D01*
X41027940Y-16637605D01*
X41033407Y-16635749D01*
X41039259Y-16632472D01*
X41113624Y-16590825D01*
X41223174Y-16529474D01*
X41228108Y-16525371D01*
X41385964Y-16394082D01*
X41390396Y-16390396D01*
X41394082Y-16385964D01*
X41394087Y-16385959D01*
X41450252Y-16318428D01*
X41509189Y-16278844D01*
X41580171Y-16277408D01*
X41642933Y-16317165D01*
X41646258Y-16321869D01*
X41802053Y-16473638D01*
X41806849Y-16476843D01*
X41806852Y-16476845D01*
X41889220Y-16531881D01*
X41982897Y-16594474D01*
X41988200Y-16596752D01*
X41988203Y-16596754D01*
X42066069Y-16630208D01*
X42182733Y-16680331D01*
X42394870Y-16728332D01*
X42400644Y-16728559D01*
X42400645Y-16728559D01*
X42443593Y-16730246D01*
X42612201Y-16736871D01*
X42827450Y-16705662D01*
X42832914Y-16703807D01*
X42832919Y-16703806D01*
X43027935Y-16637607D01*
X43027940Y-16637605D01*
X43033407Y-16635749D01*
X43039259Y-16632472D01*
X43113624Y-16590825D01*
X43223174Y-16529474D01*
X43228108Y-16525371D01*
X43385964Y-16394082D01*
X43390396Y-16390396D01*
X43394082Y-16385964D01*
X43394087Y-16385959D01*
X43450252Y-16318428D01*
X43509189Y-16278844D01*
X43580171Y-16277408D01*
X43642933Y-16317165D01*
X43646258Y-16321869D01*
X43802053Y-16473638D01*
X43806849Y-16476843D01*
X43806852Y-16476845D01*
X43889220Y-16531881D01*
X43982897Y-16594474D01*
X43988200Y-16596752D01*
X43988203Y-16596754D01*
X44066069Y-16630208D01*
X44182733Y-16680331D01*
X44394870Y-16728332D01*
X44400644Y-16728559D01*
X44400645Y-16728559D01*
X44443593Y-16730246D01*
X44612201Y-16736871D01*
X44827450Y-16705662D01*
X44832914Y-16703807D01*
X44832919Y-16703806D01*
X45027935Y-16637607D01*
X45027940Y-16637605D01*
X45033407Y-16635749D01*
X45039259Y-16632472D01*
X45113624Y-16590825D01*
X45223174Y-16529474D01*
X45228108Y-16525371D01*
X45385964Y-16394082D01*
X45390396Y-16390396D01*
X45394082Y-16385964D01*
X45394087Y-16385959D01*
X45450252Y-16318428D01*
X45509189Y-16278844D01*
X45580171Y-16277408D01*
X45642933Y-16317165D01*
X45646258Y-16321869D01*
X45802053Y-16473638D01*
X45806849Y-16476843D01*
X45806852Y-16476845D01*
X45889220Y-16531881D01*
X45982897Y-16594474D01*
X45988200Y-16596752D01*
X45988203Y-16596754D01*
X46066069Y-16630208D01*
X46182733Y-16680331D01*
X46394870Y-16728332D01*
X46400644Y-16728559D01*
X46400645Y-16728559D01*
X46443593Y-16730246D01*
X46612201Y-16736871D01*
X46827450Y-16705662D01*
X46832914Y-16703807D01*
X46832919Y-16703806D01*
X47027935Y-16637607D01*
X47027940Y-16637605D01*
X47033407Y-16635749D01*
X47039259Y-16632472D01*
X47113624Y-16590825D01*
X47223174Y-16529474D01*
X47228108Y-16525371D01*
X47385964Y-16394082D01*
X47390396Y-16390396D01*
X47394082Y-16385964D01*
X47394087Y-16385959D01*
X47450252Y-16318428D01*
X47509189Y-16278844D01*
X47580171Y-16277408D01*
X47642933Y-16317165D01*
X47646258Y-16321869D01*
X47802053Y-16473638D01*
X47806849Y-16476843D01*
X47806852Y-16476845D01*
X47889220Y-16531881D01*
X47982897Y-16594474D01*
X47988200Y-16596752D01*
X47988203Y-16596754D01*
X48066069Y-16630208D01*
X48182733Y-16680331D01*
X48394870Y-16728332D01*
X48400644Y-16728559D01*
X48400645Y-16728559D01*
X48443593Y-16730246D01*
X48612201Y-16736871D01*
X48827450Y-16705662D01*
X48832914Y-16703807D01*
X48832919Y-16703806D01*
X49027935Y-16637607D01*
X49027940Y-16637605D01*
X49033407Y-16635749D01*
X49039259Y-16632472D01*
X49113624Y-16590825D01*
X49223174Y-16529474D01*
X49228108Y-16525371D01*
X49385964Y-16394082D01*
X49390396Y-16390396D01*
X49394082Y-16385964D01*
X49394087Y-16385959D01*
X49450252Y-16318428D01*
X49509189Y-16278844D01*
X49580171Y-16277408D01*
X49642933Y-16317165D01*
X49646258Y-16321869D01*
X49802053Y-16473638D01*
X49806849Y-16476843D01*
X49806852Y-16476845D01*
X49889220Y-16531881D01*
X49982897Y-16594474D01*
X49988200Y-16596752D01*
X49988203Y-16596754D01*
X50066069Y-16630208D01*
X50182733Y-16680331D01*
X50394870Y-16728332D01*
X50400644Y-16728559D01*
X50400645Y-16728559D01*
X50443593Y-16730246D01*
X50612201Y-16736871D01*
X50827450Y-16705662D01*
X50832914Y-16703807D01*
X50832919Y-16703806D01*
X51027935Y-16637607D01*
X51027940Y-16637605D01*
X51033407Y-16635749D01*
X51039259Y-16632472D01*
X51113624Y-16590825D01*
X51223174Y-16529474D01*
X51228108Y-16525371D01*
X51385964Y-16394082D01*
X51390396Y-16390396D01*
X51394082Y-16385964D01*
X51394087Y-16385959D01*
X51450252Y-16318428D01*
X51509189Y-16278844D01*
X51580171Y-16277408D01*
X51642933Y-16317165D01*
X51646258Y-16321869D01*
X51802053Y-16473638D01*
X51806849Y-16476843D01*
X51806852Y-16476845D01*
X51889220Y-16531881D01*
X51982897Y-16594474D01*
X51988200Y-16596752D01*
X51988203Y-16596754D01*
X52066069Y-16630208D01*
X52182733Y-16680331D01*
X52394870Y-16728332D01*
X52400644Y-16728559D01*
X52400645Y-16728559D01*
X52443593Y-16730246D01*
X52612201Y-16736871D01*
X52827450Y-16705662D01*
X52832914Y-16703807D01*
X52832919Y-16703806D01*
X53027935Y-16637607D01*
X53027940Y-16637605D01*
X53033407Y-16635749D01*
X53039259Y-16632472D01*
X53113624Y-16590825D01*
X53223174Y-16529474D01*
X53228108Y-16525371D01*
X53385964Y-16394082D01*
X53390396Y-16390396D01*
X53444039Y-16325898D01*
X53525780Y-16227616D01*
X53525782Y-16227613D01*
X53529474Y-16223174D01*
X53635749Y-16033407D01*
X53637605Y-16027940D01*
X53637607Y-16027935D01*
X53703806Y-15832919D01*
X53703807Y-15832914D01*
X53705662Y-15827450D01*
X53736871Y-15612201D01*
X53738500Y-15550000D01*
X53718598Y-15333413D01*
X53708047Y-15296000D01*
X53661129Y-15129644D01*
X53659560Y-15124080D01*
X53642786Y-15090065D01*
X53565918Y-14934190D01*
X53565915Y-14934186D01*
X53563363Y-14929010D01*
X53484146Y-14822925D01*
X53459414Y-14756376D01*
X53474588Y-14687020D01*
X53516984Y-14641539D01*
X53553688Y-14617951D01*
X53553691Y-14617948D01*
X53561271Y-14613077D01*
X53589536Y-14580458D01*
X53651082Y-14509431D01*
X53651084Y-14509428D01*
X53656984Y-14502619D01*
X53660728Y-14494421D01*
X53713958Y-14377864D01*
X53713958Y-14377863D01*
X53717700Y-14369670D01*
X53718982Y-14360754D01*
X53737861Y-14229448D01*
X53737862Y-14229441D01*
X53738500Y-14225000D01*
X53738500Y-12875000D01*
X53733273Y-12801921D01*
X53694390Y-12669497D01*
X53694390Y-12598502D01*
X53732773Y-12538776D01*
X53797354Y-12509283D01*
X53815286Y-12508000D01*
X53833666Y-12508000D01*
X53901787Y-12528002D01*
X53923648Y-12545800D01*
X56238887Y-14907811D01*
X58487628Y-17201980D01*
X58505982Y-17220705D01*
X58539382Y-17283354D01*
X58542000Y-17308905D01*
X58542000Y-17567905D01*
X58521998Y-17636026D01*
X58468342Y-17682519D01*
X58398068Y-17692623D01*
X58330471Y-17660429D01*
X58277454Y-17611420D01*
X58268322Y-17604412D01*
X58094224Y-17494565D01*
X58083977Y-17489344D01*
X57892774Y-17413062D01*
X57881747Y-17409795D01*
X57821770Y-17397866D01*
X57808894Y-17399018D01*
X57804000Y-17414171D01*
X57804000Y-18678000D01*
X57783998Y-18746121D01*
X57730342Y-18792614D01*
X57678000Y-18804000D01*
X55822115Y-18804000D01*
X55806876Y-18808475D01*
X55805671Y-18809865D01*
X55804000Y-18817548D01*
X55804000Y-20678000D01*
X55783998Y-20746121D01*
X55730342Y-20792614D01*
X55678000Y-20804000D01*
X54412050Y-20804000D01*
X54398519Y-20807973D01*
X54397227Y-20816962D01*
X54428721Y-20940968D01*
X54432559Y-20951806D01*
X54518744Y-21138755D01*
X54524495Y-21148716D01*
X54643306Y-21316829D01*
X54650772Y-21325571D01*
X54790219Y-21461415D01*
X54825056Y-21523277D01*
X54820919Y-21594153D01*
X54785375Y-21646400D01*
X54692238Y-21728080D01*
X54692235Y-21728083D01*
X54687893Y-21731891D01*
X54553240Y-21902697D01*
X54550551Y-21907808D01*
X54550549Y-21907811D01*
X54539396Y-21929010D01*
X54451969Y-22095181D01*
X54387472Y-22302897D01*
X54361907Y-22518889D01*
X54376132Y-22735922D01*
X54377553Y-22741518D01*
X54377554Y-22741523D01*
X54410473Y-22871137D01*
X54429671Y-22946729D01*
X54520729Y-23144250D01*
X54646258Y-23321869D01*
X54650392Y-23325896D01*
X54789844Y-23461745D01*
X54824681Y-23523607D01*
X54820544Y-23594483D01*
X54785002Y-23646728D01*
X54687893Y-23731891D01*
X54553240Y-23902697D01*
X54550551Y-23907808D01*
X54550549Y-23907811D01*
X54499137Y-24005530D01*
X54451969Y-24095181D01*
X54387472Y-24302897D01*
X54361907Y-24518889D01*
X54376132Y-24735922D01*
X54377553Y-24741518D01*
X54377554Y-24741523D01*
X54400766Y-24832919D01*
X54429671Y-24946729D01*
X54432088Y-24951972D01*
X54514724Y-25131224D01*
X54520729Y-25144250D01*
X54646258Y-25321869D01*
X54658057Y-25333363D01*
X54789844Y-25461745D01*
X54824681Y-25523607D01*
X54820544Y-25594483D01*
X54785002Y-25646728D01*
X54687893Y-25731891D01*
X54553240Y-25902697D01*
X54550551Y-25907808D01*
X54550549Y-25907811D01*
X54533028Y-25941114D01*
X54451969Y-26095181D01*
X54387472Y-26302897D01*
X54361907Y-26518889D01*
X54376132Y-26735922D01*
X54377553Y-26741518D01*
X54377554Y-26741523D01*
X54400766Y-26832919D01*
X54429671Y-26946729D01*
X54520729Y-27144250D01*
X54646258Y-27321869D01*
X54650392Y-27325896D01*
X54789844Y-27461745D01*
X54824681Y-27523607D01*
X54820544Y-27594483D01*
X54785002Y-27646728D01*
X54687893Y-27731891D01*
X54553240Y-27902697D01*
X54550551Y-27907808D01*
X54550549Y-27907811D01*
X54499137Y-28005530D01*
X54451969Y-28095181D01*
X54387472Y-28302897D01*
X54361907Y-28518889D01*
X54376132Y-28735922D01*
X54377553Y-28741518D01*
X54377554Y-28741523D01*
X54400766Y-28832919D01*
X54429671Y-28946729D01*
X54520729Y-29144250D01*
X54646258Y-29321869D01*
X54650392Y-29325896D01*
X54789844Y-29461745D01*
X54824681Y-29523607D01*
X54820544Y-29594483D01*
X54785002Y-29646728D01*
X54687893Y-29731891D01*
X54553240Y-29902697D01*
X54550551Y-29907808D01*
X54550549Y-29907811D01*
X54499137Y-30005530D01*
X54451969Y-30095181D01*
X54387472Y-30302897D01*
X54361907Y-30518889D01*
X54376132Y-30735922D01*
X54377553Y-30741518D01*
X54377554Y-30741523D01*
X54400766Y-30832919D01*
X54429671Y-30946729D01*
X54520729Y-31144250D01*
X54646258Y-31321869D01*
X54650392Y-31325896D01*
X54790201Y-31462093D01*
X54825038Y-31523955D01*
X54820901Y-31594831D01*
X54785356Y-31647079D01*
X54692601Y-31728423D01*
X54684679Y-31736771D01*
X54557237Y-31898430D01*
X54550966Y-31908087D01*
X54455123Y-32090255D01*
X54450718Y-32100889D01*
X54395507Y-32278700D01*
X54395289Y-32292799D01*
X54402021Y-32296000D01*
X55678000Y-32296000D01*
X55746121Y-32316002D01*
X55792614Y-32369658D01*
X55804000Y-32422000D01*
X55804000Y-32678000D01*
X55783998Y-32746121D01*
X55730342Y-32792614D01*
X55678000Y-32804000D01*
X54412050Y-32804000D01*
X54398519Y-32807973D01*
X54397227Y-32816962D01*
X54428721Y-32940968D01*
X54432559Y-32951806D01*
X54518744Y-33138755D01*
X54524495Y-33148716D01*
X54643306Y-33316829D01*
X54650772Y-33325571D01*
X54790219Y-33461415D01*
X54825056Y-33523277D01*
X54820919Y-33594153D01*
X54785375Y-33646400D01*
X54692238Y-33728080D01*
X54692235Y-33728083D01*
X54687893Y-33731891D01*
X54553240Y-33902697D01*
X54550551Y-33907808D01*
X54550549Y-33907811D01*
X54499137Y-34005530D01*
X54451969Y-34095181D01*
X54387472Y-34302897D01*
X54361907Y-34518889D01*
X54376132Y-34735922D01*
X54377553Y-34741518D01*
X54377554Y-34741523D01*
X54400766Y-34832919D01*
X54429671Y-34946729D01*
X54520729Y-35144250D01*
X54646258Y-35321869D01*
X54650392Y-35325896D01*
X54789844Y-35461745D01*
X54824681Y-35523607D01*
X54820544Y-35594483D01*
X54785002Y-35646728D01*
X54687893Y-35731891D01*
X54553240Y-35902697D01*
X54550551Y-35907808D01*
X54550549Y-35907811D01*
X54499137Y-36005530D01*
X54451969Y-36095181D01*
X54387472Y-36302897D01*
X54361907Y-36518889D01*
X54376132Y-36735922D01*
X54377553Y-36741518D01*
X54377554Y-36741523D01*
X54400766Y-36832919D01*
X54429671Y-36946729D01*
X54520729Y-37144250D01*
X54646258Y-37321869D01*
X54683720Y-37358363D01*
X54789844Y-37461745D01*
X54824681Y-37523607D01*
X54820544Y-37594483D01*
X54785002Y-37646728D01*
X54687893Y-37731891D01*
X54553240Y-37902697D01*
X54550551Y-37907808D01*
X54550549Y-37907811D01*
X54518462Y-37968799D01*
X54451969Y-38095181D01*
X54387472Y-38302897D01*
X54361907Y-38518889D01*
X54376132Y-38735922D01*
X54377553Y-38741518D01*
X54377554Y-38741523D01*
X54415733Y-38891850D01*
X54429671Y-38946729D01*
X54432088Y-38951972D01*
X54465271Y-39023952D01*
X54520729Y-39144250D01*
X54646258Y-39321869D01*
X54650392Y-39325896D01*
X54789844Y-39461745D01*
X54824681Y-39523607D01*
X54820544Y-39594483D01*
X54785002Y-39646728D01*
X54687893Y-39731891D01*
X54553240Y-39902697D01*
X54550551Y-39907808D01*
X54550549Y-39907811D01*
X54499137Y-40005530D01*
X54451969Y-40095181D01*
X54387472Y-40302897D01*
X54361907Y-40518889D01*
X54376132Y-40735922D01*
X54377553Y-40741518D01*
X54377554Y-40741523D01*
X54400766Y-40832919D01*
X54429671Y-40946729D01*
X54520729Y-41144250D01*
X54646258Y-41321869D01*
X54650392Y-41325896D01*
X54790201Y-41462093D01*
X54825038Y-41523955D01*
X54820901Y-41594831D01*
X54785356Y-41647079D01*
X54692601Y-41728423D01*
X54684679Y-41736771D01*
X54557237Y-41898430D01*
X54550966Y-41908087D01*
X54455123Y-42090255D01*
X54450718Y-42100889D01*
X54395507Y-42278700D01*
X54395289Y-42292799D01*
X54402021Y-42296000D01*
X57678000Y-42296000D01*
X57746121Y-42316002D01*
X57792614Y-42369658D01*
X57804000Y-42422000D01*
X57804000Y-42678000D01*
X57783998Y-42746121D01*
X57730342Y-42792614D01*
X57678000Y-42804000D01*
X54412050Y-42804000D01*
X54398519Y-42807973D01*
X54397227Y-42816962D01*
X54428721Y-42940968D01*
X54432559Y-42951806D01*
X54518744Y-43138755D01*
X54524495Y-43148716D01*
X54643306Y-43316829D01*
X54650772Y-43325571D01*
X54790219Y-43461415D01*
X54825056Y-43523277D01*
X54820919Y-43594153D01*
X54785375Y-43646400D01*
X54692238Y-43728080D01*
X54692235Y-43728083D01*
X54687893Y-43731891D01*
X54553240Y-43902697D01*
X54550551Y-43907808D01*
X54550549Y-43907811D01*
X54508763Y-43987233D01*
X54451969Y-44095181D01*
X54387472Y-44302897D01*
X54361907Y-44518889D01*
X54376132Y-44735922D01*
X54377553Y-44741518D01*
X54377554Y-44741523D01*
X54400766Y-44832919D01*
X54429671Y-44946729D01*
X54520729Y-45144250D01*
X54646258Y-45321869D01*
X54650392Y-45325896D01*
X54789844Y-45461745D01*
X54824681Y-45523607D01*
X54820544Y-45594483D01*
X54785002Y-45646728D01*
X54687893Y-45731891D01*
X54553240Y-45902697D01*
X54550551Y-45907808D01*
X54550549Y-45907811D01*
X54522229Y-45961639D01*
X54451969Y-46095181D01*
X54387472Y-46302897D01*
X54361907Y-46518889D01*
X54376132Y-46735922D01*
X54377553Y-46741518D01*
X54377554Y-46741523D01*
X54417678Y-46899509D01*
X54429671Y-46946729D01*
X54520729Y-47144250D01*
X54646258Y-47321869D01*
X54650392Y-47325896D01*
X54789844Y-47461745D01*
X54824681Y-47523607D01*
X54820544Y-47594483D01*
X54785002Y-47646728D01*
X54687893Y-47731891D01*
X54553240Y-47902697D01*
X54550551Y-47907808D01*
X54550549Y-47907811D01*
X54499137Y-48005530D01*
X54451969Y-48095181D01*
X54387472Y-48302897D01*
X54361907Y-48518889D01*
X54376132Y-48735922D01*
X54377553Y-48741518D01*
X54377554Y-48741523D01*
X54400739Y-48832810D01*
X54429671Y-48946729D01*
X54432088Y-48951972D01*
X54461145Y-49015001D01*
X54520729Y-49144250D01*
X54646258Y-49321869D01*
X54650392Y-49325896D01*
X54789844Y-49461745D01*
X54824681Y-49523607D01*
X54820544Y-49594483D01*
X54785002Y-49646728D01*
X54687893Y-49731891D01*
X54553240Y-49902697D01*
X54550551Y-49907808D01*
X54550549Y-49907811D01*
X54499137Y-50005530D01*
X54451969Y-50095181D01*
X54387472Y-50302897D01*
X54361907Y-50518889D01*
X54376132Y-50735922D01*
X54377553Y-50741518D01*
X54377554Y-50741523D01*
X54400766Y-50832919D01*
X54429671Y-50946729D01*
X54520729Y-51144250D01*
X54646258Y-51321869D01*
X54650392Y-51325896D01*
X54789844Y-51461745D01*
X54824681Y-51523607D01*
X54820544Y-51594483D01*
X54785002Y-51646728D01*
X54687893Y-51731891D01*
X54553240Y-51902697D01*
X54550551Y-51907808D01*
X54550549Y-51907811D01*
X54500971Y-52002044D01*
X54451969Y-52095181D01*
X54387472Y-52302897D01*
X54361907Y-52518889D01*
X54376132Y-52735922D01*
X54377553Y-52741518D01*
X54377554Y-52741523D01*
X54400766Y-52832919D01*
X54429671Y-52946729D01*
X54520729Y-53144250D01*
X54646258Y-53321869D01*
X54650392Y-53325896D01*
X54794643Y-53466419D01*
X54802053Y-53473638D01*
X54806849Y-53476843D01*
X54806852Y-53476845D01*
X54908212Y-53544571D01*
X54982897Y-53594474D01*
X54988200Y-53596752D01*
X54988203Y-53596754D01*
X55055023Y-53625462D01*
X55182733Y-53680331D01*
X55394870Y-53728332D01*
X55400644Y-53728559D01*
X55400645Y-53728559D01*
X55443593Y-53730246D01*
X55612201Y-53736871D01*
X55827450Y-53705662D01*
X55832914Y-53703807D01*
X55832919Y-53703806D01*
X56027935Y-53637607D01*
X56027940Y-53637605D01*
X56033407Y-53635749D01*
X56223174Y-53529474D01*
X56227622Y-53525775D01*
X56272196Y-53488703D01*
X56337360Y-53460521D01*
X56407415Y-53472044D01*
X56458764Y-53517455D01*
X56482051Y-53553691D01*
X56482053Y-53553694D01*
X56486923Y-53561271D01*
X56493733Y-53567172D01*
X56590569Y-53651082D01*
X56590572Y-53651084D01*
X56597381Y-53656984D01*
X56605579Y-53660728D01*
X56705784Y-53706490D01*
X56730330Y-53717700D01*
X56739245Y-53718982D01*
X56739246Y-53718982D01*
X56870552Y-53737861D01*
X56870559Y-53737862D01*
X56875000Y-53738500D01*
X58225000Y-53738500D01*
X58298079Y-53733273D01*
X58327068Y-53724761D01*
X58398062Y-53724760D01*
X58457789Y-53763143D01*
X58487282Y-53827724D01*
X58477179Y-53897998D01*
X58452556Y-53933848D01*
X55574586Y-56870552D01*
X54077621Y-58398068D01*
X53973620Y-58504191D01*
X53911654Y-58538844D01*
X53883629Y-58542000D01*
X53572337Y-58542000D01*
X53504216Y-58521998D01*
X53457723Y-58468342D01*
X53447619Y-58398068D01*
X53475463Y-58335430D01*
X53565375Y-58227323D01*
X53571881Y-58217857D01*
X53672472Y-58038238D01*
X53677148Y-58027735D01*
X53743316Y-57832810D01*
X53745947Y-57821850D01*
X53743972Y-57807993D01*
X53730404Y-57804000D01*
X52462000Y-57804000D01*
X52393879Y-57783998D01*
X52347386Y-57730342D01*
X52336000Y-57678000D01*
X52336000Y-55817548D01*
X52844000Y-55817548D01*
X52844000Y-57277885D01*
X52848475Y-57293124D01*
X52849865Y-57294329D01*
X52857548Y-57296000D01*
X53729415Y-57296000D01*
X53742946Y-57292027D01*
X53744115Y-57283892D01*
X53700662Y-57129818D01*
X53696540Y-57119079D01*
X53605492Y-56934453D01*
X53599482Y-56924645D01*
X53476313Y-56759703D01*
X53468611Y-56751149D01*
X53350217Y-56641706D01*
X53313772Y-56580778D01*
X53316053Y-56509818D01*
X53355177Y-56452308D01*
X53425605Y-56393734D01*
X53433734Y-56385605D01*
X53565371Y-56227329D01*
X53571881Y-56217857D01*
X53672472Y-56038238D01*
X53677148Y-56027735D01*
X53743316Y-55832810D01*
X53745947Y-55821850D01*
X53743972Y-55807993D01*
X53730404Y-55804000D01*
X52862115Y-55804000D01*
X52846876Y-55808475D01*
X52845671Y-55809865D01*
X52844000Y-55817548D01*
X52336000Y-55817548D01*
X52336000Y-54414171D01*
X52844000Y-54414171D01*
X52844000Y-55277885D01*
X52848475Y-55293124D01*
X52849865Y-55294329D01*
X52857548Y-55296000D01*
X53729415Y-55296000D01*
X53742946Y-55292027D01*
X53744115Y-55283892D01*
X53700662Y-55129818D01*
X53696540Y-55119079D01*
X53605492Y-54934453D01*
X53599482Y-54924645D01*
X53476313Y-54759703D01*
X53468611Y-54751149D01*
X53317454Y-54611420D01*
X53308322Y-54604412D01*
X53134224Y-54494565D01*
X53123977Y-54489344D01*
X52932774Y-54413062D01*
X52921747Y-54409795D01*
X52861770Y-54397866D01*
X52848894Y-54399018D01*
X52844000Y-54414171D01*
X52336000Y-54414171D01*
X52336000Y-54411406D01*
X52332194Y-54398444D01*
X52317278Y-54396508D01*
X52288220Y-54401501D01*
X52277100Y-54404481D01*
X52083969Y-54475731D01*
X52073591Y-54480681D01*
X51896679Y-54585932D01*
X51887367Y-54592698D01*
X51732596Y-54728428D01*
X51724673Y-54736777D01*
X51690314Y-54780361D01*
X51632433Y-54821474D01*
X51561513Y-54824768D01*
X51500071Y-54789196D01*
X51490412Y-54777750D01*
X51473228Y-54754738D01*
X51453798Y-54736777D01*
X51317754Y-54611020D01*
X51317752Y-54611018D01*
X51313513Y-54607100D01*
X51129568Y-54491039D01*
X50927552Y-54410443D01*
X50921892Y-54409317D01*
X50921888Y-54409316D01*
X50719899Y-54369138D01*
X50719896Y-54369138D01*
X50714232Y-54368011D01*
X50708457Y-54367935D01*
X50708453Y-54367935D01*
X50599341Y-54366507D01*
X50496751Y-54365164D01*
X50491054Y-54366143D01*
X50491053Y-54366143D01*
X50288091Y-54401018D01*
X50282394Y-54401997D01*
X50078338Y-54477277D01*
X49891417Y-54588483D01*
X49887074Y-54592292D01*
X49732238Y-54728080D01*
X49732235Y-54728083D01*
X49727893Y-54731891D01*
X49706238Y-54759360D01*
X49690007Y-54779949D01*
X49632126Y-54821062D01*
X49561205Y-54824356D01*
X49499763Y-54788784D01*
X49490108Y-54777343D01*
X49473228Y-54754738D01*
X49453798Y-54736777D01*
X49317754Y-54611020D01*
X49317752Y-54611018D01*
X49313513Y-54607100D01*
X49129568Y-54491039D01*
X48927552Y-54410443D01*
X48921892Y-54409317D01*
X48921888Y-54409316D01*
X48719899Y-54369138D01*
X48719896Y-54369138D01*
X48714232Y-54368011D01*
X48708457Y-54367935D01*
X48708453Y-54367935D01*
X48599341Y-54366507D01*
X48496751Y-54365164D01*
X48491054Y-54366143D01*
X48491053Y-54366143D01*
X48288091Y-54401018D01*
X48282394Y-54401997D01*
X48078338Y-54477277D01*
X47891417Y-54588483D01*
X47887074Y-54592292D01*
X47732238Y-54728080D01*
X47732235Y-54728083D01*
X47727893Y-54731891D01*
X47706238Y-54759360D01*
X47690007Y-54779949D01*
X47632126Y-54821062D01*
X47561205Y-54824356D01*
X47499763Y-54788784D01*
X47490108Y-54777343D01*
X47473228Y-54754738D01*
X47453798Y-54736777D01*
X47317754Y-54611020D01*
X47317752Y-54611018D01*
X47313513Y-54607100D01*
X47129568Y-54491039D01*
X46927552Y-54410443D01*
X46921892Y-54409317D01*
X46921888Y-54409316D01*
X46719899Y-54369138D01*
X46719896Y-54369138D01*
X46714232Y-54368011D01*
X46708457Y-54367935D01*
X46708453Y-54367935D01*
X46599341Y-54366507D01*
X46496751Y-54365164D01*
X46491054Y-54366143D01*
X46491053Y-54366143D01*
X46288091Y-54401018D01*
X46282394Y-54401997D01*
X46078338Y-54477277D01*
X45891417Y-54588483D01*
X45887074Y-54592292D01*
X45732238Y-54728080D01*
X45732235Y-54728083D01*
X45727893Y-54731891D01*
X45706238Y-54759360D01*
X45690007Y-54779949D01*
X45632126Y-54821062D01*
X45561205Y-54824356D01*
X45499763Y-54788784D01*
X45490108Y-54777343D01*
X45473228Y-54754738D01*
X45453798Y-54736777D01*
X45317754Y-54611020D01*
X45317752Y-54611018D01*
X45313513Y-54607100D01*
X45129568Y-54491039D01*
X44927552Y-54410443D01*
X44921892Y-54409317D01*
X44921888Y-54409316D01*
X44719899Y-54369138D01*
X44719896Y-54369138D01*
X44714232Y-54368011D01*
X44708457Y-54367935D01*
X44708453Y-54367935D01*
X44599341Y-54366507D01*
X44496751Y-54365164D01*
X44491054Y-54366143D01*
X44491053Y-54366143D01*
X44288091Y-54401018D01*
X44282394Y-54401997D01*
X44078338Y-54477277D01*
X43891417Y-54588483D01*
X43887074Y-54592292D01*
X43732238Y-54728080D01*
X43732235Y-54728083D01*
X43727893Y-54731891D01*
X43705968Y-54759703D01*
X43689688Y-54780354D01*
X43631807Y-54821467D01*
X43560887Y-54824761D01*
X43499444Y-54789190D01*
X43489780Y-54777737D01*
X43476313Y-54759703D01*
X43468611Y-54751149D01*
X43317454Y-54611420D01*
X43308322Y-54604412D01*
X43134224Y-54494565D01*
X43123977Y-54489344D01*
X42932774Y-54413062D01*
X42921747Y-54409795D01*
X42861770Y-54397866D01*
X42848894Y-54399018D01*
X42844000Y-54414171D01*
X42844000Y-57678000D01*
X42823998Y-57746121D01*
X42770342Y-57792614D01*
X42718000Y-57804000D01*
X42462000Y-57804000D01*
X42393879Y-57783998D01*
X42347386Y-57730342D01*
X42336000Y-57678000D01*
X42336000Y-54411406D01*
X42332194Y-54398444D01*
X42317278Y-54396508D01*
X42288220Y-54401501D01*
X42277100Y-54404481D01*
X42083969Y-54475731D01*
X42073591Y-54480681D01*
X41896679Y-54585932D01*
X41887367Y-54592698D01*
X41732596Y-54728428D01*
X41724673Y-54736777D01*
X41690314Y-54780361D01*
X41632433Y-54821474D01*
X41561513Y-54824768D01*
X41500071Y-54789196D01*
X41490412Y-54777750D01*
X41473228Y-54754738D01*
X41453798Y-54736777D01*
X41317754Y-54611020D01*
X41317752Y-54611018D01*
X41313513Y-54607100D01*
X41129568Y-54491039D01*
X40927552Y-54410443D01*
X40921892Y-54409317D01*
X40921888Y-54409316D01*
X40719899Y-54369138D01*
X40719896Y-54369138D01*
X40714232Y-54368011D01*
X40708457Y-54367935D01*
X40708453Y-54367935D01*
X40599341Y-54366507D01*
X40496751Y-54365164D01*
X40491054Y-54366143D01*
X40491053Y-54366143D01*
X40288091Y-54401018D01*
X40282394Y-54401997D01*
X40078338Y-54477277D01*
X39891417Y-54588483D01*
X39887074Y-54592292D01*
X39732238Y-54728080D01*
X39732235Y-54728083D01*
X39727893Y-54731891D01*
X39706238Y-54759360D01*
X39690007Y-54779949D01*
X39632126Y-54821062D01*
X39561205Y-54824356D01*
X39499763Y-54788784D01*
X39490108Y-54777343D01*
X39473228Y-54754738D01*
X39453798Y-54736777D01*
X39317754Y-54611020D01*
X39317752Y-54611018D01*
X39313513Y-54607100D01*
X39129568Y-54491039D01*
X38927552Y-54410443D01*
X38921892Y-54409317D01*
X38921888Y-54409316D01*
X38719899Y-54369138D01*
X38719896Y-54369138D01*
X38714232Y-54368011D01*
X38708457Y-54367935D01*
X38708453Y-54367935D01*
X38599341Y-54366507D01*
X38496751Y-54365164D01*
X38491054Y-54366143D01*
X38491053Y-54366143D01*
X38288091Y-54401018D01*
X38282394Y-54401997D01*
X38078338Y-54477277D01*
X37891417Y-54588483D01*
X37887074Y-54592292D01*
X37732238Y-54728080D01*
X37732235Y-54728083D01*
X37727893Y-54731891D01*
X37706238Y-54759360D01*
X37690007Y-54779949D01*
X37632126Y-54821062D01*
X37561205Y-54824356D01*
X37499763Y-54788784D01*
X37490108Y-54777343D01*
X37473228Y-54754738D01*
X37453798Y-54736777D01*
X37317754Y-54611020D01*
X37317752Y-54611018D01*
X37313513Y-54607100D01*
X37129568Y-54491039D01*
X36927552Y-54410443D01*
X36921892Y-54409317D01*
X36921888Y-54409316D01*
X36719899Y-54369138D01*
X36719896Y-54369138D01*
X36714232Y-54368011D01*
X36708457Y-54367935D01*
X36708453Y-54367935D01*
X36599341Y-54366507D01*
X36496751Y-54365164D01*
X36491054Y-54366143D01*
X36491053Y-54366143D01*
X36288091Y-54401018D01*
X36282394Y-54401997D01*
X36078338Y-54477277D01*
X35891417Y-54588483D01*
X35887074Y-54592292D01*
X35732238Y-54728080D01*
X35732235Y-54728083D01*
X35727893Y-54731891D01*
X35706238Y-54759360D01*
X35690007Y-54779949D01*
X35632126Y-54821062D01*
X35561205Y-54824356D01*
X35499763Y-54788784D01*
X35490108Y-54777343D01*
X35473228Y-54754738D01*
X35453798Y-54736777D01*
X35317754Y-54611020D01*
X35317752Y-54611018D01*
X35313513Y-54607100D01*
X35129568Y-54491039D01*
X34927552Y-54410443D01*
X34921892Y-54409317D01*
X34921888Y-54409316D01*
X34719899Y-54369138D01*
X34719896Y-54369138D01*
X34714232Y-54368011D01*
X34708457Y-54367935D01*
X34708453Y-54367935D01*
X34599341Y-54366507D01*
X34496751Y-54365164D01*
X34491054Y-54366143D01*
X34491053Y-54366143D01*
X34288091Y-54401018D01*
X34282394Y-54401997D01*
X34078338Y-54477277D01*
X33891417Y-54588483D01*
X33887074Y-54592292D01*
X33732238Y-54728080D01*
X33732235Y-54728083D01*
X33727893Y-54731891D01*
X33706238Y-54759360D01*
X33690007Y-54779949D01*
X33632126Y-54821062D01*
X33561205Y-54824356D01*
X33499763Y-54788784D01*
X33490108Y-54777343D01*
X33473228Y-54754738D01*
X33453798Y-54736777D01*
X33317754Y-54611020D01*
X33317752Y-54611018D01*
X33313513Y-54607100D01*
X33129568Y-54491039D01*
X32927552Y-54410443D01*
X32921892Y-54409317D01*
X32921888Y-54409316D01*
X32719899Y-54369138D01*
X32719896Y-54369138D01*
X32714232Y-54368011D01*
X32708457Y-54367935D01*
X32708453Y-54367935D01*
X32599341Y-54366507D01*
X32496751Y-54365164D01*
X32491054Y-54366143D01*
X32491053Y-54366143D01*
X32288091Y-54401018D01*
X32282394Y-54401997D01*
X32078338Y-54477277D01*
X31891417Y-54588483D01*
X31887074Y-54592292D01*
X31732238Y-54728080D01*
X31732235Y-54728083D01*
X31727893Y-54731891D01*
X31706238Y-54759360D01*
X31690007Y-54779949D01*
X31632126Y-54821062D01*
X31561205Y-54824356D01*
X31499763Y-54788784D01*
X31490108Y-54777343D01*
X31473228Y-54754738D01*
X31453798Y-54736777D01*
X31317754Y-54611020D01*
X31317752Y-54611018D01*
X31313513Y-54607100D01*
X31129568Y-54491039D01*
X30927552Y-54410443D01*
X30921892Y-54409317D01*
X30921888Y-54409316D01*
X30719899Y-54369138D01*
X30719896Y-54369138D01*
X30714232Y-54368011D01*
X30708457Y-54367935D01*
X30708453Y-54367935D01*
X30599341Y-54366507D01*
X30496751Y-54365164D01*
X30491054Y-54366143D01*
X30491053Y-54366143D01*
X30288091Y-54401018D01*
X30282394Y-54401997D01*
X30078338Y-54477277D01*
X29891417Y-54588483D01*
X29887074Y-54592292D01*
X29732238Y-54728080D01*
X29732235Y-54728083D01*
X29727893Y-54731891D01*
X29706238Y-54759360D01*
X29690007Y-54779949D01*
X29632126Y-54821062D01*
X29561205Y-54824356D01*
X29499763Y-54788784D01*
X29490108Y-54777343D01*
X29473228Y-54754738D01*
X29453798Y-54736777D01*
X29317754Y-54611020D01*
X29317752Y-54611018D01*
X29313513Y-54607100D01*
X29129568Y-54491039D01*
X28927552Y-54410443D01*
X28921892Y-54409317D01*
X28921888Y-54409316D01*
X28719899Y-54369138D01*
X28719896Y-54369138D01*
X28714232Y-54368011D01*
X28708457Y-54367935D01*
X28708453Y-54367935D01*
X28599341Y-54366507D01*
X28496751Y-54365164D01*
X28491054Y-54366143D01*
X28491053Y-54366143D01*
X28288091Y-54401018D01*
X28282394Y-54401997D01*
X28078338Y-54477277D01*
X27891417Y-54588483D01*
X27887074Y-54592292D01*
X27732238Y-54728080D01*
X27732235Y-54728083D01*
X27727893Y-54731891D01*
X27706238Y-54759360D01*
X27690007Y-54779949D01*
X27632126Y-54821062D01*
X27561205Y-54824356D01*
X27499763Y-54788784D01*
X27490108Y-54777343D01*
X27473228Y-54754738D01*
X27453798Y-54736777D01*
X27317754Y-54611020D01*
X27317752Y-54611018D01*
X27313513Y-54607100D01*
X27129568Y-54491039D01*
X26927552Y-54410443D01*
X26921892Y-54409317D01*
X26921888Y-54409316D01*
X26719899Y-54369138D01*
X26719896Y-54369138D01*
X26714232Y-54368011D01*
X26708457Y-54367935D01*
X26708453Y-54367935D01*
X26599341Y-54366507D01*
X26496751Y-54365164D01*
X26491054Y-54366143D01*
X26491053Y-54366143D01*
X26288091Y-54401018D01*
X26282394Y-54401997D01*
X26078338Y-54477277D01*
X25891417Y-54588483D01*
X25887074Y-54592292D01*
X25732238Y-54728080D01*
X25732235Y-54728083D01*
X25727893Y-54731891D01*
X25706238Y-54759360D01*
X25690007Y-54779949D01*
X25632126Y-54821062D01*
X25561205Y-54824356D01*
X25499763Y-54788784D01*
X25490108Y-54777343D01*
X25473228Y-54754738D01*
X25453798Y-54736777D01*
X25317754Y-54611020D01*
X25317752Y-54611018D01*
X25313513Y-54607100D01*
X25129568Y-54491039D01*
X24927552Y-54410443D01*
X24921892Y-54409317D01*
X24921888Y-54409316D01*
X24719899Y-54369138D01*
X24719896Y-54369138D01*
X24714232Y-54368011D01*
X24708457Y-54367935D01*
X24708453Y-54367935D01*
X24599341Y-54366507D01*
X24496751Y-54365164D01*
X24491054Y-54366143D01*
X24491053Y-54366143D01*
X24288091Y-54401018D01*
X24282394Y-54401997D01*
X24078338Y-54477277D01*
X23891417Y-54588483D01*
X23887074Y-54592292D01*
X23732238Y-54728080D01*
X23732235Y-54728083D01*
X23727893Y-54731891D01*
X23706238Y-54759360D01*
X23690007Y-54779949D01*
X23632126Y-54821062D01*
X23561205Y-54824356D01*
X23499763Y-54788784D01*
X23490108Y-54777343D01*
X23473228Y-54754738D01*
X23453798Y-54736777D01*
X23317754Y-54611020D01*
X23317752Y-54611018D01*
X23313513Y-54607100D01*
X23129568Y-54491039D01*
X22927552Y-54410443D01*
X22921892Y-54409317D01*
X22921888Y-54409316D01*
X22719899Y-54369138D01*
X22719896Y-54369138D01*
X22714232Y-54368011D01*
X22708457Y-54367935D01*
X22708453Y-54367935D01*
X22599341Y-54366507D01*
X22496751Y-54365164D01*
X22491054Y-54366143D01*
X22491053Y-54366143D01*
X22288091Y-54401018D01*
X22282394Y-54401997D01*
X22078338Y-54477277D01*
X21891417Y-54588483D01*
X21887074Y-54592292D01*
X21732238Y-54728080D01*
X21732235Y-54728083D01*
X21727893Y-54731891D01*
X21706238Y-54759360D01*
X21690007Y-54779949D01*
X21632126Y-54821062D01*
X21561205Y-54824356D01*
X21499763Y-54788784D01*
X21490108Y-54777343D01*
X21473228Y-54754738D01*
X21453798Y-54736777D01*
X21317754Y-54611020D01*
X21317752Y-54611018D01*
X21313513Y-54607100D01*
X21129568Y-54491039D01*
X20927552Y-54410443D01*
X20921892Y-54409317D01*
X20921888Y-54409316D01*
X20719899Y-54369138D01*
X20719896Y-54369138D01*
X20714232Y-54368011D01*
X20708457Y-54367935D01*
X20708453Y-54367935D01*
X20599341Y-54366507D01*
X20496751Y-54365164D01*
X20491054Y-54366143D01*
X20491053Y-54366143D01*
X20288091Y-54401018D01*
X20282394Y-54401997D01*
X20078338Y-54477277D01*
X19891417Y-54588483D01*
X19887074Y-54592292D01*
X19732238Y-54728080D01*
X19732235Y-54728083D01*
X19727893Y-54731891D01*
X19706238Y-54759360D01*
X19690007Y-54779949D01*
X19632126Y-54821062D01*
X19561205Y-54824356D01*
X19499763Y-54788784D01*
X19490108Y-54777343D01*
X19473228Y-54754738D01*
X19453798Y-54736777D01*
X19317754Y-54611020D01*
X19317752Y-54611018D01*
X19313513Y-54607100D01*
X19129568Y-54491039D01*
X18927552Y-54410443D01*
X18921892Y-54409317D01*
X18921888Y-54409316D01*
X18719899Y-54369138D01*
X18719896Y-54369138D01*
X18714232Y-54368011D01*
X18708457Y-54367935D01*
X18708453Y-54367935D01*
X18599341Y-54366507D01*
X18496751Y-54365164D01*
X18491054Y-54366143D01*
X18491053Y-54366143D01*
X18288091Y-54401018D01*
X18282394Y-54401997D01*
X18078338Y-54477277D01*
X17891417Y-54588483D01*
X17887074Y-54592292D01*
X17732238Y-54728080D01*
X17732235Y-54728083D01*
X17727893Y-54731891D01*
X17593240Y-54902697D01*
X17590551Y-54907808D01*
X17590549Y-54907811D01*
X17579396Y-54929010D01*
X17491969Y-55095181D01*
X17427472Y-55302897D01*
X17401907Y-55518889D01*
X17416132Y-55735922D01*
X17417553Y-55741518D01*
X17417554Y-55741523D01*
X17440739Y-55832810D01*
X17469671Y-55946729D01*
X17560729Y-56144250D01*
X17564062Y-56148966D01*
X17656894Y-56280320D01*
X17679875Y-56347494D01*
X17662891Y-56416429D01*
X17622119Y-56459037D01*
X17586311Y-56482050D01*
X17578729Y-56486923D01*
X17572828Y-56493733D01*
X17488918Y-56590569D01*
X17488916Y-56590572D01*
X17483016Y-56597381D01*
X17479272Y-56605579D01*
X17460479Y-56646731D01*
X17422300Y-56730330D01*
X17421018Y-56739245D01*
X17421018Y-56739246D01*
X17402139Y-56870552D01*
X17402138Y-56870559D01*
X17401500Y-56875000D01*
X17401500Y-58225000D01*
X17401661Y-58227248D01*
X17405226Y-58277090D01*
X17390135Y-58346465D01*
X17339933Y-58396667D01*
X17270559Y-58411759D01*
X17204039Y-58386949D01*
X17190896Y-58375618D01*
X17161452Y-58346465D01*
X14611591Y-55821850D01*
X12645349Y-53875076D01*
X12611014Y-53812933D01*
X12608000Y-53785538D01*
X12608000Y-53534540D01*
X12628002Y-53466419D01*
X12681658Y-53419926D01*
X12751932Y-53409822D01*
X12816512Y-53439316D01*
X12821921Y-53444285D01*
X12847919Y-53469611D01*
X12852053Y-53473638D01*
X12856849Y-53476843D01*
X12856852Y-53476845D01*
X12958212Y-53544571D01*
X13032897Y-53594474D01*
X13038200Y-53596752D01*
X13038203Y-53596754D01*
X13105023Y-53625462D01*
X13232733Y-53680331D01*
X13444870Y-53728332D01*
X13450644Y-53728559D01*
X13450645Y-53728559D01*
X13493593Y-53730246D01*
X13662201Y-53736871D01*
X13877450Y-53705662D01*
X13882914Y-53703807D01*
X13882919Y-53703806D01*
X14077935Y-53637607D01*
X14077940Y-53637605D01*
X14083407Y-53635749D01*
X14273174Y-53529474D01*
X14287626Y-53517455D01*
X14417039Y-53409822D01*
X14440396Y-53390396D01*
X14444082Y-53385964D01*
X14444087Y-53385959D01*
X14500252Y-53318428D01*
X14559189Y-53278844D01*
X14630171Y-53277408D01*
X14692933Y-53317165D01*
X14696258Y-53321869D01*
X14700400Y-53325904D01*
X14844643Y-53466419D01*
X14852053Y-53473638D01*
X14856849Y-53476843D01*
X14856852Y-53476845D01*
X14958212Y-53544571D01*
X15032897Y-53594474D01*
X15038200Y-53596752D01*
X15038203Y-53596754D01*
X15105023Y-53625462D01*
X15232733Y-53680331D01*
X15444870Y-53728332D01*
X15450644Y-53728559D01*
X15450645Y-53728559D01*
X15493593Y-53730246D01*
X15662201Y-53736871D01*
X15877450Y-53705662D01*
X15882914Y-53703807D01*
X15882919Y-53703806D01*
X16077935Y-53637607D01*
X16077940Y-53637605D01*
X16083407Y-53635749D01*
X16273174Y-53529474D01*
X16287626Y-53517455D01*
X16417039Y-53409822D01*
X16440396Y-53390396D01*
X16494034Y-53325904D01*
X16575780Y-53227616D01*
X16575782Y-53227613D01*
X16579474Y-53223174D01*
X16685749Y-53033407D01*
X16687605Y-53027940D01*
X16687607Y-53027935D01*
X16753806Y-52832919D01*
X16753807Y-52832914D01*
X16755662Y-52827450D01*
X16786871Y-52612201D01*
X16788500Y-52550000D01*
X16768598Y-52333413D01*
X16766091Y-52324522D01*
X16711129Y-52129644D01*
X16709560Y-52124080D01*
X16668982Y-52041795D01*
X17154787Y-52041795D01*
X17155430Y-52050784D01*
X17163675Y-52166056D01*
X17165214Y-52187580D01*
X17216291Y-52324522D01*
X17221690Y-52331734D01*
X17221691Y-52331736D01*
X17227256Y-52339170D01*
X17303880Y-52441527D01*
X18258474Y-53396121D01*
X18313844Y-53444100D01*
X18442123Y-53514146D01*
X18450930Y-53516062D01*
X18450933Y-53516063D01*
X18576130Y-53543298D01*
X18576133Y-53543298D01*
X18584940Y-53545214D01*
X18593931Y-53544571D01*
X18721736Y-53535430D01*
X18721737Y-53535430D01*
X18730725Y-53534787D01*
X18867667Y-53483710D01*
X18916259Y-53447335D01*
X18981068Y-53398819D01*
X18981069Y-53398818D01*
X18984672Y-53396121D01*
X19939266Y-52441527D01*
X19987245Y-52386157D01*
X20057291Y-52257878D01*
X20059208Y-52249068D01*
X20086443Y-52123871D01*
X20086443Y-52123868D01*
X20088359Y-52115061D01*
X20087508Y-52103155D01*
X20081216Y-52015191D01*
X49183843Y-52015191D01*
X49189915Y-52023302D01*
X49308224Y-52098238D01*
X49317669Y-52103155D01*
X49520508Y-52187796D01*
X49530647Y-52191052D01*
X49744850Y-52240307D01*
X49755386Y-52241807D01*
X49974825Y-52254268D01*
X49985468Y-52253971D01*
X50203877Y-52229279D01*
X50214296Y-52227198D01*
X50425435Y-52166056D01*
X50435361Y-52162245D01*
X50633170Y-52066407D01*
X50642315Y-52060978D01*
X50691410Y-52025894D01*
X50699814Y-52015170D01*
X50692834Y-52002044D01*
X49954914Y-51264124D01*
X49940970Y-51256510D01*
X49939137Y-51256641D01*
X49932522Y-51260892D01*
X49190603Y-52002811D01*
X49183843Y-52015191D01*
X20081216Y-52015191D01*
X20081214Y-52015170D01*
X20078130Y-51972047D01*
X20093221Y-51902674D01*
X20143423Y-51852472D01*
X20185729Y-51838363D01*
X20236039Y-51831069D01*
X20307522Y-51820705D01*
X20307526Y-51820704D01*
X20313237Y-51819876D01*
X20318701Y-51818021D01*
X20318706Y-51818020D01*
X20513722Y-51751821D01*
X20513727Y-51751819D01*
X20519194Y-51749963D01*
X20543363Y-51736428D01*
X20622115Y-51692324D01*
X20708961Y-51643688D01*
X20775338Y-51588483D01*
X20871751Y-51508296D01*
X20876183Y-51504610D01*
X20899030Y-51477140D01*
X21011567Y-51341830D01*
X21011569Y-51341827D01*
X21015261Y-51337388D01*
X21079224Y-51223174D01*
X21118712Y-51152664D01*
X21118713Y-51152662D01*
X21121536Y-51147621D01*
X21123392Y-51142154D01*
X21123394Y-51142149D01*
X21189593Y-50947133D01*
X21189594Y-50947128D01*
X21191449Y-50941664D01*
X21222658Y-50726415D01*
X21224287Y-50664214D01*
X21215425Y-50567768D01*
X21229110Y-50498103D01*
X21278286Y-50446895D01*
X21345843Y-50430336D01*
X21411082Y-50432899D01*
X21512201Y-50436872D01*
X21727450Y-50405663D01*
X21732914Y-50403808D01*
X21732919Y-50403807D01*
X21927935Y-50337608D01*
X21927940Y-50337606D01*
X21933407Y-50335750D01*
X21947516Y-50327849D01*
X22009410Y-50293186D01*
X22123174Y-50229475D01*
X22128803Y-50224794D01*
X22285964Y-50094083D01*
X22290396Y-50090397D01*
X22351514Y-50016911D01*
X22425780Y-49927617D01*
X22425782Y-49927614D01*
X22429474Y-49923175D01*
X22493185Y-49809411D01*
X22532925Y-49738451D01*
X22532926Y-49738449D01*
X22535749Y-49733408D01*
X22537605Y-49727941D01*
X22537607Y-49727936D01*
X22603806Y-49532920D01*
X22603807Y-49532915D01*
X22605662Y-49527451D01*
X22636871Y-49312202D01*
X22638500Y-49250001D01*
X22629638Y-49153554D01*
X22643323Y-49083889D01*
X22692499Y-49032681D01*
X22760056Y-49016122D01*
X22830900Y-49018905D01*
X22926415Y-49022658D01*
X23141664Y-48991449D01*
X23147128Y-48989594D01*
X23147133Y-48989593D01*
X23342149Y-48923394D01*
X23342154Y-48923392D01*
X23347621Y-48921536D01*
X23362578Y-48913160D01*
X23515623Y-48827450D01*
X23537388Y-48815261D01*
X23561531Y-48795182D01*
X23700178Y-48679869D01*
X23704610Y-48676183D01*
X23809556Y-48550000D01*
X23839994Y-48513403D01*
X23839996Y-48513400D01*
X23843688Y-48508961D01*
X23907399Y-48395197D01*
X23947139Y-48324237D01*
X23947140Y-48324235D01*
X23949963Y-48319194D01*
X23951819Y-48313727D01*
X23951821Y-48313722D01*
X24018020Y-48118706D01*
X24018021Y-48118701D01*
X24019876Y-48113237D01*
X24051085Y-47897988D01*
X24052714Y-47835787D01*
X24046296Y-47765942D01*
X24043852Y-47739341D01*
X24057537Y-47669676D01*
X24106713Y-47618468D01*
X24174270Y-47601909D01*
X24239509Y-47604472D01*
X24340628Y-47608445D01*
X24555877Y-47577236D01*
X24561341Y-47575381D01*
X24561346Y-47575380D01*
X24756362Y-47509181D01*
X24756367Y-47509179D01*
X24761834Y-47507323D01*
X24951601Y-47401048D01*
X24969738Y-47385964D01*
X25114391Y-47265656D01*
X25118823Y-47261970D01*
X25181970Y-47186045D01*
X25254207Y-47099190D01*
X25254209Y-47099187D01*
X25257901Y-47094748D01*
X25364176Y-46904981D01*
X25366032Y-46899514D01*
X25366034Y-46899509D01*
X25432233Y-46704493D01*
X25432234Y-46704488D01*
X25433758Y-46700000D01*
X32661000Y-46700000D01*
X32661690Y-46706565D01*
X32677246Y-46854567D01*
X32680962Y-46889927D01*
X32739976Y-47071554D01*
X32835463Y-47236942D01*
X32839881Y-47241849D01*
X32839882Y-47241850D01*
X32958827Y-47373952D01*
X32963249Y-47378863D01*
X32968591Y-47382744D01*
X32968593Y-47382746D01*
X33052626Y-47443799D01*
X33117750Y-47491114D01*
X33123778Y-47493798D01*
X33123780Y-47493799D01*
X33269092Y-47558496D01*
X33292213Y-47568790D01*
X33359851Y-47583167D01*
X33472556Y-47607124D01*
X33472561Y-47607124D01*
X33479013Y-47608496D01*
X33669987Y-47608496D01*
X33676439Y-47607124D01*
X33676444Y-47607124D01*
X33789149Y-47583167D01*
X33856787Y-47568790D01*
X33879908Y-47558496D01*
X34025220Y-47493799D01*
X34025222Y-47493798D01*
X34031250Y-47491114D01*
X34096374Y-47443799D01*
X34180407Y-47382746D01*
X34180409Y-47382744D01*
X34185751Y-47378863D01*
X34190173Y-47373952D01*
X34309118Y-47241850D01*
X34309119Y-47241849D01*
X34313537Y-47236942D01*
X34409024Y-47071554D01*
X34468038Y-46889927D01*
X34471755Y-46854567D01*
X34487310Y-46706565D01*
X34488000Y-46700000D01*
X34482745Y-46650000D01*
X42836500Y-46650000D01*
X42856462Y-46839927D01*
X42915476Y-47021554D01*
X43010963Y-47186942D01*
X43015381Y-47191849D01*
X43015382Y-47191850D01*
X43134327Y-47323952D01*
X43138749Y-47328863D01*
X43144091Y-47332744D01*
X43144093Y-47332746D01*
X43263437Y-47419454D01*
X43293250Y-47441114D01*
X43299278Y-47443798D01*
X43299280Y-47443799D01*
X43447613Y-47509841D01*
X43467713Y-47518790D01*
X43561113Y-47538643D01*
X43648056Y-47557124D01*
X43648061Y-47557124D01*
X43654513Y-47558496D01*
X43845487Y-47558496D01*
X43851939Y-47557124D01*
X43851944Y-47557124D01*
X43938887Y-47538643D01*
X44032287Y-47518790D01*
X44052387Y-47509841D01*
X44200720Y-47443799D01*
X44200722Y-47443798D01*
X44206750Y-47441114D01*
X44236563Y-47419454D01*
X44355907Y-47332746D01*
X44355909Y-47332744D01*
X44361251Y-47328863D01*
X44421684Y-47261745D01*
X44482127Y-47224507D01*
X44553111Y-47225858D01*
X44612096Y-47265372D01*
X44640997Y-47337067D01*
X44645309Y-47397354D01*
X44646153Y-47409152D01*
X44649302Y-47417594D01*
X44649302Y-47417595D01*
X44656208Y-47436111D01*
X44697230Y-47546094D01*
X44702629Y-47553306D01*
X44702630Y-47553308D01*
X44782121Y-47659495D01*
X44784819Y-47663099D01*
X45986901Y-48865181D01*
X46042271Y-48913160D01*
X46170550Y-48983206D01*
X46179357Y-48985122D01*
X46179360Y-48985123D01*
X46304557Y-49012358D01*
X46304560Y-49012358D01*
X46313367Y-49014274D01*
X46322358Y-49013631D01*
X46450163Y-49004490D01*
X46450164Y-49004490D01*
X46459152Y-49003847D01*
X46596094Y-48952770D01*
X46602086Y-48948284D01*
X46670707Y-48933356D01*
X46737228Y-48958166D01*
X46779775Y-49015001D01*
X46787714Y-49060244D01*
X46786908Y-49144250D01*
X46786389Y-49198284D01*
X46823053Y-49425912D01*
X46897545Y-49644107D01*
X46900095Y-49648794D01*
X46900096Y-49648796D01*
X46943155Y-49727936D01*
X47007736Y-49846631D01*
X47150475Y-50027695D01*
X47154440Y-50031271D01*
X47317710Y-50178540D01*
X47317716Y-50178545D01*
X47321680Y-50182120D01*
X47326193Y-50184979D01*
X47326195Y-50184980D01*
X47364742Y-50209395D01*
X47516457Y-50305490D01*
X47729235Y-50394279D01*
X47734438Y-50395476D01*
X47734443Y-50395477D01*
X47948729Y-50444752D01*
X47948734Y-50444753D01*
X47953932Y-50445948D01*
X47959260Y-50446251D01*
X47959263Y-50446251D01*
X48115344Y-50455114D01*
X48184122Y-50459019D01*
X48189429Y-50458419D01*
X48189431Y-50458419D01*
X48312295Y-50444529D01*
X48413224Y-50433119D01*
X48418339Y-50431638D01*
X48418343Y-50431637D01*
X48462562Y-50418832D01*
X48533559Y-50419097D01*
X48593141Y-50457704D01*
X48622393Y-50522394D01*
X48621598Y-50562281D01*
X48586101Y-50758578D01*
X48585100Y-50769172D01*
X48582990Y-50988956D01*
X48583788Y-50999570D01*
X48618740Y-51216573D01*
X48621314Y-51226895D01*
X48692332Y-51434912D01*
X48696599Y-51444635D01*
X48801656Y-51637724D01*
X48806118Y-51644490D01*
X48817425Y-51652521D01*
X48828961Y-51646033D01*
X49581760Y-50893234D01*
X50306510Y-50893234D01*
X50306641Y-50895067D01*
X50310892Y-50901682D01*
X51052388Y-51643178D01*
X51064180Y-51649617D01*
X51076174Y-51640347D01*
X51117042Y-51582089D01*
X51122397Y-51572889D01*
X51216501Y-51374258D01*
X51220225Y-51364299D01*
X51279519Y-51152645D01*
X51281514Y-51142189D01*
X51304544Y-50921218D01*
X51304879Y-50915302D01*
X51305074Y-50895065D01*
X51304852Y-50889153D01*
X51286067Y-50667771D01*
X51284275Y-50657283D01*
X51229054Y-50444529D01*
X51225522Y-50434501D01*
X51135249Y-50234100D01*
X51130069Y-50224794D01*
X51075226Y-50143333D01*
X51065219Y-50135029D01*
X51051158Y-50142256D01*
X50314124Y-50879290D01*
X50306510Y-50893234D01*
X49581760Y-50893234D01*
X50693948Y-49781046D01*
X50700678Y-49768721D01*
X50692151Y-49757364D01*
X50664622Y-49736882D01*
X50655588Y-49731280D01*
X50459652Y-49631661D01*
X50449801Y-49627661D01*
X50239881Y-49562480D01*
X50229497Y-49560197D01*
X50011591Y-49531315D01*
X50000978Y-49530815D01*
X49781325Y-49539062D01*
X49770776Y-49540357D01*
X49614596Y-49573127D01*
X49543820Y-49567540D01*
X49487300Y-49524575D01*
X49462980Y-49457873D01*
X49467393Y-49415822D01*
X49480787Y-49368011D01*
X49485400Y-49351545D01*
X49489118Y-49315876D01*
X49498346Y-49227329D01*
X49509300Y-49122227D01*
X49509551Y-49096051D01*
X49504174Y-49032681D01*
X49490509Y-48871627D01*
X49490508Y-48871623D01*
X49490058Y-48866316D01*
X49479971Y-48827450D01*
X49433477Y-48648320D01*
X49432135Y-48643149D01*
X49411870Y-48598161D01*
X49339629Y-48437794D01*
X49339628Y-48437792D01*
X49337439Y-48432933D01*
X49334173Y-48428081D01*
X49270438Y-48333413D01*
X49208678Y-48241677D01*
X49150061Y-48180230D01*
X49091725Y-48119079D01*
X49049533Y-48074850D01*
X49040343Y-48068012D01*
X48868837Y-47940408D01*
X48868838Y-47940408D01*
X48864555Y-47937222D01*
X48859804Y-47934806D01*
X48859800Y-47934804D01*
X48663791Y-47835148D01*
X48663790Y-47835148D01*
X48659033Y-47832729D01*
X48548938Y-47798544D01*
X48443946Y-47765942D01*
X48443940Y-47765941D01*
X48438843Y-47764358D01*
X48333849Y-47750442D01*
X48215566Y-47734765D01*
X48215561Y-47734765D01*
X48210281Y-47734065D01*
X48204951Y-47734265D01*
X48204950Y-47734265D01*
X48178583Y-47735255D01*
X48109141Y-47737862D01*
X48040319Y-47720430D01*
X47991846Y-47668556D01*
X47979113Y-47598711D01*
X47993828Y-47551565D01*
X48028886Y-47487362D01*
X48028887Y-47487360D01*
X48033206Y-47479450D01*
X48035123Y-47470640D01*
X48062358Y-47345443D01*
X48062358Y-47345440D01*
X48064274Y-47336633D01*
X48053847Y-47190848D01*
X48050258Y-47181224D01*
X48018003Y-47094748D01*
X48002770Y-47053906D01*
X47983329Y-47027935D01*
X47917879Y-46940505D01*
X47917878Y-46940504D01*
X47915181Y-46936901D01*
X46713099Y-45734819D01*
X46657729Y-45686840D01*
X46529450Y-45616794D01*
X46520643Y-45614878D01*
X46520640Y-45614877D01*
X46395443Y-45587642D01*
X46395440Y-45587642D01*
X46386633Y-45585726D01*
X46377642Y-45586369D01*
X46249837Y-45595510D01*
X46249836Y-45595510D01*
X46240848Y-45596153D01*
X46232406Y-45599302D01*
X46232405Y-45599302D01*
X46221244Y-45603465D01*
X46103906Y-45647230D01*
X46096694Y-45652629D01*
X46096692Y-45652630D01*
X46044175Y-45691944D01*
X45986901Y-45734819D01*
X44867153Y-46854567D01*
X44804841Y-46888593D01*
X44734026Y-46883528D01*
X44677190Y-46840981D01*
X44652379Y-46774461D01*
X44652748Y-46752302D01*
X44662810Y-46656566D01*
X44662810Y-46656565D01*
X44663500Y-46650000D01*
X44646029Y-46483775D01*
X44644228Y-46466637D01*
X44644228Y-46466636D01*
X44643538Y-46460073D01*
X44632233Y-46425278D01*
X44586566Y-46284731D01*
X44584524Y-46278446D01*
X44489037Y-46113058D01*
X44378660Y-45990471D01*
X44365673Y-45976048D01*
X44365672Y-45976047D01*
X44361251Y-45971137D01*
X44355909Y-45967256D01*
X44355907Y-45967254D01*
X44212092Y-45862767D01*
X44212091Y-45862766D01*
X44206750Y-45858886D01*
X44200722Y-45856202D01*
X44200720Y-45856201D01*
X44038318Y-45783895D01*
X44038317Y-45783895D01*
X44032287Y-45781210D01*
X43938887Y-45761357D01*
X43851944Y-45742876D01*
X43851939Y-45742876D01*
X43845487Y-45741504D01*
X43654513Y-45741504D01*
X43648061Y-45742876D01*
X43648056Y-45742876D01*
X43561113Y-45761357D01*
X43467713Y-45781210D01*
X43461683Y-45783895D01*
X43461682Y-45783895D01*
X43299280Y-45856201D01*
X43299278Y-45856202D01*
X43293250Y-45858886D01*
X43287909Y-45862766D01*
X43287908Y-45862767D01*
X43144093Y-45967254D01*
X43144091Y-45967256D01*
X43138749Y-45971137D01*
X43134328Y-45976047D01*
X43134327Y-45976048D01*
X43121341Y-45990471D01*
X43010963Y-46113058D01*
X42915476Y-46278446D01*
X42913434Y-46284731D01*
X42867768Y-46425278D01*
X42856462Y-46460073D01*
X42855772Y-46466636D01*
X42855772Y-46466637D01*
X42853971Y-46483775D01*
X42836500Y-46650000D01*
X34482745Y-46650000D01*
X34472624Y-46553704D01*
X34468728Y-46516637D01*
X34468728Y-46516636D01*
X34468038Y-46510073D01*
X34458289Y-46480067D01*
X34411066Y-46334731D01*
X34409024Y-46328446D01*
X34313537Y-46163058D01*
X34273666Y-46118776D01*
X34190173Y-46026048D01*
X34190172Y-46026047D01*
X34185751Y-46021137D01*
X34180409Y-46017256D01*
X34180407Y-46017254D01*
X34036592Y-45912767D01*
X34036591Y-45912766D01*
X34031250Y-45908886D01*
X34025222Y-45906202D01*
X34025220Y-45906201D01*
X33862818Y-45833895D01*
X33862817Y-45833895D01*
X33856787Y-45831210D01*
X33763387Y-45811357D01*
X33676444Y-45792876D01*
X33676439Y-45792876D01*
X33669987Y-45791504D01*
X33479013Y-45791504D01*
X33472561Y-45792876D01*
X33472556Y-45792876D01*
X33385613Y-45811357D01*
X33292213Y-45831210D01*
X33286183Y-45833895D01*
X33286182Y-45833895D01*
X33123780Y-45906201D01*
X33123778Y-45906202D01*
X33117750Y-45908886D01*
X33112409Y-45912766D01*
X33112408Y-45912767D01*
X32968593Y-46017254D01*
X32968591Y-46017256D01*
X32963249Y-46021137D01*
X32958828Y-46026047D01*
X32958827Y-46026048D01*
X32875335Y-46118776D01*
X32835463Y-46163058D01*
X32739976Y-46328446D01*
X32737934Y-46334731D01*
X32690712Y-46480067D01*
X32680962Y-46510073D01*
X32680272Y-46516636D01*
X32680272Y-46516637D01*
X32676376Y-46553704D01*
X32661000Y-46700000D01*
X25433758Y-46700000D01*
X25434089Y-46699024D01*
X25465298Y-46483775D01*
X25466927Y-46421574D01*
X25447025Y-46204987D01*
X25436813Y-46168776D01*
X25389556Y-46001218D01*
X25387987Y-45995654D01*
X25355122Y-45929010D01*
X25294345Y-45805764D01*
X25294342Y-45805760D01*
X25291790Y-45800584D01*
X25274426Y-45777330D01*
X25165108Y-45630936D01*
X25165107Y-45630935D01*
X25161655Y-45626312D01*
X25156033Y-45621115D01*
X25006181Y-45482594D01*
X25006179Y-45482592D01*
X25001940Y-45478674D01*
X24997057Y-45475593D01*
X24822875Y-45365692D01*
X24817995Y-45362613D01*
X24615979Y-45282017D01*
X24610319Y-45280891D01*
X24610315Y-45280890D01*
X24408326Y-45240712D01*
X24408323Y-45240712D01*
X24402659Y-45239585D01*
X24396884Y-45239509D01*
X24396880Y-45239509D01*
X24287768Y-45238081D01*
X24185178Y-45236738D01*
X24179481Y-45237717D01*
X24179480Y-45237717D01*
X23976518Y-45272592D01*
X23970821Y-45273571D01*
X23766765Y-45348851D01*
X23579844Y-45460057D01*
X23575501Y-45463866D01*
X23420665Y-45599654D01*
X23420662Y-45599657D01*
X23416320Y-45603465D01*
X23281667Y-45774271D01*
X23278978Y-45779382D01*
X23278976Y-45779385D01*
X23257049Y-45821062D01*
X23180396Y-45966755D01*
X23115899Y-46174471D01*
X23090334Y-46390463D01*
X23090712Y-46396230D01*
X23098781Y-46519346D01*
X23083277Y-46588629D01*
X23032777Y-46638531D01*
X22971402Y-46653575D01*
X22770965Y-46650951D01*
X22765268Y-46651930D01*
X22765267Y-46651930D01*
X22755694Y-46653575D01*
X22556608Y-46687784D01*
X22352552Y-46763064D01*
X22165631Y-46874270D01*
X22149299Y-46888593D01*
X22006452Y-47013867D01*
X22006449Y-47013870D01*
X22002107Y-47017678D01*
X21867454Y-47188484D01*
X21864765Y-47193595D01*
X21864763Y-47193598D01*
X21844967Y-47231224D01*
X21766183Y-47380968D01*
X21701686Y-47588684D01*
X21676121Y-47804676D01*
X21676499Y-47810443D01*
X21684568Y-47933560D01*
X21669064Y-48002843D01*
X21618564Y-48052745D01*
X21557189Y-48067789D01*
X21356751Y-48065165D01*
X21351054Y-48066144D01*
X21351053Y-48066144D01*
X21148091Y-48101019D01*
X21142394Y-48101998D01*
X20938338Y-48177278D01*
X20751417Y-48288484D01*
X20747074Y-48292293D01*
X20592238Y-48428081D01*
X20592235Y-48428084D01*
X20587893Y-48431892D01*
X20453240Y-48602698D01*
X20450551Y-48607809D01*
X20450549Y-48607812D01*
X20412638Y-48679869D01*
X20351969Y-48795182D01*
X20287472Y-49002898D01*
X20261907Y-49218890D01*
X20262285Y-49224657D01*
X20270354Y-49347773D01*
X20254850Y-49417056D01*
X20204350Y-49466958D01*
X20142975Y-49482002D01*
X19942538Y-49479378D01*
X19936841Y-49480357D01*
X19936840Y-49480357D01*
X19733878Y-49515232D01*
X19728181Y-49516211D01*
X19524125Y-49591491D01*
X19337204Y-49702697D01*
X19308254Y-49728086D01*
X19178025Y-49842294D01*
X19178022Y-49842297D01*
X19173680Y-49846105D01*
X19039027Y-50016911D01*
X19036338Y-50022022D01*
X19036336Y-50022025D01*
X19002696Y-50085965D01*
X18937756Y-50209395D01*
X18873259Y-50417111D01*
X18872580Y-50422848D01*
X18861725Y-50514559D01*
X18833854Y-50579857D01*
X18775106Y-50619720D01*
X18709815Y-50622869D01*
X18658206Y-50611642D01*
X18649215Y-50612285D01*
X18521410Y-50621426D01*
X18521409Y-50621426D01*
X18512421Y-50622069D01*
X18375479Y-50673146D01*
X18258474Y-50760735D01*
X17303880Y-51715329D01*
X17255901Y-51770699D01*
X17185855Y-51898978D01*
X17183939Y-51907785D01*
X17183938Y-51907788D01*
X17156703Y-52032985D01*
X17156703Y-52032988D01*
X17154787Y-52041795D01*
X16668982Y-52041795D01*
X16615918Y-51934190D01*
X16615915Y-51934186D01*
X16613363Y-51929010D01*
X16589206Y-51896659D01*
X16486681Y-51759362D01*
X16486680Y-51759361D01*
X16483228Y-51754738D01*
X16478991Y-51750821D01*
X16478987Y-51750817D01*
X16360973Y-51641727D01*
X16324527Y-51580799D01*
X16326807Y-51509839D01*
X16365932Y-51452328D01*
X16435959Y-51394087D01*
X16435964Y-51394082D01*
X16440396Y-51390396D01*
X16484483Y-51337388D01*
X16575780Y-51227616D01*
X16575782Y-51227613D01*
X16579474Y-51223174D01*
X16685749Y-51033407D01*
X16687605Y-51027940D01*
X16687607Y-51027935D01*
X16753806Y-50832919D01*
X16753807Y-50832914D01*
X16755662Y-50827450D01*
X16786871Y-50612201D01*
X16788500Y-50550000D01*
X16768598Y-50333413D01*
X16709560Y-50124080D01*
X16662029Y-50027695D01*
X16615918Y-49934190D01*
X16615915Y-49934186D01*
X16613363Y-49929010D01*
X16532755Y-49821062D01*
X16486681Y-49759362D01*
X16486680Y-49759361D01*
X16483228Y-49754738D01*
X16478992Y-49750822D01*
X16360604Y-49641386D01*
X16324159Y-49580458D01*
X16326440Y-49509498D01*
X16365563Y-49451987D01*
X16435610Y-49393729D01*
X16443734Y-49385605D01*
X16575371Y-49227329D01*
X16581881Y-49217857D01*
X16682472Y-49038238D01*
X16687148Y-49027735D01*
X16753316Y-48832810D01*
X16755947Y-48821850D01*
X16753972Y-48807993D01*
X16740404Y-48804000D01*
X15472000Y-48804000D01*
X15403879Y-48783998D01*
X15357386Y-48730342D01*
X15346000Y-48678000D01*
X15346000Y-48422000D01*
X15366002Y-48353879D01*
X15419658Y-48307386D01*
X15472000Y-48296000D01*
X16739415Y-48296000D01*
X16752946Y-48292027D01*
X16754115Y-48283892D01*
X16710662Y-48129818D01*
X16706540Y-48119079D01*
X16615492Y-47934453D01*
X16609482Y-47924645D01*
X16486313Y-47759703D01*
X16478611Y-47751149D01*
X16360586Y-47642047D01*
X16324141Y-47581119D01*
X16326422Y-47510159D01*
X16365546Y-47452649D01*
X16435959Y-47394087D01*
X16435964Y-47394082D01*
X16440396Y-47390396D01*
X16494034Y-47325904D01*
X16575780Y-47227616D01*
X16575782Y-47227613D01*
X16579474Y-47223174D01*
X16664386Y-47071554D01*
X16682925Y-47038450D01*
X16682926Y-47038448D01*
X16685749Y-47033407D01*
X16687605Y-47027940D01*
X16687607Y-47027935D01*
X16753806Y-46832919D01*
X16753807Y-46832914D01*
X16755662Y-46827450D01*
X16786871Y-46612201D01*
X16788500Y-46550000D01*
X16768598Y-46333413D01*
X16709560Y-46124080D01*
X16692786Y-46090065D01*
X16615918Y-45934190D01*
X16615915Y-45934186D01*
X16613363Y-45929010D01*
X16589206Y-45896659D01*
X16486681Y-45759362D01*
X16486680Y-45759361D01*
X16483228Y-45754738D01*
X16478991Y-45750821D01*
X16478987Y-45750817D01*
X16360973Y-45641727D01*
X16324527Y-45580799D01*
X16326807Y-45509839D01*
X16365932Y-45452328D01*
X16435959Y-45394087D01*
X16435964Y-45394082D01*
X16440396Y-45390396D01*
X16494034Y-45325904D01*
X16575780Y-45227616D01*
X16575782Y-45227613D01*
X16579474Y-45223174D01*
X16685749Y-45033407D01*
X16687605Y-45027940D01*
X16687607Y-45027935D01*
X16753806Y-44832919D01*
X16753807Y-44832914D01*
X16755662Y-44827450D01*
X16786871Y-44612201D01*
X16788500Y-44550000D01*
X16768598Y-44333413D01*
X16756669Y-44291114D01*
X16735514Y-44216105D01*
X16709560Y-44124080D01*
X16666589Y-44036942D01*
X16615918Y-43934190D01*
X16615915Y-43934186D01*
X16613363Y-43929010D01*
X16589206Y-43896659D01*
X16486681Y-43759362D01*
X16486680Y-43759361D01*
X16483228Y-43754738D01*
X16478991Y-43750821D01*
X16478987Y-43750817D01*
X16360973Y-43641727D01*
X16324527Y-43580799D01*
X16326807Y-43509839D01*
X16333501Y-43500000D01*
X20136500Y-43500000D01*
X20156462Y-43689927D01*
X20158502Y-43696205D01*
X20158502Y-43696206D01*
X20169880Y-43731224D01*
X20215476Y-43871554D01*
X20310963Y-44036942D01*
X20315381Y-44041849D01*
X20315382Y-44041850D01*
X20368370Y-44100699D01*
X20438749Y-44178863D01*
X20444091Y-44182744D01*
X20444093Y-44182746D01*
X20548355Y-44258496D01*
X20593250Y-44291114D01*
X20599278Y-44293798D01*
X20599280Y-44293799D01*
X20675758Y-44327849D01*
X20767713Y-44368790D01*
X20861113Y-44388643D01*
X20948056Y-44407124D01*
X20948061Y-44407124D01*
X20954513Y-44408496D01*
X21145487Y-44408496D01*
X21151939Y-44407124D01*
X21151944Y-44407124D01*
X21238887Y-44388643D01*
X21332287Y-44368790D01*
X21424242Y-44327849D01*
X21500720Y-44293799D01*
X21500722Y-44293798D01*
X21506750Y-44291114D01*
X21551645Y-44258496D01*
X21655907Y-44182746D01*
X21655909Y-44182744D01*
X21661251Y-44178863D01*
X21731630Y-44100699D01*
X21784618Y-44041850D01*
X21784619Y-44041849D01*
X21789037Y-44036942D01*
X21884524Y-43871554D01*
X21930120Y-43731224D01*
X21941498Y-43696206D01*
X21941498Y-43696205D01*
X21943538Y-43689927D01*
X21963500Y-43500000D01*
X21951241Y-43383363D01*
X21944228Y-43316637D01*
X21944228Y-43316636D01*
X21943538Y-43310073D01*
X21907773Y-43200000D01*
X26511500Y-43200000D01*
X26512190Y-43206565D01*
X26529159Y-43368011D01*
X26531462Y-43389927D01*
X26590476Y-43571554D01*
X26593779Y-43577276D01*
X26593780Y-43577277D01*
X26627307Y-43635347D01*
X26685963Y-43736942D01*
X26690381Y-43741849D01*
X26690382Y-43741850D01*
X26732642Y-43788784D01*
X26813749Y-43878863D01*
X26819091Y-43882744D01*
X26819093Y-43882746D01*
X26889900Y-43934190D01*
X26968250Y-43991114D01*
X26974278Y-43993798D01*
X26974280Y-43993799D01*
X27136682Y-44066105D01*
X27142713Y-44068790D01*
X27236113Y-44088643D01*
X27323056Y-44107124D01*
X27323061Y-44107124D01*
X27329513Y-44108496D01*
X27520487Y-44108496D01*
X27526939Y-44107124D01*
X27526944Y-44107124D01*
X27613887Y-44088643D01*
X27707287Y-44068790D01*
X27713318Y-44066105D01*
X27875720Y-43993799D01*
X27875722Y-43993798D01*
X27881750Y-43991114D01*
X27960100Y-43934190D01*
X28030907Y-43882746D01*
X28030909Y-43882744D01*
X28036251Y-43878863D01*
X28117358Y-43788784D01*
X28159618Y-43741850D01*
X28159619Y-43741849D01*
X28164037Y-43736942D01*
X28222693Y-43635347D01*
X28256220Y-43577277D01*
X28256221Y-43577276D01*
X28259524Y-43571554D01*
X28318538Y-43389927D01*
X28320842Y-43368011D01*
X28322735Y-43350000D01*
X37486500Y-43350000D01*
X37487190Y-43356565D01*
X37502956Y-43506565D01*
X37506462Y-43539927D01*
X37565476Y-43721554D01*
X37568779Y-43727276D01*
X37568780Y-43727277D01*
X37597678Y-43777330D01*
X37660963Y-43886942D01*
X37665381Y-43891849D01*
X37665382Y-43891850D01*
X37675149Y-43902697D01*
X37788749Y-44028863D01*
X37794091Y-44032744D01*
X37794093Y-44032746D01*
X37927463Y-44129644D01*
X37943250Y-44141114D01*
X37949278Y-44143798D01*
X37949280Y-44143799D01*
X38111682Y-44216105D01*
X38117713Y-44218790D01*
X38211113Y-44238643D01*
X38298056Y-44257124D01*
X38298061Y-44257124D01*
X38304513Y-44258496D01*
X38495487Y-44258496D01*
X38501939Y-44257124D01*
X38501944Y-44257124D01*
X38588887Y-44238643D01*
X38682287Y-44218790D01*
X38688318Y-44216105D01*
X38850720Y-44143799D01*
X38850722Y-44143798D01*
X38856750Y-44141114D01*
X38872537Y-44129644D01*
X39005907Y-44032746D01*
X39005909Y-44032744D01*
X39011251Y-44028863D01*
X39124851Y-43902697D01*
X39134618Y-43891850D01*
X39134619Y-43891849D01*
X39139037Y-43886942D01*
X39202322Y-43777330D01*
X39231220Y-43727277D01*
X39231221Y-43727276D01*
X39234524Y-43721554D01*
X39293538Y-43539927D01*
X39297045Y-43506565D01*
X39312810Y-43356565D01*
X39313500Y-43350000D01*
X42036500Y-43350000D01*
X42037190Y-43356565D01*
X42052956Y-43506565D01*
X42056462Y-43539927D01*
X42115476Y-43721554D01*
X42118779Y-43727276D01*
X42118780Y-43727277D01*
X42147678Y-43777330D01*
X42210963Y-43886942D01*
X42215381Y-43891849D01*
X42215382Y-43891850D01*
X42225149Y-43902697D01*
X42338749Y-44028863D01*
X42344091Y-44032744D01*
X42344093Y-44032746D01*
X42477463Y-44129644D01*
X42493250Y-44141114D01*
X42499278Y-44143798D01*
X42499280Y-44143799D01*
X42661682Y-44216105D01*
X42667713Y-44218790D01*
X42761113Y-44238643D01*
X42848056Y-44257124D01*
X42848061Y-44257124D01*
X42854513Y-44258496D01*
X43045487Y-44258496D01*
X43051939Y-44257124D01*
X43051944Y-44257124D01*
X43138887Y-44238643D01*
X43232287Y-44218790D01*
X43238318Y-44216105D01*
X43400720Y-44143799D01*
X43400722Y-44143798D01*
X43406750Y-44141114D01*
X43422537Y-44129644D01*
X43555907Y-44032746D01*
X43555909Y-44032744D01*
X43561251Y-44028863D01*
X43674851Y-43902697D01*
X43684618Y-43891850D01*
X43684619Y-43891849D01*
X43689037Y-43886942D01*
X43752322Y-43777330D01*
X43781220Y-43727277D01*
X43781221Y-43727276D01*
X43784524Y-43721554D01*
X43843538Y-43539927D01*
X43847045Y-43506565D01*
X43862810Y-43356565D01*
X43863500Y-43350000D01*
X43849640Y-43218129D01*
X43844228Y-43166637D01*
X43844228Y-43166636D01*
X43843538Y-43160073D01*
X43836612Y-43138755D01*
X43786566Y-42984731D01*
X43784524Y-42978446D01*
X43689037Y-42813058D01*
X43684459Y-42807973D01*
X43565673Y-42676048D01*
X43565672Y-42676047D01*
X43561251Y-42671137D01*
X43555909Y-42667256D01*
X43555907Y-42667254D01*
X43412092Y-42562767D01*
X43412091Y-42562766D01*
X43406750Y-42558886D01*
X43400722Y-42556202D01*
X43400720Y-42556201D01*
X43238318Y-42483895D01*
X43238317Y-42483895D01*
X43232287Y-42481210D01*
X43138887Y-42461357D01*
X43051944Y-42442876D01*
X43051939Y-42442876D01*
X43045487Y-42441504D01*
X42854513Y-42441504D01*
X42848061Y-42442876D01*
X42848056Y-42442876D01*
X42761113Y-42461357D01*
X42667713Y-42481210D01*
X42661683Y-42483895D01*
X42661682Y-42483895D01*
X42499280Y-42556201D01*
X42499278Y-42556202D01*
X42493250Y-42558886D01*
X42487909Y-42562766D01*
X42487908Y-42562767D01*
X42344093Y-42667254D01*
X42344091Y-42667256D01*
X42338749Y-42671137D01*
X42334328Y-42676047D01*
X42334327Y-42676048D01*
X42215542Y-42807973D01*
X42210963Y-42813058D01*
X42115476Y-42978446D01*
X42113434Y-42984731D01*
X42063389Y-43138755D01*
X42056462Y-43160073D01*
X42055772Y-43166636D01*
X42055772Y-43166637D01*
X42050360Y-43218129D01*
X42036500Y-43350000D01*
X39313500Y-43350000D01*
X39299640Y-43218129D01*
X39294228Y-43166637D01*
X39294228Y-43166636D01*
X39293538Y-43160073D01*
X39286612Y-43138755D01*
X39236566Y-42984731D01*
X39234524Y-42978446D01*
X39139037Y-42813058D01*
X39134459Y-42807973D01*
X39015673Y-42676048D01*
X39015672Y-42676047D01*
X39011251Y-42671137D01*
X39005909Y-42667256D01*
X39005907Y-42667254D01*
X38862092Y-42562767D01*
X38862091Y-42562766D01*
X38856750Y-42558886D01*
X38850722Y-42556202D01*
X38850720Y-42556201D01*
X38688318Y-42483895D01*
X38688317Y-42483895D01*
X38682287Y-42481210D01*
X38588887Y-42461357D01*
X38501944Y-42442876D01*
X38501939Y-42442876D01*
X38495487Y-42441504D01*
X38304513Y-42441504D01*
X38298061Y-42442876D01*
X38298056Y-42442876D01*
X38211113Y-42461357D01*
X38117713Y-42481210D01*
X38111683Y-42483895D01*
X38111682Y-42483895D01*
X37949280Y-42556201D01*
X37949278Y-42556202D01*
X37943250Y-42558886D01*
X37937909Y-42562766D01*
X37937908Y-42562767D01*
X37794093Y-42667254D01*
X37794091Y-42667256D01*
X37788749Y-42671137D01*
X37784328Y-42676047D01*
X37784327Y-42676048D01*
X37665542Y-42807973D01*
X37660963Y-42813058D01*
X37565476Y-42978446D01*
X37563434Y-42984731D01*
X37513389Y-43138755D01*
X37506462Y-43160073D01*
X37505772Y-43166636D01*
X37505772Y-43166637D01*
X37500360Y-43218129D01*
X37486500Y-43350000D01*
X28322735Y-43350000D01*
X28337810Y-43206565D01*
X28338500Y-43200000D01*
X28321521Y-43038450D01*
X28319228Y-43016637D01*
X28319228Y-43016636D01*
X28318538Y-43010073D01*
X28296085Y-42940968D01*
X28261566Y-42834731D01*
X28259524Y-42828446D01*
X28164037Y-42663058D01*
X28065575Y-42553704D01*
X28040673Y-42526048D01*
X28040672Y-42526047D01*
X28036251Y-42521137D01*
X28030909Y-42517256D01*
X28030907Y-42517254D01*
X27887092Y-42412767D01*
X27887091Y-42412766D01*
X27881750Y-42408886D01*
X27875722Y-42406202D01*
X27875720Y-42406201D01*
X27713318Y-42333895D01*
X27713317Y-42333895D01*
X27707287Y-42331210D01*
X27613887Y-42311357D01*
X27526944Y-42292876D01*
X27526939Y-42292876D01*
X27520487Y-42291504D01*
X27329513Y-42291504D01*
X27323061Y-42292876D01*
X27323056Y-42292876D01*
X27236113Y-42311357D01*
X27142713Y-42331210D01*
X27136683Y-42333895D01*
X27136682Y-42333895D01*
X26974280Y-42406201D01*
X26974278Y-42406202D01*
X26968250Y-42408886D01*
X26962909Y-42412766D01*
X26962908Y-42412767D01*
X26819093Y-42517254D01*
X26819091Y-42517256D01*
X26813749Y-42521137D01*
X26809328Y-42526047D01*
X26809327Y-42526048D01*
X26784426Y-42553704D01*
X26685963Y-42663058D01*
X26590476Y-42828446D01*
X26588434Y-42834731D01*
X26553916Y-42940968D01*
X26531462Y-43010073D01*
X26530772Y-43016636D01*
X26530772Y-43016637D01*
X26528479Y-43038450D01*
X26511500Y-43200000D01*
X21907773Y-43200000D01*
X21884524Y-43128446D01*
X21789037Y-42963058D01*
X21661251Y-42821137D01*
X21655909Y-42817256D01*
X21655907Y-42817254D01*
X21512092Y-42712767D01*
X21512091Y-42712766D01*
X21506750Y-42708886D01*
X21500722Y-42706202D01*
X21500720Y-42706201D01*
X21338318Y-42633895D01*
X21338317Y-42633895D01*
X21332287Y-42631210D01*
X21225413Y-42608493D01*
X21151944Y-42592876D01*
X21151939Y-42592876D01*
X21145487Y-42591504D01*
X20954513Y-42591504D01*
X20948061Y-42592876D01*
X20948056Y-42592876D01*
X20874587Y-42608493D01*
X20767713Y-42631210D01*
X20761683Y-42633895D01*
X20761682Y-42633895D01*
X20599280Y-42706201D01*
X20599278Y-42706202D01*
X20593250Y-42708886D01*
X20587909Y-42712766D01*
X20587908Y-42712767D01*
X20444093Y-42817254D01*
X20444091Y-42817256D01*
X20438749Y-42821137D01*
X20310963Y-42963058D01*
X20215476Y-43128446D01*
X20156462Y-43310073D01*
X20155772Y-43316636D01*
X20155772Y-43316637D01*
X20148759Y-43383363D01*
X20136500Y-43500000D01*
X16333501Y-43500000D01*
X16365932Y-43452328D01*
X16435959Y-43394087D01*
X16435964Y-43394082D01*
X16440396Y-43390396D01*
X16501299Y-43317169D01*
X16575780Y-43227616D01*
X16575782Y-43227613D01*
X16579474Y-43223174D01*
X16685749Y-43033407D01*
X16687605Y-43027940D01*
X16687607Y-43027935D01*
X16753806Y-42832919D01*
X16753807Y-42832914D01*
X16755662Y-42827450D01*
X16786871Y-42612201D01*
X16788500Y-42550000D01*
X16768598Y-42333413D01*
X16758047Y-42296000D01*
X16711129Y-42129644D01*
X16709560Y-42124080D01*
X16692880Y-42090255D01*
X16615918Y-41934190D01*
X16615915Y-41934186D01*
X16613363Y-41929010D01*
X16589206Y-41896659D01*
X16486681Y-41759362D01*
X16486680Y-41759361D01*
X16483228Y-41754738D01*
X16478991Y-41750821D01*
X16478987Y-41750817D01*
X16369923Y-41650000D01*
X40486500Y-41650000D01*
X40487190Y-41656565D01*
X40501173Y-41789601D01*
X40506462Y-41839927D01*
X40565476Y-42021554D01*
X40660963Y-42186942D01*
X40788749Y-42328863D01*
X40794091Y-42332744D01*
X40794093Y-42332746D01*
X40937908Y-42437233D01*
X40943250Y-42441114D01*
X40949278Y-42443798D01*
X40949280Y-42443799D01*
X41111682Y-42516105D01*
X41117713Y-42518790D01*
X41211113Y-42538643D01*
X41298056Y-42557124D01*
X41298061Y-42557124D01*
X41304513Y-42558496D01*
X41495487Y-42558496D01*
X41501939Y-42557124D01*
X41501944Y-42557124D01*
X41588887Y-42538643D01*
X41682287Y-42518790D01*
X41688318Y-42516105D01*
X41850720Y-42443799D01*
X41850722Y-42443798D01*
X41856750Y-42441114D01*
X41862092Y-42437233D01*
X42005907Y-42332746D01*
X42005909Y-42332744D01*
X42011251Y-42328863D01*
X42139037Y-42186942D01*
X42234524Y-42021554D01*
X42293538Y-41839927D01*
X42298828Y-41789601D01*
X42312810Y-41656565D01*
X42313500Y-41650000D01*
X42294964Y-41473638D01*
X42294228Y-41466637D01*
X42294228Y-41466636D01*
X42293538Y-41460073D01*
X42291126Y-41452648D01*
X42236566Y-41284731D01*
X42234524Y-41278446D01*
X42139037Y-41113058D01*
X42011251Y-40971137D01*
X42005909Y-40967256D01*
X42005907Y-40967254D01*
X41862092Y-40862767D01*
X41862091Y-40862766D01*
X41856750Y-40858886D01*
X41850722Y-40856202D01*
X41850720Y-40856201D01*
X41688318Y-40783895D01*
X41688317Y-40783895D01*
X41682287Y-40781210D01*
X41588887Y-40761357D01*
X41501944Y-40742876D01*
X41501939Y-40742876D01*
X41495487Y-40741504D01*
X41304513Y-40741504D01*
X41298061Y-40742876D01*
X41298056Y-40742876D01*
X41211113Y-40761357D01*
X41117713Y-40781210D01*
X41111683Y-40783895D01*
X41111682Y-40783895D01*
X40949280Y-40856201D01*
X40949278Y-40856202D01*
X40943250Y-40858886D01*
X40937909Y-40862766D01*
X40937908Y-40862767D01*
X40794093Y-40967254D01*
X40794091Y-40967256D01*
X40788749Y-40971137D01*
X40660963Y-41113058D01*
X40565476Y-41278446D01*
X40563434Y-41284731D01*
X40508875Y-41452648D01*
X40506462Y-41460073D01*
X40505772Y-41466636D01*
X40505772Y-41466637D01*
X40505036Y-41473638D01*
X40486500Y-41650000D01*
X16369923Y-41650000D01*
X16360973Y-41641727D01*
X16324527Y-41580799D01*
X16326807Y-41509839D01*
X16365932Y-41452328D01*
X16435959Y-41394087D01*
X16435964Y-41394082D01*
X16440396Y-41390396D01*
X16494034Y-41325904D01*
X16575780Y-41227616D01*
X16575782Y-41227613D01*
X16579474Y-41223174D01*
X16685749Y-41033407D01*
X16687605Y-41027940D01*
X16687607Y-41027935D01*
X16753806Y-40832919D01*
X16753807Y-40832914D01*
X16755662Y-40827450D01*
X16786871Y-40612201D01*
X16788500Y-40550000D01*
X16768598Y-40333413D01*
X16709560Y-40124080D01*
X16664824Y-40033363D01*
X16615918Y-39934190D01*
X16615915Y-39934186D01*
X16613363Y-39929010D01*
X16589206Y-39896659D01*
X16486681Y-39759362D01*
X16486680Y-39759361D01*
X16483228Y-39754738D01*
X16478991Y-39750821D01*
X16478987Y-39750817D01*
X16360973Y-39641727D01*
X16324527Y-39580799D01*
X16326807Y-39509839D01*
X16365932Y-39452328D01*
X16435959Y-39394087D01*
X16435964Y-39394082D01*
X16440396Y-39390396D01*
X16494034Y-39325904D01*
X16575780Y-39227616D01*
X16575782Y-39227613D01*
X16579474Y-39223174D01*
X16685749Y-39033407D01*
X16687605Y-39027940D01*
X16687607Y-39027935D01*
X16753806Y-38832919D01*
X16753807Y-38832914D01*
X16755662Y-38827450D01*
X16786871Y-38612201D01*
X16788500Y-38550000D01*
X16770122Y-38350000D01*
X25086500Y-38350000D01*
X25106462Y-38539927D01*
X25165476Y-38721554D01*
X25260963Y-38886942D01*
X25265381Y-38891849D01*
X25265382Y-38891850D01*
X25314795Y-38946729D01*
X25388749Y-39028863D01*
X25394091Y-39032744D01*
X25394093Y-39032746D01*
X25535230Y-39135287D01*
X25578584Y-39191509D01*
X25584659Y-39262245D01*
X25563626Y-39310101D01*
X25560963Y-39313058D01*
X25557662Y-39318776D01*
X25557660Y-39318779D01*
X25499263Y-39419926D01*
X25465476Y-39478446D01*
X25463434Y-39484731D01*
X25412423Y-39641728D01*
X25406462Y-39660073D01*
X25386500Y-39850000D01*
X25406462Y-40039927D01*
X25465476Y-40221554D01*
X25560963Y-40386942D01*
X25565381Y-40391849D01*
X25565382Y-40391850D01*
X25679768Y-40518889D01*
X25688749Y-40528863D01*
X25694091Y-40532744D01*
X25694093Y-40532746D01*
X25798351Y-40608493D01*
X25843250Y-40641114D01*
X25849278Y-40643798D01*
X25849280Y-40643799D01*
X26011682Y-40716105D01*
X26017713Y-40718790D01*
X26098312Y-40735922D01*
X26198056Y-40757124D01*
X26198061Y-40757124D01*
X26204513Y-40758496D01*
X26395487Y-40758496D01*
X26401939Y-40757124D01*
X26401944Y-40757124D01*
X26501688Y-40735922D01*
X26582287Y-40718790D01*
X26588318Y-40716105D01*
X26750720Y-40643799D01*
X26750722Y-40643798D01*
X26756750Y-40641114D01*
X26801649Y-40608493D01*
X26905907Y-40532746D01*
X26905909Y-40532744D01*
X26911251Y-40528863D01*
X26920232Y-40518889D01*
X27034618Y-40391850D01*
X27034619Y-40391849D01*
X27039037Y-40386942D01*
X27134524Y-40221554D01*
X27193538Y-40039927D01*
X27213500Y-39850000D01*
X27193538Y-39660073D01*
X27187578Y-39641728D01*
X27136566Y-39484731D01*
X27134524Y-39478446D01*
X27039037Y-39313058D01*
X26934527Y-39196987D01*
X26915673Y-39176048D01*
X26915672Y-39176047D01*
X26911251Y-39171137D01*
X26905909Y-39167256D01*
X26905907Y-39167254D01*
X26764770Y-39064713D01*
X26721416Y-39008491D01*
X26715341Y-38937755D01*
X26736374Y-38889899D01*
X26739037Y-38886942D01*
X26834524Y-38721554D01*
X26893538Y-38539927D01*
X26913500Y-38350000D01*
X26893538Y-38160073D01*
X26834524Y-37978446D01*
X26825164Y-37962233D01*
X26764838Y-37857746D01*
X26739037Y-37813058D01*
X26706868Y-37777330D01*
X26615673Y-37676048D01*
X26615672Y-37676047D01*
X26611251Y-37671137D01*
X26605909Y-37667256D01*
X26605907Y-37667254D01*
X26462092Y-37562767D01*
X26462091Y-37562766D01*
X26456750Y-37558886D01*
X26450722Y-37556202D01*
X26450720Y-37556201D01*
X26288318Y-37483895D01*
X26288317Y-37483895D01*
X26282287Y-37481210D01*
X26188887Y-37461357D01*
X26101944Y-37442876D01*
X26101939Y-37442876D01*
X26095487Y-37441504D01*
X25904513Y-37441504D01*
X25898061Y-37442876D01*
X25898056Y-37442876D01*
X25811113Y-37461357D01*
X25717713Y-37481210D01*
X25711683Y-37483895D01*
X25711682Y-37483895D01*
X25549280Y-37556201D01*
X25549278Y-37556202D01*
X25543250Y-37558886D01*
X25537909Y-37562766D01*
X25537908Y-37562767D01*
X25394093Y-37667254D01*
X25394091Y-37667256D01*
X25388749Y-37671137D01*
X25384328Y-37676047D01*
X25384327Y-37676048D01*
X25293133Y-37777330D01*
X25260963Y-37813058D01*
X25235162Y-37857746D01*
X25174837Y-37962233D01*
X25165476Y-37978446D01*
X25106462Y-38160073D01*
X25086500Y-38350000D01*
X16770122Y-38350000D01*
X16768598Y-38333413D01*
X16709560Y-38124080D01*
X16668642Y-38041105D01*
X16615918Y-37934190D01*
X16615915Y-37934186D01*
X16613363Y-37929010D01*
X16589206Y-37896659D01*
X16486681Y-37759362D01*
X16486680Y-37759361D01*
X16483228Y-37754738D01*
X16478991Y-37750821D01*
X16478987Y-37750817D01*
X16360973Y-37641727D01*
X16324527Y-37580799D01*
X16326807Y-37509839D01*
X16365932Y-37452328D01*
X16435959Y-37394087D01*
X16435964Y-37394082D01*
X16440396Y-37390396D01*
X16494034Y-37325904D01*
X16575780Y-37227616D01*
X16575782Y-37227613D01*
X16579474Y-37223174D01*
X16685749Y-37033407D01*
X16687605Y-37027940D01*
X16687607Y-37027935D01*
X16714062Y-36950000D01*
X29386500Y-36950000D01*
X29406462Y-37139927D01*
X29408502Y-37146205D01*
X29408502Y-37146206D01*
X29434954Y-37227616D01*
X29465476Y-37321554D01*
X29560963Y-37486942D01*
X29565381Y-37491849D01*
X29565382Y-37491850D01*
X29684327Y-37623952D01*
X29688749Y-37628863D01*
X29694091Y-37632744D01*
X29694093Y-37632746D01*
X29836800Y-37736428D01*
X29843250Y-37741114D01*
X29849278Y-37743798D01*
X29849280Y-37743799D01*
X30011682Y-37816105D01*
X30017713Y-37818790D01*
X30111113Y-37838643D01*
X30198056Y-37857124D01*
X30198061Y-37857124D01*
X30204513Y-37858496D01*
X30395487Y-37858496D01*
X30401939Y-37857124D01*
X30401944Y-37857124D01*
X30488887Y-37838643D01*
X30582287Y-37818790D01*
X30588318Y-37816105D01*
X30750720Y-37743799D01*
X30750722Y-37743798D01*
X30756750Y-37741114D01*
X30763200Y-37736428D01*
X30905907Y-37632746D01*
X30905909Y-37632744D01*
X30911251Y-37628863D01*
X30915673Y-37623952D01*
X31034618Y-37491850D01*
X31034619Y-37491849D01*
X31039037Y-37486942D01*
X31134524Y-37321554D01*
X31165046Y-37227616D01*
X31182142Y-37175000D01*
X43136500Y-37175000D01*
X43137190Y-37181565D01*
X43152361Y-37325904D01*
X43156462Y-37364927D01*
X43215476Y-37546554D01*
X43218779Y-37552276D01*
X43218780Y-37552277D01*
X43239684Y-37588483D01*
X43310963Y-37711942D01*
X43315381Y-37716849D01*
X43315382Y-37716850D01*
X43409215Y-37821062D01*
X43438749Y-37853863D01*
X43444091Y-37857744D01*
X43444093Y-37857746D01*
X43513002Y-37907811D01*
X43593250Y-37966114D01*
X43599278Y-37968798D01*
X43599280Y-37968799D01*
X43620948Y-37978446D01*
X43767713Y-38043790D01*
X43861113Y-38063643D01*
X43948056Y-38082124D01*
X43948061Y-38082124D01*
X43954513Y-38083496D01*
X44145487Y-38083496D01*
X44151939Y-38082124D01*
X44151944Y-38082124D01*
X44238887Y-38063643D01*
X44332287Y-38043790D01*
X44479052Y-37978446D01*
X44500720Y-37968799D01*
X44500722Y-37968798D01*
X44506750Y-37966114D01*
X44586998Y-37907811D01*
X44655907Y-37857746D01*
X44655909Y-37857744D01*
X44661251Y-37853863D01*
X44690785Y-37821062D01*
X44784618Y-37716850D01*
X44784619Y-37716849D01*
X44789037Y-37711942D01*
X44860316Y-37588483D01*
X44881220Y-37552277D01*
X44881221Y-37552276D01*
X44884524Y-37546554D01*
X44943538Y-37364927D01*
X44947640Y-37325904D01*
X44962810Y-37181565D01*
X44963500Y-37175000D01*
X44943538Y-36985073D01*
X44929262Y-36941134D01*
X44886566Y-36809731D01*
X44884524Y-36803446D01*
X44789037Y-36638058D01*
X44769064Y-36615875D01*
X44665673Y-36501048D01*
X44665672Y-36501047D01*
X44661251Y-36496137D01*
X44655909Y-36492256D01*
X44655907Y-36492254D01*
X44512092Y-36387767D01*
X44512091Y-36387766D01*
X44506750Y-36383886D01*
X44500722Y-36381202D01*
X44500720Y-36381201D01*
X44338318Y-36308895D01*
X44338317Y-36308895D01*
X44332287Y-36306210D01*
X44238887Y-36286357D01*
X44151944Y-36267876D01*
X44151939Y-36267876D01*
X44145487Y-36266504D01*
X43954513Y-36266504D01*
X43948061Y-36267876D01*
X43948056Y-36267876D01*
X43861113Y-36286357D01*
X43767713Y-36306210D01*
X43761683Y-36308895D01*
X43761682Y-36308895D01*
X43599280Y-36381201D01*
X43599278Y-36381202D01*
X43593250Y-36383886D01*
X43587909Y-36387766D01*
X43587908Y-36387767D01*
X43444093Y-36492254D01*
X43444091Y-36492256D01*
X43438749Y-36496137D01*
X43434328Y-36501047D01*
X43434327Y-36501048D01*
X43330937Y-36615875D01*
X43310963Y-36638058D01*
X43215476Y-36803446D01*
X43213434Y-36809731D01*
X43170739Y-36941134D01*
X43156462Y-36985073D01*
X43136500Y-37175000D01*
X31182142Y-37175000D01*
X31191498Y-37146206D01*
X31191498Y-37146205D01*
X31193538Y-37139927D01*
X31213500Y-36950000D01*
X31193538Y-36760073D01*
X31134524Y-36578446D01*
X31039037Y-36413058D01*
X31012771Y-36383886D01*
X30915673Y-36276048D01*
X30915672Y-36276047D01*
X30911251Y-36271137D01*
X30905909Y-36267256D01*
X30905907Y-36267254D01*
X30762092Y-36162767D01*
X30762091Y-36162766D01*
X30756750Y-36158886D01*
X30750722Y-36156202D01*
X30750720Y-36156201D01*
X30588318Y-36083895D01*
X30588317Y-36083895D01*
X30582287Y-36081210D01*
X30488887Y-36061357D01*
X30401944Y-36042876D01*
X30401939Y-36042876D01*
X30395487Y-36041504D01*
X30204513Y-36041504D01*
X30198061Y-36042876D01*
X30198056Y-36042876D01*
X30111113Y-36061357D01*
X30017713Y-36081210D01*
X30011683Y-36083895D01*
X30011682Y-36083895D01*
X29849280Y-36156201D01*
X29849278Y-36156202D01*
X29843250Y-36158886D01*
X29837909Y-36162766D01*
X29837908Y-36162767D01*
X29694093Y-36267254D01*
X29694091Y-36267256D01*
X29688749Y-36271137D01*
X29684328Y-36276047D01*
X29684327Y-36276048D01*
X29587230Y-36383886D01*
X29560963Y-36413058D01*
X29465476Y-36578446D01*
X29406462Y-36760073D01*
X29386500Y-36950000D01*
X16714062Y-36950000D01*
X16753806Y-36832919D01*
X16753807Y-36832914D01*
X16755662Y-36827450D01*
X16786871Y-36612201D01*
X16788500Y-36550000D01*
X16768598Y-36333413D01*
X16752420Y-36276048D01*
X16729223Y-36193799D01*
X16709560Y-36124080D01*
X16688419Y-36081210D01*
X16615918Y-35934190D01*
X16615915Y-35934186D01*
X16613363Y-35929010D01*
X16589206Y-35896659D01*
X16486681Y-35759362D01*
X16486680Y-35759361D01*
X16483228Y-35754738D01*
X16478991Y-35750821D01*
X16478987Y-35750817D01*
X16360973Y-35641727D01*
X16324527Y-35580799D01*
X16326807Y-35509839D01*
X16365932Y-35452328D01*
X16428849Y-35400000D01*
X26586500Y-35400000D01*
X26587190Y-35406565D01*
X26604128Y-35567716D01*
X26606462Y-35589927D01*
X26608502Y-35596205D01*
X26608502Y-35596206D01*
X26639609Y-35691944D01*
X26665476Y-35771554D01*
X26668779Y-35777276D01*
X26668780Y-35777277D01*
X26695961Y-35824356D01*
X26760963Y-35936942D01*
X26888749Y-36078863D01*
X26894091Y-36082744D01*
X26894093Y-36082746D01*
X27037908Y-36187233D01*
X27043250Y-36191114D01*
X27049278Y-36193798D01*
X27049280Y-36193799D01*
X27211682Y-36266105D01*
X27217713Y-36268790D01*
X27311113Y-36288643D01*
X27398056Y-36307124D01*
X27398061Y-36307124D01*
X27404513Y-36308496D01*
X27595487Y-36308496D01*
X27601939Y-36307124D01*
X27601944Y-36307124D01*
X27688887Y-36288643D01*
X27782287Y-36268790D01*
X27788318Y-36266105D01*
X27950720Y-36193799D01*
X27950722Y-36193798D01*
X27956750Y-36191114D01*
X27962092Y-36187233D01*
X28105907Y-36082746D01*
X28105909Y-36082744D01*
X28111251Y-36078863D01*
X28239037Y-35936942D01*
X28304039Y-35824356D01*
X28331220Y-35777277D01*
X28331221Y-35777276D01*
X28334524Y-35771554D01*
X28360391Y-35691944D01*
X28391498Y-35596206D01*
X28391498Y-35596205D01*
X28393538Y-35589927D01*
X28395873Y-35567716D01*
X28412810Y-35406565D01*
X28413500Y-35400000D01*
X28405288Y-35321869D01*
X28394228Y-35216637D01*
X28394228Y-35216636D01*
X28393538Y-35210073D01*
X28334524Y-35028446D01*
X28239037Y-34863058D01*
X28206976Y-34827450D01*
X28115673Y-34726048D01*
X28115672Y-34726047D01*
X28111251Y-34721137D01*
X28105909Y-34717256D01*
X28105907Y-34717254D01*
X27962092Y-34612767D01*
X27962091Y-34612766D01*
X27956750Y-34608886D01*
X27950722Y-34606202D01*
X27950720Y-34606201D01*
X27788318Y-34533895D01*
X27788317Y-34533895D01*
X27782287Y-34531210D01*
X27688887Y-34511357D01*
X27601944Y-34492876D01*
X27601939Y-34492876D01*
X27595487Y-34491504D01*
X27404513Y-34491504D01*
X27398061Y-34492876D01*
X27398056Y-34492876D01*
X27311113Y-34511357D01*
X27217713Y-34531210D01*
X27211683Y-34533895D01*
X27211682Y-34533895D01*
X27049280Y-34606201D01*
X27049278Y-34606202D01*
X27043250Y-34608886D01*
X27037909Y-34612766D01*
X27037908Y-34612767D01*
X26894093Y-34717254D01*
X26894091Y-34717256D01*
X26888749Y-34721137D01*
X26884328Y-34726047D01*
X26884327Y-34726048D01*
X26793025Y-34827450D01*
X26760963Y-34863058D01*
X26665476Y-35028446D01*
X26606462Y-35210073D01*
X26605772Y-35216636D01*
X26605772Y-35216637D01*
X26594712Y-35321869D01*
X26586500Y-35400000D01*
X16428849Y-35400000D01*
X16435959Y-35394087D01*
X16435964Y-35394082D01*
X16440396Y-35390396D01*
X16494039Y-35325898D01*
X16575780Y-35227616D01*
X16575782Y-35227613D01*
X16579474Y-35223174D01*
X16685749Y-35033407D01*
X16687605Y-35027940D01*
X16687607Y-35027935D01*
X16753806Y-34832919D01*
X16753807Y-34832914D01*
X16755662Y-34827450D01*
X16786871Y-34612201D01*
X16788500Y-34550000D01*
X16768598Y-34333413D01*
X16709560Y-34124080D01*
X16671554Y-34047010D01*
X16615918Y-33934190D01*
X16615915Y-33934186D01*
X16613363Y-33929010D01*
X16575233Y-33877947D01*
X16486681Y-33759362D01*
X16486680Y-33759361D01*
X16483228Y-33754738D01*
X16478992Y-33750822D01*
X16404260Y-33681741D01*
X24799852Y-33681741D01*
X24800542Y-33688306D01*
X24809942Y-33777737D01*
X24819814Y-33871668D01*
X24821854Y-33877946D01*
X24821854Y-33877947D01*
X24854309Y-33977834D01*
X24878828Y-34053295D01*
X24974315Y-34218683D01*
X25102101Y-34360604D01*
X25107443Y-34364485D01*
X25107445Y-34364487D01*
X25251260Y-34468974D01*
X25256602Y-34472855D01*
X25262630Y-34475539D01*
X25262632Y-34475540D01*
X25387669Y-34531210D01*
X25431065Y-34550531D01*
X25524465Y-34570384D01*
X25611408Y-34588865D01*
X25611413Y-34588865D01*
X25617865Y-34590237D01*
X25808839Y-34590237D01*
X25815291Y-34588865D01*
X25815296Y-34588865D01*
X25902239Y-34570384D01*
X25995639Y-34550531D01*
X26039035Y-34531210D01*
X26164072Y-34475540D01*
X26164074Y-34475539D01*
X26170102Y-34472855D01*
X26175444Y-34468974D01*
X26319259Y-34364487D01*
X26319261Y-34364485D01*
X26324603Y-34360604D01*
X26452389Y-34218683D01*
X26547876Y-34053295D01*
X26572395Y-33977834D01*
X26604850Y-33877947D01*
X26604850Y-33877946D01*
X26606890Y-33871668D01*
X26616763Y-33777737D01*
X26626162Y-33688306D01*
X26626852Y-33681741D01*
X26622680Y-33642047D01*
X26607580Y-33498378D01*
X26607580Y-33498377D01*
X26606890Y-33491814D01*
X26597234Y-33462094D01*
X26552876Y-33325576D01*
X26547876Y-33310187D01*
X26452389Y-33144799D01*
X26352092Y-33033407D01*
X26329025Y-33007789D01*
X26329024Y-33007788D01*
X26324603Y-33002878D01*
X26319261Y-32998997D01*
X26319259Y-32998995D01*
X26175444Y-32894508D01*
X26175443Y-32894507D01*
X26170102Y-32890627D01*
X26164074Y-32887943D01*
X26164072Y-32887942D01*
X26001670Y-32815636D01*
X26001669Y-32815636D01*
X25995639Y-32812951D01*
X25899962Y-32792614D01*
X25815296Y-32774617D01*
X25815291Y-32774617D01*
X25808839Y-32773245D01*
X25617865Y-32773245D01*
X25611413Y-32774617D01*
X25611408Y-32774617D01*
X25526742Y-32792614D01*
X25431065Y-32812951D01*
X25425035Y-32815636D01*
X25425034Y-32815636D01*
X25262632Y-32887942D01*
X25262630Y-32887943D01*
X25256602Y-32890627D01*
X25251261Y-32894507D01*
X25251260Y-32894508D01*
X25107445Y-32998995D01*
X25107443Y-32998997D01*
X25102101Y-33002878D01*
X25097680Y-33007788D01*
X25097679Y-33007789D01*
X25074613Y-33033407D01*
X24974315Y-33144799D01*
X24878828Y-33310187D01*
X24873828Y-33325576D01*
X24829471Y-33462094D01*
X24819814Y-33491814D01*
X24819124Y-33498377D01*
X24819124Y-33498378D01*
X24804024Y-33642047D01*
X24799852Y-33681741D01*
X16404260Y-33681741D01*
X16360604Y-33641386D01*
X16324159Y-33580458D01*
X16326440Y-33509498D01*
X16365563Y-33451987D01*
X16435610Y-33393729D01*
X16443734Y-33385605D01*
X16575371Y-33227329D01*
X16581881Y-33217857D01*
X16682472Y-33038238D01*
X16687148Y-33027735D01*
X16753316Y-32832810D01*
X16755947Y-32821850D01*
X16753972Y-32807993D01*
X16740404Y-32804000D01*
X15472000Y-32804000D01*
X15403879Y-32783998D01*
X15357386Y-32730342D01*
X15346000Y-32678000D01*
X15346000Y-32422000D01*
X15366002Y-32353879D01*
X15419658Y-32307386D01*
X15472000Y-32296000D01*
X16739415Y-32296000D01*
X16752946Y-32292027D01*
X16754115Y-32283892D01*
X16710662Y-32129818D01*
X16706540Y-32119079D01*
X16615492Y-31934453D01*
X16609482Y-31924645D01*
X16486313Y-31759703D01*
X16478611Y-31751149D01*
X16360586Y-31642047D01*
X16324141Y-31581119D01*
X16326422Y-31510159D01*
X16365546Y-31452649D01*
X16435959Y-31394087D01*
X16435964Y-31394082D01*
X16440396Y-31390396D01*
X16494034Y-31325904D01*
X16575780Y-31227616D01*
X16575782Y-31227613D01*
X16579474Y-31223174D01*
X16685749Y-31033407D01*
X16687605Y-31027940D01*
X16687607Y-31027935D01*
X16698915Y-30994622D01*
X28591878Y-30994622D01*
X28611840Y-31184549D01*
X28670854Y-31366176D01*
X28674157Y-31371898D01*
X28674158Y-31371899D01*
X28684837Y-31390396D01*
X28766341Y-31531564D01*
X28770759Y-31536471D01*
X28770760Y-31536472D01*
X28870038Y-31646731D01*
X28894127Y-31673485D01*
X28899469Y-31677366D01*
X28899471Y-31677368D01*
X29041220Y-31780354D01*
X29048628Y-31785736D01*
X29054656Y-31788420D01*
X29054658Y-31788421D01*
X29163638Y-31836942D01*
X29223091Y-31863412D01*
X29316491Y-31883265D01*
X29403434Y-31901746D01*
X29403439Y-31901746D01*
X29409891Y-31903118D01*
X29600865Y-31903118D01*
X29607317Y-31901746D01*
X29607322Y-31901746D01*
X29694265Y-31883265D01*
X29787665Y-31863412D01*
X29847118Y-31836942D01*
X29956098Y-31788421D01*
X29956100Y-31788420D01*
X29962128Y-31785736D01*
X29969536Y-31780354D01*
X30111285Y-31677368D01*
X30111287Y-31677366D01*
X30116629Y-31673485D01*
X30140718Y-31646731D01*
X30239996Y-31536472D01*
X30239997Y-31536471D01*
X30244415Y-31531564D01*
X30325919Y-31390396D01*
X30336598Y-31371899D01*
X30336599Y-31371898D01*
X30339902Y-31366176D01*
X30361404Y-31300000D01*
X43136500Y-31300000D01*
X43137190Y-31306565D01*
X43153537Y-31462093D01*
X43156462Y-31489927D01*
X43158502Y-31496205D01*
X43158502Y-31496206D01*
X43171585Y-31536472D01*
X43215476Y-31671554D01*
X43218779Y-31677276D01*
X43218780Y-31677277D01*
X43221876Y-31682639D01*
X43310963Y-31836942D01*
X43315381Y-31841849D01*
X43315382Y-31841850D01*
X43369313Y-31901746D01*
X43438749Y-31978863D01*
X43444091Y-31982744D01*
X43444093Y-31982746D01*
X43587908Y-32087233D01*
X43593250Y-32091114D01*
X43599278Y-32093798D01*
X43599280Y-32093799D01*
X43761682Y-32166105D01*
X43767713Y-32168790D01*
X43861113Y-32188643D01*
X43948056Y-32207124D01*
X43948061Y-32207124D01*
X43954513Y-32208496D01*
X44145487Y-32208496D01*
X44151939Y-32207124D01*
X44151944Y-32207124D01*
X44238887Y-32188643D01*
X44332287Y-32168790D01*
X44338318Y-32166105D01*
X44500720Y-32093799D01*
X44500722Y-32093798D01*
X44506750Y-32091114D01*
X44512092Y-32087233D01*
X44655907Y-31982746D01*
X44655909Y-31982744D01*
X44661251Y-31978863D01*
X44730687Y-31901746D01*
X44784618Y-31841850D01*
X44784619Y-31841849D01*
X44789037Y-31836942D01*
X44878124Y-31682639D01*
X44881220Y-31677277D01*
X44881221Y-31677276D01*
X44884524Y-31671554D01*
X44928415Y-31536472D01*
X44941498Y-31496206D01*
X44941498Y-31496205D01*
X44943538Y-31489927D01*
X44946464Y-31462093D01*
X44962810Y-31306565D01*
X44963500Y-31300000D01*
X44943538Y-31110073D01*
X44884524Y-30928446D01*
X44789037Y-30763058D01*
X44661251Y-30621137D01*
X44655909Y-30617256D01*
X44655907Y-30617254D01*
X44512092Y-30512767D01*
X44512091Y-30512766D01*
X44506750Y-30508886D01*
X44500722Y-30506202D01*
X44500720Y-30506201D01*
X44338318Y-30433895D01*
X44338317Y-30433895D01*
X44332287Y-30431210D01*
X44238887Y-30411357D01*
X44151944Y-30392876D01*
X44151939Y-30392876D01*
X44145487Y-30391504D01*
X43954513Y-30391504D01*
X43948061Y-30392876D01*
X43948056Y-30392876D01*
X43861113Y-30411357D01*
X43767713Y-30431210D01*
X43761683Y-30433895D01*
X43761682Y-30433895D01*
X43599280Y-30506201D01*
X43599278Y-30506202D01*
X43593250Y-30508886D01*
X43587909Y-30512766D01*
X43587908Y-30512767D01*
X43444093Y-30617254D01*
X43444091Y-30617256D01*
X43438749Y-30621137D01*
X43310963Y-30763058D01*
X43215476Y-30928446D01*
X43156462Y-31110073D01*
X43136500Y-31300000D01*
X30361404Y-31300000D01*
X30398916Y-31184549D01*
X30418878Y-30994622D01*
X30411321Y-30922723D01*
X30399606Y-30811259D01*
X30399606Y-30811258D01*
X30398916Y-30804695D01*
X30339902Y-30623068D01*
X30244415Y-30457680D01*
X30220582Y-30431210D01*
X30121051Y-30320670D01*
X30121050Y-30320669D01*
X30116629Y-30315759D01*
X30111287Y-30311878D01*
X30111285Y-30311876D01*
X29967470Y-30207389D01*
X29967469Y-30207388D01*
X29962128Y-30203508D01*
X29956100Y-30200824D01*
X29956098Y-30200823D01*
X29793696Y-30128517D01*
X29793695Y-30128517D01*
X29787665Y-30125832D01*
X29669425Y-30100699D01*
X29607322Y-30087498D01*
X29607317Y-30087498D01*
X29600865Y-30086126D01*
X29409891Y-30086126D01*
X29403439Y-30087498D01*
X29403434Y-30087498D01*
X29341331Y-30100699D01*
X29223091Y-30125832D01*
X29217061Y-30128517D01*
X29217060Y-30128517D01*
X29054658Y-30200823D01*
X29054656Y-30200824D01*
X29048628Y-30203508D01*
X29043287Y-30207388D01*
X29043286Y-30207389D01*
X28899471Y-30311876D01*
X28899469Y-30311878D01*
X28894127Y-30315759D01*
X28889706Y-30320669D01*
X28889705Y-30320670D01*
X28790175Y-30431210D01*
X28766341Y-30457680D01*
X28670854Y-30623068D01*
X28611840Y-30804695D01*
X28611150Y-30811258D01*
X28611150Y-30811259D01*
X28599435Y-30922723D01*
X28591878Y-30994622D01*
X16698915Y-30994622D01*
X16753806Y-30832919D01*
X16753807Y-30832914D01*
X16755662Y-30827450D01*
X16786871Y-30612201D01*
X16788500Y-30550000D01*
X16768598Y-30333413D01*
X16709560Y-30124080D01*
X16690843Y-30086126D01*
X16615918Y-29934190D01*
X16615915Y-29934186D01*
X16613363Y-29929010D01*
X16589206Y-29896659D01*
X16486681Y-29759362D01*
X16486679Y-29759360D01*
X16483228Y-29754738D01*
X16478991Y-29750821D01*
X16478987Y-29750817D01*
X16360973Y-29641727D01*
X16324527Y-29580799D01*
X16326807Y-29509839D01*
X16365932Y-29452328D01*
X16435959Y-29394087D01*
X16435964Y-29394082D01*
X16440396Y-29390396D01*
X16494034Y-29325904D01*
X16575780Y-29227616D01*
X16575782Y-29227613D01*
X16579474Y-29223174D01*
X16685749Y-29033407D01*
X16687605Y-29027940D01*
X16687607Y-29027935D01*
X16753806Y-28832919D01*
X16753807Y-28832914D01*
X16755662Y-28827450D01*
X16786871Y-28612201D01*
X16788500Y-28550000D01*
X16768598Y-28333413D01*
X16754483Y-28283363D01*
X16711129Y-28129644D01*
X16709560Y-28124080D01*
X16697685Y-28100000D01*
X24936500Y-28100000D01*
X24956462Y-28289927D01*
X24958502Y-28296205D01*
X24958502Y-28296206D01*
X24970591Y-28333413D01*
X25015476Y-28471554D01*
X25110963Y-28636942D01*
X25238749Y-28778863D01*
X25244091Y-28782744D01*
X25244093Y-28782746D01*
X25313151Y-28832919D01*
X25393250Y-28891114D01*
X25399278Y-28893798D01*
X25399280Y-28893799D01*
X25518163Y-28946729D01*
X25567713Y-28968790D01*
X25661113Y-28988643D01*
X25748056Y-29007124D01*
X25748061Y-29007124D01*
X25754513Y-29008496D01*
X25945487Y-29008496D01*
X25951939Y-29007124D01*
X25951944Y-29007124D01*
X26038887Y-28988643D01*
X26132287Y-28968790D01*
X26181837Y-28946729D01*
X26300720Y-28893799D01*
X26300722Y-28893798D01*
X26306750Y-28891114D01*
X26386849Y-28832919D01*
X26455907Y-28782746D01*
X26455909Y-28782744D01*
X26461251Y-28778863D01*
X26589037Y-28636942D01*
X26684524Y-28471554D01*
X26729409Y-28333413D01*
X26741498Y-28296206D01*
X26741498Y-28296205D01*
X26743538Y-28289927D01*
X26763500Y-28100000D01*
X26743538Y-27910073D01*
X26741142Y-27902697D01*
X26694569Y-27759362D01*
X26684524Y-27728446D01*
X26589037Y-27563058D01*
X26541119Y-27509839D01*
X26465673Y-27426048D01*
X26465672Y-27426047D01*
X26461251Y-27421137D01*
X26455909Y-27417256D01*
X26455907Y-27417254D01*
X26312092Y-27312767D01*
X26312091Y-27312766D01*
X26306750Y-27308886D01*
X26300722Y-27306202D01*
X26300720Y-27306201D01*
X26138318Y-27233895D01*
X26138317Y-27233895D01*
X26132287Y-27231210D01*
X26038887Y-27211357D01*
X25951944Y-27192876D01*
X25951939Y-27192876D01*
X25945487Y-27191504D01*
X25754513Y-27191504D01*
X25748061Y-27192876D01*
X25748056Y-27192876D01*
X25661113Y-27211357D01*
X25567713Y-27231210D01*
X25561683Y-27233895D01*
X25561682Y-27233895D01*
X25399280Y-27306201D01*
X25399278Y-27306202D01*
X25393250Y-27308886D01*
X25387909Y-27312766D01*
X25387908Y-27312767D01*
X25244093Y-27417254D01*
X25244091Y-27417256D01*
X25238749Y-27421137D01*
X25234328Y-27426047D01*
X25234327Y-27426048D01*
X25158882Y-27509839D01*
X25110963Y-27563058D01*
X25015476Y-27728446D01*
X25005431Y-27759362D01*
X24958859Y-27902697D01*
X24956462Y-27910073D01*
X24936500Y-28100000D01*
X16697685Y-28100000D01*
X16692786Y-28090065D01*
X16615918Y-27934190D01*
X16615915Y-27934186D01*
X16613363Y-27929010D01*
X16589206Y-27896659D01*
X16486681Y-27759362D01*
X16486680Y-27759361D01*
X16483228Y-27754738D01*
X16478991Y-27750821D01*
X16478987Y-27750817D01*
X16360973Y-27641727D01*
X16324527Y-27580799D01*
X16326807Y-27509839D01*
X16365932Y-27452328D01*
X16435959Y-27394087D01*
X16435964Y-27394082D01*
X16440396Y-27390396D01*
X16494039Y-27325898D01*
X16575780Y-27227616D01*
X16575782Y-27227613D01*
X16579474Y-27223174D01*
X16685749Y-27033407D01*
X16687605Y-27027940D01*
X16687607Y-27027935D01*
X16753806Y-26832919D01*
X16753807Y-26832914D01*
X16755662Y-26827450D01*
X16786871Y-26612201D01*
X16788500Y-26550000D01*
X16768598Y-26333413D01*
X16709560Y-26124080D01*
X16645134Y-25993435D01*
X16615918Y-25934190D01*
X16615915Y-25934186D01*
X16613363Y-25929010D01*
X16598045Y-25908496D01*
X16486681Y-25759362D01*
X16486680Y-25759361D01*
X16483228Y-25754738D01*
X16478991Y-25750821D01*
X16478987Y-25750817D01*
X16360973Y-25641727D01*
X16324527Y-25580799D01*
X16326807Y-25509839D01*
X16365932Y-25452328D01*
X16435959Y-25394087D01*
X16435964Y-25394082D01*
X16440396Y-25390396D01*
X16494034Y-25325904D01*
X16575780Y-25227616D01*
X16575782Y-25227613D01*
X16579474Y-25223174D01*
X16685749Y-25033407D01*
X16687605Y-25027940D01*
X16687607Y-25027935D01*
X16753806Y-24832919D01*
X16753807Y-24832914D01*
X16755662Y-24827450D01*
X16786871Y-24612201D01*
X16788500Y-24550000D01*
X16768598Y-24333413D01*
X16754633Y-24283895D01*
X16733478Y-24208886D01*
X16709560Y-24124080D01*
X16688419Y-24081210D01*
X16615918Y-23934190D01*
X16615915Y-23934186D01*
X16613363Y-23929010D01*
X16604585Y-23917254D01*
X16486681Y-23759362D01*
X16486680Y-23759361D01*
X16483228Y-23754738D01*
X16478992Y-23750822D01*
X16360604Y-23641386D01*
X16324159Y-23580458D01*
X16325138Y-23550000D01*
X24486500Y-23550000D01*
X24487190Y-23556565D01*
X24501373Y-23691504D01*
X24506462Y-23739927D01*
X24508502Y-23746205D01*
X24508502Y-23746206D01*
X24527996Y-23806201D01*
X24565476Y-23921554D01*
X24660963Y-24086942D01*
X24665381Y-24091849D01*
X24665382Y-24091850D01*
X24784327Y-24223952D01*
X24788749Y-24228863D01*
X24794091Y-24232744D01*
X24794093Y-24232746D01*
X24898545Y-24308634D01*
X24943250Y-24341114D01*
X24949278Y-24343798D01*
X24949280Y-24343799D01*
X25106000Y-24413575D01*
X25117713Y-24418790D01*
X25211113Y-24438643D01*
X25298056Y-24457124D01*
X25298061Y-24457124D01*
X25304513Y-24458496D01*
X25495487Y-24458496D01*
X25501939Y-24457124D01*
X25501944Y-24457124D01*
X25588887Y-24438643D01*
X25682287Y-24418790D01*
X25694000Y-24413575D01*
X25850720Y-24343799D01*
X25850722Y-24343798D01*
X25856750Y-24341114D01*
X25862092Y-24337233D01*
X25862097Y-24337230D01*
X25972755Y-24256833D01*
X26039622Y-24232974D01*
X26108774Y-24249055D01*
X26158254Y-24299969D01*
X26172353Y-24369552D01*
X26155934Y-24421768D01*
X26065476Y-24578446D01*
X26006462Y-24760073D01*
X25986500Y-24950000D01*
X25987190Y-24956565D01*
X26001373Y-25091504D01*
X26006462Y-25139927D01*
X26008502Y-25146205D01*
X26008502Y-25146206D01*
X26034954Y-25227616D01*
X26065476Y-25321554D01*
X26160963Y-25486942D01*
X26165381Y-25491849D01*
X26165382Y-25491850D01*
X26284327Y-25623952D01*
X26288749Y-25628863D01*
X26294091Y-25632744D01*
X26294093Y-25632746D01*
X26436800Y-25736428D01*
X26443250Y-25741114D01*
X26449278Y-25743798D01*
X26449280Y-25743799D01*
X26561582Y-25793799D01*
X26617713Y-25818790D01*
X26711113Y-25838643D01*
X26798056Y-25857124D01*
X26798061Y-25857124D01*
X26804513Y-25858496D01*
X26995487Y-25858496D01*
X27001939Y-25857124D01*
X27001944Y-25857124D01*
X27088887Y-25838643D01*
X27182287Y-25818790D01*
X27238418Y-25793799D01*
X27350720Y-25743799D01*
X27350722Y-25743798D01*
X27356750Y-25741114D01*
X27363200Y-25736428D01*
X27505907Y-25632746D01*
X27505909Y-25632744D01*
X27511251Y-25628863D01*
X27515673Y-25623952D01*
X27634618Y-25491850D01*
X27634619Y-25491849D01*
X27639037Y-25486942D01*
X27734524Y-25321554D01*
X27765046Y-25227616D01*
X27790265Y-25150000D01*
X29186500Y-25150000D01*
X29187190Y-25156565D01*
X29204441Y-25320694D01*
X29206462Y-25339927D01*
X29265476Y-25521554D01*
X29268779Y-25527276D01*
X29268780Y-25527277D01*
X29271059Y-25531224D01*
X29360963Y-25686942D01*
X29365381Y-25691849D01*
X29365382Y-25691850D01*
X29482146Y-25821530D01*
X29488749Y-25828863D01*
X29494091Y-25832744D01*
X29494093Y-25832746D01*
X29626590Y-25929010D01*
X29643250Y-25941114D01*
X29649278Y-25943798D01*
X29649280Y-25943799D01*
X29775510Y-26000000D01*
X29817713Y-26018790D01*
X29911113Y-26038643D01*
X29998056Y-26057124D01*
X29998061Y-26057124D01*
X30004513Y-26058496D01*
X30195487Y-26058496D01*
X30201939Y-26057124D01*
X30201944Y-26057124D01*
X30288887Y-26038643D01*
X30382287Y-26018790D01*
X30424490Y-26000000D01*
X42486500Y-26000000D01*
X42506462Y-26189927D01*
X42565476Y-26371554D01*
X42660963Y-26536942D01*
X42665381Y-26541849D01*
X42665382Y-26541850D01*
X42725388Y-26608493D01*
X42788749Y-26678863D01*
X42794091Y-26682744D01*
X42794093Y-26682746D01*
X42937908Y-26787233D01*
X42943250Y-26791114D01*
X42949278Y-26793798D01*
X42949280Y-26793799D01*
X43037145Y-26832919D01*
X43117713Y-26868790D01*
X43211113Y-26888643D01*
X43298056Y-26907124D01*
X43298061Y-26907124D01*
X43304513Y-26908496D01*
X43495487Y-26908496D01*
X43501939Y-26907124D01*
X43501944Y-26907124D01*
X43588887Y-26888643D01*
X43682287Y-26868790D01*
X43762855Y-26832919D01*
X43850720Y-26793799D01*
X43850722Y-26793798D01*
X43856750Y-26791114D01*
X43862092Y-26787233D01*
X44005907Y-26682746D01*
X44005909Y-26682744D01*
X44011251Y-26678863D01*
X44074612Y-26608493D01*
X44134618Y-26541850D01*
X44134619Y-26541849D01*
X44139037Y-26536942D01*
X44234524Y-26371554D01*
X44293538Y-26189927D01*
X44313500Y-26000000D01*
X44299053Y-25862549D01*
X44294228Y-25816637D01*
X44294228Y-25816636D01*
X44293538Y-25810073D01*
X44283032Y-25777737D01*
X44238943Y-25642047D01*
X44234524Y-25628446D01*
X44214916Y-25594483D01*
X44176114Y-25527277D01*
X44139037Y-25463058D01*
X44076936Y-25394087D01*
X44015673Y-25326048D01*
X44015672Y-25326047D01*
X44011251Y-25321137D01*
X44005909Y-25317256D01*
X44005907Y-25317254D01*
X43862092Y-25212767D01*
X43862091Y-25212766D01*
X43856750Y-25208886D01*
X43850722Y-25206202D01*
X43850720Y-25206201D01*
X43688318Y-25133895D01*
X43688317Y-25133895D01*
X43682287Y-25131210D01*
X43588887Y-25111357D01*
X43501944Y-25092876D01*
X43501939Y-25092876D01*
X43495487Y-25091504D01*
X43304513Y-25091504D01*
X43298061Y-25092876D01*
X43298056Y-25092876D01*
X43211113Y-25111357D01*
X43117713Y-25131210D01*
X43111683Y-25133895D01*
X43111682Y-25133895D01*
X42949280Y-25206201D01*
X42949278Y-25206202D01*
X42943250Y-25208886D01*
X42937909Y-25212766D01*
X42937908Y-25212767D01*
X42794093Y-25317254D01*
X42794091Y-25317256D01*
X42788749Y-25321137D01*
X42784328Y-25326047D01*
X42784327Y-25326048D01*
X42723065Y-25394087D01*
X42660963Y-25463058D01*
X42623886Y-25527277D01*
X42585085Y-25594483D01*
X42565476Y-25628446D01*
X42561057Y-25642047D01*
X42516969Y-25777737D01*
X42506462Y-25810073D01*
X42505772Y-25816636D01*
X42505772Y-25816637D01*
X42500947Y-25862549D01*
X42486500Y-26000000D01*
X30424490Y-26000000D01*
X30550720Y-25943799D01*
X30550722Y-25943798D01*
X30556750Y-25941114D01*
X30573410Y-25929010D01*
X30705907Y-25832746D01*
X30705909Y-25832744D01*
X30711251Y-25828863D01*
X30717854Y-25821530D01*
X30834618Y-25691850D01*
X30834619Y-25691849D01*
X30839037Y-25686942D01*
X30928941Y-25531224D01*
X30931220Y-25527277D01*
X30931221Y-25527276D01*
X30934524Y-25521554D01*
X30993538Y-25339927D01*
X30995560Y-25320694D01*
X31012810Y-25156565D01*
X31013500Y-25150000D01*
X31000671Y-25027935D01*
X30997735Y-25000000D01*
X31636500Y-25000000D01*
X31637190Y-25006565D01*
X31652956Y-25156565D01*
X31656462Y-25189927D01*
X31658502Y-25196205D01*
X31658502Y-25196206D01*
X31668708Y-25227616D01*
X31715476Y-25371554D01*
X31718779Y-25377276D01*
X31718780Y-25377277D01*
X31724528Y-25387233D01*
X31810963Y-25536942D01*
X31815381Y-25541849D01*
X31815382Y-25541850D01*
X31921541Y-25659752D01*
X31938749Y-25678863D01*
X31944091Y-25682744D01*
X31944093Y-25682746D01*
X32078440Y-25780354D01*
X32093250Y-25791114D01*
X32099278Y-25793798D01*
X32099280Y-25793799D01*
X32244592Y-25858496D01*
X32267713Y-25868790D01*
X32361113Y-25888643D01*
X32448056Y-25907124D01*
X32448061Y-25907124D01*
X32454513Y-25908496D01*
X32645487Y-25908496D01*
X32651939Y-25907124D01*
X32651944Y-25907124D01*
X32738887Y-25888643D01*
X32832287Y-25868790D01*
X32855408Y-25858496D01*
X33000720Y-25793799D01*
X33000722Y-25793798D01*
X33006750Y-25791114D01*
X33021560Y-25780354D01*
X33155907Y-25682746D01*
X33155909Y-25682744D01*
X33161251Y-25678863D01*
X33178459Y-25659752D01*
X33284618Y-25541850D01*
X33284619Y-25541849D01*
X33289037Y-25536942D01*
X33375472Y-25387233D01*
X33381220Y-25377277D01*
X33381221Y-25377276D01*
X33384524Y-25371554D01*
X33431292Y-25227616D01*
X33441498Y-25196206D01*
X33441498Y-25196205D01*
X33443538Y-25189927D01*
X33447045Y-25156565D01*
X33462810Y-25006565D01*
X33463500Y-25000000D01*
X33458815Y-24955425D01*
X36687860Y-24955425D01*
X36707822Y-25145352D01*
X36766836Y-25326979D01*
X36770139Y-25332701D01*
X36770140Y-25332702D01*
X36777937Y-25346206D01*
X36862323Y-25492367D01*
X36866741Y-25497274D01*
X36866742Y-25497275D01*
X36948866Y-25588483D01*
X36990109Y-25634288D01*
X36995451Y-25638169D01*
X36995453Y-25638171D01*
X37130693Y-25736428D01*
X37144610Y-25746539D01*
X37150638Y-25749223D01*
X37150640Y-25749224D01*
X37313042Y-25821530D01*
X37319073Y-25824215D01*
X37412473Y-25844068D01*
X37499416Y-25862549D01*
X37499421Y-25862549D01*
X37505873Y-25863921D01*
X37696847Y-25863921D01*
X37703299Y-25862549D01*
X37703304Y-25862549D01*
X37790247Y-25844068D01*
X37883647Y-25824215D01*
X37889678Y-25821530D01*
X38052080Y-25749224D01*
X38052082Y-25749223D01*
X38058110Y-25746539D01*
X38072027Y-25736428D01*
X38207267Y-25638171D01*
X38207269Y-25638169D01*
X38212611Y-25634288D01*
X38253854Y-25588483D01*
X38335978Y-25497275D01*
X38335979Y-25497274D01*
X38340397Y-25492367D01*
X38424783Y-25346206D01*
X38432580Y-25332702D01*
X38432581Y-25332701D01*
X38435884Y-25326979D01*
X38494898Y-25145352D01*
X38514860Y-24955425D01*
X38497466Y-24789927D01*
X38495588Y-24772062D01*
X38495588Y-24772061D01*
X38494898Y-24765498D01*
X38483415Y-24730155D01*
X38441125Y-24600000D01*
X46486500Y-24600000D01*
X46487190Y-24606565D01*
X46501375Y-24741523D01*
X46506462Y-24789927D01*
X46508502Y-24796205D01*
X46508502Y-24796206D01*
X46516797Y-24821736D01*
X46565476Y-24971554D01*
X46660963Y-25136942D01*
X46665381Y-25141849D01*
X46665382Y-25141850D01*
X46729236Y-25212767D01*
X46788749Y-25278863D01*
X46794091Y-25282744D01*
X46794093Y-25282746D01*
X46937908Y-25387233D01*
X46943250Y-25391114D01*
X46949278Y-25393798D01*
X46949280Y-25393799D01*
X47111682Y-25466105D01*
X47117713Y-25468790D01*
X47201732Y-25486649D01*
X47298056Y-25507124D01*
X47298061Y-25507124D01*
X47304513Y-25508496D01*
X47495487Y-25508496D01*
X47501939Y-25507124D01*
X47501944Y-25507124D01*
X47598268Y-25486649D01*
X47682287Y-25468790D01*
X47688318Y-25466105D01*
X47850720Y-25393799D01*
X47850722Y-25393798D01*
X47856750Y-25391114D01*
X47862092Y-25387233D01*
X48005907Y-25282746D01*
X48005909Y-25282744D01*
X48011251Y-25278863D01*
X48070764Y-25212767D01*
X48134618Y-25141850D01*
X48134619Y-25141849D01*
X48139037Y-25136942D01*
X48234524Y-24971554D01*
X48283203Y-24821736D01*
X48291498Y-24796206D01*
X48291498Y-24796205D01*
X48293538Y-24789927D01*
X48298626Y-24741523D01*
X48312810Y-24606565D01*
X48313500Y-24600000D01*
X48299107Y-24463058D01*
X48294228Y-24416637D01*
X48294228Y-24416636D01*
X48293538Y-24410073D01*
X48234524Y-24228446D01*
X48139037Y-24063058D01*
X48124515Y-24046929D01*
X48015673Y-23926048D01*
X48015672Y-23926047D01*
X48011251Y-23921137D01*
X48005909Y-23917256D01*
X48005907Y-23917254D01*
X47862092Y-23812767D01*
X47862091Y-23812766D01*
X47856750Y-23808886D01*
X47850722Y-23806202D01*
X47850720Y-23806201D01*
X47688318Y-23733895D01*
X47688317Y-23733895D01*
X47682287Y-23731210D01*
X47588887Y-23711357D01*
X47501944Y-23692876D01*
X47501939Y-23692876D01*
X47495487Y-23691504D01*
X47304513Y-23691504D01*
X47298061Y-23692876D01*
X47298056Y-23692876D01*
X47211113Y-23711357D01*
X47117713Y-23731210D01*
X47111683Y-23733895D01*
X47111682Y-23733895D01*
X46949280Y-23806201D01*
X46949278Y-23806202D01*
X46943250Y-23808886D01*
X46937909Y-23812766D01*
X46937908Y-23812767D01*
X46794093Y-23917254D01*
X46794091Y-23917256D01*
X46788749Y-23921137D01*
X46784328Y-23926047D01*
X46784327Y-23926048D01*
X46675486Y-24046929D01*
X46660963Y-24063058D01*
X46565476Y-24228446D01*
X46506462Y-24410073D01*
X46505772Y-24416636D01*
X46505772Y-24416637D01*
X46500893Y-24463058D01*
X46486500Y-24600000D01*
X38441125Y-24600000D01*
X38435884Y-24583871D01*
X38340397Y-24418483D01*
X38296340Y-24369552D01*
X38217033Y-24281473D01*
X38217032Y-24281472D01*
X38212611Y-24276562D01*
X38207269Y-24272681D01*
X38207267Y-24272679D01*
X38063452Y-24168192D01*
X38063451Y-24168191D01*
X38058110Y-24164311D01*
X38052082Y-24161627D01*
X38052080Y-24161626D01*
X37889678Y-24089320D01*
X37889677Y-24089320D01*
X37883647Y-24086635D01*
X37790247Y-24066782D01*
X37703304Y-24048301D01*
X37703299Y-24048301D01*
X37696847Y-24046929D01*
X37505873Y-24046929D01*
X37499421Y-24048301D01*
X37499416Y-24048301D01*
X37412473Y-24066782D01*
X37319073Y-24086635D01*
X37313043Y-24089320D01*
X37313042Y-24089320D01*
X37150640Y-24161626D01*
X37150638Y-24161627D01*
X37144610Y-24164311D01*
X37139269Y-24168191D01*
X37139268Y-24168192D01*
X36995453Y-24272679D01*
X36995451Y-24272681D01*
X36990109Y-24276562D01*
X36985688Y-24281472D01*
X36985687Y-24281473D01*
X36906381Y-24369552D01*
X36862323Y-24418483D01*
X36766836Y-24583871D01*
X36761595Y-24600000D01*
X36719306Y-24730155D01*
X36707822Y-24765498D01*
X36707132Y-24772061D01*
X36707132Y-24772062D01*
X36705254Y-24789927D01*
X36687860Y-24955425D01*
X33458815Y-24955425D01*
X33443538Y-24810073D01*
X33439033Y-24796206D01*
X33386566Y-24634731D01*
X33384524Y-24628446D01*
X33289037Y-24463058D01*
X33250414Y-24420162D01*
X33165673Y-24326048D01*
X33165672Y-24326047D01*
X33161251Y-24321137D01*
X33155909Y-24317256D01*
X33155907Y-24317254D01*
X33012092Y-24212767D01*
X33012091Y-24212766D01*
X33006750Y-24208886D01*
X33000722Y-24206202D01*
X33000720Y-24206201D01*
X32838318Y-24133895D01*
X32838317Y-24133895D01*
X32832287Y-24131210D01*
X32738887Y-24111357D01*
X32651944Y-24092876D01*
X32651939Y-24092876D01*
X32645487Y-24091504D01*
X32454513Y-24091504D01*
X32448061Y-24092876D01*
X32448056Y-24092876D01*
X32361113Y-24111357D01*
X32267713Y-24131210D01*
X32261683Y-24133895D01*
X32261682Y-24133895D01*
X32099280Y-24206201D01*
X32099278Y-24206202D01*
X32093250Y-24208886D01*
X32087909Y-24212766D01*
X32087908Y-24212767D01*
X31944093Y-24317254D01*
X31944091Y-24317256D01*
X31938749Y-24321137D01*
X31934328Y-24326047D01*
X31934327Y-24326048D01*
X31849587Y-24420162D01*
X31810963Y-24463058D01*
X31715476Y-24628446D01*
X31713434Y-24634731D01*
X31660968Y-24796206D01*
X31656462Y-24810073D01*
X31636500Y-25000000D01*
X30997735Y-25000000D01*
X30994228Y-24966637D01*
X30994228Y-24966636D01*
X30993538Y-24960073D01*
X30987385Y-24941134D01*
X30942760Y-24803794D01*
X30934524Y-24778446D01*
X30927049Y-24765498D01*
X30842338Y-24618776D01*
X30839037Y-24613058D01*
X30821369Y-24593435D01*
X30715673Y-24476048D01*
X30715672Y-24476047D01*
X30711251Y-24471137D01*
X30705909Y-24467256D01*
X30705907Y-24467254D01*
X30562092Y-24362767D01*
X30562091Y-24362766D01*
X30556750Y-24358886D01*
X30550722Y-24356202D01*
X30550720Y-24356201D01*
X30388318Y-24283895D01*
X30388317Y-24283895D01*
X30382287Y-24281210D01*
X30288887Y-24261357D01*
X30201944Y-24242876D01*
X30201939Y-24242876D01*
X30195487Y-24241504D01*
X30004513Y-24241504D01*
X29998061Y-24242876D01*
X29998056Y-24242876D01*
X29911113Y-24261357D01*
X29817713Y-24281210D01*
X29811683Y-24283895D01*
X29811682Y-24283895D01*
X29649280Y-24356201D01*
X29649278Y-24356202D01*
X29643250Y-24358886D01*
X29637909Y-24362766D01*
X29637908Y-24362767D01*
X29494093Y-24467254D01*
X29494091Y-24467256D01*
X29488749Y-24471137D01*
X29484328Y-24476047D01*
X29484327Y-24476048D01*
X29378632Y-24593435D01*
X29360963Y-24613058D01*
X29357662Y-24618776D01*
X29272952Y-24765498D01*
X29265476Y-24778446D01*
X29257240Y-24803794D01*
X29212616Y-24941134D01*
X29206462Y-24960073D01*
X29205772Y-24966636D01*
X29205772Y-24966637D01*
X29199329Y-25027935D01*
X29186500Y-25150000D01*
X27790265Y-25150000D01*
X27791498Y-25146206D01*
X27791498Y-25146205D01*
X27793538Y-25139927D01*
X27798628Y-25091504D01*
X27812810Y-24956565D01*
X27813500Y-24950000D01*
X27793538Y-24760073D01*
X27734524Y-24578446D01*
X27639037Y-24413058D01*
X27590261Y-24358886D01*
X27515673Y-24276048D01*
X27515672Y-24276047D01*
X27511251Y-24271137D01*
X27505909Y-24267256D01*
X27505907Y-24267254D01*
X27362092Y-24162767D01*
X27362091Y-24162766D01*
X27356750Y-24158886D01*
X27350722Y-24156202D01*
X27350720Y-24156201D01*
X27188318Y-24083895D01*
X27188317Y-24083895D01*
X27182287Y-24081210D01*
X27088887Y-24061357D01*
X27001944Y-24042876D01*
X27001939Y-24042876D01*
X26995487Y-24041504D01*
X26804513Y-24041504D01*
X26798061Y-24042876D01*
X26798056Y-24042876D01*
X26711113Y-24061357D01*
X26617713Y-24081210D01*
X26611683Y-24083895D01*
X26611682Y-24083895D01*
X26449280Y-24156201D01*
X26449278Y-24156202D01*
X26443250Y-24158886D01*
X26437908Y-24162767D01*
X26437903Y-24162770D01*
X26327245Y-24243167D01*
X26260378Y-24267026D01*
X26191226Y-24250945D01*
X26141746Y-24200031D01*
X26127647Y-24130448D01*
X26144066Y-24078231D01*
X26162139Y-24046929D01*
X26234524Y-23921554D01*
X26272004Y-23806201D01*
X26291498Y-23746206D01*
X26291498Y-23746205D01*
X26293538Y-23739927D01*
X26298628Y-23691504D01*
X26312810Y-23556565D01*
X26313500Y-23550000D01*
X26303234Y-23452328D01*
X26294228Y-23366637D01*
X26294228Y-23366636D01*
X26293538Y-23360073D01*
X26267019Y-23278454D01*
X26247329Y-23217857D01*
X26234524Y-23178446D01*
X26229911Y-23170455D01*
X26197311Y-23113992D01*
X26139037Y-23013058D01*
X26074277Y-22941134D01*
X26015673Y-22876048D01*
X26015672Y-22876047D01*
X26011251Y-22871137D01*
X26005909Y-22867256D01*
X26005907Y-22867254D01*
X25862092Y-22762767D01*
X25862091Y-22762766D01*
X25856750Y-22758886D01*
X25850722Y-22756202D01*
X25850720Y-22756201D01*
X25688318Y-22683895D01*
X25688317Y-22683895D01*
X25682287Y-22681210D01*
X25588887Y-22661357D01*
X25501944Y-22642876D01*
X25501939Y-22642876D01*
X25495487Y-22641504D01*
X25304513Y-22641504D01*
X25298061Y-22642876D01*
X25298056Y-22642876D01*
X25211113Y-22661357D01*
X25117713Y-22681210D01*
X25111683Y-22683895D01*
X25111682Y-22683895D01*
X24949280Y-22756201D01*
X24949278Y-22756202D01*
X24943250Y-22758886D01*
X24937909Y-22762766D01*
X24937908Y-22762767D01*
X24794093Y-22867254D01*
X24794091Y-22867256D01*
X24788749Y-22871137D01*
X24784328Y-22876047D01*
X24784327Y-22876048D01*
X24725724Y-22941134D01*
X24660963Y-23013058D01*
X24602689Y-23113992D01*
X24570090Y-23170455D01*
X24565476Y-23178446D01*
X24552671Y-23217857D01*
X24532982Y-23278454D01*
X24506462Y-23360073D01*
X24505772Y-23366636D01*
X24505772Y-23366637D01*
X24496766Y-23452328D01*
X24486500Y-23550000D01*
X16325138Y-23550000D01*
X16326440Y-23509498D01*
X16365563Y-23451987D01*
X16435610Y-23393729D01*
X16443734Y-23385605D01*
X16575371Y-23227329D01*
X16581881Y-23217857D01*
X16682472Y-23038238D01*
X16687148Y-23027735D01*
X16753316Y-22832810D01*
X16755947Y-22821850D01*
X16753972Y-22807993D01*
X16740404Y-22804000D01*
X15472000Y-22804000D01*
X15403879Y-22783998D01*
X15357386Y-22730342D01*
X15346000Y-22678000D01*
X15346000Y-22600592D01*
X49415656Y-22600592D01*
X49434948Y-22702207D01*
X49450477Y-22783998D01*
X49454240Y-22803821D01*
X49530558Y-22996088D01*
X49533782Y-23001138D01*
X49533783Y-23001141D01*
X49557462Y-23038238D01*
X49641856Y-23170455D01*
X49784118Y-23320631D01*
X49788983Y-23324120D01*
X49788986Y-23324123D01*
X49947340Y-23437702D01*
X49947345Y-23437705D01*
X49952211Y-23441195D01*
X50030479Y-23477277D01*
X50130977Y-23523607D01*
X50140070Y-23527799D01*
X50145886Y-23529233D01*
X50145889Y-23529234D01*
X50335091Y-23575882D01*
X50335093Y-23575882D01*
X50340916Y-23577318D01*
X50346907Y-23577627D01*
X50346909Y-23577627D01*
X50401848Y-23580458D01*
X50547502Y-23587964D01*
X50553437Y-23587135D01*
X50553441Y-23587135D01*
X50692489Y-23567716D01*
X50752373Y-23559353D01*
X50898403Y-23509498D01*
X50942460Y-23494457D01*
X50942462Y-23494456D01*
X50948139Y-23492518D01*
X51127735Y-23389871D01*
X51284680Y-23255115D01*
X51310042Y-23223174D01*
X51409583Y-23097808D01*
X51413312Y-23093112D01*
X51452092Y-23018776D01*
X51506216Y-22915026D01*
X51506217Y-22915024D01*
X51508990Y-22909708D01*
X51568260Y-22711521D01*
X51571636Y-22678000D01*
X51584524Y-22550000D01*
X51588985Y-22505702D01*
X51589000Y-22500000D01*
X51569353Y-22294075D01*
X51511121Y-22095580D01*
X51461298Y-21998842D01*
X51419151Y-21917009D01*
X51419149Y-21917006D01*
X51416405Y-21911678D01*
X51348367Y-21825061D01*
X51292329Y-21753721D01*
X51292325Y-21753716D01*
X51288623Y-21749004D01*
X51275545Y-21737655D01*
X51188876Y-21662448D01*
X51132386Y-21613428D01*
X50953330Y-21509842D01*
X50757917Y-21441983D01*
X50751982Y-21441122D01*
X50751980Y-21441122D01*
X50559137Y-21413161D01*
X50559134Y-21413161D01*
X50553197Y-21412300D01*
X50346559Y-21421864D01*
X50221568Y-21451987D01*
X50151289Y-21468924D01*
X50151287Y-21468925D01*
X50145456Y-21470330D01*
X50139998Y-21472812D01*
X50139994Y-21472813D01*
X50029005Y-21523277D01*
X49957147Y-21555949D01*
X49788425Y-21675632D01*
X49784276Y-21679966D01*
X49784275Y-21679967D01*
X49756144Y-21709353D01*
X49645379Y-21825061D01*
X49642127Y-21830098D01*
X49642125Y-21830100D01*
X49574745Y-21934453D01*
X49533169Y-21998842D01*
X49530927Y-22004405D01*
X49482697Y-22124080D01*
X49455845Y-22190707D01*
X49454697Y-22196588D01*
X49454695Y-22196593D01*
X49417345Y-22387851D01*
X49416197Y-22393732D01*
X49415919Y-22500000D01*
X49415656Y-22600592D01*
X15346000Y-22600592D01*
X15346000Y-22422000D01*
X15366002Y-22353879D01*
X15419658Y-22307386D01*
X15472000Y-22296000D01*
X16739415Y-22296000D01*
X16752946Y-22292027D01*
X16754115Y-22283892D01*
X16710662Y-22129818D01*
X16706540Y-22119079D01*
X16615492Y-21934453D01*
X16609482Y-21924645D01*
X16486313Y-21759703D01*
X16478611Y-21751149D01*
X16360586Y-21642047D01*
X16324141Y-21581119D01*
X16326422Y-21510159D01*
X16365546Y-21452649D01*
X16435959Y-21394087D01*
X16435964Y-21394082D01*
X16440396Y-21390396D01*
X16501299Y-21317169D01*
X16575780Y-21227616D01*
X16575782Y-21227613D01*
X16579474Y-21223174D01*
X16643185Y-21109410D01*
X16682925Y-21038450D01*
X16682926Y-21038448D01*
X16685749Y-21033407D01*
X16687605Y-21027940D01*
X16687607Y-21027935D01*
X16753806Y-20832919D01*
X16753807Y-20832914D01*
X16755662Y-20827450D01*
X16766806Y-20750592D01*
X21265656Y-20750592D01*
X21266774Y-20756479D01*
X21302894Y-20946729D01*
X21304240Y-20953821D01*
X21380558Y-21146088D01*
X21383782Y-21151138D01*
X21383783Y-21151141D01*
X21429762Y-21223174D01*
X21491856Y-21320455D01*
X21497018Y-21325904D01*
X21625388Y-21461415D01*
X21634118Y-21470631D01*
X21638983Y-21474120D01*
X21638986Y-21474123D01*
X21797340Y-21587702D01*
X21797345Y-21587705D01*
X21802211Y-21591195D01*
X21990070Y-21677799D01*
X21995886Y-21679233D01*
X21995889Y-21679234D01*
X22185091Y-21725882D01*
X22185093Y-21725882D01*
X22190916Y-21727318D01*
X22196907Y-21727627D01*
X22196909Y-21727627D01*
X22256466Y-21730696D01*
X22397502Y-21737964D01*
X22403437Y-21737135D01*
X22403441Y-21737135D01*
X22524183Y-21720273D01*
X22602373Y-21709353D01*
X22747659Y-21659752D01*
X22792460Y-21644457D01*
X22792462Y-21644456D01*
X22798139Y-21642518D01*
X22977735Y-21539871D01*
X23134680Y-21405115D01*
X23166402Y-21365164D01*
X23235245Y-21278460D01*
X23263312Y-21243112D01*
X23285382Y-21200807D01*
X23356216Y-21065026D01*
X23356217Y-21065024D01*
X23358990Y-21059708D01*
X23418260Y-20861521D01*
X23438985Y-20655702D01*
X23439000Y-20650000D01*
X23419353Y-20444075D01*
X23374974Y-20292799D01*
X54395289Y-20292799D01*
X54402021Y-20296000D01*
X55277885Y-20296000D01*
X55293124Y-20291525D01*
X55294329Y-20290135D01*
X55296000Y-20282452D01*
X55296000Y-18822115D01*
X55291525Y-18806876D01*
X55290135Y-18805671D01*
X55282452Y-18804000D01*
X54412050Y-18804000D01*
X54398519Y-18807973D01*
X54397227Y-18816962D01*
X54428721Y-18940968D01*
X54432559Y-18951806D01*
X54518744Y-19138755D01*
X54524495Y-19148716D01*
X54643306Y-19316829D01*
X54650772Y-19325571D01*
X54790577Y-19461763D01*
X54825414Y-19523624D01*
X54821277Y-19594500D01*
X54785733Y-19646749D01*
X54692596Y-19728428D01*
X54684679Y-19736771D01*
X54557237Y-19898430D01*
X54550966Y-19908087D01*
X54455123Y-20090255D01*
X54450718Y-20100889D01*
X54395507Y-20278700D01*
X54395289Y-20292799D01*
X23374974Y-20292799D01*
X23361121Y-20245580D01*
X23311298Y-20148842D01*
X23269151Y-20067009D01*
X23269149Y-20067006D01*
X23266405Y-20061678D01*
X23166262Y-19934190D01*
X23142329Y-19903721D01*
X23142325Y-19903716D01*
X23138623Y-19899004D01*
X22982386Y-19763428D01*
X22803330Y-19659842D01*
X22607917Y-19591983D01*
X22601982Y-19591122D01*
X22601980Y-19591122D01*
X22409137Y-19563161D01*
X22409134Y-19563161D01*
X22403197Y-19562300D01*
X22196559Y-19571864D01*
X22067816Y-19602891D01*
X22001289Y-19618924D01*
X22001287Y-19618925D01*
X21995456Y-19620330D01*
X21989998Y-19622812D01*
X21989994Y-19622813D01*
X21876896Y-19674236D01*
X21807147Y-19705949D01*
X21638425Y-19825632D01*
X21495379Y-19975061D01*
X21492127Y-19980098D01*
X21492125Y-19980100D01*
X21399158Y-20124080D01*
X21383169Y-20148842D01*
X21380927Y-20154405D01*
X21308785Y-20333413D01*
X21305845Y-20340707D01*
X21304697Y-20346588D01*
X21304695Y-20346593D01*
X21284491Y-20450052D01*
X21266197Y-20543732D01*
X21266181Y-20549718D01*
X21266181Y-20549721D01*
X21266018Y-20612201D01*
X21265919Y-20650000D01*
X21265656Y-20750592D01*
X16766806Y-20750592D01*
X16786871Y-20612201D01*
X16788500Y-20550000D01*
X16768598Y-20333413D01*
X16758047Y-20296000D01*
X16739079Y-20228746D01*
X16709560Y-20124080D01*
X16636073Y-19975061D01*
X16615918Y-19934190D01*
X16615915Y-19934186D01*
X16613363Y-19929010D01*
X16590957Y-19899004D01*
X16486681Y-19759362D01*
X16486680Y-19759361D01*
X16483228Y-19754738D01*
X16478991Y-19750821D01*
X16478987Y-19750817D01*
X16360973Y-19641727D01*
X16324527Y-19580799D01*
X16326807Y-19509839D01*
X16365932Y-19452328D01*
X16435959Y-19394087D01*
X16435964Y-19394082D01*
X16440396Y-19390396D01*
X16500895Y-19317654D01*
X16575780Y-19227616D01*
X16575782Y-19227613D01*
X16579474Y-19223174D01*
X16685749Y-19033407D01*
X16687605Y-19027940D01*
X16687607Y-19027935D01*
X16753806Y-18832919D01*
X16753807Y-18832914D01*
X16755662Y-18827450D01*
X16786871Y-18612201D01*
X16788500Y-18550000D01*
X16768598Y-18333413D01*
X16758047Y-18296000D01*
X16757144Y-18292799D01*
X54395289Y-18292799D01*
X54402021Y-18296000D01*
X55277885Y-18296000D01*
X55293124Y-18291525D01*
X55294329Y-18290135D01*
X55296000Y-18282452D01*
X55296000Y-17414171D01*
X55804000Y-17414171D01*
X55804000Y-18277885D01*
X55808475Y-18293124D01*
X55809865Y-18294329D01*
X55817548Y-18296000D01*
X57277885Y-18296000D01*
X57293124Y-18291525D01*
X57294329Y-18290135D01*
X57296000Y-18282452D01*
X57296000Y-17411406D01*
X57292194Y-17398444D01*
X57277278Y-17396508D01*
X57248220Y-17401501D01*
X57237100Y-17404481D01*
X57043969Y-17475731D01*
X57033591Y-17480681D01*
X56856679Y-17585932D01*
X56847367Y-17592698D01*
X56692596Y-17728428D01*
X56684679Y-17736771D01*
X56649996Y-17780766D01*
X56592114Y-17821879D01*
X56521194Y-17825173D01*
X56459752Y-17789601D01*
X56450089Y-17778150D01*
X56436315Y-17759705D01*
X56428611Y-17751149D01*
X56277454Y-17611420D01*
X56268322Y-17604412D01*
X56094224Y-17494565D01*
X56083977Y-17489344D01*
X55892774Y-17413062D01*
X55881747Y-17409795D01*
X55821770Y-17397866D01*
X55808894Y-17399018D01*
X55804000Y-17414171D01*
X55296000Y-17414171D01*
X55296000Y-17411406D01*
X55292194Y-17398444D01*
X55277278Y-17396508D01*
X55248220Y-17401501D01*
X55237100Y-17404481D01*
X55043969Y-17475731D01*
X55033591Y-17480681D01*
X54856679Y-17585932D01*
X54847367Y-17592698D01*
X54692596Y-17728428D01*
X54684679Y-17736771D01*
X54557237Y-17898430D01*
X54550966Y-17908087D01*
X54455123Y-18090255D01*
X54450718Y-18100889D01*
X54395507Y-18278700D01*
X54395289Y-18292799D01*
X16757144Y-18292799D01*
X16711129Y-18129644D01*
X16709560Y-18124080D01*
X16692880Y-18090255D01*
X16615918Y-17934190D01*
X16615915Y-17934186D01*
X16613363Y-17929010D01*
X16509262Y-17789601D01*
X16486681Y-17759362D01*
X16486680Y-17759361D01*
X16483228Y-17754738D01*
X16478992Y-17750822D01*
X16327754Y-17611020D01*
X16327752Y-17611018D01*
X16323513Y-17607100D01*
X16139568Y-17491039D01*
X15937552Y-17410443D01*
X15931892Y-17409317D01*
X15931888Y-17409316D01*
X15729899Y-17369138D01*
X15729896Y-17369138D01*
X15724232Y-17368011D01*
X15718457Y-17367935D01*
X15718453Y-17367935D01*
X15609341Y-17366507D01*
X15506751Y-17365164D01*
X15501054Y-17366143D01*
X15501053Y-17366143D01*
X15298091Y-17401018D01*
X15292394Y-17401997D01*
X15088338Y-17477277D01*
X14901417Y-17588483D01*
X14897074Y-17592292D01*
X14879422Y-17607772D01*
X14815018Y-17637649D01*
X14744685Y-17627963D01*
X14690348Y-17581162D01*
X14667950Y-17546311D01*
X14667949Y-17546310D01*
X14663077Y-17538729D01*
X14656267Y-17532828D01*
X14559431Y-17448918D01*
X14559428Y-17448916D01*
X14552619Y-17443016D01*
X14544421Y-17439272D01*
X14427864Y-17386042D01*
X14427863Y-17386042D01*
X14419670Y-17382300D01*
X14410755Y-17381018D01*
X14410754Y-17381018D01*
X14279448Y-17362139D01*
X14279441Y-17362138D01*
X14275000Y-17361500D01*
X12925000Y-17361500D01*
X12851921Y-17366727D01*
X12845439Y-17368630D01*
X12845435Y-17368631D01*
X12822998Y-17375219D01*
X12752002Y-17375219D01*
X12692276Y-17336835D01*
X12662783Y-17272254D01*
X12672888Y-17201980D01*
X12697518Y-17166125D01*
X15288032Y-14523277D01*
X17226352Y-12545800D01*
X17288321Y-12511153D01*
X17316334Y-12508000D01*
X17608418Y-12508000D01*
X17676539Y-12528002D01*
G37*
%TD.AperFunction*%
%TA.AperFunction,Conductor*%
G36*
X14692933Y-25317165D02*
G01*
X14696258Y-25321869D01*
X14700400Y-25325904D01*
X14839844Y-25461745D01*
X14874681Y-25523607D01*
X14870544Y-25594483D01*
X14835002Y-25646728D01*
X14737893Y-25731891D01*
X14716237Y-25759362D01*
X14699688Y-25780354D01*
X14641807Y-25821467D01*
X14570887Y-25824761D01*
X14509444Y-25789190D01*
X14499780Y-25777737D01*
X14486313Y-25759703D01*
X14478611Y-25751149D01*
X14360586Y-25642047D01*
X14324141Y-25581119D01*
X14326422Y-25510159D01*
X14365546Y-25452649D01*
X14435959Y-25394087D01*
X14435964Y-25394082D01*
X14440396Y-25390396D01*
X14444082Y-25385964D01*
X14444087Y-25385959D01*
X14500252Y-25318428D01*
X14559189Y-25278844D01*
X14630171Y-25277408D01*
X14692933Y-25317165D01*
G37*
%TD.AperFunction*%
%TA.AperFunction,Conductor*%
G36*
X14693262Y-23316777D02*
G01*
X14700777Y-23325576D01*
X14840219Y-23461415D01*
X14875056Y-23523277D01*
X14870919Y-23594153D01*
X14835375Y-23646400D01*
X14742238Y-23728080D01*
X14742235Y-23728083D01*
X14737893Y-23731891D01*
X14716237Y-23759362D01*
X14700007Y-23779949D01*
X14642126Y-23821062D01*
X14571205Y-23824356D01*
X14509763Y-23788784D01*
X14500108Y-23777343D01*
X14483228Y-23754738D01*
X14478991Y-23750821D01*
X14478987Y-23750817D01*
X14360973Y-23641727D01*
X14324527Y-23580799D01*
X14326807Y-23509839D01*
X14365932Y-23452328D01*
X14435959Y-23394087D01*
X14435964Y-23394082D01*
X14440396Y-23390396D01*
X14444082Y-23385964D01*
X14444087Y-23385959D01*
X14500576Y-23318038D01*
X14559513Y-23278454D01*
X14630495Y-23277017D01*
X14693262Y-23316777D01*
G37*
%TD.AperFunction*%
%TD*%
M02*
