%TF.GenerationSoftware,KiCad,Pcbnew,(5.99.0-10369-gb59bf064b4)*%
%TF.CreationDate,2021-07-27T07:29:01+02:00*%
%TF.ProjectId,stm32h7,73746d33-3268-4372-9e6b-696361645f70,rev?*%
%TF.SameCoordinates,Original*%
%TF.FileFunction,Copper,L4,Bot*%
%TF.FilePolarity,Positive*%
%FSLAX46Y46*%
G04 Gerber Fmt 4.6, Leading zero omitted, Abs format (unit mm)*
G04 Created by KiCad (PCBNEW (5.99.0-10369-gb59bf064b4)) date 2021-07-27 07:29:01*
%MOMM*%
%LPD*%
G01*
G04 APERTURE LIST*
G04 Aperture macros list*
%AMRoundRect*
0 Rectangle with rounded corners*
0 $1 Rounding radius*
0 $2 $3 $4 $5 $6 $7 $8 $9 X,Y pos of 4 corners*
0 Add a 4 corners polygon primitive as box body*
4,1,4,$2,$3,$4,$5,$6,$7,$8,$9,$2,$3,0*
0 Add four circle primitives for the rounded corners*
1,1,$1+$1,$2,$3*
1,1,$1+$1,$4,$5*
1,1,$1+$1,$6,$7*
1,1,$1+$1,$8,$9*
0 Add four rect primitives between the rounded corners*
20,1,$1+$1,$2,$3,$4,$5,0*
20,1,$1+$1,$4,$5,$6,$7,0*
20,1,$1+$1,$6,$7,$8,$9,0*
20,1,$1+$1,$8,$9,$2,$3,0*%
%AMHorizOval*
0 Thick line with rounded ends*
0 $1 width*
0 $2 $3 position (X,Y) of the first rounded end (center of the circle)*
0 $4 $5 position (X,Y) of the second rounded end (center of the circle)*
0 Add line between two ends*
20,1,$1,$2,$3,$4,$5,0*
0 Add two circle primitives to create the rounded ends*
1,1,$1,$2,$3*
1,1,$1,$4,$5*%
%AMRotRect*
0 Rectangle, with rotation*
0 The origin of the aperture is its center*
0 $1 length*
0 $2 width*
0 $3 Rotation angle, in degrees counterclockwise*
0 Add horizontal line*
21,1,$1,$2,0,0,$3*%
G04 Aperture macros list end*
%TA.AperFunction,ComponentPad*%
%ADD10R,1.350000X1.350000*%
%TD*%
%TA.AperFunction,ComponentPad*%
%ADD11O,1.350000X1.350000*%
%TD*%
%TA.AperFunction,ComponentPad*%
%ADD12RotRect,1.700000X1.700000X45.000000*%
%TD*%
%TA.AperFunction,ComponentPad*%
%ADD13HorizOval,1.700000X0.000000X0.000000X0.000000X0.000000X0*%
%TD*%
%TA.AperFunction,ComponentPad*%
%ADD14RotRect,1.350000X1.350000X135.000000*%
%TD*%
%TA.AperFunction,ComponentPad*%
%ADD15HorizOval,1.350000X0.000000X0.000000X0.000000X0.000000X0*%
%TD*%
%TA.AperFunction,SMDPad,CuDef*%
%ADD16RoundRect,0.200000X0.200000X0.275000X-0.200000X0.275000X-0.200000X-0.275000X0.200000X-0.275000X0*%
%TD*%
%TA.AperFunction,SMDPad,CuDef*%
%ADD17RoundRect,0.225000X-0.225000X-0.250000X0.225000X-0.250000X0.225000X0.250000X-0.225000X0.250000X0*%
%TD*%
%TA.AperFunction,SMDPad,CuDef*%
%ADD18RoundRect,0.225000X0.250000X-0.225000X0.250000X0.225000X-0.250000X0.225000X-0.250000X-0.225000X0*%
%TD*%
%TA.AperFunction,SMDPad,CuDef*%
%ADD19RoundRect,0.225000X0.225000X0.250000X-0.225000X0.250000X-0.225000X-0.250000X0.225000X-0.250000X0*%
%TD*%
%TA.AperFunction,SMDPad,CuDef*%
%ADD20RoundRect,0.225000X-0.250000X0.225000X-0.250000X-0.225000X0.250000X-0.225000X0.250000X0.225000X0*%
%TD*%
%TA.AperFunction,SMDPad,CuDef*%
%ADD21RoundRect,0.200000X0.275000X-0.200000X0.275000X0.200000X-0.275000X0.200000X-0.275000X-0.200000X0*%
%TD*%
%TA.AperFunction,SMDPad,CuDef*%
%ADD22RoundRect,0.140000X0.140000X0.170000X-0.140000X0.170000X-0.140000X-0.170000X0.140000X-0.170000X0*%
%TD*%
%TA.AperFunction,SMDPad,CuDef*%
%ADD23R,3.325000X2.400000*%
%TD*%
%TA.AperFunction,SMDPad,CuDef*%
%ADD24RoundRect,0.140000X-0.140000X-0.170000X0.140000X-0.170000X0.140000X0.170000X-0.140000X0.170000X0*%
%TD*%
%TA.AperFunction,ViaPad*%
%ADD25C,0.800000*%
%TD*%
%TA.AperFunction,Conductor*%
%ADD26C,0.250000*%
%TD*%
%TA.AperFunction,Conductor*%
%ADD27C,0.750000*%
%TD*%
%TA.AperFunction,Conductor*%
%ADD28C,1.000000*%
%TD*%
%TA.AperFunction,Conductor*%
%ADD29C,0.200000*%
%TD*%
G04 APERTURE END LIST*
D10*
%TO.P,J3,1,Pin_1*%
%TO.N,73*%
X57550000Y-52550000D03*
D11*
%TO.P,J3,2,Pin_2*%
%TO.N,74*%
X55550000Y-52550000D03*
%TO.P,J3,3,Pin_3*%
%TO.N,75*%
X57550000Y-50550000D03*
%TO.P,J3,4,Pin_4*%
%TO.N,76*%
X55550000Y-50550000D03*
%TO.P,J3,5,Pin_5*%
%TO.N,77*%
X57550000Y-48550000D03*
%TO.P,J3,6,Pin_6*%
%TO.N,78*%
X55550000Y-48550000D03*
%TO.P,J3,7,Pin_7*%
%TO.N,79*%
X57550000Y-46550000D03*
%TO.P,J3,8,Pin_8*%
%TO.N,80*%
X55550000Y-46550000D03*
%TO.P,J3,9,Pin_9*%
%TO.N,81*%
X57550000Y-44550000D03*
%TO.P,J3,10,Pin_10*%
%TO.N,82*%
X55550000Y-44550000D03*
%TO.P,J3,11,Pin_11*%
%TO.N,GND*%
X57550000Y-42550000D03*
%TO.P,J3,12,Pin_12*%
X55550000Y-42550000D03*
%TO.P,J3,13,Pin_13*%
%TO.N,85*%
X57550000Y-40550000D03*
%TO.P,J3,14,Pin_14*%
%TO.N,86*%
X55550000Y-40550000D03*
%TO.P,J3,15,Pin_15*%
%TO.N,87*%
X57550000Y-38550000D03*
%TO.P,J3,16,Pin_16*%
%TO.N,88*%
X55550000Y-38550000D03*
%TO.P,J3,17,Pin_17*%
%TO.N,89*%
X57550000Y-36550000D03*
%TO.P,J3,18,Pin_18*%
%TO.N,90*%
X55550000Y-36550000D03*
%TO.P,J3,19,Pin_19*%
%TO.N,91*%
X57550000Y-34550000D03*
%TO.P,J3,20,Pin_20*%
%TO.N,92*%
X55550000Y-34550000D03*
%TO.P,J3,21,Pin_21*%
%TO.N,93*%
X57550000Y-32550000D03*
%TO.P,J3,22,Pin_22*%
%TO.N,GND*%
X55550000Y-32550000D03*
%TO.P,J3,23,Pin_23*%
X57550000Y-30550000D03*
%TO.P,J3,24,Pin_24*%
%TO.N,96*%
X55550000Y-30550000D03*
%TO.P,J3,25,Pin_25*%
%TO.N,97*%
X57550000Y-28550000D03*
%TO.P,J3,26,Pin_26*%
%TO.N,98*%
X55550000Y-28550000D03*
%TO.P,J3,27,Pin_27*%
%TO.N,99*%
X57550000Y-26550000D03*
%TO.P,J3,28,Pin_28*%
%TO.N,100*%
X55550000Y-26550000D03*
%TO.P,J3,29,Pin_29*%
%TO.N,101*%
X57550000Y-24550000D03*
%TO.P,J3,30,Pin_30*%
%TO.N,102*%
X55550000Y-24550000D03*
%TO.P,J3,31,Pin_31*%
%TO.N,103*%
X57550000Y-22550000D03*
%TO.P,J3,32,Pin_32*%
%TO.N,104*%
X55550000Y-22550000D03*
%TO.P,J3,33,Pin_33*%
%TO.N,105*%
X57550000Y-20550000D03*
%TO.P,J3,34,Pin_34*%
%TO.N,GND*%
X55550000Y-20550000D03*
%TO.P,J3,35,Pin_35*%
X57550000Y-18550000D03*
%TO.P,J3,36,Pin_36*%
X55550000Y-18550000D03*
%TD*%
D10*
%TO.P,J2,1,Pin_1*%
%TO.N,37*%
X18590000Y-57550000D03*
D11*
%TO.P,J2,2,Pin_2*%
%TO.N,+3.3VA*%
X18590000Y-55550000D03*
%TO.P,J2,3,Pin_3*%
X20590000Y-57550000D03*
%TO.P,J2,4,Pin_4*%
%TO.N,40*%
X20590000Y-55550000D03*
%TO.P,J2,5,Pin_5*%
%TO.N,41*%
X22590000Y-57550000D03*
%TO.P,J2,6,Pin_6*%
%TO.N,42*%
X22590000Y-55550000D03*
%TO.P,J2,7,Pin_7*%
%TO.N,43*%
X24590000Y-57550000D03*
%TO.P,J2,8,Pin_8*%
%TO.N,44*%
X24590000Y-55550000D03*
%TO.P,J2,9,Pin_9*%
%TO.N,45*%
X26590000Y-57550000D03*
%TO.P,J2,10,Pin_10*%
%TO.N,46*%
X26590000Y-55550000D03*
%TO.P,J2,11,Pin_11*%
%TO.N,47*%
X28590000Y-57550000D03*
%TO.P,J2,12,Pin_12*%
%TO.N,48*%
X28590000Y-55550000D03*
%TO.P,J2,13,Pin_13*%
%TO.N,49*%
X30590000Y-57550000D03*
%TO.P,J2,14,Pin_14*%
%TO.N,50*%
X30590000Y-55550000D03*
%TO.P,J2,15,Pin_15*%
%TO.N,+3V3*%
X32590000Y-57550000D03*
%TO.P,J2,16,Pin_16*%
X32590000Y-55550000D03*
%TO.P,J2,17,Pin_17*%
%TO.N,53*%
X34590000Y-57550000D03*
%TO.P,J2,18,Pin_18*%
%TO.N,54*%
X34590000Y-55550000D03*
%TO.P,J2,19,Pin_19*%
%TO.N,55*%
X36590000Y-57550000D03*
%TO.P,J2,20,Pin_20*%
%TO.N,56*%
X36590000Y-55550000D03*
%TO.P,J2,21,Pin_21*%
%TO.N,57*%
X38590000Y-57550000D03*
%TO.P,J2,22,Pin_22*%
%TO.N,58*%
X38590000Y-55550000D03*
%TO.P,J2,23,Pin_23*%
%TO.N,59*%
X40590000Y-57550000D03*
%TO.P,J2,24,Pin_24*%
%TO.N,60*%
X40590000Y-55550000D03*
%TO.P,J2,25,Pin_25*%
%TO.N,GND*%
X42590000Y-57550000D03*
%TO.P,J2,26,Pin_26*%
X42590000Y-55550000D03*
%TO.P,J2,27,Pin_27*%
%TO.N,63*%
X44590000Y-57550000D03*
%TO.P,J2,28,Pin_28*%
%TO.N,64*%
X44590000Y-55550000D03*
%TO.P,J2,29,Pin_29*%
%TO.N,65*%
X46590000Y-57550000D03*
%TO.P,J2,30,Pin_30*%
%TO.N,66*%
X46590000Y-55550000D03*
%TO.P,J2,31,Pin_31*%
%TO.N,67*%
X48590000Y-57550000D03*
%TO.P,J2,32,Pin_32*%
%TO.N,68*%
X48590000Y-55550000D03*
%TO.P,J2,33,Pin_33*%
%TO.N,69*%
X50590000Y-57550000D03*
%TO.P,J2,34,Pin_34*%
%TO.N,70*%
X50590000Y-55550000D03*
%TO.P,J2,35,Pin_35*%
%TO.N,GND*%
X52590000Y-57550000D03*
%TO.P,J2,36,Pin_36*%
X52590000Y-55550000D03*
%TD*%
D12*
%TO.P,SW1,1,A*%
%TO.N,+3V3*%
X46350000Y-47300000D03*
D13*
%TO.P,SW1,2,B*%
%TO.N,Net-(R2-Pad1)*%
X48146051Y-49096051D03*
%TO.P,SW1,3,C*%
%TO.N,GND*%
X49942102Y-50892102D03*
%TD*%
D10*
%TO.P,J4,1,Pin_1*%
%TO.N,109*%
X52550000Y-13550000D03*
D11*
%TO.P,J4,2,Pin_2*%
%TO.N,110*%
X52550000Y-15550000D03*
%TO.P,J4,3,Pin_3*%
%TO.N,111*%
X50550000Y-13550000D03*
%TO.P,J4,4,Pin_4*%
%TO.N,112*%
X50550000Y-15550000D03*
%TO.P,J4,5,Pin_5*%
%TO.N,113*%
X48550000Y-13550000D03*
%TO.P,J4,6,Pin_6*%
%TO.N,114*%
X48550000Y-15550000D03*
%TO.P,J4,7,Pin_7*%
%TO.N,115*%
X46550000Y-13550000D03*
%TO.P,J4,8,Pin_8*%
%TO.N,116*%
X46550000Y-15550000D03*
%TO.P,J4,9,Pin_9*%
%TO.N,117*%
X44550000Y-13550000D03*
%TO.P,J4,10,Pin_10*%
%TO.N,118*%
X44550000Y-15550000D03*
%TO.P,J4,11,Pin_11*%
%TO.N,119*%
X42550000Y-13550000D03*
%TO.P,J4,12,Pin_12*%
%TO.N,+3V3*%
X42550000Y-15550000D03*
%TO.P,J4,13,Pin_13*%
X40550000Y-13550000D03*
%TO.P,J4,14,Pin_14*%
%TO.N,122*%
X40550000Y-15550000D03*
%TO.P,J4,15,Pin_15*%
%TO.N,123*%
X38550000Y-13550000D03*
%TO.P,J4,16,Pin_16*%
%TO.N,124*%
X38550000Y-15550000D03*
%TO.P,J4,17,Pin_17*%
%TO.N,125*%
X36550000Y-13550000D03*
%TO.P,J4,18,Pin_18*%
%TO.N,126*%
X36550000Y-15550000D03*
%TO.P,J4,19,Pin_19*%
%TO.N,127*%
X34550000Y-13550000D03*
%TO.P,J4,20,Pin_20*%
%TO.N,128*%
X34550000Y-15550000D03*
%TO.P,J4,21,Pin_21*%
%TO.N,129*%
X32550000Y-13550000D03*
%TO.P,J4,22,Pin_22*%
%TO.N,GND*%
X32550000Y-15550000D03*
%TO.P,J4,23,Pin_23*%
X30550000Y-13550000D03*
%TO.P,J4,24,Pin_24*%
%TO.N,132*%
X30550000Y-15550000D03*
%TO.P,J4,25,Pin_25*%
%TO.N,133*%
X28550000Y-13550000D03*
%TO.P,J4,26,Pin_26*%
%TO.N,134*%
X28550000Y-15550000D03*
%TO.P,J4,27,Pin_27*%
%TO.N,135*%
X26550000Y-13550000D03*
%TO.P,J4,28,Pin_28*%
%TO.N,136*%
X26550000Y-15550000D03*
%TO.P,J4,29,Pin_29*%
%TO.N,137*%
X24550000Y-13550000D03*
%TO.P,J4,30,Pin_30*%
%TO.N,GND*%
X24550000Y-15550000D03*
%TO.P,J4,31,Pin_31*%
%TO.N,139*%
X22550000Y-13550000D03*
%TO.P,J4,32,Pin_32*%
%TO.N,140*%
X22550000Y-15550000D03*
%TO.P,J4,33,Pin_33*%
%TO.N,141*%
X20550000Y-13550000D03*
%TO.P,J4,34,Pin_34*%
%TO.N,142*%
X20550000Y-15550000D03*
%TO.P,J4,35,Pin_35*%
%TO.N,+3.3VA*%
X18550000Y-13550000D03*
%TO.P,J4,36,Pin_36*%
X18550000Y-15550000D03*
%TD*%
D14*
%TO.P,J5,1,Pin_1*%
%TO.N,105*%
X18621573Y-52078428D03*
D15*
%TO.P,J5,2,Pin_2*%
%TO.N,109*%
X20035787Y-50664214D03*
%TO.P,J5,3,Pin_3*%
%TO.N,133*%
X21450000Y-49250001D03*
%TO.P,J5,4,Pin_4*%
%TO.N,110*%
X22864214Y-47835787D03*
%TO.P,J5,5,Pin_5*%
%TO.N,134*%
X24278427Y-46421574D03*
%TD*%
D10*
%TO.P,J1,1,Pin_1*%
%TO.N,1*%
X13600000Y-18550000D03*
D11*
%TO.P,J1,2,Pin_2*%
%TO.N,2*%
X15600000Y-18550000D03*
%TO.P,J1,3,Pin_3*%
%TO.N,3*%
X13600000Y-20550000D03*
%TO.P,J1,4,Pin_4*%
%TO.N,4*%
X15600000Y-20550000D03*
%TO.P,J1,5,Pin_5*%
%TO.N,5*%
X13600000Y-22550000D03*
%TO.P,J1,6,Pin_6*%
%TO.N,GND*%
X15600000Y-22550000D03*
%TO.P,J1,7,Pin_7*%
%TO.N,7*%
X13600000Y-24550000D03*
%TO.P,J1,8,Pin_8*%
%TO.N,+3V3*%
X15600000Y-24550000D03*
%TO.P,J1,9,Pin_9*%
%TO.N,GND*%
X13600000Y-26550000D03*
%TO.P,J1,10,Pin_10*%
%TO.N,10*%
X15600000Y-26550000D03*
%TO.P,J1,11,Pin_11*%
%TO.N,11*%
X13600000Y-28550000D03*
%TO.P,J1,12,Pin_12*%
%TO.N,12*%
X15600000Y-28550000D03*
%TO.P,J1,13,Pin_13*%
%TO.N,13*%
X13600000Y-30550000D03*
%TO.P,J1,14,Pin_14*%
%TO.N,14*%
X15600000Y-30550000D03*
%TO.P,J1,15,Pin_15*%
%TO.N,15*%
X13600000Y-32550000D03*
%TO.P,J1,16,Pin_16*%
%TO.N,GND*%
X15600000Y-32550000D03*
%TO.P,J1,17,Pin_17*%
X13600000Y-34550000D03*
%TO.P,J1,18,Pin_18*%
%TO.N,18*%
X15600000Y-34550000D03*
%TO.P,J1,19,Pin_19*%
%TO.N,19*%
X13600000Y-36550000D03*
%TO.P,J1,20,Pin_20*%
%TO.N,20*%
X15600000Y-36550000D03*
%TO.P,J1,21,Pin_21*%
%TO.N,21*%
X13600000Y-38550000D03*
%TO.P,J1,22,Pin_22*%
%TO.N,22*%
X15600000Y-38550000D03*
%TO.P,J1,23,Pin_23*%
%TO.N,23*%
X13600000Y-40550000D03*
%TO.P,J1,24,Pin_24*%
%TO.N,24*%
X15600000Y-40550000D03*
%TO.P,J1,25,Pin_25*%
%TO.N,25*%
X13600000Y-42550000D03*
%TO.P,J1,26,Pin_26*%
%TO.N,26*%
X15600000Y-42550000D03*
%TO.P,J1,27,Pin_27*%
%TO.N,27*%
X13600000Y-44550000D03*
%TO.P,J1,28,Pin_28*%
%TO.N,28*%
X15600000Y-44550000D03*
%TO.P,J1,29,Pin_29*%
%TO.N,29*%
X13600000Y-46550000D03*
%TO.P,J1,30,Pin_30*%
%TO.N,+3V3*%
X15600000Y-46550000D03*
%TO.P,J1,31,Pin_31*%
X13600000Y-48550000D03*
%TO.P,J1,32,Pin_32*%
%TO.N,GND*%
X15600000Y-48550000D03*
%TO.P,J1,33,Pin_33*%
X13600000Y-50550000D03*
%TO.P,J1,34,Pin_34*%
%TO.N,34*%
X15600000Y-50550000D03*
%TO.P,J1,35,Pin_35*%
%TO.N,35*%
X13600000Y-52550000D03*
%TO.P,J1,36,Pin_36*%
%TO.N,36*%
X15600000Y-52550000D03*
%TD*%
D16*
%TO.P,R1,1*%
%TO.N,Net-(C4-Pad2)*%
X31425000Y-32050000D03*
%TO.P,R1,2*%
%TO.N,/HSE_OUT*%
X29775000Y-32050000D03*
%TD*%
%TO.P,R2,1*%
%TO.N,Net-(R2-Pad1)*%
X39425000Y-32050000D03*
%TO.P,R2,2*%
%TO.N,Net-(R2-Pad2)*%
X37775000Y-32050000D03*
%TD*%
D17*
%TO.P,C10,1*%
%TO.N,GND*%
X40975000Y-25950000D03*
%TO.P,C10,2*%
%TO.N,Net-(C10-Pad2)*%
X42525000Y-25950000D03*
%TD*%
D18*
%TO.P,C12,1*%
%TO.N,+3.3VA*%
X19950000Y-42450000D03*
%TO.P,C12,2*%
%TO.N,GND*%
X19950000Y-40900000D03*
%TD*%
D19*
%TO.P,C16,1*%
%TO.N,+3V3*%
X36875000Y-43300000D03*
%TO.P,C16,2*%
%TO.N,GND*%
X35325000Y-43300000D03*
%TD*%
%TO.P,C17,1*%
%TO.N,+3V3*%
X41375000Y-41600000D03*
%TO.P,C17,2*%
%TO.N,GND*%
X39825000Y-41600000D03*
%TD*%
D17*
%TO.P,C7,1*%
%TO.N,+3V3*%
X27125000Y-25950000D03*
%TO.P,C7,2*%
%TO.N,GND*%
X28675000Y-25950000D03*
%TD*%
D20*
%TO.P,C18,1*%
%TO.N,+3V3*%
X44050000Y-31325000D03*
%TO.P,C18,2*%
%TO.N,GND*%
X44050000Y-32875000D03*
%TD*%
%TO.P,C1,1*%
%TO.N,+3V3*%
X47500000Y-24625000D03*
%TO.P,C1,2*%
%TO.N,GND*%
X47500000Y-26175000D03*
%TD*%
D21*
%TO.P,R3,1*%
%TO.N,25*%
X26550000Y-37025000D03*
%TO.P,R3,2*%
%TO.N,+3V3*%
X26550000Y-35375000D03*
%TD*%
D22*
%TO.P,C4,1*%
%TO.N,GND*%
X35480000Y-33350000D03*
%TO.P,C4,2*%
%TO.N,Net-(C4-Pad2)*%
X34520000Y-33350000D03*
%TD*%
D17*
%TO.P,C14,1*%
%TO.N,+3V3*%
X27275000Y-43200000D03*
%TO.P,C14,2*%
%TO.N,GND*%
X28825000Y-43200000D03*
%TD*%
%TO.P,C3,1*%
%TO.N,+3V3*%
X37175000Y-26000000D03*
%TO.P,C3,2*%
%TO.N,GND*%
X38725000Y-26000000D03*
%TD*%
D23*
%TO.P,Y1,1,1*%
%TO.N,Net-(C4-Pad2)*%
X35762500Y-39450000D03*
%TO.P,Y1,2,2*%
%TO.N,/HSE_IN*%
X30237500Y-39450000D03*
%TD*%
D24*
%TO.P,C2,1*%
%TO.N,GND*%
X29270000Y-41900000D03*
%TO.P,C2,2*%
%TO.N,/HSE_IN*%
X30230000Y-41900000D03*
%TD*%
D18*
%TO.P,C13,1*%
%TO.N,+3.3VA*%
X21750000Y-42450000D03*
%TO.P,C13,2*%
%TO.N,GND*%
X21750000Y-40900000D03*
%TD*%
D20*
%TO.P,C15,1*%
%TO.N,+3V3*%
X44050000Y-37175000D03*
%TO.P,C15,2*%
%TO.N,GND*%
X44050000Y-38725000D03*
%TD*%
D17*
%TO.P,C9,1*%
%TO.N,+3V3*%
X32325000Y-26000000D03*
%TO.P,C9,2*%
%TO.N,GND*%
X33875000Y-26000000D03*
%TD*%
D20*
%TO.P,C6,1*%
%TO.N,+3V3*%
X26400000Y-39825000D03*
%TO.P,C6,2*%
%TO.N,GND*%
X26400000Y-41375000D03*
%TD*%
D18*
%TO.P,C5,1*%
%TO.N,+3V3*%
X26550000Y-33875000D03*
%TO.P,C5,2*%
%TO.N,GND*%
X26550000Y-32325000D03*
%TD*%
D17*
%TO.P,C8,1*%
%TO.N,GND*%
X39825000Y-43100000D03*
%TO.P,C8,2*%
%TO.N,Net-(C8-Pad2)*%
X41375000Y-43100000D03*
%TD*%
D20*
%TO.P,C11,1*%
%TO.N,+3V3*%
X26550000Y-28925000D03*
%TO.P,C11,2*%
%TO.N,GND*%
X26550000Y-30475000D03*
%TD*%
D25*
%TO.N,/HSE_OUT*%
X29505378Y-30994622D03*
%TO.N,Net-(R2-Pad2)*%
X30100000Y-25150000D03*
%TO.N,+3V3*%
X37601360Y-24955425D03*
X27500000Y-35400000D03*
X25850000Y-28100000D03*
X41400000Y-41650000D03*
X43750000Y-46650000D03*
X44050000Y-31300000D03*
X25400000Y-23550000D03*
X33574500Y-46700000D03*
X44050000Y-37175000D03*
X25713352Y-33681741D03*
X47400000Y-24600000D03*
X27425000Y-43200000D03*
X38400000Y-43350000D03*
X32550000Y-25000000D03*
X26300000Y-39850000D03*
X26900000Y-24950000D03*
%TO.N,25*%
X26000000Y-38350000D03*
%TO.N,GND*%
X44050000Y-32900000D03*
X38574500Y-46500000D03*
X27400000Y-30500000D03*
X36700000Y-33350000D03*
X33350000Y-43600000D03*
X34850000Y-26050000D03*
X28700000Y-26750000D03*
X44050000Y-38725000D03*
X25774500Y-32634163D03*
X39850000Y-26000000D03*
X26400000Y-41400000D03*
X22850000Y-40274500D03*
X33100000Y-21500000D03*
X39825000Y-41550000D03*
X47500000Y-26150000D03*
%TO.N,+3.3VA*%
X21050000Y-43500000D03*
%TO.N,Net-(C8-Pad2)*%
X42950000Y-43350000D03*
%TO.N,Net-(C10-Pad2)*%
X43400000Y-26000000D03*
%TO.N,/HSE_IN*%
X30300000Y-36950000D03*
%TD*%
D26*
%TO.N,Net-(C4-Pad2)*%
X34520000Y-33350000D02*
X34520000Y-38207500D01*
X33220000Y-32050000D02*
X34520000Y-33350000D01*
X31425000Y-32050000D02*
X33220000Y-32050000D01*
X34520000Y-38207500D02*
X35762500Y-39450000D01*
%TO.N,/HSE_OUT*%
X29505378Y-30994622D02*
X29505378Y-31780378D01*
X29505378Y-31780378D02*
X29775000Y-32050000D01*
%TO.N,Net-(R2-Pad1)*%
X39425000Y-32050000D02*
X40500000Y-32050000D01*
X48389394Y-46339394D02*
X48389394Y-49389394D01*
X42000000Y-33550000D02*
X42000000Y-39950000D01*
X42000000Y-39950000D02*
X48389394Y-46339394D01*
X40500000Y-32050000D02*
X42000000Y-33550000D01*
%TO.N,Net-(R2-Pad2)*%
X30100000Y-28650000D02*
X30100000Y-25150000D01*
X31700000Y-30250000D02*
X30100000Y-28650000D01*
X37775000Y-32050000D02*
X35900000Y-32050000D01*
X35900000Y-32050000D02*
X34100000Y-30250000D01*
X34100000Y-30250000D02*
X31700000Y-30250000D01*
%TO.N,+3V3*%
X36875000Y-43300000D02*
X38350000Y-43300000D01*
X26400000Y-39825000D02*
X26400000Y-39500000D01*
X26900000Y-24950000D02*
X26900000Y-25725000D01*
X26375000Y-39850000D02*
X26400000Y-39825000D01*
X32550000Y-25775000D02*
X32325000Y-26000000D01*
X26300000Y-39850000D02*
X26375000Y-39850000D01*
X37175000Y-25381785D02*
X37601360Y-24955425D01*
X26950000Y-25775000D02*
X27125000Y-25950000D01*
X25713352Y-33681741D02*
X26356741Y-33681741D01*
X26356741Y-33681741D02*
X26550000Y-33875000D01*
X15600000Y-46550000D02*
X15600000Y-46029277D01*
X26400000Y-39825000D02*
X26525000Y-39825000D01*
X26550000Y-35375000D02*
X27475000Y-35375000D01*
X32550000Y-25000000D02*
X32550000Y-25775000D01*
X25850000Y-28100000D02*
X25850000Y-28225000D01*
X25850000Y-28225000D02*
X26550000Y-28925000D01*
X37175000Y-26000000D02*
X37175000Y-25381785D01*
X26550000Y-28925000D02*
X26550000Y-28750000D01*
X26575000Y-39825000D02*
X26400000Y-39825000D01*
X26550000Y-33875000D02*
X26550000Y-35375000D01*
X38350000Y-43300000D02*
X38400000Y-43350000D01*
X26900000Y-25725000D02*
X27125000Y-25950000D01*
X26550000Y-35375000D02*
X26675000Y-35375000D01*
X27475000Y-35375000D02*
X27500000Y-35400000D01*
%TO.N,24*%
X15950000Y-40900000D02*
X15600000Y-40550000D01*
%TO.N,25*%
X13600000Y-42650000D02*
X13600000Y-42550000D01*
X26550000Y-37800000D02*
X26550000Y-37025000D01*
X26000000Y-38350000D02*
X26550000Y-37800000D01*
%TO.N,GND*%
X35480000Y-33350000D02*
X36700000Y-33350000D01*
X25774500Y-32634163D02*
X26083663Y-32325000D01*
X28675000Y-26725000D02*
X28700000Y-26750000D01*
X24550000Y-15550000D02*
X25070723Y-15550000D01*
X39900000Y-43025000D02*
X39825000Y-43100000D01*
X33875000Y-26000000D02*
X34800000Y-26000000D01*
X40975000Y-25950000D02*
X39900000Y-25950000D01*
X26550000Y-30475000D02*
X27375000Y-30475000D01*
X34800000Y-26000000D02*
X34850000Y-26050000D01*
X22850000Y-40274500D02*
X22224500Y-40900000D01*
X28675000Y-25950000D02*
X28675000Y-26725000D01*
X33650000Y-43300000D02*
X33350000Y-43600000D01*
X22224500Y-40900000D02*
X21750000Y-40900000D01*
X26900000Y-41900000D02*
X26400000Y-41400000D01*
X35325000Y-43300000D02*
X33650000Y-43300000D01*
X26083663Y-32325000D02*
X26550000Y-32325000D01*
X40925000Y-26000000D02*
X40975000Y-25950000D01*
X38725000Y-26000000D02*
X39850000Y-26000000D01*
X47500000Y-26150000D02*
X47500000Y-26125000D01*
X29270000Y-42905000D02*
X28975000Y-43200000D01*
X29270000Y-41900000D02*
X26900000Y-41900000D01*
X19950000Y-40900000D02*
X21750000Y-40900000D01*
X27375000Y-30475000D02*
X27400000Y-30500000D01*
D27*
X39825000Y-41550000D02*
X39825000Y-43100000D01*
D26*
X39900000Y-25950000D02*
X39850000Y-26000000D01*
X29270000Y-41900000D02*
X29270000Y-42905000D01*
%TO.N,+3.3VA*%
X20590000Y-57550000D02*
X18590000Y-55550000D01*
D27*
X19950000Y-42450000D02*
X21750000Y-42450000D01*
X19500000Y-42450000D02*
X18550000Y-41500000D01*
X21050000Y-43500000D02*
X21000000Y-43500000D01*
X19950000Y-42450000D02*
X19500000Y-42450000D01*
X21050000Y-43500000D02*
X21050000Y-43150000D01*
X18590000Y-55550000D02*
X16849511Y-53809511D01*
X16849511Y-43200489D02*
X18550000Y-41500000D01*
X16849511Y-53809511D02*
X16849511Y-43200489D01*
X21050000Y-43150000D02*
X21750000Y-42450000D01*
X21000000Y-43500000D02*
X19950000Y-42450000D01*
X18550000Y-41500000D02*
X18550000Y-15550000D01*
D28*
X18550000Y-13550000D02*
X18550000Y-15550000D01*
D26*
%TO.N,Net-(C8-Pad2)*%
X42700000Y-43100000D02*
X41375000Y-43100000D01*
X42950000Y-43350000D02*
X42700000Y-43100000D01*
%TO.N,105*%
X21964282Y-51850000D02*
X24414282Y-54300000D01*
X55070723Y-21550000D02*
X56550000Y-21550000D01*
X24414282Y-54300000D02*
X50101815Y-54300000D01*
X56550000Y-21550000D02*
X57550000Y-20550000D01*
X50101815Y-54300000D02*
X54050000Y-50351815D01*
X18621573Y-52078428D02*
X18850001Y-51850000D01*
X54050000Y-50351815D02*
X54050000Y-22570723D01*
X18850001Y-51850000D02*
X21964282Y-51850000D01*
X54050000Y-22570723D02*
X55070723Y-21550000D01*
%TO.N,Net-(C10-Pad2)*%
X43400000Y-26000000D02*
X43350000Y-25950000D01*
X43350000Y-25950000D02*
X42525000Y-25950000D01*
%TO.N,109*%
X49915617Y-53850480D02*
X53479899Y-50286198D01*
X53600480Y-49793221D02*
X53600480Y-14600480D01*
X24600480Y-53850480D02*
X49915617Y-53850480D01*
X53479899Y-49913802D02*
X53600480Y-49793221D01*
X53600480Y-14600480D02*
X52550000Y-13550000D01*
X21414214Y-50664214D02*
X24600480Y-53850480D01*
X53479899Y-50286198D02*
X53479899Y-49913802D01*
X20035787Y-50664214D02*
X21414214Y-50664214D01*
%TO.N,110*%
X53150960Y-49607023D02*
X53150960Y-16150960D01*
X53030379Y-49727604D02*
X53150960Y-49607023D01*
X22550000Y-51164282D02*
X24786678Y-53400960D01*
X53150960Y-16150960D02*
X52550000Y-15550000D01*
X22864214Y-47835787D02*
X22550000Y-48150001D01*
X24786678Y-53400960D02*
X49729419Y-53400960D01*
X49729419Y-53400960D02*
X53030379Y-50100000D01*
X53030379Y-50100000D02*
X53030379Y-49727604D01*
X22550000Y-48150001D02*
X22550000Y-51164282D01*
%TO.N,133*%
X27550000Y-19050000D02*
X27550000Y-14550000D01*
X23828907Y-22771093D02*
X27550000Y-19050000D01*
X27550000Y-14550000D02*
X28550000Y-13550000D01*
X21450000Y-47500000D02*
X23828907Y-45121093D01*
X23828907Y-45121093D02*
X23828907Y-22771093D01*
X21450000Y-49250001D02*
X21450000Y-47500000D01*
%TO.N,134*%
X24278427Y-46421574D02*
X24278427Y-22957290D01*
X24278427Y-22957290D02*
X28550000Y-18685717D01*
X28550000Y-18685717D02*
X28550000Y-15550000D01*
D29*
%TO.N,/HSE_IN*%
X30230000Y-41900000D02*
X30230000Y-39457500D01*
X30237500Y-37012500D02*
X30237500Y-39450000D01*
X30230000Y-39457500D02*
X30237500Y-39450000D01*
X30300000Y-36950000D02*
X30237500Y-37012500D01*
%TD*%
M02*
