M48
; DRILL file {KiCad (5.99.0-10369-gb59bf064b4)} date Tuesday, July 27, 2021 at 08:06:31 AM
; FORMAT={-:-/ absolute / inch / decimal}
; #@! TF.CreationDate,2021-07-27T08:06:31+02:00
; #@! TF.GenerationSoftware,Kicad,Pcbnew,(5.99.0-10369-gb59bf064b4)
; #@! TF.FileFunction,Plated,1,4,PTH
FMAT,2
INCH
; #@! TA.AperFunction,Plated,PTH,ViaDrill
T1C0.0157
; #@! TA.AperFunction,Plated,PTH,ComponentDrill
T2C0.0315
; #@! TA.AperFunction,Plated,PTH,ComponentDrill
T3C0.0394
%
G90
G05
T1
X0.8287Y-1.7126
X0.8996Y-1.5856
X1.0Y-0.9272
X1.0236Y-1.5098
X1.0354Y-1.5689
X1.0394Y-1.6299
X1.0433Y-1.2717
X1.0433Y-1.3346
X1.0453Y-1.1162
X1.0453Y-1.1988
X1.0644Y-0.9843
X1.0797Y-1.7008
X1.0827Y-1.3937
X1.126Y-0.9843
X1.1407Y-1.7008
X1.1616Y-1.2203
X1.1929Y-1.4547
X1.1969Y-1.0039
X1.2736Y-0.9902
X1.3031Y-0.8465
X1.313Y-1.7165
X1.3218Y-1.8386
X1.3327Y-0.9921
X1.4449Y-1.313
X1.4626Y-1.0217
X1.5118Y-1.7067
X1.5187Y-1.8307
X1.5679Y-1.6358
X1.5689Y-1.0236
X1.6299Y-1.6398
X1.6909Y-1.7067
X1.7087Y-1.0236
X1.7224Y-1.8366
X1.7343Y-1.2323
X1.7343Y-1.2953
X1.7343Y-1.4636
X1.7343Y-1.5246
X1.8661Y-0.9685
X1.8701Y-1.0295
T2
X0.5354Y-0.7303
X0.5354Y-0.8091
X0.5354Y-0.8878
X0.5354Y-0.9665
X0.5354Y-1.0453
X0.5354Y-1.124
X0.5354Y-1.2028
X0.5354Y-1.2815
X0.5354Y-1.3602
X0.5354Y-1.439
X0.5354Y-1.5177
X0.5354Y-1.5965
X0.5354Y-1.6752
X0.5354Y-1.7539
X0.5354Y-1.8327
X0.5354Y-1.9114
X0.5354Y-1.9902
X0.5354Y-2.0689
X0.6142Y-0.7303
X0.6142Y-0.8091
X0.6142Y-0.8878
X0.6142Y-0.9665
X0.6142Y-1.0453
X0.6142Y-1.124
X0.6142Y-1.2028
X0.6142Y-1.2815
X0.6142Y-1.3602
X0.6142Y-1.439
X0.6142Y-1.5177
X0.6142Y-1.5965
X0.6142Y-1.6752
X0.6142Y-1.7539
X0.6142Y-1.8327
X0.6142Y-1.9114
X0.6142Y-1.9902
X0.6142Y-2.0689
X0.7303Y-0.5335
X0.7303Y-0.6122
X0.7319Y-2.187
X0.7319Y-2.2657
X0.7331Y-2.0503
X0.7888Y-1.9947
X0.8091Y-0.5335
X0.8091Y-0.6122
X0.8106Y-2.187
X0.8106Y-2.2657
X0.8445Y-1.939
X0.8878Y-0.5335
X0.8878Y-0.6122
X0.8894Y-2.187
X0.8894Y-2.2657
X0.9002Y-1.8833
X0.9558Y-1.8276
X0.9665Y-0.5335
X0.9665Y-0.6122
X0.9681Y-2.187
X0.9681Y-2.2657
X1.0453Y-0.5335
X1.0453Y-0.6122
X1.0469Y-2.187
X1.0469Y-2.2657
X1.124Y-0.5335
X1.124Y-0.6122
X1.1256Y-2.187
X1.1256Y-2.2657
X1.2028Y-0.5335
X1.2028Y-0.6122
X1.2043Y-2.187
X1.2043Y-2.2657
X1.2815Y-0.5335
X1.2815Y-0.6122
X1.2831Y-2.187
X1.2831Y-2.2657
X1.3602Y-0.5335
X1.3602Y-0.6122
X1.3618Y-2.187
X1.3618Y-2.2657
X1.439Y-0.5335
X1.439Y-0.6122
X1.4406Y-2.187
X1.4406Y-2.2657
X1.5177Y-0.5335
X1.5177Y-0.6122
X1.5193Y-2.187
X1.5193Y-2.2657
X1.5965Y-0.5335
X1.5965Y-0.6122
X1.598Y-2.187
X1.598Y-2.2657
X1.6752Y-0.5335
X1.6752Y-0.6122
X1.6768Y-2.187
X1.6768Y-2.2657
X1.7539Y-0.5335
X1.7539Y-0.6122
X1.7555Y-2.187
X1.7555Y-2.2657
X1.8327Y-0.5335
X1.8327Y-0.6122
X1.8343Y-2.187
X1.8343Y-2.2657
X1.9114Y-0.5335
X1.9114Y-0.6122
X1.913Y-2.187
X1.913Y-2.2657
X1.9902Y-0.5335
X1.9902Y-0.6122
X1.9917Y-2.187
X1.9917Y-2.2657
X2.0689Y-0.5335
X2.0689Y-0.6122
X2.0705Y-2.187
X2.0705Y-2.2657
X2.187Y-0.7303
X2.187Y-0.8091
X2.187Y-0.8878
X2.187Y-0.9665
X2.187Y-1.0453
X2.187Y-1.124
X2.187Y-1.2028
X2.187Y-1.2815
X2.187Y-1.3602
X2.187Y-1.439
X2.187Y-1.5177
X2.187Y-1.5965
X2.187Y-1.6752
X2.187Y-1.7539
X2.187Y-1.8327
X2.187Y-1.9114
X2.187Y-1.9902
X2.187Y-2.0689
X2.2657Y-0.7303
X2.2657Y-0.8091
X2.2657Y-0.8878
X2.2657Y-0.9665
X2.2657Y-1.0453
X2.2657Y-1.124
X2.2657Y-1.2028
X2.2657Y-1.2815
X2.2657Y-1.3602
X2.2657Y-1.439
X2.2657Y-1.5177
X2.2657Y-1.5965
X2.2657Y-1.6752
X2.2657Y-1.7539
X2.2657Y-1.8327
X2.2657Y-1.9114
X2.2657Y-1.9902
X2.2657Y-2.0689
T3
X1.8248Y-1.8622
X1.8955Y-1.9329
X1.9662Y-2.0036
T0
M30
