%TF.GenerationSoftware,KiCad,Pcbnew,(5.99.0-10369-gb59bf064b4)*%
%TF.CreationDate,2021-07-27T07:29:01+02:00*%
%TF.ProjectId,stm32h7,73746d33-3268-4372-9e6b-696361645f70,rev?*%
%TF.SameCoordinates,Original*%
%TF.FileFunction,Legend,Top*%
%TF.FilePolarity,Positive*%
%FSLAX46Y46*%
G04 Gerber Fmt 4.6, Leading zero omitted, Abs format (unit mm)*
G04 Created by KiCad (PCBNEW (5.99.0-10369-gb59bf064b4)) date 2021-07-27 07:29:01*
%MOMM*%
%LPD*%
G01*
G04 APERTURE LIST*
%ADD10C,0.150000*%
%ADD11C,0.120000*%
G04 APERTURE END LIST*
D10*
X28061904Y-50502380D02*
X28061904Y-49835714D01*
X28061904Y-49930952D02*
X28109523Y-49883333D01*
X28204761Y-49835714D01*
X28347619Y-49835714D01*
X28442857Y-49883333D01*
X28490476Y-49978571D01*
X28490476Y-50502380D01*
X28490476Y-49978571D02*
X28538095Y-49883333D01*
X28633333Y-49835714D01*
X28776190Y-49835714D01*
X28871428Y-49883333D01*
X28919047Y-49978571D01*
X28919047Y-50502380D01*
X29395238Y-49835714D02*
X29395238Y-50502380D01*
X29395238Y-49930952D02*
X29442857Y-49883333D01*
X29538095Y-49835714D01*
X29680952Y-49835714D01*
X29776190Y-49883333D01*
X29823809Y-49978571D01*
X29823809Y-50502380D01*
X30680952Y-50454761D02*
X30585714Y-50502380D01*
X30395238Y-50502380D01*
X30300000Y-50454761D01*
X30252380Y-50359523D01*
X30252380Y-49978571D01*
X30300000Y-49883333D01*
X30395238Y-49835714D01*
X30585714Y-49835714D01*
X30680952Y-49883333D01*
X30728571Y-49978571D01*
X30728571Y-50073809D01*
X30252380Y-50169047D01*
X31157142Y-50502380D02*
X31157142Y-49835714D01*
X31157142Y-49930952D02*
X31204761Y-49883333D01*
X31300000Y-49835714D01*
X31442857Y-49835714D01*
X31538095Y-49883333D01*
X31585714Y-49978571D01*
X31585714Y-50502380D01*
X31585714Y-49978571D02*
X31633333Y-49883333D01*
X31728571Y-49835714D01*
X31871428Y-49835714D01*
X31966666Y-49883333D01*
X32014285Y-49978571D01*
X32014285Y-50502380D01*
X32633333Y-50502380D02*
X32538095Y-50454761D01*
X32490476Y-50407142D01*
X32442857Y-50311904D01*
X32442857Y-50026190D01*
X32490476Y-49930952D01*
X32538095Y-49883333D01*
X32633333Y-49835714D01*
X32776190Y-49835714D01*
X32871428Y-49883333D01*
X32919047Y-49930952D01*
X32966666Y-50026190D01*
X32966666Y-50311904D01*
X32919047Y-50407142D01*
X32871428Y-50454761D01*
X32776190Y-50502380D01*
X32633333Y-50502380D01*
X33395238Y-49835714D02*
X33395238Y-50502380D01*
X33395238Y-49930952D02*
X33442857Y-49883333D01*
X33538095Y-49835714D01*
X33680952Y-49835714D01*
X33776190Y-49883333D01*
X33823809Y-49978571D01*
X33823809Y-50502380D01*
X34300000Y-50502380D02*
X34300000Y-49835714D01*
X34300000Y-49502380D02*
X34252380Y-49550000D01*
X34300000Y-49597619D01*
X34347619Y-49550000D01*
X34300000Y-49502380D01*
X34300000Y-49597619D01*
X35204761Y-50454761D02*
X35109523Y-50502380D01*
X34919047Y-50502380D01*
X34823809Y-50454761D01*
X34776190Y-50407142D01*
X34728571Y-50311904D01*
X34728571Y-50026190D01*
X34776190Y-49930952D01*
X34823809Y-49883333D01*
X34919047Y-49835714D01*
X35109523Y-49835714D01*
X35204761Y-49883333D01*
X36061904Y-50502380D02*
X36061904Y-49502380D01*
X36061904Y-50454761D02*
X35966666Y-50502380D01*
X35776190Y-50502380D01*
X35680952Y-50454761D01*
X35633333Y-50407142D01*
X35585714Y-50311904D01*
X35585714Y-50026190D01*
X35633333Y-49930952D01*
X35680952Y-49883333D01*
X35776190Y-49835714D01*
X35966666Y-49835714D01*
X36061904Y-49883333D01*
X36919047Y-50454761D02*
X36823809Y-50502380D01*
X36633333Y-50502380D01*
X36538095Y-50454761D01*
X36490476Y-50359523D01*
X36490476Y-49978571D01*
X36538095Y-49883333D01*
X36633333Y-49835714D01*
X36823809Y-49835714D01*
X36919047Y-49883333D01*
X36966666Y-49978571D01*
X36966666Y-50073809D01*
X36490476Y-50169047D01*
X37300000Y-49835714D02*
X37538095Y-50502380D01*
X37776190Y-49835714D01*
X38157142Y-50502380D02*
X38157142Y-49835714D01*
X38157142Y-49502380D02*
X38109523Y-49550000D01*
X38157142Y-49597619D01*
X38204761Y-49550000D01*
X38157142Y-49502380D01*
X38157142Y-49597619D01*
X39061904Y-50454761D02*
X38966666Y-50502380D01*
X38776190Y-50502380D01*
X38680952Y-50454761D01*
X38633333Y-50407142D01*
X38585714Y-50311904D01*
X38585714Y-50026190D01*
X38633333Y-49930952D01*
X38680952Y-49883333D01*
X38776190Y-49835714D01*
X38966666Y-49835714D01*
X39061904Y-49883333D01*
X39871428Y-50454761D02*
X39776190Y-50502380D01*
X39585714Y-50502380D01*
X39490476Y-50454761D01*
X39442857Y-50359523D01*
X39442857Y-49978571D01*
X39490476Y-49883333D01*
X39585714Y-49835714D01*
X39776190Y-49835714D01*
X39871428Y-49883333D01*
X39919047Y-49978571D01*
X39919047Y-50073809D01*
X39442857Y-50169047D01*
X40299999Y-50454761D02*
X40395238Y-50502380D01*
X40585714Y-50502380D01*
X40680952Y-50454761D01*
X40728571Y-50359523D01*
X40728571Y-50311904D01*
X40680952Y-50216666D01*
X40585714Y-50169047D01*
X40442857Y-50169047D01*
X40347619Y-50121428D01*
X40299999Y-50026190D01*
X40299999Y-49978571D01*
X40347619Y-49883333D01*
X40442857Y-49835714D01*
X40585714Y-49835714D01*
X40680952Y-49883333D01*
X41157142Y-50407142D02*
X41204761Y-50454761D01*
X41157142Y-50502380D01*
X41109523Y-50454761D01*
X41157142Y-50407142D01*
X41157142Y-50502380D01*
X41633333Y-50502380D02*
X41633333Y-49835714D01*
X41633333Y-49502380D02*
X41585714Y-49550000D01*
X41633333Y-49597619D01*
X41680952Y-49550000D01*
X41633333Y-49502380D01*
X41633333Y-49597619D01*
X42252380Y-50502380D02*
X42157142Y-50454761D01*
X42109523Y-50407142D01*
X42061904Y-50311904D01*
X42061904Y-50026190D01*
X42109523Y-49930952D01*
X42157142Y-49883333D01*
X42252380Y-49835714D01*
X42395238Y-49835714D01*
X42490476Y-49883333D01*
X42538095Y-49930952D01*
X42585714Y-50026190D01*
X42585714Y-50311904D01*
X42538095Y-50407142D01*
X42490476Y-50454761D01*
X42395238Y-50502380D01*
X42252380Y-50502380D01*
X27533333Y-19104761D02*
X27628571Y-19152380D01*
X27819047Y-19152380D01*
X27914285Y-19104761D01*
X27961904Y-19009523D01*
X27961904Y-18961904D01*
X27914285Y-18866666D01*
X27819047Y-18819047D01*
X27676190Y-18819047D01*
X27580952Y-18771428D01*
X27533333Y-18676190D01*
X27533333Y-18628571D01*
X27580952Y-18533333D01*
X27676190Y-18485714D01*
X27819047Y-18485714D01*
X27914285Y-18533333D01*
X28247619Y-18485714D02*
X28628571Y-18485714D01*
X28390476Y-18152380D02*
X28390476Y-19009523D01*
X28438095Y-19104761D01*
X28533333Y-19152380D01*
X28628571Y-19152380D01*
X28961904Y-19152380D02*
X28961904Y-18485714D01*
X28961904Y-18580952D02*
X29009523Y-18533333D01*
X29104761Y-18485714D01*
X29247619Y-18485714D01*
X29342857Y-18533333D01*
X29390476Y-18628571D01*
X29390476Y-19152380D01*
X29390476Y-18628571D02*
X29438095Y-18533333D01*
X29533333Y-18485714D01*
X29676190Y-18485714D01*
X29771428Y-18533333D01*
X29819047Y-18628571D01*
X29819047Y-19152380D01*
X30200000Y-18152380D02*
X30819047Y-18152380D01*
X30485714Y-18533333D01*
X30628571Y-18533333D01*
X30723809Y-18580952D01*
X30771428Y-18628571D01*
X30819047Y-18723809D01*
X30819047Y-18961904D01*
X30771428Y-19057142D01*
X30723809Y-19104761D01*
X30628571Y-19152380D01*
X30342857Y-19152380D01*
X30247619Y-19104761D01*
X30200000Y-19057142D01*
X31200000Y-18247619D02*
X31247619Y-18200000D01*
X31342857Y-18152380D01*
X31580952Y-18152380D01*
X31676190Y-18200000D01*
X31723809Y-18247619D01*
X31771428Y-18342857D01*
X31771428Y-18438095D01*
X31723809Y-18580952D01*
X31152380Y-19152380D01*
X31771428Y-19152380D01*
X32200000Y-19152380D02*
X32200000Y-18152380D01*
X32628571Y-19152380D02*
X32628571Y-18628571D01*
X32580952Y-18533333D01*
X32485714Y-18485714D01*
X32342857Y-18485714D01*
X32247619Y-18533333D01*
X32200000Y-18580952D01*
X33009523Y-18152380D02*
X33676190Y-18152380D01*
X33247619Y-19152380D01*
X34009523Y-18247619D02*
X34057142Y-18200000D01*
X34152380Y-18152380D01*
X34390476Y-18152380D01*
X34485714Y-18200000D01*
X34533333Y-18247619D01*
X34580952Y-18342857D01*
X34580952Y-18438095D01*
X34533333Y-18580952D01*
X33961904Y-19152380D01*
X34580952Y-19152380D01*
X34914285Y-18152380D02*
X35533333Y-18152380D01*
X35200000Y-18533333D01*
X35342857Y-18533333D01*
X35438095Y-18580952D01*
X35485714Y-18628571D01*
X35533333Y-18723809D01*
X35533333Y-18961904D01*
X35485714Y-19057142D01*
X35438095Y-19104761D01*
X35342857Y-19152380D01*
X35057142Y-19152380D01*
X34961904Y-19104761D01*
X34914285Y-19057142D01*
X37200000Y-19152380D02*
X36723809Y-19152380D01*
X36723809Y-18152380D01*
X38200000Y-19247619D02*
X38104761Y-19200000D01*
X38009523Y-19104761D01*
X37866666Y-18961904D01*
X37771428Y-18914285D01*
X37676190Y-18914285D01*
X37723809Y-19152380D02*
X37628571Y-19104761D01*
X37533333Y-19009523D01*
X37485714Y-18819047D01*
X37485714Y-18485714D01*
X37533333Y-18295238D01*
X37628571Y-18200000D01*
X37723809Y-18152380D01*
X37914285Y-18152380D01*
X38009523Y-18200000D01*
X38104761Y-18295238D01*
X38152380Y-18485714D01*
X38152380Y-18819047D01*
X38104761Y-19009523D01*
X38009523Y-19104761D01*
X37914285Y-19152380D01*
X37723809Y-19152380D01*
X38914285Y-18628571D02*
X38580952Y-18628571D01*
X38580952Y-19152380D02*
X38580952Y-18152380D01*
X39057142Y-18152380D01*
X39438095Y-19152380D02*
X39438095Y-18152380D01*
X39819047Y-18152380D01*
X39914285Y-18200000D01*
X39961904Y-18247619D01*
X40009523Y-18342857D01*
X40009523Y-18485714D01*
X39961904Y-18580952D01*
X39914285Y-18628571D01*
X39819047Y-18676190D01*
X39438095Y-18676190D01*
X40961904Y-19152380D02*
X40390476Y-19152380D01*
X40676190Y-19152380D02*
X40676190Y-18152380D01*
X40580952Y-18295238D01*
X40485714Y-18390476D01*
X40390476Y-18438095D01*
X41819047Y-18485714D02*
X41819047Y-19152380D01*
X41580952Y-18104761D02*
X41342857Y-18819047D01*
X41961904Y-18819047D01*
X42771428Y-18485714D02*
X42771428Y-19152380D01*
X42533333Y-18104761D02*
X42295238Y-18819047D01*
X42914285Y-18819047D01*
X34330952Y-20602380D02*
X34330952Y-20078571D01*
X34283333Y-19983333D01*
X34188095Y-19935714D01*
X33997619Y-19935714D01*
X33902380Y-19983333D01*
X34330952Y-20554761D02*
X34235714Y-20602380D01*
X33997619Y-20602380D01*
X33902380Y-20554761D01*
X33854761Y-20459523D01*
X33854761Y-20364285D01*
X33902380Y-20269047D01*
X33997619Y-20221428D01*
X34235714Y-20221428D01*
X34330952Y-20173809D01*
X35235714Y-20602380D02*
X35235714Y-19602380D01*
X35235714Y-20554761D02*
X35140476Y-20602380D01*
X34950000Y-20602380D01*
X34854761Y-20554761D01*
X34807142Y-20507142D01*
X34759523Y-20411904D01*
X34759523Y-20126190D01*
X34807142Y-20030952D01*
X34854761Y-19983333D01*
X34950000Y-19935714D01*
X35140476Y-19935714D01*
X35235714Y-19983333D01*
X36140476Y-20602380D02*
X36140476Y-20078571D01*
X36092857Y-19983333D01*
X35997619Y-19935714D01*
X35807142Y-19935714D01*
X35711904Y-19983333D01*
X36140476Y-20554761D02*
X36045238Y-20602380D01*
X35807142Y-20602380D01*
X35711904Y-20554761D01*
X35664285Y-20459523D01*
X35664285Y-20364285D01*
X35711904Y-20269047D01*
X35807142Y-20221428D01*
X36045238Y-20221428D01*
X36140476Y-20173809D01*
X36616666Y-19935714D02*
X36616666Y-20935714D01*
X36616666Y-19983333D02*
X36711904Y-19935714D01*
X36902380Y-19935714D01*
X36997619Y-19983333D01*
X37045238Y-20030952D01*
X37092857Y-20126190D01*
X37092857Y-20411904D01*
X37045238Y-20507142D01*
X36997619Y-20554761D01*
X36902380Y-20602380D01*
X36711904Y-20602380D01*
X36616666Y-20554761D01*
X37378571Y-19935714D02*
X37759523Y-19935714D01*
X37521428Y-19602380D02*
X37521428Y-20459523D01*
X37569047Y-20554761D01*
X37664285Y-20602380D01*
X37759523Y-20602380D01*
X38473809Y-20554761D02*
X38378571Y-20602380D01*
X38188095Y-20602380D01*
X38092857Y-20554761D01*
X38045238Y-20459523D01*
X38045238Y-20078571D01*
X38092857Y-19983333D01*
X38188095Y-19935714D01*
X38378571Y-19935714D01*
X38473809Y-19983333D01*
X38521428Y-20078571D01*
X38521428Y-20173809D01*
X38045238Y-20269047D01*
X38950000Y-20602380D02*
X38950000Y-19935714D01*
X38950000Y-20126190D02*
X38997619Y-20030952D01*
X39045238Y-19983333D01*
X39140476Y-19935714D01*
X39235714Y-19935714D01*
X40235714Y-19935714D02*
X40473809Y-20602380D01*
X40711904Y-19935714D01*
X41283333Y-19602380D02*
X41378571Y-19602380D01*
X41473809Y-19650000D01*
X41521428Y-19697619D01*
X41569047Y-19792857D01*
X41616666Y-19983333D01*
X41616666Y-20221428D01*
X41569047Y-20411904D01*
X41521428Y-20507142D01*
X41473809Y-20554761D01*
X41378571Y-20602380D01*
X41283333Y-20602380D01*
X41188095Y-20554761D01*
X41140476Y-20507142D01*
X41092857Y-20411904D01*
X41045238Y-20221428D01*
X41045238Y-19983333D01*
X41092857Y-19792857D01*
X41140476Y-19697619D01*
X41188095Y-19650000D01*
X41283333Y-19602380D01*
X42045238Y-20507142D02*
X42092857Y-20554761D01*
X42045238Y-20602380D01*
X41997619Y-20554761D01*
X42045238Y-20507142D01*
X42045238Y-20602380D01*
X43045238Y-20602380D02*
X42473809Y-20602380D01*
X42759523Y-20602380D02*
X42759523Y-19602380D01*
X42664285Y-19745238D01*
X42569047Y-19840476D01*
X42473809Y-19888095D01*
X30280952Y-27752380D02*
X30280952Y-28466666D01*
X30233333Y-28609523D01*
X30138095Y-28704761D01*
X29995238Y-28752380D01*
X29900000Y-28752380D01*
X31233333Y-28752380D02*
X30757142Y-28752380D01*
X30757142Y-27752380D01*
X32138095Y-28657142D02*
X32090476Y-28704761D01*
X31947619Y-28752380D01*
X31852380Y-28752380D01*
X31709523Y-28704761D01*
X31614285Y-28609523D01*
X31566666Y-28514285D01*
X31519047Y-28323809D01*
X31519047Y-28180952D01*
X31566666Y-27990476D01*
X31614285Y-27895238D01*
X31709523Y-27800000D01*
X31852380Y-27752380D01*
X31947619Y-27752380D01*
X32090476Y-27800000D01*
X32138095Y-27847619D01*
X32852380Y-27752380D02*
X32852380Y-28466666D01*
X32804761Y-28609523D01*
X32709523Y-28704761D01*
X32566666Y-28752380D01*
X32471428Y-28752380D01*
X33804761Y-28752380D02*
X33328571Y-28752380D01*
X33328571Y-27752380D01*
X34709523Y-28657142D02*
X34661904Y-28704761D01*
X34519047Y-28752380D01*
X34423809Y-28752380D01*
X34280952Y-28704761D01*
X34185714Y-28609523D01*
X34138095Y-28514285D01*
X34090476Y-28323809D01*
X34090476Y-28180952D01*
X34138095Y-27990476D01*
X34185714Y-27895238D01*
X34280952Y-27800000D01*
X34423809Y-27752380D01*
X34519047Y-27752380D01*
X34661904Y-27800000D01*
X34709523Y-27847619D01*
X35423809Y-27752380D02*
X35423809Y-28466666D01*
X35376190Y-28609523D01*
X35280952Y-28704761D01*
X35138095Y-28752380D01*
X35042857Y-28752380D01*
X36376190Y-28752380D02*
X35900000Y-28752380D01*
X35900000Y-27752380D01*
X37280952Y-28657142D02*
X37233333Y-28704761D01*
X37090476Y-28752380D01*
X36995238Y-28752380D01*
X36852380Y-28704761D01*
X36757142Y-28609523D01*
X36709523Y-28514285D01*
X36661904Y-28323809D01*
X36661904Y-28180952D01*
X36709523Y-27990476D01*
X36757142Y-27895238D01*
X36852380Y-27800000D01*
X36995238Y-27752380D01*
X37090476Y-27752380D01*
X37233333Y-27800000D01*
X37280952Y-27847619D01*
X37995238Y-27752380D02*
X37995238Y-28466666D01*
X37947619Y-28609523D01*
X37852380Y-28704761D01*
X37709523Y-28752380D01*
X37614285Y-28752380D01*
X38947619Y-28752380D02*
X38471428Y-28752380D01*
X38471428Y-27752380D01*
X39852380Y-28657142D02*
X39804761Y-28704761D01*
X39661904Y-28752380D01*
X39566666Y-28752380D01*
X39423809Y-28704761D01*
X39328571Y-28609523D01*
X39280952Y-28514285D01*
X39233333Y-28323809D01*
X39233333Y-28180952D01*
X39280952Y-27990476D01*
X39328571Y-27895238D01*
X39423809Y-27800000D01*
X39566666Y-27752380D01*
X39661904Y-27752380D01*
X39804761Y-27800000D01*
X39852380Y-27847619D01*
%TO.C,J3*%
X56216666Y-54062380D02*
X56216666Y-54776666D01*
X56169047Y-54919523D01*
X56073809Y-55014761D01*
X55930952Y-55062380D01*
X55835714Y-55062380D01*
X56597619Y-54062380D02*
X57216666Y-54062380D01*
X56883333Y-54443333D01*
X57026190Y-54443333D01*
X57121428Y-54490952D01*
X57169047Y-54538571D01*
X57216666Y-54633809D01*
X57216666Y-54871904D01*
X57169047Y-54967142D01*
X57121428Y-55014761D01*
X57026190Y-55062380D01*
X56740476Y-55062380D01*
X56645238Y-55014761D01*
X56597619Y-54967142D01*
%TO.C,J2*%
X16196666Y-56002380D02*
X16196666Y-56716666D01*
X16149047Y-56859523D01*
X16053809Y-56954761D01*
X15910952Y-57002380D01*
X15815714Y-57002380D01*
X16625238Y-56097619D02*
X16672857Y-56050000D01*
X16768095Y-56002380D01*
X17006190Y-56002380D01*
X17101428Y-56050000D01*
X17149047Y-56097619D01*
X17196666Y-56192857D01*
X17196666Y-56288095D01*
X17149047Y-56430952D01*
X16577619Y-57002380D01*
X17196666Y-57002380D01*
%TO.C,SW1*%
X51289451Y-53775069D02*
X51424138Y-53707726D01*
X51592497Y-53539367D01*
X51626169Y-53438352D01*
X51626169Y-53371008D01*
X51592497Y-53269993D01*
X51525154Y-53202650D01*
X51424138Y-53168978D01*
X51356795Y-53168978D01*
X51255780Y-53202650D01*
X51087421Y-53303665D01*
X50986406Y-53337337D01*
X50919062Y-53337337D01*
X50818047Y-53303665D01*
X50750703Y-53236321D01*
X50717032Y-53135306D01*
X50717032Y-53067963D01*
X50750703Y-52966947D01*
X50919062Y-52798589D01*
X51053749Y-52731245D01*
X51255780Y-52461871D02*
X52131245Y-53000619D01*
X51760856Y-52360856D01*
X52400619Y-52731245D01*
X51861871Y-51855780D01*
X53208741Y-51923123D02*
X52804680Y-52327184D01*
X53006711Y-52125154D02*
X52299604Y-51418047D01*
X52333276Y-51586406D01*
X52333276Y-51721093D01*
X52299604Y-51822108D01*
%TO.C,J4*%
X54516666Y-14502380D02*
X54516666Y-15216666D01*
X54469047Y-15359523D01*
X54373809Y-15454761D01*
X54230952Y-15502380D01*
X54135714Y-15502380D01*
X55421428Y-14835714D02*
X55421428Y-15502380D01*
X55183333Y-14454761D02*
X54945238Y-15169047D01*
X55564285Y-15169047D01*
%TO.C,J5*%
X22427072Y-50548477D02*
X22932148Y-51053553D01*
X22999492Y-51188240D01*
X22999492Y-51322927D01*
X22932148Y-51457614D01*
X22864805Y-51524957D01*
X23100507Y-49875042D02*
X22763790Y-50211759D01*
X23066835Y-50582148D01*
X23066835Y-50514805D01*
X23100507Y-50413790D01*
X23268866Y-50245431D01*
X23369881Y-50211759D01*
X23437225Y-50211759D01*
X23538240Y-50245431D01*
X23706599Y-50413790D01*
X23740270Y-50514805D01*
X23740270Y-50582148D01*
X23706599Y-50683164D01*
X23538240Y-50851522D01*
X23437225Y-50885194D01*
X23369881Y-50885194D01*
%TO.C,J1*%
X14266666Y-15942380D02*
X14266666Y-16656666D01*
X14219047Y-16799523D01*
X14123809Y-16894761D01*
X13980952Y-16942380D01*
X13885714Y-16942380D01*
X15266666Y-16942380D02*
X14695238Y-16942380D01*
X14980952Y-16942380D02*
X14980952Y-15942380D01*
X14885714Y-16085238D01*
X14790476Y-16180476D01*
X14695238Y-16228095D01*
%TO.C,U1*%
X25338095Y-21302380D02*
X25338095Y-22111904D01*
X25385714Y-22207142D01*
X25433333Y-22254761D01*
X25528571Y-22302380D01*
X25719047Y-22302380D01*
X25814285Y-22254761D01*
X25861904Y-22207142D01*
X25909523Y-22111904D01*
X25909523Y-21302380D01*
X26909523Y-22302380D02*
X26338095Y-22302380D01*
X26623809Y-22302380D02*
X26623809Y-21302380D01*
X26528571Y-21445238D01*
X26433333Y-21540476D01*
X26338095Y-21588095D01*
D11*
%TO.C,J3*%
X58610000Y-51550000D02*
X56550000Y-51550000D01*
X58610000Y-17490000D02*
X54490000Y-17490000D01*
X54490000Y-53610000D02*
X54490000Y-17490000D01*
X56550000Y-51550000D02*
X56550000Y-53610000D01*
X56550000Y-53610000D02*
X54490000Y-53610000D01*
X58610000Y-52550000D02*
X58610000Y-53610000D01*
X58610000Y-51550000D02*
X58610000Y-17490000D01*
X58610000Y-53610000D02*
X57550000Y-53610000D01*
%TO.C,J2*%
X53650000Y-58610000D02*
X53650000Y-54490000D01*
X17530000Y-58610000D02*
X17530000Y-57550000D01*
X17530000Y-54490000D02*
X53650000Y-54490000D01*
X19590000Y-58610000D02*
X53650000Y-58610000D01*
X18590000Y-58610000D02*
X17530000Y-58610000D01*
X17530000Y-56550000D02*
X17530000Y-54490000D01*
X19590000Y-56550000D02*
X17530000Y-56550000D01*
X19590000Y-58610000D02*
X19590000Y-56550000D01*
%TO.C,SW1*%
X45409548Y-48240452D02*
X44469096Y-47300000D01*
X46307574Y-49138478D02*
X49942102Y-52773006D01*
X44469096Y-47300000D02*
X45409548Y-46359548D01*
X48188478Y-47257574D02*
X51823006Y-50892102D01*
X49942102Y-52773006D02*
X51823006Y-50892102D01*
X46307574Y-49138478D02*
X48188478Y-47257574D01*
%TO.C,J4*%
X53610000Y-14550000D02*
X53610000Y-16610000D01*
X51550000Y-12490000D02*
X17490000Y-12490000D01*
X51550000Y-12490000D02*
X51550000Y-14550000D01*
X51550000Y-14550000D02*
X53610000Y-14550000D01*
X53610000Y-16610000D02*
X17490000Y-16610000D01*
X17490000Y-12490000D02*
X17490000Y-16610000D01*
X53610000Y-12490000D02*
X53610000Y-13550000D01*
X52550000Y-12490000D02*
X53610000Y-12490000D01*
%TO.C,J5*%
X18579147Y-50621788D02*
X24278427Y-44922507D01*
X20078213Y-52120854D02*
X25777494Y-46421574D01*
X25777494Y-46421574D02*
X24278427Y-44922507D01*
X18621573Y-53577494D02*
X17872040Y-52827961D01*
X19371106Y-52827961D02*
X18621573Y-53577494D01*
X20078213Y-52120854D02*
X18579147Y-50621788D01*
%TO.C,J1*%
X16660000Y-17490000D02*
X16660000Y-53610000D01*
X12540000Y-18550000D02*
X12540000Y-17490000D01*
X12540000Y-17490000D02*
X13600000Y-17490000D01*
X12540000Y-19550000D02*
X14600000Y-19550000D01*
X14600000Y-19550000D02*
X14600000Y-17490000D01*
X14600000Y-17490000D02*
X16660000Y-17490000D01*
X12540000Y-19550000D02*
X12540000Y-53610000D01*
X12540000Y-53610000D02*
X16660000Y-53610000D01*
%TO.C,U1*%
X25940000Y-24190000D02*
X24990000Y-24190000D01*
X44260000Y-24190000D02*
X45210000Y-24190000D01*
X24990000Y-24190000D02*
X24990000Y-25140000D01*
X24990000Y-44410000D02*
X24990000Y-43460000D01*
X45210000Y-24190000D02*
X45210000Y-25140000D01*
X45210000Y-44410000D02*
X45210000Y-43460000D01*
X24990000Y-25140000D02*
X23700000Y-25140000D01*
X25940000Y-44410000D02*
X24990000Y-44410000D01*
X44260000Y-44410000D02*
X45210000Y-44410000D01*
%TD*%
M02*
